<?xml version="1.0" encoding="utf-8" standalone="no"?>
<!DOCTYPE svg PUBLIC "-//W3C//DTD SVG 1.1//EN"
  "http://www.w3.org/Graphics/SVG/1.1/DTD/svg11.dtd">
<svg xmlns:xlink="http://www.w3.org/1999/xlink" width="531.05pt" height="260.374219pt" viewBox="0 0 531.05 260.374219" xmlns="http://www.w3.org/2000/svg" version="1.1">
 <metadata>
  <rdf:RDF xmlns:dc="http://purl.org/dc/elements/1.1/" xmlns:cc="http://creativecommons.org/ns#" xmlns:rdf="http://www.w3.org/1999/02/22-rdf-syntax-ns#">
   <cc:Work>
    <dc:type rdf:resource="http://purl.org/dc/dcmitype/StillImage"/>
    <dc:date>2022-05-09T12:55:07.582697</dc:date>
    <dc:format>image/svg+xml</dc:format>
    <dc:creator>
     <cc:Agent>
      <dc:title>Matplotlib v3.5.0, https://matplotlib.org/</dc:title>
     </cc:Agent>
    </dc:creator>
   </cc:Work>
  </rdf:RDF>
 </metadata>
 <defs>
  <style type="text/css">*{stroke-linejoin: round; stroke-linecap: butt}</style>
 </defs>
 <g id="figure_1">
  <g id="patch_1">
   <path d="M 0 260.374219 
L 531.05 260.374219 
L 531.05 0 
L 0 0 
z
" style="fill: #ffffff"/>
  </g>
  <g id="axes_1">
   <g id="patch_2">
    <path d="M 47.368281 224.64 
L 382.168281 224.64 
L 382.168281 7.2 
L 47.368281 7.2 
z
" style="fill: #ffffff"/>
   </g>
   <g id="matplotlib.axis_1">
    <g id="xtick_1">
     <g id="line2d_1">
      <path d="M 62.586463 224.64 
L 62.586463 7.2 
" clip-path="url(#p5af849a760)" style="fill: none; stroke: #cccccc; stroke-linecap: round"/>
     </g>
     <g id="text_1">
      <text style="fill: #262626; font: 11px 'sans-serif'; text-anchor: middle" x="62.586463" y="236.013594" transform="rotate(-0, 62.586463, 236.013594)">0</text>
     </g>
    </g>
    <g id="xtick_2">
     <g id="line2d_2">
      <path d="M 101.607442 224.64 
L 101.607442 7.2 
" clip-path="url(#p5af849a760)" style="fill: none; stroke: #cccccc; stroke-linecap: round"/>
     </g>
     <g id="text_2">
      <text style="fill: #262626; font: 11px 'sans-serif'; text-anchor: middle" x="101.607442" y="236.013594" transform="rotate(-0, 101.607442, 236.013594)">5</text>
     </g>
    </g>
    <g id="xtick_3">
     <g id="line2d_3">
      <path d="M 140.628421 224.64 
L 140.628421 7.2 
" clip-path="url(#p5af849a760)" style="fill: none; stroke: #cccccc; stroke-linecap: round"/>
     </g>
     <g id="text_3">
      <text style="fill: #262626; font: 11px 'sans-serif'; text-anchor: middle" x="140.628421" y="236.013594" transform="rotate(-0, 140.628421, 236.013594)">10</text>
     </g>
    </g>
    <g id="xtick_4">
     <g id="line2d_4">
      <path d="M 179.6494 224.64 
L 179.6494 7.2 
" clip-path="url(#p5af849a760)" style="fill: none; stroke: #cccccc; stroke-linecap: round"/>
     </g>
     <g id="text_4">
      <text style="fill: #262626; font: 11px 'sans-serif'; text-anchor: middle" x="179.6494" y="236.013594" transform="rotate(-0, 179.6494, 236.013594)">15</text>
     </g>
    </g>
    <g id="xtick_5">
     <g id="line2d_5">
      <path d="M 218.670379 224.64 
L 218.670379 7.2 
" clip-path="url(#p5af849a760)" style="fill: none; stroke: #cccccc; stroke-linecap: round"/>
     </g>
     <g id="text_5">
      <text style="fill: #262626; font: 11px 'sans-serif'; text-anchor: middle" x="218.670379" y="236.013594" transform="rotate(-0, 218.670379, 236.013594)">20</text>
     </g>
    </g>
    <g id="xtick_6">
     <g id="line2d_6">
      <path d="M 257.691358 224.64 
L 257.691358 7.2 
" clip-path="url(#p5af849a760)" style="fill: none; stroke: #cccccc; stroke-linecap: round"/>
     </g>
     <g id="text_6">
      <text style="fill: #262626; font: 11px 'sans-serif'; text-anchor: middle" x="257.691358" y="236.013594" transform="rotate(-0, 257.691358, 236.013594)">25</text>
     </g>
    </g>
    <g id="xtick_7">
     <g id="line2d_7">
      <path d="M 296.712337 224.64 
L 296.712337 7.2 
" clip-path="url(#p5af849a760)" style="fill: none; stroke: #cccccc; stroke-linecap: round"/>
     </g>
     <g id="text_7">
      <text style="fill: #262626; font: 11px 'sans-serif'; text-anchor: middle" x="296.712337" y="236.013594" transform="rotate(-0, 296.712337, 236.013594)">30</text>
     </g>
    </g>
    <g id="xtick_8">
     <g id="line2d_8">
      <path d="M 335.733316 224.64 
L 335.733316 7.2 
" clip-path="url(#p5af849a760)" style="fill: none; stroke: #cccccc; stroke-linecap: round"/>
     </g>
     <g id="text_8">
      <text style="fill: #262626; font: 11px 'sans-serif'; text-anchor: middle" x="335.733316" y="236.013594" transform="rotate(-0, 335.733316, 236.013594)">35</text>
     </g>
    </g>
    <g id="xtick_9">
     <g id="line2d_9">
      <path d="M 374.754295 224.64 
L 374.754295 7.2 
" clip-path="url(#p5af849a760)" style="fill: none; stroke: #cccccc; stroke-linecap: round"/>
     </g>
     <g id="text_9">
      <text style="fill: #262626; font: 11px 'sans-serif'; text-anchor: middle" x="374.754295" y="236.013594" transform="rotate(-0, 374.754295, 236.013594)">40</text>
     </g>
    </g>
    <g id="text_10">
     <text style="fill: #262626; font: 12px 'sans-serif'; text-anchor: middle" x="214.768281" y="250.789219" transform="rotate(-0, 214.768281, 250.789219)">Epoka</text>
    </g>
   </g>
   <g id="matplotlib.axis_2">
    <g id="ytick_1">
     <g id="line2d_10">
      <path d="M 47.368281 223.525435 
L 382.168281 223.525435 
" clip-path="url(#p5af849a760)" style="fill: none; stroke: #cccccc; stroke-linecap: round"/>
     </g>
     <g id="text_11">
      <text style="fill: #262626; font: 11px 'sans-serif'; text-anchor: end" x="43.868281" y="227.462232" transform="rotate(-0, 43.868281, 227.462232)">0.25</text>
     </g>
    </g>
    <g id="ytick_2">
     <g id="line2d_11">
      <path d="M 47.368281 198.441614 
L 382.168281 198.441614 
" clip-path="url(#p5af849a760)" style="fill: none; stroke: #cccccc; stroke-linecap: round"/>
     </g>
     <g id="text_12">
      <text style="fill: #262626; font: 11px 'sans-serif'; text-anchor: end" x="43.868281" y="202.378411" transform="rotate(-0, 43.868281, 202.378411)">0.50</text>
     </g>
    </g>
    <g id="ytick_3">
     <g id="line2d_12">
      <path d="M 47.368281 173.357793 
L 382.168281 173.357793 
" clip-path="url(#p5af849a760)" style="fill: none; stroke: #cccccc; stroke-linecap: round"/>
     </g>
     <g id="text_13">
      <text style="fill: #262626; font: 11px 'sans-serif'; text-anchor: end" x="43.868281" y="177.29459" transform="rotate(-0, 43.868281, 177.29459)">0.75</text>
     </g>
    </g>
    <g id="ytick_4">
     <g id="line2d_13">
      <path d="M 47.368281 148.273971 
L 382.168281 148.273971 
" clip-path="url(#p5af849a760)" style="fill: none; stroke: #cccccc; stroke-linecap: round"/>
     </g>
     <g id="text_14">
      <text style="fill: #262626; font: 11px 'sans-serif'; text-anchor: end" x="43.868281" y="152.210768" transform="rotate(-0, 43.868281, 152.210768)">1.00</text>
     </g>
    </g>
    <g id="ytick_5">
     <g id="line2d_14">
      <path d="M 47.368281 123.19015 
L 382.168281 123.19015 
" clip-path="url(#p5af849a760)" style="fill: none; stroke: #cccccc; stroke-linecap: round"/>
     </g>
     <g id="text_15">
      <text style="fill: #262626; font: 11px 'sans-serif'; text-anchor: end" x="43.868281" y="127.126947" transform="rotate(-0, 43.868281, 127.126947)">1.25</text>
     </g>
    </g>
    <g id="ytick_6">
     <g id="line2d_15">
      <path d="M 47.368281 98.106328 
L 382.168281 98.106328 
" clip-path="url(#p5af849a760)" style="fill: none; stroke: #cccccc; stroke-linecap: round"/>
     </g>
     <g id="text_16">
      <text style="fill: #262626; font: 11px 'sans-serif'; text-anchor: end" x="43.868281" y="102.043125" transform="rotate(-0, 43.868281, 102.043125)">1.50</text>
     </g>
    </g>
    <g id="ytick_7">
     <g id="line2d_16">
      <path d="M 47.368281 73.022507 
L 382.168281 73.022507 
" clip-path="url(#p5af849a760)" style="fill: none; stroke: #cccccc; stroke-linecap: round"/>
     </g>
     <g id="text_17">
      <text style="fill: #262626; font: 11px 'sans-serif'; text-anchor: end" x="43.868281" y="76.959304" transform="rotate(-0, 43.868281, 76.959304)">1.75</text>
     </g>
    </g>
    <g id="ytick_8">
     <g id="line2d_17">
      <path d="M 47.368281 47.938686 
L 382.168281 47.938686 
" clip-path="url(#p5af849a760)" style="fill: none; stroke: #cccccc; stroke-linecap: round"/>
     </g>
     <g id="text_18">
      <text style="fill: #262626; font: 11px 'sans-serif'; text-anchor: end" x="43.868281" y="51.875483" transform="rotate(-0, 43.868281, 51.875483)">2.00</text>
     </g>
    </g>
    <g id="ytick_9">
     <g id="line2d_18">
      <path d="M 47.368281 22.854864 
L 382.168281 22.854864 
" clip-path="url(#p5af849a760)" style="fill: none; stroke: #cccccc; stroke-linecap: round"/>
     </g>
     <g id="text_19">
      <text style="fill: #262626; font: 11px 'sans-serif'; text-anchor: end" x="43.868281" y="26.791661" transform="rotate(-0, 43.868281, 26.791661)">2.25</text>
     </g>
    </g>
    <g id="text_20">
     <text style="fill: #262626; font: 12px 'sans-serif'; text-anchor: middle" x="15.935625" y="115.92" transform="rotate(-90, 15.935625, 115.92)">Wartość funkcji celu</text>
    </g>
   </g>
   <g id="line2d_19">
    <path d="M 62.586463 19.527587 
L 70.390659 38.711314 
L 78.194855 58.738344 
L 85.99905 74.114784 
L 93.803246 88.394691 
L 101.607442 99.839957 
L 109.411638 110.033101 
L 117.215834 119.469981 
L 125.02003 128.508403 
L 132.824225 135.49785 
L 140.628421 141.504159 
L 148.432617 146.854958 
L 156.236813 151.712872 
L 164.041009 156.466706 
L 171.845204 160.579168 
L 179.6494 164.947619 
L 187.453596 167.834777 
L 195.257792 171.209234 
L 203.061988 174.109035 
L 210.866183 177.26622 
L 218.670379 180.146844 
L 226.474575 182.333854 
L 234.278771 185.234875 
L 242.082967 187.316228 
L 249.887162 189.649196 
L 257.691358 191.232827 
L 265.495554 193.322843 
L 273.29975 195.287929 
L 281.103946 197.078777 
L 288.908141 199.106823 
L 296.712337 200.137802 
L 304.516533 201.489026 
L 312.320729 203.751248 
L 320.124925 204.733802 
L 327.92912 205.976852 
L 335.733316 207.197059 
L 343.537512 208.142478 
L 351.341708 209.104668 
L 359.145904 210.14466 
L 366.950099 210.601765 
" clip-path="url(#p5af849a760)" style="fill: none; stroke: #4c72b0; stroke-width: 1.5; stroke-linecap: round"/>
   </g>
   <g id="line2d_20">
    <path d="M 62.586463 17.126286 
L 70.390659 17.440401 
L 78.194855 17.533995 
L 85.99905 17.562373 
L 93.803246 17.570706 
L 101.607442 17.571918 
L 109.411638 17.572772 
L 117.215834 17.572901 
L 125.02003 17.573311 
L 132.824225 17.572792 
L 140.628421 17.572602 
L 148.432617 17.573358 
L 156.236813 17.572267 
L 164.041009 17.572265 
L 171.845204 17.572919 
L 179.6494 17.572677 
L 187.453596 17.572624 
L 195.257792 17.573174 
L 203.061988 17.57318 
L 210.866183 17.572534 
L 218.670379 17.573486 
L 226.474575 17.573242 
L 234.278771 17.574699 
L 242.082967 17.57489 
L 249.887162 17.576485 
L 257.691358 17.581741 
L 265.495554 17.60807 
L 273.29975 19.555673 
L 281.103946 25.870903 
L 288.908141 29.57932 
L 296.712337 38.428041 
L 304.516533 44.892996 
L 312.320729 53.468106 
L 320.124925 65.962421 
L 327.92912 74.771879 
L 335.733316 83.131512 
L 343.537512 91.499901 
L 351.341708 100.112456 
L 359.145904 108.743316 
L 366.950099 117.187474 
" clip-path="url(#p5af849a760)" style="fill: none; stroke: #dd8452; stroke-width: 1.5; stroke-linecap: round"/>
   </g>
   <g id="line2d_21">
    <path d="M 62.586463 17.083636 
L 70.390659 17.435631 
L 78.194855 17.544662 
L 85.99905 17.591447 
L 93.803246 17.668092 
L 101.607442 18.769198 
L 109.411638 25.38853 
L 117.215834 33.424135 
L 125.02003 42.167369 
L 132.824225 52.640613 
L 140.628421 61.640145 
L 148.432617 70.153286 
L 156.236813 78.267602 
L 164.041009 86.532843 
L 171.845204 95.190703 
L 179.6494 102.924252 
L 187.453596 111.126494 
L 195.257792 119.247432 
L 203.061988 125.967018 
L 210.866183 131.365565 
L 218.670379 137.529623 
L 226.474575 142.090823 
L 234.278771 147.131016 
L 242.082967 150.929083 
L 249.887162 154.886482 
L 257.691358 158.228983 
L 265.495554 161.934491 
L 273.29975 164.81848 
L 281.103946 168.050512 
L 288.908141 170.881875 
L 296.712337 173.810241 
L 304.516533 175.868648 
L 312.320729 178.747993 
L 320.124925 180.505594 
L 327.92912 182.929441 
L 335.733316 185.739644 
L 343.537512 187.213197 
L 351.341708 188.999935 
L 359.145904 191.038566 
L 366.950099 192.883055 
" clip-path="url(#p5af849a760)" style="fill: none; stroke: #55a868; stroke-width: 1.5; stroke-linecap: round"/>
   </g>
   <g id="line2d_22">
    <path d="M 62.586463 30.271197 
L 70.390659 62.425614 
L 78.194855 87.73955 
L 85.99905 102.893423 
L 93.803246 115.380917 
L 101.607442 125.828575 
L 109.411638 134.527825 
L 117.215834 141.677189 
L 125.02003 147.603609 
L 132.824225 152.626291 
L 140.628421 157.270651 
L 148.432617 162.025231 
L 156.236813 165.724977 
L 164.041009 169.624949 
L 171.845204 172.947624 
L 179.6494 176.188579 
L 187.453596 179.516758 
L 195.257792 181.417102 
L 203.061988 184.999131 
L 210.866183 187.03954 
L 218.670379 190.162023 
L 226.474575 191.987736 
L 234.278771 194.143099 
L 242.082967 196.134578 
L 249.887162 198.278812 
L 257.691358 200.033328 
L 265.495554 202.222415 
L 273.29975 203.260796 
L 281.103946 204.522337 
L 288.908141 205.687029 
L 296.712337 207.112476 
L 304.516533 208.261798 
L 312.320729 209.581707 
L 320.124925 210.397576 
L 327.92912 211.449993 
L 335.733316 211.921875 
L 343.537512 213.429179 
L 351.341708 213.516755 
L 359.145904 214.579181 
L 366.950099 214.756364 
" clip-path="url(#p5af849a760)" style="fill: none; stroke: #c44e52; stroke-width: 1.5; stroke-linecap: round"/>
   </g>
   <g id="line2d_23">
    <path d="M 62.586463 36.683557 
L 70.390659 74.442848 
L 78.194855 96.741465 
L 85.99905 111.562984 
L 93.803246 122.953259 
L 101.607442 132.256462 
L 109.411638 139.851256 
L 117.215834 146.54939 
L 125.02003 151.699041 
L 132.824225 156.87002 
L 140.628421 160.648796 
L 148.432617 165.015586 
L 156.236813 168.464642 
L 164.041009 172.097433 
L 171.845204 175.380612 
L 179.6494 178.614086 
L 187.453596 181.319286 
L 195.257792 184.056344 
L 203.061988 186.17128 
L 210.866183 188.604458 
L 218.670379 191.236102 
L 226.474575 192.94241 
L 234.278771 194.994506 
L 242.082967 196.575307 
L 249.887162 198.56105 
L 257.691358 200.428496 
L 265.495554 202.252124 
L 273.29975 202.719135 
L 281.103946 204.439358 
L 288.908141 205.323598 
L 296.712337 207.169902 
L 304.516533 207.680619 
L 312.320729 209.19221 
L 320.124925 210.394918 
L 327.92912 210.315344 
L 335.733316 210.931998 
L 343.537512 212.308231 
L 351.341708 212.489071 
L 359.145904 213.497859 
L 366.950099 213.231706 
" clip-path="url(#p5af849a760)" style="fill: none; stroke: #8172b3; stroke-width: 1.5; stroke-linecap: round"/>
   </g>
   <g id="line2d_24">
    <path d="M 62.586463 35.486503 
L 70.390659 73.176623 
L 78.194855 97.076047 
L 85.99905 110.783574 
L 93.803246 121.47204 
L 101.607442 130.366826 
L 109.411638 137.747845 
L 117.215834 144.036352 
L 125.02003 149.216455 
L 132.824225 153.651716 
L 140.628421 158.474849 
L 148.432617 161.579398 
L 156.236813 165.235679 
L 164.041009 169.169289 
L 171.845204 171.671693 
L 179.6494 175.20864 
L 187.453596 178.329714 
L 195.257792 180.401235 
L 203.061988 181.903932 
L 210.866183 185.081021 
L 218.670379 186.493261 
L 226.474575 188.90961 
L 234.278771 190.9586 
L 242.082967 192.401195 
L 249.887162 193.511004 
L 257.691358 195.85322 
L 265.495554 197.228641 
L 273.29975 197.744402 
L 281.103946 199.743088 
L 288.908141 200.342876 
L 296.712337 201.540308 
L 304.516533 202.934597 
L 312.320729 203.37364 
L 320.124925 203.973098 
L 327.92912 205.888331 
L 335.733316 206.360551 
L 343.537512 207.115101 
L 351.341708 207.074229 
L 359.145904 207.534744 
L 366.950099 208.491937 
" clip-path="url(#p5af849a760)" style="fill: none; stroke: #937860; stroke-width: 1.5; stroke-linecap: round"/>
   </g>
   <g id="line2d_25">
    <path d="M 62.586463 51.516622 
L 70.390659 94.344405 
L 78.194855 118.110587 
L 85.99905 133.700527 
L 93.803246 145.16463 
L 101.607442 153.66696 
L 109.411638 159.628281 
L 117.215834 164.95983 
L 125.02003 168.068092 
L 132.824225 171.863771 
L 140.628421 173.783269 
L 148.432617 176.230047 
L 156.236813 177.697541 
L 164.041009 178.933524 
L 171.845204 179.113104 
L 179.6494 180.208708 
L 187.453596 180.957445 
L 195.257792 179.835192 
L 203.061988 181.511064 
L 210.866183 181.83746 
L 218.670379 181.818348 
L 226.474575 181.807806 
L 234.278771 181.777673 
L 242.082967 181.835749 
L 249.887162 181.96516 
L 257.691358 181.649645 
L 265.495554 182.579642 
L 273.29975 182.04237 
L 281.103946 181.804561 
L 288.908141 181.395151 
L 296.712337 183.047126 
L 304.516533 180.781742 
L 312.320729 180.557975 
L 320.124925 180.513493 
L 327.92912 179.016514 
L 335.733316 179.597148 
L 343.537512 179.301994 
L 351.341708 179.349996 
L 359.145904 177.727583 
L 366.950099 177.667048 
" clip-path="url(#p5af849a760)" style="fill: none; stroke: #da8bc3; stroke-width: 1.5; stroke-linecap: round"/>
   </g>
   <g id="patch_3">
    <path d="M 47.368281 224.64 
L 47.368281 7.2 
" style="fill: none; stroke: #cccccc; stroke-linejoin: miter; stroke-linecap: square"/>
   </g>
   <g id="patch_4">
    <path d="M 382.168281 224.64 
L 382.168281 7.2 
" style="fill: none; stroke: #cccccc; stroke-linejoin: miter; stroke-linecap: square"/>
   </g>
   <g id="patch_5">
    <path d="M 47.368281 224.64 
L 382.168281 224.64 
" style="fill: none; stroke: #cccccc; stroke-linejoin: miter; stroke-linecap: square"/>
   </g>
   <g id="patch_6">
    <path d="M 47.368281 7.2 
L 382.168281 7.2 
" style="fill: none; stroke: #cccccc; stroke-linejoin: miter; stroke-linecap: square"/>
   </g>
   <g id="legend_1">
    <g id="line2d_26">
     <path d="M 392.068281 68.102656 
L 403.068281 68.102656 
L 414.068281 68.102656 
" style="fill: none; stroke: #4c72b0; stroke-width: 1.5; stroke-linecap: round"/>
    </g>
    <g id="text_21">
     <text style="fill: #262626; font: 11px 'sans-serif'; text-anchor: start" x="422.868281" y="71.952656" transform="rotate(-0, 422.868281, 71.952656)">xavier uniform</text>
    </g>
    <g id="line2d_27">
     <path d="M 392.068281 83.6625 
L 403.068281 83.6625 
L 414.068281 83.6625 
" style="fill: none; stroke: #dd8452; stroke-width: 1.5; stroke-linecap: round"/>
    </g>
    <g id="text_22">
     <text style="fill: #262626; font: 11px 'sans-serif'; text-anchor: start" x="422.868281" y="87.5125" transform="rotate(-0, 422.868281, 87.5125)">xavier uniform M 1</text>
    </g>
    <g id="line2d_28">
     <path d="M 392.068281 99.222344 
L 403.068281 99.222344 
L 414.068281 99.222344 
" style="fill: none; stroke: #55a868; stroke-width: 1.5; stroke-linecap: round"/>
    </g>
    <g id="text_23">
     <text style="fill: #262626; font: 11px 'sans-serif'; text-anchor: start" x="422.868281" y="103.072344" transform="rotate(-0, 422.868281, 103.072344)">xavier uniform M 2</text>
    </g>
    <g id="line2d_29">
     <path d="M 392.068281 114.782187 
L 403.068281 114.782187 
L 414.068281 114.782187 
" style="fill: none; stroke: #c44e52; stroke-width: 1.5; stroke-linecap: round"/>
    </g>
    <g id="text_24">
     <text style="fill: #262626; font: 11px 'sans-serif'; text-anchor: start" x="422.868281" y="118.632187" transform="rotate(-0, 422.868281, 118.632187)">xavier uniform M 10</text>
    </g>
    <g id="line2d_30">
     <path d="M 392.068281 130.342031 
L 403.068281 130.342031 
L 414.068281 130.342031 
" style="fill: none; stroke: #8172b3; stroke-width: 1.5; stroke-linecap: round"/>
    </g>
    <g id="text_25">
     <text style="fill: #262626; font: 11px 'sans-serif'; text-anchor: start" x="422.868281" y="134.192031" transform="rotate(-0, 422.868281, 134.192031)">xavier uniform M 14</text>
    </g>
    <g id="line2d_31">
     <path d="M 392.068281 145.901875 
L 403.068281 145.901875 
L 414.068281 145.901875 
" style="fill: none; stroke: #937860; stroke-width: 1.5; stroke-linecap: round"/>
    </g>
    <g id="text_26">
     <text style="fill: #262626; font: 11px 'sans-serif'; text-anchor: start" x="422.868281" y="149.751875" transform="rotate(-0, 422.868281, 149.751875)">xavier uniform M 20</text>
    </g>
    <g id="line2d_32">
     <path d="M 392.068281 161.595781 
L 403.068281 161.595781 
L 414.068281 161.595781 
" style="fill: none; stroke: #da8bc3; stroke-width: 1.5; stroke-linecap: round"/>
    </g>
    <g id="text_27">
     <text style="fill: #262626; font: 11px 'sans-serif'; text-anchor: start" x="422.868281" y="165.445781" transform="rotate(-0, 422.868281, 165.445781)">kaiming uniform</text>
    </g>
   </g>
  </g>
 </g>
 <defs>
  <clipPath id="p5af849a760">
   <rect x="47.368281" y="7.2" width="334.8" height="217.44"/>
  </clipPath>
 </defs>
</svg>
