<?xml version="1.0" encoding="utf-8" standalone="no"?>
<!DOCTYPE svg PUBLIC "-//W3C//DTD SVG 1.1//EN"
  "http://www.w3.org/Graphics/SVG/1.1/DTD/svg11.dtd">
<svg xmlns:xlink="http://www.w3.org/1999/xlink" width="379.896875pt" height="257.630625pt" viewBox="0 0 379.896875 257.630625" xmlns="http://www.w3.org/2000/svg" version="1.1">
 <metadata>
  <rdf:RDF xmlns:dc="http://purl.org/dc/elements/1.1/" xmlns:cc="http://creativecommons.org/ns#" xmlns:rdf="http://www.w3.org/1999/02/22-rdf-syntax-ns#">
   <cc:Work>
    <dc:type rdf:resource="http://purl.org/dc/dcmitype/StillImage"/>
    <dc:date>2022-03-30T21:49:43.804525</dc:date>
    <dc:format>image/svg+xml</dc:format>
    <dc:creator>
     <cc:Agent>
      <dc:title>Matplotlib v3.5.0, https://matplotlib.org/</dc:title>
     </cc:Agent>
    </dc:creator>
   </cc:Work>
  </rdf:RDF>
 </metadata>
 <defs>
  <style type="text/css">*{stroke-linejoin: round; stroke-linecap: butt}</style>
 </defs>
 <g id="figure_1">
  <g id="patch_1">
   <path d="M 0 257.630625 
L 379.896875 257.630625 
L 379.896875 0 
L 0 0 
z
" style="fill: #ffffff"/>
  </g>
  <g id="axes_1">
   <g id="patch_2">
    <path d="M 37.896875 224.64 
L 372.696875 224.64 
L 372.696875 7.2 
L 37.896875 7.2 
z
" style="fill: #ffffff"/>
   </g>
   <g id="matplotlib.axis_1">
    <g id="xtick_1">
     <g id="line2d_1">
      <path d="M 53.115057 224.64 
L 53.115057 7.2 
" clip-path="url(#pce71dd9906)" style="fill: none; stroke: #cccccc; stroke-width: 0.8; stroke-linecap: round"/>
     </g>
     <g id="line2d_2"/>
     <g id="text_1">
      <!-- 0 -->
      <g style="fill: #262626" transform="translate(50.334588 235.297812)scale(0.1 -0.1)">
       <defs>
        <path id="ArialMT-30" d="M 266 2259 
Q 266 3072 433 3567 
Q 600 4063 929 4331 
Q 1259 4600 1759 4600 
Q 2128 4600 2406 4451 
Q 2684 4303 2865 4023 
Q 3047 3744 3150 3342 
Q 3253 2941 3253 2259 
Q 3253 1453 3087 958 
Q 2922 463 2592 192 
Q 2263 -78 1759 -78 
Q 1097 -78 719 397 
Q 266 969 266 2259 
z
M 844 2259 
Q 844 1131 1108 757 
Q 1372 384 1759 384 
Q 2147 384 2411 759 
Q 2675 1134 2675 2259 
Q 2675 3391 2411 3762 
Q 2147 4134 1753 4134 
Q 1366 4134 1134 3806 
Q 844 3388 844 2259 
z
" transform="scale(0.015625)"/>
       </defs>
       <use xlink:href="#ArialMT-30"/>
      </g>
     </g>
    </g>
    <g id="xtick_2">
     <g id="line2d_3">
      <path d="M 91.351695 224.64 
L 91.351695 7.2 
" clip-path="url(#pce71dd9906)" style="fill: none; stroke: #cccccc; stroke-width: 0.8; stroke-linecap: round"/>
     </g>
     <g id="line2d_4"/>
     <g id="text_2">
      <!-- 25 -->
      <g style="fill: #262626" transform="translate(85.790757 235.297812)scale(0.1 -0.1)">
       <defs>
        <path id="ArialMT-32" d="M 3222 541 
L 3222 0 
L 194 0 
Q 188 203 259 391 
Q 375 700 629 1000 
Q 884 1300 1366 1694 
Q 2113 2306 2375 2664 
Q 2638 3022 2638 3341 
Q 2638 3675 2398 3904 
Q 2159 4134 1775 4134 
Q 1369 4134 1125 3890 
Q 881 3647 878 3216 
L 300 3275 
Q 359 3922 746 4261 
Q 1134 4600 1788 4600 
Q 2447 4600 2831 4234 
Q 3216 3869 3216 3328 
Q 3216 3053 3103 2787 
Q 2991 2522 2730 2228 
Q 2469 1934 1863 1422 
Q 1356 997 1212 845 
Q 1069 694 975 541 
L 3222 541 
z
" transform="scale(0.015625)"/>
        <path id="ArialMT-35" d="M 266 1200 
L 856 1250 
Q 922 819 1161 601 
Q 1400 384 1738 384 
Q 2144 384 2425 690 
Q 2706 997 2706 1503 
Q 2706 1984 2436 2262 
Q 2166 2541 1728 2541 
Q 1456 2541 1237 2417 
Q 1019 2294 894 2097 
L 366 2166 
L 809 4519 
L 3088 4519 
L 3088 3981 
L 1259 3981 
L 1013 2750 
Q 1425 3038 1878 3038 
Q 2478 3038 2890 2622 
Q 3303 2206 3303 1553 
Q 3303 931 2941 478 
Q 2500 -78 1738 -78 
Q 1113 -78 717 272 
Q 322 622 266 1200 
z
" transform="scale(0.015625)"/>
       </defs>
       <use xlink:href="#ArialMT-32"/>
       <use xlink:href="#ArialMT-35" x="55.615234"/>
      </g>
     </g>
    </g>
    <g id="xtick_3">
     <g id="line2d_5">
      <path d="M 129.588332 224.64 
L 129.588332 7.2 
" clip-path="url(#pce71dd9906)" style="fill: none; stroke: #cccccc; stroke-width: 0.8; stroke-linecap: round"/>
     </g>
     <g id="line2d_6"/>
     <g id="text_3">
      <!-- 50 -->
      <g style="fill: #262626" transform="translate(124.027395 235.297812)scale(0.1 -0.1)">
       <use xlink:href="#ArialMT-35"/>
       <use xlink:href="#ArialMT-30" x="55.615234"/>
      </g>
     </g>
    </g>
    <g id="xtick_4">
     <g id="line2d_7">
      <path d="M 167.82497 224.64 
L 167.82497 7.2 
" clip-path="url(#pce71dd9906)" style="fill: none; stroke: #cccccc; stroke-width: 0.8; stroke-linecap: round"/>
     </g>
     <g id="line2d_8"/>
     <g id="text_4">
      <!-- 75 -->
      <g style="fill: #262626" transform="translate(162.264033 235.297812)scale(0.1 -0.1)">
       <defs>
        <path id="ArialMT-37" d="M 303 3981 
L 303 4522 
L 3269 4522 
L 3269 4084 
Q 2831 3619 2401 2847 
Q 1972 2075 1738 1259 
Q 1569 684 1522 0 
L 944 0 
Q 953 541 1156 1306 
Q 1359 2072 1739 2783 
Q 2119 3494 2547 3981 
L 303 3981 
z
" transform="scale(0.015625)"/>
       </defs>
       <use xlink:href="#ArialMT-37"/>
       <use xlink:href="#ArialMT-35" x="55.615234"/>
      </g>
     </g>
    </g>
    <g id="xtick_5">
     <g id="line2d_9">
      <path d="M 206.061608 224.64 
L 206.061608 7.2 
" clip-path="url(#pce71dd9906)" style="fill: none; stroke: #cccccc; stroke-width: 0.8; stroke-linecap: round"/>
     </g>
     <g id="line2d_10"/>
     <g id="text_5">
      <!-- 100 -->
      <g style="fill: #262626" transform="translate(197.720202 235.297812)scale(0.1 -0.1)">
       <defs>
        <path id="ArialMT-31" d="M 2384 0 
L 1822 0 
L 1822 3584 
Q 1619 3391 1289 3197 
Q 959 3003 697 2906 
L 697 3450 
Q 1169 3672 1522 3987 
Q 1875 4303 2022 4600 
L 2384 4600 
L 2384 0 
z
" transform="scale(0.015625)"/>
       </defs>
       <use xlink:href="#ArialMT-31"/>
       <use xlink:href="#ArialMT-30" x="55.615234"/>
       <use xlink:href="#ArialMT-30" x="111.230469"/>
      </g>
     </g>
    </g>
    <g id="xtick_6">
     <g id="line2d_11">
      <path d="M 244.298245 224.64 
L 244.298245 7.2 
" clip-path="url(#pce71dd9906)" style="fill: none; stroke: #cccccc; stroke-width: 0.8; stroke-linecap: round"/>
     </g>
     <g id="line2d_12"/>
     <g id="text_6">
      <!-- 125 -->
      <g style="fill: #262626" transform="translate(235.956839 235.297812)scale(0.1 -0.1)">
       <use xlink:href="#ArialMT-31"/>
       <use xlink:href="#ArialMT-32" x="55.615234"/>
       <use xlink:href="#ArialMT-35" x="111.230469"/>
      </g>
     </g>
    </g>
    <g id="xtick_7">
     <g id="line2d_13">
      <path d="M 282.534883 224.64 
L 282.534883 7.2 
" clip-path="url(#pce71dd9906)" style="fill: none; stroke: #cccccc; stroke-width: 0.8; stroke-linecap: round"/>
     </g>
     <g id="line2d_14"/>
     <g id="text_7">
      <!-- 150 -->
      <g style="fill: #262626" transform="translate(274.193477 235.297812)scale(0.1 -0.1)">
       <use xlink:href="#ArialMT-31"/>
       <use xlink:href="#ArialMT-35" x="55.615234"/>
       <use xlink:href="#ArialMT-30" x="111.230469"/>
      </g>
     </g>
    </g>
    <g id="xtick_8">
     <g id="line2d_15">
      <path d="M 320.771521 224.64 
L 320.771521 7.2 
" clip-path="url(#pce71dd9906)" style="fill: none; stroke: #cccccc; stroke-width: 0.8; stroke-linecap: round"/>
     </g>
     <g id="line2d_16"/>
     <g id="text_8">
      <!-- 175 -->
      <g style="fill: #262626" transform="translate(312.430115 235.297812)scale(0.1 -0.1)">
       <use xlink:href="#ArialMT-31"/>
       <use xlink:href="#ArialMT-37" x="55.615234"/>
       <use xlink:href="#ArialMT-35" x="111.230469"/>
      </g>
     </g>
    </g>
    <g id="xtick_9">
     <g id="line2d_17">
      <path d="M 359.008159 224.64 
L 359.008159 7.2 
" clip-path="url(#pce71dd9906)" style="fill: none; stroke: #cccccc; stroke-width: 0.8; stroke-linecap: round"/>
     </g>
     <g id="line2d_18"/>
     <g id="text_9">
      <!-- 200 -->
      <g style="fill: #262626" transform="translate(350.666752 235.297812)scale(0.1 -0.1)">
       <use xlink:href="#ArialMT-32"/>
       <use xlink:href="#ArialMT-30" x="55.615234"/>
       <use xlink:href="#ArialMT-30" x="111.230469"/>
      </g>
     </g>
    </g>
    <g id="text_10">
     <!-- Epoka -->
     <g style="fill: #262626" transform="translate(191.120313 248.443125)scale(0.1 -0.1)">
      <defs>
       <path id="ArialMT-45" d="M 506 0 
L 506 4581 
L 3819 4581 
L 3819 4041 
L 1113 4041 
L 1113 2638 
L 3647 2638 
L 3647 2100 
L 1113 2100 
L 1113 541 
L 3925 541 
L 3925 0 
L 506 0 
z
" transform="scale(0.015625)"/>
       <path id="ArialMT-70" d="M 422 -1272 
L 422 3319 
L 934 3319 
L 934 2888 
Q 1116 3141 1344 3267 
Q 1572 3394 1897 3394 
Q 2322 3394 2647 3175 
Q 2972 2956 3137 2557 
Q 3303 2159 3303 1684 
Q 3303 1175 3120 767 
Q 2938 359 2589 142 
Q 2241 -75 1856 -75 
Q 1575 -75 1351 44 
Q 1128 163 984 344 
L 984 -1272 
L 422 -1272 
z
M 931 1641 
Q 931 1000 1190 694 
Q 1450 388 1819 388 
Q 2194 388 2461 705 
Q 2728 1022 2728 1688 
Q 2728 2322 2467 2637 
Q 2206 2953 1844 2953 
Q 1484 2953 1207 2617 
Q 931 2281 931 1641 
z
" transform="scale(0.015625)"/>
       <path id="ArialMT-6f" d="M 213 1659 
Q 213 2581 725 3025 
Q 1153 3394 1769 3394 
Q 2453 3394 2887 2945 
Q 3322 2497 3322 1706 
Q 3322 1066 3130 698 
Q 2938 331 2570 128 
Q 2203 -75 1769 -75 
Q 1072 -75 642 372 
Q 213 819 213 1659 
z
M 791 1659 
Q 791 1022 1069 705 
Q 1347 388 1769 388 
Q 2188 388 2466 706 
Q 2744 1025 2744 1678 
Q 2744 2294 2464 2611 
Q 2184 2928 1769 2928 
Q 1347 2928 1069 2612 
Q 791 2297 791 1659 
z
" transform="scale(0.015625)"/>
       <path id="ArialMT-6b" d="M 425 0 
L 425 4581 
L 988 4581 
L 988 1969 
L 2319 3319 
L 3047 3319 
L 1778 2088 
L 3175 0 
L 2481 0 
L 1384 1697 
L 988 1316 
L 988 0 
L 425 0 
z
" transform="scale(0.015625)"/>
       <path id="ArialMT-61" d="M 2588 409 
Q 2275 144 1986 34 
Q 1697 -75 1366 -75 
Q 819 -75 525 192 
Q 231 459 231 875 
Q 231 1119 342 1320 
Q 453 1522 633 1644 
Q 813 1766 1038 1828 
Q 1203 1872 1538 1913 
Q 2219 1994 2541 2106 
Q 2544 2222 2544 2253 
Q 2544 2597 2384 2738 
Q 2169 2928 1744 2928 
Q 1347 2928 1158 2789 
Q 969 2650 878 2297 
L 328 2372 
Q 403 2725 575 2942 
Q 747 3159 1072 3276 
Q 1397 3394 1825 3394 
Q 2250 3394 2515 3294 
Q 2781 3194 2906 3042 
Q 3031 2891 3081 2659 
Q 3109 2516 3109 2141 
L 3109 1391 
Q 3109 606 3145 398 
Q 3181 191 3288 0 
L 2700 0 
Q 2613 175 2588 409 
z
M 2541 1666 
Q 2234 1541 1622 1453 
Q 1275 1403 1131 1340 
Q 988 1278 909 1158 
Q 831 1038 831 891 
Q 831 666 1001 516 
Q 1172 366 1500 366 
Q 1825 366 2078 508 
Q 2331 650 2450 897 
Q 2541 1088 2541 1459 
L 2541 1666 
z
" transform="scale(0.015625)"/>
      </defs>
      <use xlink:href="#ArialMT-45"/>
      <use xlink:href="#ArialMT-70" x="66.699219"/>
      <use xlink:href="#ArialMT-6f" x="122.314453"/>
      <use xlink:href="#ArialMT-6b" x="177.929688"/>
      <use xlink:href="#ArialMT-61" x="227.929688"/>
     </g>
    </g>
   </g>
   <g id="matplotlib.axis_2">
    <g id="ytick_1">
     <g id="line2d_19">
      <path d="M 37.896875 216.443418 
L 372.696875 216.443418 
" clip-path="url(#pce71dd9906)" style="fill: none; stroke: #cccccc; stroke-width: 0.8; stroke-linecap: round"/>
     </g>
     <g id="line2d_20"/>
     <g id="text_11">
      <!-- 0.0 -->
      <g style="fill: #262626" transform="translate(20.496875 220.022324)scale(0.1 -0.1)">
       <defs>
        <path id="ArialMT-2e" d="M 581 0 
L 581 641 
L 1222 641 
L 1222 0 
L 581 0 
z
" transform="scale(0.015625)"/>
       </defs>
       <use xlink:href="#ArialMT-30"/>
       <use xlink:href="#ArialMT-2e" x="55.615234"/>
       <use xlink:href="#ArialMT-30" x="83.398438"/>
      </g>
     </g>
    </g>
    <g id="ytick_2">
     <g id="line2d_21">
      <path d="M 37.896875 173.213323 
L 372.696875 173.213323 
" clip-path="url(#pce71dd9906)" style="fill: none; stroke: #cccccc; stroke-width: 0.8; stroke-linecap: round"/>
     </g>
     <g id="line2d_22"/>
     <g id="text_12">
      <!-- 0.5 -->
      <g style="fill: #262626" transform="translate(20.496875 176.792229)scale(0.1 -0.1)">
       <use xlink:href="#ArialMT-30"/>
       <use xlink:href="#ArialMT-2e" x="55.615234"/>
       <use xlink:href="#ArialMT-35" x="83.398438"/>
      </g>
     </g>
    </g>
    <g id="ytick_3">
     <g id="line2d_23">
      <path d="M 37.896875 129.983228 
L 372.696875 129.983228 
" clip-path="url(#pce71dd9906)" style="fill: none; stroke: #cccccc; stroke-width: 0.8; stroke-linecap: round"/>
     </g>
     <g id="line2d_24"/>
     <g id="text_13">
      <!-- 1.0 -->
      <g style="fill: #262626" transform="translate(20.496875 133.562134)scale(0.1 -0.1)">
       <use xlink:href="#ArialMT-31"/>
       <use xlink:href="#ArialMT-2e" x="55.615234"/>
       <use xlink:href="#ArialMT-30" x="83.398438"/>
      </g>
     </g>
    </g>
    <g id="ytick_4">
     <g id="line2d_25">
      <path d="M 37.896875 86.753133 
L 372.696875 86.753133 
" clip-path="url(#pce71dd9906)" style="fill: none; stroke: #cccccc; stroke-width: 0.8; stroke-linecap: round"/>
     </g>
     <g id="line2d_26"/>
     <g id="text_14">
      <!-- 1.5 -->
      <g style="fill: #262626" transform="translate(20.496875 90.332039)scale(0.1 -0.1)">
       <use xlink:href="#ArialMT-31"/>
       <use xlink:href="#ArialMT-2e" x="55.615234"/>
       <use xlink:href="#ArialMT-35" x="83.398438"/>
      </g>
     </g>
    </g>
    <g id="ytick_5">
     <g id="line2d_27">
      <path d="M 37.896875 43.523038 
L 372.696875 43.523038 
" clip-path="url(#pce71dd9906)" style="fill: none; stroke: #cccccc; stroke-width: 0.8; stroke-linecap: round"/>
     </g>
     <g id="line2d_28"/>
     <g id="text_15">
      <!-- 2.0 -->
      <g style="fill: #262626" transform="translate(20.496875 47.101945)scale(0.1 -0.1)">
       <use xlink:href="#ArialMT-32"/>
       <use xlink:href="#ArialMT-2e" x="55.615234"/>
       <use xlink:href="#ArialMT-30" x="83.398438"/>
      </g>
     </g>
    </g>
    <g id="text_16">
     <!-- Wartość błędu -->
     <g style="fill: #262626" transform="translate(14.396875 147.68875)rotate(-90)scale(0.1 -0.1)">
      <defs>
       <path id="ArialMT-57" d="M 1294 0 
L 78 4581 
L 700 4581 
L 1397 1578 
Q 1509 1106 1591 641 
Q 1766 1375 1797 1488 
L 2669 4581 
L 3400 4581 
L 4056 2263 
Q 4303 1400 4413 641 
Q 4500 1075 4641 1638 
L 5359 4581 
L 5969 4581 
L 4713 0 
L 4128 0 
L 3163 3491 
Q 3041 3928 3019 4028 
Q 2947 3713 2884 3491 
L 1913 0 
L 1294 0 
z
" transform="scale(0.015625)"/>
       <path id="ArialMT-72" d="M 416 0 
L 416 3319 
L 922 3319 
L 922 2816 
Q 1116 3169 1280 3281 
Q 1444 3394 1641 3394 
Q 1925 3394 2219 3213 
L 2025 2691 
Q 1819 2813 1613 2813 
Q 1428 2813 1281 2702 
Q 1134 2591 1072 2394 
Q 978 2094 978 1738 
L 978 0 
L 416 0 
z
" transform="scale(0.015625)"/>
       <path id="ArialMT-74" d="M 1650 503 
L 1731 6 
Q 1494 -44 1306 -44 
Q 1000 -44 831 53 
Q 663 150 594 308 
Q 525 466 525 972 
L 525 2881 
L 113 2881 
L 113 3319 
L 525 3319 
L 525 4141 
L 1084 4478 
L 1084 3319 
L 1650 3319 
L 1650 2881 
L 1084 2881 
L 1084 941 
Q 1084 700 1114 631 
Q 1144 563 1211 522 
Q 1278 481 1403 481 
Q 1497 481 1650 503 
z
" transform="scale(0.015625)"/>
       <path id="ArialMT-15b" d="M 197 991 
L 753 1078 
Q 800 744 1014 566 
Q 1228 388 1613 388 
Q 2000 388 2187 545 
Q 2375 703 2375 916 
Q 2375 1106 2209 1216 
Q 2094 1291 1634 1406 
Q 1016 1563 777 1677 
Q 538 1791 414 1992 
Q 291 2194 291 2438 
Q 291 2659 392 2848 
Q 494 3038 669 3163 
Q 800 3259 1026 3326 
Q 1253 3394 1513 3394 
Q 1903 3394 2198 3281 
Q 2494 3169 2634 2976 
Q 2775 2784 2828 2463 
L 2278 2388 
Q 2241 2644 2061 2787 
Q 1881 2931 1553 2931 
Q 1166 2931 1000 2803 
Q 834 2675 834 2503 
Q 834 2394 903 2306 
Q 972 2216 1119 2156 
Q 1203 2125 1616 2013 
Q 2213 1853 2448 1751 
Q 2684 1650 2818 1456 
Q 2953 1263 2953 975 
Q 2953 694 2789 445 
Q 2625 197 2315 61 
Q 2006 -75 1616 -75 
Q 969 -75 630 194 
Q 291 463 197 991 
z
M 1231 3731 
L 1647 4606 
L 2384 4606 
L 1697 3731 
L 1231 3731 
z
" transform="scale(0.015625)"/>
       <path id="ArialMT-107" d="M 2588 1216 
L 3141 1144 
Q 3050 572 2676 248 
Q 2303 -75 1759 -75 
Q 1078 -75 664 370 
Q 250 816 250 1647 
Q 250 2184 428 2587 
Q 606 2991 970 3192 
Q 1334 3394 1763 3394 
Q 2303 3394 2647 3120 
Q 2991 2847 3088 2344 
L 2541 2259 
Q 2463 2594 2264 2762 
Q 2066 2931 1784 2931 
Q 1359 2931 1093 2626 
Q 828 2322 828 1663 
Q 828 994 1084 691 
Q 1341 388 1753 388 
Q 2084 388 2306 591 
Q 2528 794 2588 1216 
z
M 1325 3731 
L 1741 4606 
L 2478 4606 
L 1791 3731 
L 1325 3731 
z
" transform="scale(0.015625)"/>
       <path id="ArialMT-20" transform="scale(0.015625)"/>
       <path id="ArialMT-62" d="M 941 0 
L 419 0 
L 419 4581 
L 981 4581 
L 981 2947 
Q 1338 3394 1891 3394 
Q 2197 3394 2470 3270 
Q 2744 3147 2920 2923 
Q 3097 2700 3197 2384 
Q 3297 2069 3297 1709 
Q 3297 856 2875 390 
Q 2453 -75 1863 -75 
Q 1275 -75 941 416 
L 941 0 
z
M 934 1684 
Q 934 1088 1097 822 
Q 1363 388 1816 388 
Q 2184 388 2453 708 
Q 2722 1028 2722 1663 
Q 2722 2313 2464 2622 
Q 2206 2931 1841 2931 
Q 1472 2931 1203 2611 
Q 934 2291 934 1684 
z
" transform="scale(0.015625)"/>
       <path id="ArialMT-142" d="M 416 1794 
L 9 1450 
L 9 1944 
L 416 2288 
L 416 4581 
L 975 4581 
L 975 2763 
L 1397 3122 
L 1397 2631 
L 975 2272 
L 975 0 
L 416 0 
L 416 1794 
z
" transform="scale(0.015625)"/>
       <path id="ArialMT-119" d="M 2694 1069 
L 3275 997 
Q 3138 488 2766 206 
Q 2394 -75 1816 -75 
Q 1088 -75 661 373 
Q 234 822 234 1631 
Q 234 2469 665 2931 
Q 1097 3394 1784 3394 
Q 2450 3394 2872 2941 
Q 3294 2488 3294 1666 
Q 3294 1616 3291 1516 
L 816 1516 
Q 847 969 1125 678 
Q 1403 388 1819 388 
Q 2128 388 2347 550 
Q 2566 713 2694 1069 
z
M 847 1978 
L 2700 1978 
Q 2663 2397 2488 2606 
Q 2219 2931 1791 2931 
Q 1403 2931 1139 2672 
Q 875 2413 847 1978 
z
M 2297 0 
Q 2119 -109 2020 -270 
Q 1922 -431 1922 -597 
Q 1922 -728 1994 -818 
Q 2066 -909 2228 -909 
Q 2300 -909 2375 -889 
Q 2450 -869 2513 -834 
L 2513 -1234 
Q 2284 -1344 2088 -1344 
Q 1928 -1344 1809 -1298 
Q 1691 -1253 1611 -1173 
Q 1531 -1094 1492 -991 
Q 1453 -888 1453 -769 
Q 1453 -569 1565 -367 
Q 1678 -166 1884 0 
L 2297 0 
z
" transform="scale(0.015625)"/>
       <path id="ArialMT-64" d="M 2575 0 
L 2575 419 
Q 2259 -75 1647 -75 
Q 1250 -75 917 144 
Q 584 363 401 755 
Q 219 1147 219 1656 
Q 219 2153 384 2558 
Q 550 2963 881 3178 
Q 1213 3394 1622 3394 
Q 1922 3394 2156 3267 
Q 2391 3141 2538 2938 
L 2538 4581 
L 3097 4581 
L 3097 0 
L 2575 0 
z
M 797 1656 
Q 797 1019 1065 703 
Q 1334 388 1700 388 
Q 2069 388 2326 689 
Q 2584 991 2584 1609 
Q 2584 2291 2321 2609 
Q 2059 2928 1675 2928 
Q 1300 2928 1048 2622 
Q 797 2316 797 1656 
z
" transform="scale(0.015625)"/>
       <path id="ArialMT-75" d="M 2597 0 
L 2597 488 
Q 2209 -75 1544 -75 
Q 1250 -75 995 37 
Q 741 150 617 320 
Q 494 491 444 738 
Q 409 903 409 1263 
L 409 3319 
L 972 3319 
L 972 1478 
Q 972 1038 1006 884 
Q 1059 663 1231 536 
Q 1403 409 1656 409 
Q 1909 409 2131 539 
Q 2353 669 2445 892 
Q 2538 1116 2538 1541 
L 2538 3319 
L 3100 3319 
L 3100 0 
L 2597 0 
z
" transform="scale(0.015625)"/>
      </defs>
      <use xlink:href="#ArialMT-57"/>
      <use xlink:href="#ArialMT-61" x="90.634766"/>
      <use xlink:href="#ArialMT-72" x="146.25"/>
      <use xlink:href="#ArialMT-74" x="179.550781"/>
      <use xlink:href="#ArialMT-6f" x="207.333984"/>
      <use xlink:href="#ArialMT-15b" x="262.949219"/>
      <use xlink:href="#ArialMT-107" x="312.949219"/>
      <use xlink:href="#ArialMT-20" x="362.949219"/>
      <use xlink:href="#ArialMT-62" x="390.732422"/>
      <use xlink:href="#ArialMT-142" x="446.347656"/>
      <use xlink:href="#ArialMT-119" x="468.564453"/>
      <use xlink:href="#ArialMT-64" x="524.179688"/>
      <use xlink:href="#ArialMT-75" x="579.794922"/>
     </g>
    </g>
   </g>
   <g id="line2d_29">
    <path d="M 53.115057 17.244799 
L 54.644522 18.961066 
L 56.173988 24.739101 
L 57.703453 32.410494 
L 60.762384 44.930395 
L 68.409712 73.956989 
L 69.939177 79.074145 
L 76.057039 96.35756 
L 80.645436 106.633953 
L 82.174901 109.464091 
L 83.704367 112.896266 
L 86.763298 117.943033 
L 88.292764 121.058695 
L 92.88116 128.080502 
L 95.940091 132.397275 
L 97.469557 133.91285 
L 100.528488 138.408254 
L 102.057953 139.580357 
L 103.587419 141.595352 
L 105.116884 143.138015 
L 106.64635 144.869557 
L 108.175815 146.31671 
L 109.705281 147.458876 
L 112.764212 150.841271 
L 115.823143 153.016911 
L 118.882074 155.81247 
L 120.411539 156.618429 
L 124.999936 159.84995 
L 126.529401 160.375484 
L 128.058867 161.269189 
L 129.588332 162.406685 
L 131.117798 162.804506 
L 132.647263 163.813461 
L 135.706194 165.213568 
L 138.765125 165.885382 
L 140.294591 166.91111 
L 141.824056 167.191699 
L 143.353522 167.895451 
L 144.882987 168.181692 
L 146.412453 168.250202 
L 147.941918 168.955201 
L 149.471384 169.3949 
L 151.000849 169.457133 
L 152.530315 169.954509 
L 154.05978 169.821854 
L 157.118711 170.973527 
L 158.648177 170.830175 
L 160.177642 171.191214 
L 163.236573 171.178029 
L 164.766039 171.484657 
L 166.295505 170.871303 
L 167.82497 171.82848 
L 169.354436 171.795335 
L 170.883901 171.246964 
L 172.413367 171.969699 
L 173.942832 171.689805 
L 175.472298 172.137857 
L 177.001763 172.207456 
L 178.531229 171.734305 
L 180.060694 172.314952 
L 181.59016 172.492412 
L 184.649091 172.002266 
L 186.178556 172.054186 
L 187.708022 172.39375 
L 189.237487 171.762061 
L 190.766953 171.747376 
L 192.296418 171.24199 
L 195.355349 171.29469 
L 198.41428 170.463089 
L 199.943746 169.414017 
L 203.002677 175.51596 
L 204.532142 176.162896 
L 206.061608 175.624038 
L 207.591073 175.872902 
L 209.120539 175.50248 
L 210.650004 174.47009 
L 212.17947 177.928274 
L 213.708935 178.957388 
L 215.238401 178.166484 
L 216.767866 178.876461 
L 218.297332 177.751232 
L 219.826797 182.339788 
L 221.356263 186.437756 
L 222.885728 187.16669 
L 224.415194 186.736591 
L 225.944659 186.795804 
L 227.474125 186.359497 
L 229.00359 188.240294 
L 230.533056 188.79134 
L 232.062521 189.013916 
L 233.591987 188.303013 
L 235.121452 187.351766 
L 236.650918 190.373001 
L 238.180383 190.53435 
L 239.709849 192.534672 
L 241.239314 194.835937 
L 242.76878 196.231885 
L 244.298245 196.76096 
L 245.827711 197.055211 
L 247.357177 196.732608 
L 250.416108 197.046049 
L 251.945573 196.570298 
L 253.475039 195.749737 
L 255.004504 197.679984 
L 256.53397 198.707144 
L 258.063435 197.727466 
L 259.592901 201.796029 
L 261.122366 202.859564 
L 262.651832 202.425225 
L 264.181297 204.505022 
L 265.710763 205.331339 
L 267.240228 205.094824 
L 268.769694 206.12831 
L 270.299159 206.723985 
L 271.828625 206.438407 
L 273.35809 207.079752 
L 276.417021 207.333263 
L 277.946487 207.080332 
L 279.475952 208.031739 
L 281.005418 208.433759 
L 282.534883 208.183112 
L 284.064349 207.800155 
L 285.593814 209.358926 
L 287.12328 209.620351 
L 288.652745 209.357927 
L 290.182211 210.738576 
L 291.711676 210.588508 
L 293.241142 211.157324 
L 294.770607 210.96561 
L 296.300073 211.569063 
L 297.829538 211.510713 
L 299.359004 211.922537 
L 302.417935 212.299859 
L 303.9474 212.193914 
L 305.476866 212.353215 
L 308.535797 212.41038 
L 310.065262 212.291996 
L 311.594728 212.774927 
L 313.124193 213.034802 
L 316.183124 213.144854 
L 319.242055 213.480671 
L 320.771521 213.413059 
L 325.359917 213.774167 
L 326.889383 214.08455 
L 328.418849 213.822052 
L 331.47778 214.035606 
L 333.007245 214.167762 
L 334.536711 214.102812 
L 337.595642 214.415774 
L 339.125107 214.410919 
L 340.654573 214.537635 
L 342.184038 214.395824 
L 343.713504 214.577233 
L 357.478693 214.743825 
L 357.478693 214.743825 
" clip-path="url(#pce71dd9906)" style="fill: none; stroke: #1f77b4; stroke-width: 1.5; stroke-linecap: round"/>
   </g>
   <g id="line2d_30">
    <path d="M 53.115057 17.083636 
L 54.644522 17.311343 
L 62.29185 17.347286 
L 117.352608 17.37378 
L 118.882074 17.63709 
L 120.411539 21.293991 
L 121.941005 23.915844 
L 124.999936 27.534124 
L 126.529401 29.003042 
L 129.588332 31.235362 
L 131.117798 32.275449 
L 132.647263 34.213501 
L 134.176729 36.812333 
L 135.706194 38.420559 
L 137.23566 39.755959 
L 138.765125 41.288423 
L 140.294591 42.566329 
L 141.824056 44.196439 
L 143.353522 45.490776 
L 146.412453 47.647948 
L 147.941918 49.196585 
L 149.471384 54.020521 
L 154.05978 67.298126 
L 155.589246 71.076207 
L 157.118711 74.304573 
L 158.648177 76.953253 
L 163.236573 94.284428 
L 164.766039 99.873521 
L 166.295505 106.04739 
L 169.354436 115.43597 
L 175.472298 128.887787 
L 178.531229 134.33232 
L 180.060694 136.293805 
L 181.59016 138.486206 
L 183.119625 140.925635 
L 184.649091 142.665544 
L 186.178556 144.658838 
L 187.708022 145.817691 
L 190.766953 148.974001 
L 196.884815 153.92422 
L 198.41428 154.448585 
L 201.473211 156.354906 
L 203.002677 156.759352 
L 204.532142 157.485624 
L 206.061608 157.890552 
L 207.591073 157.643943 
L 209.120539 158.055512 
L 210.650004 159.11506 
L 215.238401 160.032802 
L 216.767866 160.179393 
L 218.297332 160.465089 
L 219.826797 160.333411 
L 222.885728 160.716427 
L 224.415194 161.532704 
L 225.944659 160.494418 
L 227.474125 161.2644 
L 229.00359 160.413124 
L 230.533056 160.633756 
L 232.062521 159.96103 
L 233.591987 160.593374 
L 235.121452 159.69917 
L 236.650918 159.718917 
L 238.180383 159.487638 
L 239.709849 158.292625 
L 241.239314 157.381577 
L 242.76878 160.879643 
L 244.298245 160.60321 
L 245.827711 164.207209 
L 247.357177 164.471287 
L 248.886642 164.85732 
L 250.416108 163.939264 
L 251.945573 166.969756 
L 253.475039 167.076034 
L 255.004504 169.942653 
L 256.53397 170.139413 
L 258.063435 169.505371 
L 259.592901 170.014603 
L 261.122366 169.147927 
L 262.651832 169.369325 
L 264.181297 169.082281 
L 265.710763 168.175588 
L 267.240228 168.046866 
L 268.769694 167.434748 
L 270.299159 169.349719 
L 271.828625 172.454292 
L 273.35809 176.876827 
L 277.946487 177.137181 
L 279.475952 176.750553 
L 281.005418 176.014388 
L 282.534883 177.832763 
L 284.064349 177.614039 
L 285.593814 178.02645 
L 288.652745 176.880731 
L 290.182211 176.597411 
L 291.711676 175.485136 
L 293.241142 178.424488 
L 296.300073 178.309726 
L 297.829538 177.244555 
L 299.359004 181.541617 
L 300.888469 185.416687 
L 302.417935 185.28209 
L 303.9474 186.303133 
L 305.476866 185.937712 
L 307.006331 185.738645 
L 308.535797 186.358522 
L 310.065262 189.342 
L 311.594728 189.932023 
L 313.124193 189.878372 
L 314.653659 189.553123 
L 316.183124 189.550036 
L 319.242055 189.090835 
L 320.771521 188.100091 
L 322.300986 190.402099 
L 323.830452 190.978487 
L 325.359917 190.846805 
L 326.889383 191.944713 
L 328.418849 193.637727 
L 329.948314 196.032569 
L 333.007245 197.153748 
L 334.536711 196.408797 
L 336.066176 199.512381 
L 343.713504 200.198165 
L 345.242969 201.168671 
L 346.772435 201.462375 
L 348.3019 201.29858 
L 349.831366 201.363203 
L 351.360831 201.588531 
L 352.890297 200.99919 
L 354.419762 203.078032 
L 355.949228 203.814593 
L 357.478693 203.821299 
L 357.478693 203.821299 
" clip-path="url(#pce71dd9906)" style="fill: none; stroke: #ff7f0e; stroke-width: 1.5; stroke-linecap: round"/>
   </g>
   <g id="line2d_31">
    <path d="M 53.115057 17.14288 
L 54.644522 17.326532 
L 68.409712 17.470769 
L 69.939177 18.235967 
L 71.468643 21.90471 
L 72.998108 24.05471 
L 76.057039 31.502364 
L 77.586505 33.949202 
L 79.11597 35.522127 
L 82.174901 39.176855 
L 83.704367 41.803093 
L 85.233833 45.629982 
L 86.763298 49.881904 
L 88.292764 53.65129 
L 89.822229 56.993423 
L 92.88116 63.161803 
L 94.410626 69.302508 
L 95.940091 74.46492 
L 98.999022 84.010576 
L 100.528488 87.809042 
L 103.587419 97.104885 
L 105.116884 101.246937 
L 108.175815 108.103845 
L 109.705281 111.51457 
L 111.234746 114.333818 
L 114.293677 120.616636 
L 115.823143 122.95272 
L 117.352608 126.108959 
L 118.882074 128.417803 
L 120.411539 131.050585 
L 121.941005 133.21271 
L 123.47047 135.761847 
L 124.999936 137.50167 
L 126.529401 139.866694 
L 128.058867 141.400634 
L 129.588332 143.564367 
L 131.117798 145.090237 
L 132.647263 147.05666 
L 137.23566 151.420407 
L 138.765125 152.517511 
L 140.294591 154.082552 
L 141.824056 154.834624 
L 143.353522 156.489636 
L 144.882987 157.581914 
L 146.412453 158.258999 
L 149.471384 160.154141 
L 151.000849 160.539503 
L 152.530315 161.831144 
L 154.05978 161.658544 
L 155.589246 163.36974 
L 157.118711 163.60195 
L 158.648177 164.405355 
L 160.177642 164.95728 
L 161.707108 165.70541 
L 163.236573 165.825525 
L 166.295505 166.654877 
L 167.82497 167.087478 
L 169.354436 167.041617 
L 172.413367 167.995348 
L 175.472298 167.879108 
L 177.001763 168.116317 
L 178.531229 167.91147 
L 180.060694 168.317154 
L 181.59016 167.968027 
L 183.119625 168.908006 
L 184.649091 167.894904 
L 186.178556 168.847526 
L 189.237487 168.182982 
L 190.766953 168.240286 
L 192.296418 167.602776 
L 193.825884 167.473958 
L 195.355349 167.052302 
L 196.884815 167.294918 
L 198.41428 167.250967 
L 199.943746 166.1932 
L 201.473211 166.658238 
L 204.532142 166.261544 
L 206.061608 166.106866 
L 207.591073 166.138897 
L 209.120539 165.462357 
L 210.650004 165.546384 
L 212.17947 164.467553 
L 213.708935 163.868479 
L 216.767866 170.17505 
L 218.297332 174.011331 
L 219.826797 174.141043 
L 221.356263 174.749332 
L 222.885728 174.188133 
L 224.415194 173.432565 
L 225.944659 173.312271 
L 227.474125 173.466205 
L 229.00359 172.803884 
L 232.062521 178.234162 
L 233.591987 181.584059 
L 235.121452 182.437208 
L 236.650918 181.874358 
L 238.180383 184.320797 
L 239.709849 186.157228 
L 241.239314 189.053903 
L 242.76878 189.157551 
L 244.298245 189.71217 
L 245.827711 189.291921 
L 247.357177 190.665005 
L 248.886642 191.143043 
L 250.416108 190.684212 
L 251.945573 192.643057 
L 253.475039 193.261916 
L 255.004504 193.361247 
L 256.53397 192.797673 
L 258.063435 193.922537 
L 259.592901 194.26977 
L 261.122366 194.167951 
L 262.651832 193.756405 
L 264.181297 194.296397 
L 265.710763 193.560189 
L 267.240228 197.148676 
L 268.769694 198.527242 
L 270.299159 198.408571 
L 271.828625 198.70392 
L 273.35809 200.969417 
L 274.887556 200.997609 
L 276.417021 201.247217 
L 277.946487 201.164922 
L 279.475952 200.478992 
L 281.005418 203.060212 
L 282.534883 203.195995 
L 284.064349 203.717417 
L 285.593814 203.134972 
L 287.12328 204.901028 
L 288.652745 206.128168 
L 290.182211 206.61912 
L 297.829538 206.679991 
L 299.359004 207.833682 
L 300.888469 208.076531 
L 302.417935 208.093562 
L 303.9474 208.264764 
L 305.476866 208.089681 
L 307.006331 208.573073 
L 308.535797 208.738527 
L 310.065262 208.55256 
L 311.594728 209.587334 
L 313.124193 210.208476 
L 316.183124 210.434789 
L 317.71259 210.773717 
L 319.242055 210.865054 
L 322.300986 210.743312 
L 323.830452 210.76206 
L 325.359917 211.199478 
L 326.889383 211.34162 
L 328.418849 211.708582 
L 329.948314 211.861213 
L 331.47778 211.812516 
L 333.007245 212.162627 
L 334.536711 212.327587 
L 336.066176 212.289964 
L 337.595642 212.431093 
L 339.125107 212.284499 
L 340.654573 212.714684 
L 342.184038 212.89565 
L 343.713504 212.748505 
L 345.242969 213.031441 
L 346.772435 213.017569 
L 348.3019 212.786088 
L 349.831366 213.389231 
L 354.419762 213.475685 
L 355.949228 213.836201 
L 357.478693 214.000548 
L 357.478693 214.000548 
" clip-path="url(#pce71dd9906)" style="fill: none; stroke: #2ca02c; stroke-width: 1.5; stroke-linecap: round"/>
   </g>
   <g id="line2d_32">
    <path d="M 53.115057 17.752616 
L 54.644522 23.815745 
L 57.703453 42.991943 
L 60.762384 58.213607 
L 62.29185 64.934949 
L 63.821315 71.017697 
L 65.350781 76.639014 
L 66.880246 81.750001 
L 69.939177 91.290478 
L 71.468643 94.781214 
L 72.998108 98.804886 
L 77.586505 108.290852 
L 79.11597 111.242589 
L 80.645436 113.776455 
L 83.704367 118.39957 
L 86.763298 123.344812 
L 88.292764 125.145702 
L 89.822229 127.192774 
L 91.351695 129.487908 
L 94.410626 132.961877 
L 95.940091 134.978062 
L 97.469557 136.272917 
L 98.999022 137.99439 
L 100.528488 139.990795 
L 102.057953 141.360171 
L 103.587419 143.152358 
L 105.116884 144.454734 
L 106.64635 146.040335 
L 108.175815 147.110213 
L 109.705281 149.016471 
L 111.234746 149.833009 
L 112.764212 151.234427 
L 115.823143 153.621196 
L 117.352608 154.497877 
L 121.941005 157.857585 
L 123.47047 158.363235 
L 126.529401 160.213213 
L 128.058867 160.656571 
L 129.588332 161.704679 
L 132.647263 163.216377 
L 134.176729 163.953184 
L 135.706194 164.448984 
L 137.23566 165.518527 
L 138.765125 165.557138 
L 140.294591 166.237393 
L 141.824056 166.383197 
L 143.353522 167.422596 
L 144.882987 167.43849 
L 146.412453 168.188947 
L 147.941918 168.083809 
L 149.471384 169.225743 
L 151.000849 169.036621 
L 152.530315 169.450617 
L 154.05978 170.026349 
L 155.589246 169.739949 
L 157.118711 170.441807 
L 158.648177 169.723509 
L 160.177642 170.290912 
L 161.707108 171.021759 
L 163.236573 170.403582 
L 164.766039 171.048152 
L 166.295505 170.562174 
L 167.82497 171.379657 
L 169.354436 170.994552 
L 170.883901 171.56294 
L 172.413367 170.756794 
L 173.942832 171.390641 
L 175.472298 170.780056 
L 177.001763 171.036503 
L 178.531229 171.487206 
L 180.060694 170.790615 
L 183.119625 171.166056 
L 184.649091 170.724377 
L 186.178556 173.478 
L 187.708022 173.818086 
L 189.237487 173.3143 
L 190.766953 173.74678 
L 192.296418 173.183852 
L 193.825884 173.301124 
L 195.355349 172.578302 
L 196.884815 175.088799 
L 198.41428 178.215472 
L 199.943746 177.998952 
L 201.473211 181.219305 
L 203.002677 181.429649 
L 204.532142 181.846191 
L 206.061608 180.904167 
L 207.591073 182.950661 
L 209.120539 185.78341 
L 210.650004 185.423139 
L 212.17947 185.735366 
L 213.708935 186.335492 
L 215.238401 185.332553 
L 216.767866 188.567652 
L 218.297332 189.056302 
L 219.826797 189.746981 
L 221.356263 188.444986 
L 222.885728 193.107707 
L 224.415194 193.72187 
L 225.944659 194.867463 
L 227.474125 195.551046 
L 229.00359 195.172075 
L 230.533056 196.280171 
L 232.062521 195.982343 
L 233.591987 196.327672 
L 235.121452 195.718269 
L 236.650918 197.834419 
L 238.180383 197.588483 
L 239.709849 200.050888 
L 241.239314 200.789101 
L 242.76878 200.506233 
L 244.298245 201.884779 
L 245.827711 201.825801 
L 247.357177 202.066425 
L 248.886642 204.010835 
L 250.416108 205.135674 
L 251.945573 205.072361 
L 255.004504 205.625915 
L 256.53397 205.037306 
L 258.063435 206.876792 
L 259.592901 207.468944 
L 261.122366 207.24701 
L 264.181297 207.789491 
L 265.710763 207.667806 
L 267.240228 207.827812 
L 268.769694 209.091968 
L 270.299159 209.587887 
L 273.35809 209.624988 
L 274.887556 209.844366 
L 276.417021 209.648499 
L 277.946487 210.058334 
L 279.475952 210.214025 
L 281.005418 209.803307 
L 282.534883 210.958965 
L 284.064349 211.129392 
L 285.593814 211.004459 
L 287.12328 211.284021 
L 290.182211 211.16385 
L 291.711676 211.914485 
L 294.770607 212.248608 
L 296.300073 212.089353 
L 297.829538 212.510161 
L 300.888469 212.80706 
L 302.417935 212.724678 
L 303.9474 213.001671 
L 310.065262 213.448768 
L 314.653659 213.384827 
L 316.183124 213.688439 
L 319.242055 213.884032 
L 320.771521 213.697502 
L 322.300986 213.94222 
L 323.830452 213.86206 
L 328.418849 214.265445 
L 331.47778 214.193447 
L 333.007245 214.367581 
L 354.419762 214.665271 
L 355.949228 214.756364 
L 357.478693 214.644902 
L 357.478693 214.644902 
" clip-path="url(#pce71dd9906)" style="fill: none; stroke: #d62728; stroke-width: 1.5; stroke-linecap: round"/>
   </g>
   <g id="line2d_33">
    <path d="M 53.115057 23.096327 
L 54.644522 41.099204 
L 56.173988 52.021014 
L 57.703453 61.391098 
L 59.232919 68.427976 
L 62.29185 79.566981 
L 63.821315 84.630916 
L 65.350781 88.941708 
L 66.880246 92.854352 
L 69.939177 99.515905 
L 71.468643 102.753137 
L 72.998108 105.194533 
L 74.527574 108.266358 
L 76.057039 110.331079 
L 82.174901 119.567676 
L 83.704367 121.492772 
L 85.233833 123.730852 
L 94.410626 134.635734 
L 95.940091 136.299312 
L 97.469557 138.226292 
L 100.528488 140.874294 
L 102.057953 142.508641 
L 103.587419 143.554162 
L 105.116884 145.150017 
L 106.64635 146.381142 
L 108.175815 147.916821 
L 109.705281 149.058184 
L 112.764212 151.043223 
L 114.293677 152.285257 
L 115.823143 153.321095 
L 118.882074 154.782321 
L 120.411539 156.183569 
L 121.941005 156.948898 
L 123.47047 157.334739 
L 124.999936 158.234743 
L 126.529401 158.927639 
L 128.058867 160.009464 
L 129.588332 160.239771 
L 131.117798 160.902172 
L 132.647263 161.186099 
L 134.176729 161.870144 
L 137.23566 163.488614 
L 138.765125 163.784846 
L 140.294591 164.661269 
L 143.353522 165.558089 
L 144.882987 165.721338 
L 146.412453 165.725117 
L 147.941918 166.688244 
L 149.471384 167.132201 
L 152.530315 167.504117 
L 154.05978 167.815371 
L 155.589246 167.982154 
L 157.118711 168.56294 
L 158.648177 168.800335 
L 160.177642 168.442903 
L 161.707108 168.987189 
L 163.236573 169.158849 
L 164.766039 169.755119 
L 166.295505 169.378175 
L 167.82497 169.870225 
L 169.354436 169.348443 
L 170.883901 169.475783 
L 172.413367 169.275284 
L 173.942832 169.594643 
L 175.472298 169.33797 
L 177.001763 169.571852 
L 178.531229 169.144153 
L 180.060694 169.361432 
L 181.59016 169.192932 
L 183.119625 168.692123 
L 184.649091 171.21295 
L 186.178556 172.035404 
L 187.708022 171.146384 
L 189.237487 171.259792 
L 190.766953 171.686151 
L 192.296418 170.505973 
L 193.825884 173.830651 
L 195.355349 173.085692 
L 198.41428 172.702582 
L 199.943746 175.385673 
L 203.002677 176.671518 
L 204.532142 175.742763 
L 206.061608 175.674465 
L 207.591073 175.782768 
L 209.120539 174.867735 
L 210.650004 176.83709 
L 212.17947 176.878268 
L 213.708935 176.400396 
L 215.238401 176.662463 
L 216.767866 175.280378 
L 218.297332 178.156315 
L 219.826797 179.456001 
L 221.356263 179.876469 
L 222.885728 179.104907 
L 224.415194 180.213504 
L 225.944659 178.489076 
L 227.474125 185.77688 
L 229.00359 187.22137 
L 230.533056 188.016588 
L 232.062521 186.924607 
L 233.591987 189.922514 
L 235.121452 191.490903 
L 236.650918 191.017294 
L 238.180383 193.203945 
L 239.709849 194.069612 
L 241.239314 193.434937 
L 242.76878 196.213787 
L 244.298245 196.395744 
L 245.827711 198.169858 
L 247.357177 198.246944 
L 248.886642 198.486597 
L 250.416108 198.377253 
L 251.945573 199.078846 
L 253.475039 200.095842 
L 255.004504 199.619951 
L 256.53397 201.745938 
L 258.063435 202.270499 
L 259.592901 203.490255 
L 262.651832 203.669415 
L 265.710763 203.556141 
L 267.240228 204.029352 
L 268.769694 203.588978 
L 270.299159 204.354967 
L 271.828625 204.428484 
L 273.35809 204.174436 
L 274.887556 205.921253 
L 276.417021 206.805135 
L 277.946487 206.787532 
L 279.475952 208.112966 
L 281.005418 208.22688 
L 282.534883 208.45838 
L 284.064349 208.388149 
L 285.593814 208.787858 
L 288.652745 208.705173 
L 290.182211 208.887076 
L 293.241142 208.95323 
L 294.770607 208.648276 
L 296.300073 209.15084 
L 297.829538 209.014695 
L 300.888469 209.090669 
L 302.417935 208.850281 
L 303.9474 210.422836 
L 307.006331 210.666703 
L 308.535797 210.488511 
L 311.594728 210.867062 
L 313.124193 210.830001 
L 316.183124 210.599333 
L 317.71259 210.775808 
L 320.771521 210.562152 
L 322.300986 211.54376 
L 323.830452 211.715029 
L 325.359917 211.652109 
L 326.889383 211.814837 
L 328.418849 211.61424 
L 329.948314 212.214709 
L 331.47778 212.399353 
L 333.007245 212.39118 
L 334.536711 212.589387 
L 340.654573 212.557668 
L 342.184038 212.882726 
L 343.713504 213.069165 
L 345.242969 212.917922 
L 348.3019 213.323863 
L 357.478693 213.654495 
L 357.478693 213.654495 
" clip-path="url(#pce71dd9906)" style="fill: none; stroke: #9467bd; stroke-width: 1.5; stroke-linecap: round"/>
   </g>
   <g id="line2d_34">
    <path d="M 53.115057 33.29395 
L 54.644522 54.462911 
L 56.173988 63.671593 
L 59.232919 78.566021 
L 60.762384 83.908005 
L 63.821315 93.007501 
L 65.350781 96.767231 
L 68.409712 103.194015 
L 69.939177 106.048753 
L 71.468643 109.147252 
L 72.998108 111.302953 
L 74.527574 114.035471 
L 77.586505 118.731849 
L 79.11597 120.527732 
L 82.174901 124.676606 
L 83.704367 126.241493 
L 88.292764 132.112108 
L 89.822229 133.502247 
L 91.351695 134.72452 
L 94.410626 138.150933 
L 95.940091 139.569398 
L 97.469557 141.152428 
L 98.999022 142.24377 
L 100.528488 143.837149 
L 102.057953 144.984048 
L 105.116884 147.535748 
L 106.64635 148.376835 
L 109.705281 150.822283 
L 111.234746 151.590969 
L 112.764212 153.124973 
L 114.293677 154.108373 
L 115.823143 154.452861 
L 117.352608 155.662117 
L 118.882074 156.44502 
L 120.411539 156.92277 
L 121.941005 158.100717 
L 123.47047 158.603418 
L 124.999936 159.252699 
L 126.529401 160.253215 
L 128.058867 160.643166 
L 129.588332 161.709975 
L 132.647263 163.454557 
L 135.706194 164.282258 
L 137.23566 164.808409 
L 138.765125 164.802204 
L 140.294591 165.843645 
L 141.824056 166.110427 
L 143.353522 166.118679 
L 144.882987 167.475942 
L 146.412453 167.190809 
L 147.941918 168.15184 
L 151.000849 168.448098 
L 152.530315 169.540216 
L 154.05978 168.728269 
L 155.589246 169.618427 
L 158.648177 170.437828 
L 161.707108 170.68827 
L 163.236573 171.113568 
L 164.766039 170.971864 
L 166.295505 170.379881 
L 167.82497 170.942743 
L 169.354436 170.763919 
L 170.883901 171.451237 
L 172.413367 170.414627 
L 173.942832 171.344369 
L 175.472298 171.256749 
L 178.531229 171.558803 
L 180.060694 170.871537 
L 181.59016 170.938797 
L 183.119625 170.881738 
L 184.649091 171.519519 
L 186.178556 169.715608 
L 187.708022 173.2694 
L 190.766953 172.809826 
L 192.296418 173.3741 
L 193.825884 172.888751 
L 195.355349 172.929354 
L 196.884815 173.281307 
L 198.41428 171.679166 
L 199.943746 177.136699 
L 201.473211 178.990511 
L 203.002677 178.41112 
L 204.532142 181.031315 
L 206.061608 180.760472 
L 207.591073 181.455807 
L 209.120539 181.034175 
L 210.650004 180.302776 
L 212.17947 182.743761 
L 213.708935 183.032914 
L 215.238401 182.827075 
L 216.767866 183.113769 
L 218.297332 181.925342 
L 219.826797 184.500437 
L 221.356263 185.43154 
L 224.415194 184.420356 
L 225.944659 184.707919 
L 227.474125 184.516781 
L 229.00359 183.9722 
L 230.533056 186.087655 
L 232.062521 189.463184 
L 233.591987 189.792992 
L 235.121452 189.806483 
L 236.650918 191.516757 
L 238.180383 192.935269 
L 239.709849 195.700483 
L 241.239314 195.748779 
L 242.76878 197.606415 
L 244.298245 199.04497 
L 245.827711 199.416411 
L 247.357177 199.381511 
L 248.886642 199.111001 
L 250.416108 200.029235 
L 251.945573 200.35814 
L 253.475039 199.470836 
L 255.004504 202.642194 
L 256.53397 203.588866 
L 258.063435 203.314367 
L 259.592901 204.030203 
L 262.651832 206.221972 
L 265.710763 206.501354 
L 268.769694 206.521953 
L 270.299159 206.807235 
L 271.828625 208.081642 
L 273.35809 208.491504 
L 274.887556 208.527581 
L 276.417021 208.698648 
L 277.946487 209.064597 
L 279.475952 209.73187 
L 281.005418 210.087755 
L 282.534883 210.23482 
L 284.064349 210.266619 
L 285.593814 210.439144 
L 287.12328 210.183971 
L 288.652745 210.68875 
L 290.182211 210.724327 
L 291.711676 210.885881 
L 293.241142 211.352357 
L 294.770607 211.456128 
L 296.300073 211.365809 
L 297.829538 211.871017 
L 299.359004 211.886908 
L 300.888469 211.751663 
L 302.417935 211.98338 
L 305.476866 212.085644 
L 307.006331 211.947274 
L 308.535797 212.332608 
L 310.065262 212.273787 
L 311.594728 212.392203 
L 313.124193 212.118391 
L 314.653659 212.761797 
L 319.242055 213.036209 
L 320.771521 213.014915 
L 323.830452 213.494242 
L 325.359917 213.400924 
L 331.47778 213.765403 
L 333.007245 213.776438 
L 334.536711 213.916195 
L 337.595642 213.896507 
L 339.125107 214.157122 
L 340.654573 214.062585 
L 342.184038 214.297699 
L 343.713504 214.149257 
L 345.242969 214.313988 
L 346.772435 214.235224 
L 348.3019 214.439925 
L 351.360831 214.423901 
L 352.890297 214.496225 
L 354.419762 214.382913 
L 357.478693 214.576469 
L 357.478693 214.576469 
" clip-path="url(#pce71dd9906)" style="fill: none; stroke: #8c564b; stroke-width: 1.5; stroke-linecap: round"/>
   </g>
   <g id="line2d_35">
    <path d="M 53.115057 30.153129 
L 54.644522 54.489811 
L 56.173988 64.083309 
L 57.703453 71.734606 
L 59.232919 77.343897 
L 60.762384 82.281139 
L 62.29185 86.786844 
L 65.350781 94.725813 
L 68.409712 101.190027 
L 72.998108 109.573036 
L 74.527574 111.838903 
L 76.057039 114.405716 
L 77.586505 116.281385 
L 79.11597 118.481779 
L 82.174901 122.285012 
L 83.704367 124.166703 
L 85.233833 126.280762 
L 86.763298 128.175776 
L 88.292764 129.644358 
L 89.822229 131.558666 
L 91.351695 133.869496 
L 94.410626 136.355273 
L 95.940091 138.226194 
L 98.999022 140.985761 
L 100.528488 142.709483 
L 103.587419 144.717603 
L 105.116884 146.442816 
L 106.64635 147.794438 
L 108.175815 148.315728 
L 109.705281 149.952356 
L 111.234746 150.915935 
L 114.293677 153.103902 
L 115.823143 153.903948 
L 118.882074 155.771154 
L 120.411539 156.540615 
L 121.941005 157.493156 
L 123.47047 158.018424 
L 124.999936 158.959214 
L 126.529401 159.713992 
L 128.058867 160.245967 
L 129.588332 160.952919 
L 131.117798 161.260518 
L 134.176729 162.693844 
L 135.706194 162.543591 
L 137.23566 163.759919 
L 138.765125 164.451004 
L 140.294591 164.476785 
L 141.824056 165.083734 
L 143.353522 165.301424 
L 144.882987 165.393999 
L 146.412453 166.611254 
L 147.941918 166.725633 
L 149.471384 167.048514 
L 151.000849 167.930692 
L 152.530315 167.991379 
L 154.05978 167.755524 
L 155.589246 168.514033 
L 158.648177 168.790761 
L 160.177642 169.036971 
L 161.707108 169.414251 
L 163.236573 169.402188 
L 164.766039 169.986518 
L 166.295505 169.589254 
L 167.82497 169.822386 
L 169.354436 169.62159 
L 170.883901 169.218772 
L 172.413367 170.194971 
L 173.942832 170.185321 
L 175.472298 169.843992 
L 177.001763 170.201984 
L 178.531229 169.965708 
L 180.060694 169.852515 
L 181.59016 169.966248 
L 183.119625 169.279482 
L 184.649091 169.939337 
L 187.708022 169.108651 
L 189.237487 169.658918 
L 190.766953 168.336249 
L 192.296418 171.762397 
L 193.825884 172.26746 
L 195.355349 172.128969 
L 196.884815 172.618909 
L 198.41428 170.72664 
L 199.943746 176.447289 
L 201.473211 177.56895 
L 203.002677 177.222159 
L 204.532142 177.394321 
L 206.061608 177.13238 
L 207.591073 176.479486 
L 209.120539 178.60822 
L 210.650004 178.449476 
L 212.17947 181.043184 
L 213.708935 183.993348 
L 215.238401 184.907171 
L 216.767866 184.880657 
L 218.297332 185.819658 
L 219.826797 186.11673 
L 221.356263 185.828277 
L 222.885728 186.607652 
L 224.415194 186.08359 
L 225.944659 186.154427 
L 227.474125 185.236984 
L 229.00359 188.722526 
L 230.533056 189.97611 
L 232.062521 188.631801 
L 233.591987 193.61866 
L 235.121452 194.45715 
L 236.650918 194.865824 
L 238.180383 194.215543 
L 239.709849 194.938565 
L 241.239314 196.372413 
L 242.76878 196.474854 
L 244.298245 196.443048 
L 245.827711 196.580958 
L 247.357177 195.844067 
L 248.886642 198.652973 
L 250.416108 199.091194 
L 251.945573 199.987416 
L 256.53397 199.975191 
L 258.063435 201.704298 
L 259.592901 202.490264 
L 261.122366 202.316779 
L 262.651832 203.161067 
L 264.181297 203.47099 
L 265.710763 203.555239 
L 267.240228 202.954988 
L 268.769694 204.51327 
L 270.299159 204.649904 
L 271.828625 205.985597 
L 273.35809 206.075972 
L 274.887556 206.334895 
L 276.417021 205.696459 
L 277.946487 206.577238 
L 281.005418 207.273 
L 282.534883 206.825392 
L 284.064349 208.310625 
L 287.12328 208.618189 
L 288.652745 208.672463 
L 290.182211 208.510153 
L 291.711676 208.936165 
L 294.770607 208.694865 
L 297.829538 209.793203 
L 299.359004 209.696434 
L 300.888469 209.859765 
L 302.417935 209.641459 
L 303.9474 210.309489 
L 305.476866 210.128043 
L 307.006331 210.975883 
L 308.535797 211.186045 
L 310.065262 210.932844 
L 311.594728 211.463561 
L 314.653659 211.487099 
L 316.183124 211.541057 
L 317.71259 211.435412 
L 319.242055 211.893681 
L 320.771521 212.137583 
L 322.300986 212.193607 
L 323.830452 212.620412 
L 325.359917 212.77288 
L 328.418849 212.767719 
L 329.948314 212.957603 
L 331.47778 213.024325 
L 333.007245 213.367561 
L 334.536711 213.208989 
L 336.066176 213.534497 
L 340.654573 213.5624 
L 343.713504 213.896211 
L 348.3019 213.982116 
L 357.478693 214.043286 
L 357.478693 214.043286 
" clip-path="url(#pce71dd9906)" style="fill: none; stroke: #e377c2; stroke-width: 1.5; stroke-linecap: round"/>
   </g>
   <g id="patch_3">
    <path d="M 37.896875 224.64 
L 37.896875 7.2 
" style="fill: none; stroke: #cccccc; stroke-linejoin: miter; stroke-linecap: square"/>
   </g>
   <g id="patch_4">
    <path d="M 372.696875 224.64 
L 372.696875 7.2 
" style="fill: none; stroke: #cccccc; stroke-linejoin: miter; stroke-linecap: square"/>
   </g>
   <g id="patch_5">
    <path d="M 37.896875 224.64 
L 372.696875 224.64 
" style="fill: none; stroke: #cccccc; stroke-linejoin: miter; stroke-linecap: square"/>
   </g>
   <g id="patch_6">
    <path d="M 37.896875 7.2 
L 372.696875 7.2 
" style="fill: none; stroke: #cccccc; stroke-linejoin: miter; stroke-linecap: square"/>
   </g>
   <g id="legend_1">
    <g id="line2d_36">
     <path d="M 239.546875 19.979687 
L 249.546875 19.979687 
L 259.546875 19.979687 
" style="fill: none; stroke: #1f77b4; stroke-width: 1.5; stroke-linecap: round"/>
    </g>
    <g id="text_17">
     <!-- xavier_uniform -->
     <g style="fill: #262626" transform="translate(267.546875 23.479687)scale(0.1 -0.1)">
      <defs>
       <path id="ArialMT-78" d="M 47 0 
L 1259 1725 
L 138 3319 
L 841 3319 
L 1350 2541 
Q 1494 2319 1581 2169 
Q 1719 2375 1834 2534 
L 2394 3319 
L 3066 3319 
L 1919 1756 
L 3153 0 
L 2463 0 
L 1781 1031 
L 1600 1309 
L 728 0 
L 47 0 
z
" transform="scale(0.015625)"/>
       <path id="ArialMT-76" d="M 1344 0 
L 81 3319 
L 675 3319 
L 1388 1331 
Q 1503 1009 1600 663 
Q 1675 925 1809 1294 
L 2547 3319 
L 3125 3319 
L 1869 0 
L 1344 0 
z
" transform="scale(0.015625)"/>
       <path id="ArialMT-69" d="M 425 3934 
L 425 4581 
L 988 4581 
L 988 3934 
L 425 3934 
z
M 425 0 
L 425 3319 
L 988 3319 
L 988 0 
L 425 0 
z
" transform="scale(0.015625)"/>
       <path id="ArialMT-65" d="M 2694 1069 
L 3275 997 
Q 3138 488 2766 206 
Q 2394 -75 1816 -75 
Q 1088 -75 661 373 
Q 234 822 234 1631 
Q 234 2469 665 2931 
Q 1097 3394 1784 3394 
Q 2450 3394 2872 2941 
Q 3294 2488 3294 1666 
Q 3294 1616 3291 1516 
L 816 1516 
Q 847 969 1125 678 
Q 1403 388 1819 388 
Q 2128 388 2347 550 
Q 2566 713 2694 1069 
z
M 847 1978 
L 2700 1978 
Q 2663 2397 2488 2606 
Q 2219 2931 1791 2931 
Q 1403 2931 1139 2672 
Q 875 2413 847 1978 
z
" transform="scale(0.015625)"/>
       <path id="ArialMT-5f" d="M -97 -1272 
L -97 -866 
L 3631 -866 
L 3631 -1272 
L -97 -1272 
z
" transform="scale(0.015625)"/>
       <path id="ArialMT-6e" d="M 422 0 
L 422 3319 
L 928 3319 
L 928 2847 
Q 1294 3394 1984 3394 
Q 2284 3394 2536 3286 
Q 2788 3178 2913 3003 
Q 3038 2828 3088 2588 
Q 3119 2431 3119 2041 
L 3119 0 
L 2556 0 
L 2556 2019 
Q 2556 2363 2490 2533 
Q 2425 2703 2258 2804 
Q 2091 2906 1866 2906 
Q 1506 2906 1245 2678 
Q 984 2450 984 1813 
L 984 0 
L 422 0 
z
" transform="scale(0.015625)"/>
       <path id="ArialMT-66" d="M 556 0 
L 556 2881 
L 59 2881 
L 59 3319 
L 556 3319 
L 556 3672 
Q 556 4006 616 4169 
Q 697 4388 901 4523 
Q 1106 4659 1475 4659 
Q 1713 4659 2000 4603 
L 1916 4113 
Q 1741 4144 1584 4144 
Q 1328 4144 1222 4034 
Q 1116 3925 1116 3625 
L 1116 3319 
L 1763 3319 
L 1763 2881 
L 1116 2881 
L 1116 0 
L 556 0 
z
" transform="scale(0.015625)"/>
       <path id="ArialMT-6d" d="M 422 0 
L 422 3319 
L 925 3319 
L 925 2853 
Q 1081 3097 1340 3245 
Q 1600 3394 1931 3394 
Q 2300 3394 2536 3241 
Q 2772 3088 2869 2813 
Q 3263 3394 3894 3394 
Q 4388 3394 4653 3120 
Q 4919 2847 4919 2278 
L 4919 0 
L 4359 0 
L 4359 2091 
Q 4359 2428 4304 2576 
Q 4250 2725 4106 2815 
Q 3963 2906 3769 2906 
Q 3419 2906 3187 2673 
Q 2956 2441 2956 1928 
L 2956 0 
L 2394 0 
L 2394 2156 
Q 2394 2531 2256 2718 
Q 2119 2906 1806 2906 
Q 1569 2906 1367 2781 
Q 1166 2656 1075 2415 
Q 984 2175 984 1722 
L 984 0 
L 422 0 
z
" transform="scale(0.015625)"/>
      </defs>
      <use xlink:href="#ArialMT-78"/>
      <use xlink:href="#ArialMT-61" x="50"/>
      <use xlink:href="#ArialMT-76" x="105.615234"/>
      <use xlink:href="#ArialMT-69" x="155.615234"/>
      <use xlink:href="#ArialMT-65" x="177.832031"/>
      <use xlink:href="#ArialMT-72" x="233.447266"/>
      <use xlink:href="#ArialMT-5f" x="266.748047"/>
      <use xlink:href="#ArialMT-75" x="322.363281"/>
      <use xlink:href="#ArialMT-6e" x="377.978516"/>
      <use xlink:href="#ArialMT-69" x="433.59375"/>
      <use xlink:href="#ArialMT-66" x="455.810547"/>
      <use xlink:href="#ArialMT-6f" x="483.59375"/>
      <use xlink:href="#ArialMT-72" x="539.208984"/>
      <use xlink:href="#ArialMT-6d" x="572.509766"/>
     </g>
    </g>
    <g id="line2d_37">
     <path d="M 239.546875 34.246875 
L 249.546875 34.246875 
L 259.546875 34.246875 
" style="fill: none; stroke: #ff7f0e; stroke-width: 1.5; stroke-linecap: round"/>
    </g>
    <g id="text_18">
     <!-- xavier_uniform_M_1 -->
     <g style="fill: #262626" transform="translate(267.546875 37.746875)scale(0.1 -0.1)">
      <defs>
       <path id="ArialMT-4d" d="M 475 0 
L 475 4581 
L 1388 4581 
L 2472 1338 
Q 2622 884 2691 659 
Q 2769 909 2934 1394 
L 4031 4581 
L 4847 4581 
L 4847 0 
L 4263 0 
L 4263 3834 
L 2931 0 
L 2384 0 
L 1059 3900 
L 1059 0 
L 475 0 
z
" transform="scale(0.015625)"/>
      </defs>
      <use xlink:href="#ArialMT-78"/>
      <use xlink:href="#ArialMT-61" x="50"/>
      <use xlink:href="#ArialMT-76" x="105.615234"/>
      <use xlink:href="#ArialMT-69" x="155.615234"/>
      <use xlink:href="#ArialMT-65" x="177.832031"/>
      <use xlink:href="#ArialMT-72" x="233.447266"/>
      <use xlink:href="#ArialMT-5f" x="266.748047"/>
      <use xlink:href="#ArialMT-75" x="322.363281"/>
      <use xlink:href="#ArialMT-6e" x="377.978516"/>
      <use xlink:href="#ArialMT-69" x="433.59375"/>
      <use xlink:href="#ArialMT-66" x="455.810547"/>
      <use xlink:href="#ArialMT-6f" x="483.59375"/>
      <use xlink:href="#ArialMT-72" x="539.208984"/>
      <use xlink:href="#ArialMT-6d" x="572.509766"/>
      <use xlink:href="#ArialMT-5f" x="655.810547"/>
      <use xlink:href="#ArialMT-4d" x="711.425781"/>
      <use xlink:href="#ArialMT-5f" x="794.726562"/>
      <use xlink:href="#ArialMT-31" x="850.341797"/>
     </g>
    </g>
    <g id="line2d_38">
     <path d="M 239.546875 48.514062 
L 249.546875 48.514062 
L 259.546875 48.514062 
" style="fill: none; stroke: #2ca02c; stroke-width: 1.5; stroke-linecap: round"/>
    </g>
    <g id="text_19">
     <!-- xavier_uniform_M_2 -->
     <g style="fill: #262626" transform="translate(267.546875 52.014062)scale(0.1 -0.1)">
      <use xlink:href="#ArialMT-78"/>
      <use xlink:href="#ArialMT-61" x="50"/>
      <use xlink:href="#ArialMT-76" x="105.615234"/>
      <use xlink:href="#ArialMT-69" x="155.615234"/>
      <use xlink:href="#ArialMT-65" x="177.832031"/>
      <use xlink:href="#ArialMT-72" x="233.447266"/>
      <use xlink:href="#ArialMT-5f" x="266.748047"/>
      <use xlink:href="#ArialMT-75" x="322.363281"/>
      <use xlink:href="#ArialMT-6e" x="377.978516"/>
      <use xlink:href="#ArialMT-69" x="433.59375"/>
      <use xlink:href="#ArialMT-66" x="455.810547"/>
      <use xlink:href="#ArialMT-6f" x="483.59375"/>
      <use xlink:href="#ArialMT-72" x="539.208984"/>
      <use xlink:href="#ArialMT-6d" x="572.509766"/>
      <use xlink:href="#ArialMT-5f" x="655.810547"/>
      <use xlink:href="#ArialMT-4d" x="711.425781"/>
      <use xlink:href="#ArialMT-5f" x="794.726562"/>
      <use xlink:href="#ArialMT-32" x="850.341797"/>
     </g>
    </g>
    <g id="line2d_39">
     <path d="M 239.546875 62.78125 
L 249.546875 62.78125 
L 259.546875 62.78125 
" style="fill: none; stroke: #d62728; stroke-width: 1.5; stroke-linecap: round"/>
    </g>
    <g id="text_20">
     <!-- xavier_uniform_M_10 -->
     <g style="fill: #262626" transform="translate(267.546875 66.28125)scale(0.1 -0.1)">
      <use xlink:href="#ArialMT-78"/>
      <use xlink:href="#ArialMT-61" x="50"/>
      <use xlink:href="#ArialMT-76" x="105.615234"/>
      <use xlink:href="#ArialMT-69" x="155.615234"/>
      <use xlink:href="#ArialMT-65" x="177.832031"/>
      <use xlink:href="#ArialMT-72" x="233.447266"/>
      <use xlink:href="#ArialMT-5f" x="266.748047"/>
      <use xlink:href="#ArialMT-75" x="322.363281"/>
      <use xlink:href="#ArialMT-6e" x="377.978516"/>
      <use xlink:href="#ArialMT-69" x="433.59375"/>
      <use xlink:href="#ArialMT-66" x="455.810547"/>
      <use xlink:href="#ArialMT-6f" x="483.59375"/>
      <use xlink:href="#ArialMT-72" x="539.208984"/>
      <use xlink:href="#ArialMT-6d" x="572.509766"/>
      <use xlink:href="#ArialMT-5f" x="655.810547"/>
      <use xlink:href="#ArialMT-4d" x="711.425781"/>
      <use xlink:href="#ArialMT-5f" x="794.726562"/>
      <use xlink:href="#ArialMT-31" x="850.341797"/>
      <use xlink:href="#ArialMT-30" x="905.957031"/>
     </g>
    </g>
    <g id="line2d_40">
     <path d="M 239.546875 77.048437 
L 249.546875 77.048437 
L 259.546875 77.048437 
" style="fill: none; stroke: #9467bd; stroke-width: 1.5; stroke-linecap: round"/>
    </g>
    <g id="text_21">
     <!-- xavier_uniform_M_14 -->
     <g style="fill: #262626" transform="translate(267.546875 80.548437)scale(0.1 -0.1)">
      <defs>
       <path id="ArialMT-34" d="M 2069 0 
L 2069 1097 
L 81 1097 
L 81 1613 
L 2172 4581 
L 2631 4581 
L 2631 1613 
L 3250 1613 
L 3250 1097 
L 2631 1097 
L 2631 0 
L 2069 0 
z
M 2069 1613 
L 2069 3678 
L 634 1613 
L 2069 1613 
z
" transform="scale(0.015625)"/>
      </defs>
      <use xlink:href="#ArialMT-78"/>
      <use xlink:href="#ArialMT-61" x="50"/>
      <use xlink:href="#ArialMT-76" x="105.615234"/>
      <use xlink:href="#ArialMT-69" x="155.615234"/>
      <use xlink:href="#ArialMT-65" x="177.832031"/>
      <use xlink:href="#ArialMT-72" x="233.447266"/>
      <use xlink:href="#ArialMT-5f" x="266.748047"/>
      <use xlink:href="#ArialMT-75" x="322.363281"/>
      <use xlink:href="#ArialMT-6e" x="377.978516"/>
      <use xlink:href="#ArialMT-69" x="433.59375"/>
      <use xlink:href="#ArialMT-66" x="455.810547"/>
      <use xlink:href="#ArialMT-6f" x="483.59375"/>
      <use xlink:href="#ArialMT-72" x="539.208984"/>
      <use xlink:href="#ArialMT-6d" x="572.509766"/>
      <use xlink:href="#ArialMT-5f" x="655.810547"/>
      <use xlink:href="#ArialMT-4d" x="711.425781"/>
      <use xlink:href="#ArialMT-5f" x="794.726562"/>
      <use xlink:href="#ArialMT-31" x="850.341797"/>
      <use xlink:href="#ArialMT-34" x="905.957031"/>
     </g>
    </g>
    <g id="line2d_41">
     <path d="M 239.546875 91.315625 
L 249.546875 91.315625 
L 259.546875 91.315625 
" style="fill: none; stroke: #8c564b; stroke-width: 1.5; stroke-linecap: round"/>
    </g>
    <g id="text_22">
     <!-- xavier_uniform_M_20 -->
     <g style="fill: #262626" transform="translate(267.546875 94.815625)scale(0.1 -0.1)">
      <use xlink:href="#ArialMT-78"/>
      <use xlink:href="#ArialMT-61" x="50"/>
      <use xlink:href="#ArialMT-76" x="105.615234"/>
      <use xlink:href="#ArialMT-69" x="155.615234"/>
      <use xlink:href="#ArialMT-65" x="177.832031"/>
      <use xlink:href="#ArialMT-72" x="233.447266"/>
      <use xlink:href="#ArialMT-5f" x="266.748047"/>
      <use xlink:href="#ArialMT-75" x="322.363281"/>
      <use xlink:href="#ArialMT-6e" x="377.978516"/>
      <use xlink:href="#ArialMT-69" x="433.59375"/>
      <use xlink:href="#ArialMT-66" x="455.810547"/>
      <use xlink:href="#ArialMT-6f" x="483.59375"/>
      <use xlink:href="#ArialMT-72" x="539.208984"/>
      <use xlink:href="#ArialMT-6d" x="572.509766"/>
      <use xlink:href="#ArialMT-5f" x="655.810547"/>
      <use xlink:href="#ArialMT-4d" x="711.425781"/>
      <use xlink:href="#ArialMT-5f" x="794.726562"/>
      <use xlink:href="#ArialMT-32" x="850.341797"/>
      <use xlink:href="#ArialMT-30" x="905.957031"/>
     </g>
    </g>
    <g id="line2d_42">
     <path d="M 239.546875 105.582812 
L 249.546875 105.582812 
L 259.546875 105.582812 
" style="fill: none; stroke: #e377c2; stroke-width: 1.5; stroke-linecap: round"/>
    </g>
    <g id="text_23">
     <!-- kaiming_uniform -->
     <g style="fill: #262626" transform="translate(267.546875 109.082812)scale(0.1 -0.1)">
      <defs>
       <path id="ArialMT-67" d="M 319 -275 
L 866 -356 
Q 900 -609 1056 -725 
Q 1266 -881 1628 -881 
Q 2019 -881 2231 -725 
Q 2444 -569 2519 -288 
Q 2563 -116 2559 434 
Q 2191 0 1641 0 
Q 956 0 581 494 
Q 206 988 206 1678 
Q 206 2153 378 2554 
Q 550 2956 876 3175 
Q 1203 3394 1644 3394 
Q 2231 3394 2613 2919 
L 2613 3319 
L 3131 3319 
L 3131 450 
Q 3131 -325 2973 -648 
Q 2816 -972 2473 -1159 
Q 2131 -1347 1631 -1347 
Q 1038 -1347 672 -1080 
Q 306 -813 319 -275 
z
M 784 1719 
Q 784 1066 1043 766 
Q 1303 466 1694 466 
Q 2081 466 2343 764 
Q 2606 1063 2606 1700 
Q 2606 2309 2336 2618 
Q 2066 2928 1684 2928 
Q 1309 2928 1046 2623 
Q 784 2319 784 1719 
z
" transform="scale(0.015625)"/>
      </defs>
      <use xlink:href="#ArialMT-6b"/>
      <use xlink:href="#ArialMT-61" x="50"/>
      <use xlink:href="#ArialMT-69" x="105.615234"/>
      <use xlink:href="#ArialMT-6d" x="127.832031"/>
      <use xlink:href="#ArialMT-69" x="211.132812"/>
      <use xlink:href="#ArialMT-6e" x="233.349609"/>
      <use xlink:href="#ArialMT-67" x="288.964844"/>
      <use xlink:href="#ArialMT-5f" x="344.580078"/>
      <use xlink:href="#ArialMT-75" x="400.195312"/>
      <use xlink:href="#ArialMT-6e" x="455.810547"/>
      <use xlink:href="#ArialMT-69" x="511.425781"/>
      <use xlink:href="#ArialMT-66" x="533.642578"/>
      <use xlink:href="#ArialMT-6f" x="561.425781"/>
      <use xlink:href="#ArialMT-72" x="617.041016"/>
      <use xlink:href="#ArialMT-6d" x="650.341797"/>
     </g>
    </g>
   </g>
  </g>
 </g>
 <defs>
  <clipPath id="pce71dd9906">
   <rect x="37.896875" y="7.2" width="334.8" height="217.44"/>
  </clipPath>
 </defs>
</svg>
