<?xml version="1.0" encoding="utf-8" standalone="no"?>
<!DOCTYPE svg PUBLIC "-//W3C//DTD SVG 1.1//EN"
  "http://www.w3.org/Graphics/SVG/1.1/DTD/svg11.dtd">
<svg xmlns:xlink="http://www.w3.org/1999/xlink" width="388.965625pt" height="262.19625pt" viewBox="0 0 388.965625 262.19625" xmlns="http://www.w3.org/2000/svg" version="1.1">
 <metadata>
  <rdf:RDF xmlns:dc="http://purl.org/dc/elements/1.1/" xmlns:cc="http://creativecommons.org/ns#" xmlns:rdf="http://www.w3.org/1999/02/22-rdf-syntax-ns#">
   <cc:Work>
    <dc:type rdf:resource="http://purl.org/dc/dcmitype/StillImage"/>
    <dc:date>2022-03-01T09:58:19.699584</dc:date>
    <dc:format>image/svg+xml</dc:format>
    <dc:creator>
     <cc:Agent>
      <dc:title>Matplotlib v3.5.0, https://matplotlib.org/</dc:title>
     </cc:Agent>
    </dc:creator>
   </cc:Work>
  </rdf:RDF>
 </metadata>
 <defs>
  <style type="text/css">*{stroke-linejoin: round; stroke-linecap: butt}</style>
 </defs>
 <g id="figure_1">
  <g id="patch_1">
   <path d="M -0 262.19625 
L 388.965625 262.19625 
L 388.965625 0 
L -0 0 
L -0 262.19625 
z
" style="fill: none"/>
  </g>
  <g id="axes_1">
   <g id="patch_2">
    <path d="M 46.965625 224.64 
L 381.765625 224.64 
L 381.765625 7.2 
L 46.965625 7.2 
z
" style="fill: #ffffff"/>
   </g>
   <g id="matplotlib.axis_1">
    <g id="xtick_1">
     <g id="line2d_1">
      <defs>
       <path id="mcd05e7b153" d="M 0 0 
L 0 3.5 
" style="stroke: #000000; stroke-width: 0.8"/>
      </defs>
      <g>
       <use xlink:href="#mcd05e7b153" x="62.183807" y="224.64" style="stroke: #000000; stroke-width: 0.8"/>
      </g>
     </g>
     <g id="text_1">
      <!-- 0 -->
      <g transform="translate(59.002557 239.238437)scale(0.1 -0.1)">
       <defs>
        <path id="DejaVuSans-30" d="M 2034 4250 
Q 1547 4250 1301 3770 
Q 1056 3291 1056 2328 
Q 1056 1369 1301 889 
Q 1547 409 2034 409 
Q 2525 409 2770 889 
Q 3016 1369 3016 2328 
Q 3016 3291 2770 3770 
Q 2525 4250 2034 4250 
z
M 2034 4750 
Q 2819 4750 3233 4129 
Q 3647 3509 3647 2328 
Q 3647 1150 3233 529 
Q 2819 -91 2034 -91 
Q 1250 -91 836 529 
Q 422 1150 422 2328 
Q 422 3509 836 4129 
Q 1250 4750 2034 4750 
z
" transform="scale(0.015625)"/>
       </defs>
       <use xlink:href="#DejaVuSans-30"/>
      </g>
     </g>
    </g>
    <g id="xtick_2">
     <g id="line2d_2">
      <g>
       <use xlink:href="#mcd05e7b153" x="124.298835" y="224.64" style="stroke: #000000; stroke-width: 0.8"/>
      </g>
     </g>
     <g id="text_2">
      <!-- 10 -->
      <g transform="translate(117.936335 239.238437)scale(0.1 -0.1)">
       <defs>
        <path id="DejaVuSans-31" d="M 794 531 
L 1825 531 
L 1825 4091 
L 703 3866 
L 703 4441 
L 1819 4666 
L 2450 4666 
L 2450 531 
L 3481 531 
L 3481 0 
L 794 0 
L 794 531 
z
" transform="scale(0.015625)"/>
       </defs>
       <use xlink:href="#DejaVuSans-31"/>
       <use xlink:href="#DejaVuSans-30" x="63.623047"/>
      </g>
     </g>
    </g>
    <g id="xtick_3">
     <g id="line2d_3">
      <g>
       <use xlink:href="#mcd05e7b153" x="186.413862" y="224.64" style="stroke: #000000; stroke-width: 0.8"/>
      </g>
     </g>
     <g id="text_3">
      <!-- 20 -->
      <g transform="translate(180.051362 239.238437)scale(0.1 -0.1)">
       <defs>
        <path id="DejaVuSans-32" d="M 1228 531 
L 3431 531 
L 3431 0 
L 469 0 
L 469 531 
Q 828 903 1448 1529 
Q 2069 2156 2228 2338 
Q 2531 2678 2651 2914 
Q 2772 3150 2772 3378 
Q 2772 3750 2511 3984 
Q 2250 4219 1831 4219 
Q 1534 4219 1204 4116 
Q 875 4013 500 3803 
L 500 4441 
Q 881 4594 1212 4672 
Q 1544 4750 1819 4750 
Q 2544 4750 2975 4387 
Q 3406 4025 3406 3419 
Q 3406 3131 3298 2873 
Q 3191 2616 2906 2266 
Q 2828 2175 2409 1742 
Q 1991 1309 1228 531 
z
" transform="scale(0.015625)"/>
       </defs>
       <use xlink:href="#DejaVuSans-32"/>
       <use xlink:href="#DejaVuSans-30" x="63.623047"/>
      </g>
     </g>
    </g>
    <g id="xtick_4">
     <g id="line2d_4">
      <g>
       <use xlink:href="#mcd05e7b153" x="248.52889" y="224.64" style="stroke: #000000; stroke-width: 0.8"/>
      </g>
     </g>
     <g id="text_4">
      <!-- 30 -->
      <g transform="translate(242.16639 239.238437)scale(0.1 -0.1)">
       <defs>
        <path id="DejaVuSans-33" d="M 2597 2516 
Q 3050 2419 3304 2112 
Q 3559 1806 3559 1356 
Q 3559 666 3084 287 
Q 2609 -91 1734 -91 
Q 1441 -91 1130 -33 
Q 819 25 488 141 
L 488 750 
Q 750 597 1062 519 
Q 1375 441 1716 441 
Q 2309 441 2620 675 
Q 2931 909 2931 1356 
Q 2931 1769 2642 2001 
Q 2353 2234 1838 2234 
L 1294 2234 
L 1294 2753 
L 1863 2753 
Q 2328 2753 2575 2939 
Q 2822 3125 2822 3475 
Q 2822 3834 2567 4026 
Q 2313 4219 1838 4219 
Q 1578 4219 1281 4162 
Q 984 4106 628 3988 
L 628 4550 
Q 988 4650 1302 4700 
Q 1616 4750 1894 4750 
Q 2613 4750 3031 4423 
Q 3450 4097 3450 3541 
Q 3450 3153 3228 2886 
Q 3006 2619 2597 2516 
z
" transform="scale(0.015625)"/>
       </defs>
       <use xlink:href="#DejaVuSans-33"/>
       <use xlink:href="#DejaVuSans-30" x="63.623047"/>
      </g>
     </g>
    </g>
    <g id="xtick_5">
     <g id="line2d_5">
      <g>
       <use xlink:href="#mcd05e7b153" x="310.643918" y="224.64" style="stroke: #000000; stroke-width: 0.8"/>
      </g>
     </g>
     <g id="text_5">
      <!-- 40 -->
      <g transform="translate(304.281418 239.238437)scale(0.1 -0.1)">
       <defs>
        <path id="DejaVuSans-34" d="M 2419 4116 
L 825 1625 
L 2419 1625 
L 2419 4116 
z
M 2253 4666 
L 3047 4666 
L 3047 1625 
L 3713 1625 
L 3713 1100 
L 3047 1100 
L 3047 0 
L 2419 0 
L 2419 1100 
L 313 1100 
L 313 1709 
L 2253 4666 
z
" transform="scale(0.015625)"/>
       </defs>
       <use xlink:href="#DejaVuSans-34"/>
       <use xlink:href="#DejaVuSans-30" x="63.623047"/>
      </g>
     </g>
    </g>
    <g id="xtick_6">
     <g id="line2d_6">
      <g>
       <use xlink:href="#mcd05e7b153" x="372.758946" y="224.64" style="stroke: #000000; stroke-width: 0.8"/>
      </g>
     </g>
     <g id="text_6">
      <!-- 50 -->
      <g transform="translate(366.396446 239.238437)scale(0.1 -0.1)">
       <defs>
        <path id="DejaVuSans-35" d="M 691 4666 
L 3169 4666 
L 3169 4134 
L 1269 4134 
L 1269 2991 
Q 1406 3038 1543 3061 
Q 1681 3084 1819 3084 
Q 2600 3084 3056 2656 
Q 3513 2228 3513 1497 
Q 3513 744 3044 326 
Q 2575 -91 1722 -91 
Q 1428 -91 1123 -41 
Q 819 9 494 109 
L 494 744 
Q 775 591 1075 516 
Q 1375 441 1709 441 
Q 2250 441 2565 725 
Q 2881 1009 2881 1497 
Q 2881 1984 2565 2268 
Q 2250 2553 1709 2553 
Q 1456 2553 1204 2497 
Q 953 2441 691 2322 
L 691 4666 
z
" transform="scale(0.015625)"/>
       </defs>
       <use xlink:href="#DejaVuSans-35"/>
       <use xlink:href="#DejaVuSans-30" x="63.623047"/>
      </g>
     </g>
    </g>
    <g id="text_7">
     <!-- Epoch -->
     <g transform="translate(199.054688 252.916562)scale(0.1 -0.1)">
      <defs>
       <path id="DejaVuSans-45" d="M 628 4666 
L 3578 4666 
L 3578 4134 
L 1259 4134 
L 1259 2753 
L 3481 2753 
L 3481 2222 
L 1259 2222 
L 1259 531 
L 3634 531 
L 3634 0 
L 628 0 
L 628 4666 
z
" transform="scale(0.015625)"/>
       <path id="DejaVuSans-70" d="M 1159 525 
L 1159 -1331 
L 581 -1331 
L 581 3500 
L 1159 3500 
L 1159 2969 
Q 1341 3281 1617 3432 
Q 1894 3584 2278 3584 
Q 2916 3584 3314 3078 
Q 3713 2572 3713 1747 
Q 3713 922 3314 415 
Q 2916 -91 2278 -91 
Q 1894 -91 1617 61 
Q 1341 213 1159 525 
z
M 3116 1747 
Q 3116 2381 2855 2742 
Q 2594 3103 2138 3103 
Q 1681 3103 1420 2742 
Q 1159 2381 1159 1747 
Q 1159 1113 1420 752 
Q 1681 391 2138 391 
Q 2594 391 2855 752 
Q 3116 1113 3116 1747 
z
" transform="scale(0.015625)"/>
       <path id="DejaVuSans-6f" d="M 1959 3097 
Q 1497 3097 1228 2736 
Q 959 2375 959 1747 
Q 959 1119 1226 758 
Q 1494 397 1959 397 
Q 2419 397 2687 759 
Q 2956 1122 2956 1747 
Q 2956 2369 2687 2733 
Q 2419 3097 1959 3097 
z
M 1959 3584 
Q 2709 3584 3137 3096 
Q 3566 2609 3566 1747 
Q 3566 888 3137 398 
Q 2709 -91 1959 -91 
Q 1206 -91 779 398 
Q 353 888 353 1747 
Q 353 2609 779 3096 
Q 1206 3584 1959 3584 
z
" transform="scale(0.015625)"/>
       <path id="DejaVuSans-63" d="M 3122 3366 
L 3122 2828 
Q 2878 2963 2633 3030 
Q 2388 3097 2138 3097 
Q 1578 3097 1268 2742 
Q 959 2388 959 1747 
Q 959 1106 1268 751 
Q 1578 397 2138 397 
Q 2388 397 2633 464 
Q 2878 531 3122 666 
L 3122 134 
Q 2881 22 2623 -34 
Q 2366 -91 2075 -91 
Q 1284 -91 818 406 
Q 353 903 353 1747 
Q 353 2603 823 3093 
Q 1294 3584 2113 3584 
Q 2378 3584 2631 3529 
Q 2884 3475 3122 3366 
z
" transform="scale(0.015625)"/>
       <path id="DejaVuSans-68" d="M 3513 2113 
L 3513 0 
L 2938 0 
L 2938 2094 
Q 2938 2591 2744 2837 
Q 2550 3084 2163 3084 
Q 1697 3084 1428 2787 
Q 1159 2491 1159 1978 
L 1159 0 
L 581 0 
L 581 4863 
L 1159 4863 
L 1159 2956 
Q 1366 3272 1645 3428 
Q 1925 3584 2291 3584 
Q 2894 3584 3203 3211 
Q 3513 2838 3513 2113 
z
" transform="scale(0.015625)"/>
      </defs>
      <use xlink:href="#DejaVuSans-45"/>
      <use xlink:href="#DejaVuSans-70" x="63.183594"/>
      <use xlink:href="#DejaVuSans-6f" x="126.660156"/>
      <use xlink:href="#DejaVuSans-63" x="187.841797"/>
      <use xlink:href="#DejaVuSans-68" x="242.822266"/>
     </g>
    </g>
   </g>
   <g id="matplotlib.axis_2">
    <g id="ytick_1">
     <g id="line2d_7">
      <defs>
       <path id="mc7682bbbf6" d="M 0 0 
L -3.5 0 
" style="stroke: #000000; stroke-width: 0.8"/>
      </defs>
      <g>
       <use xlink:href="#mc7682bbbf6" x="46.965625" y="204.302102" style="stroke: #000000; stroke-width: 0.8"/>
      </g>
     </g>
     <g id="text_8">
      <!-- 100 -->
      <g transform="translate(20.878125 208.10132)scale(0.1 -0.1)">
       <use xlink:href="#DejaVuSans-31"/>
       <use xlink:href="#DejaVuSans-30" x="63.623047"/>
       <use xlink:href="#DejaVuSans-30" x="127.246094"/>
      </g>
     </g>
    </g>
    <g id="ytick_2">
     <g id="line2d_8">
      <g>
       <use xlink:href="#mc7682bbbf6" x="46.965625" y="158.196406" style="stroke: #000000; stroke-width: 0.8"/>
      </g>
     </g>
     <g id="text_9">
      <!-- 200 -->
      <g transform="translate(20.878125 161.995625)scale(0.1 -0.1)">
       <use xlink:href="#DejaVuSans-32"/>
       <use xlink:href="#DejaVuSans-30" x="63.623047"/>
       <use xlink:href="#DejaVuSans-30" x="127.246094"/>
      </g>
     </g>
    </g>
    <g id="ytick_3">
     <g id="line2d_9">
      <g>
       <use xlink:href="#mc7682bbbf6" x="46.965625" y="112.090711" style="stroke: #000000; stroke-width: 0.8"/>
      </g>
     </g>
     <g id="text_10">
      <!-- 300 -->
      <g transform="translate(20.878125 115.88993)scale(0.1 -0.1)">
       <use xlink:href="#DejaVuSans-33"/>
       <use xlink:href="#DejaVuSans-30" x="63.623047"/>
       <use xlink:href="#DejaVuSans-30" x="127.246094"/>
      </g>
     </g>
    </g>
    <g id="ytick_4">
     <g id="line2d_10">
      <g>
       <use xlink:href="#mc7682bbbf6" x="46.965625" y="65.985016" style="stroke: #000000; stroke-width: 0.8"/>
      </g>
     </g>
     <g id="text_11">
      <!-- 400 -->
      <g transform="translate(20.878125 69.784235)scale(0.1 -0.1)">
       <use xlink:href="#DejaVuSans-34"/>
       <use xlink:href="#DejaVuSans-30" x="63.623047"/>
       <use xlink:href="#DejaVuSans-30" x="127.246094"/>
      </g>
     </g>
    </g>
    <g id="ytick_5">
     <g id="line2d_11">
      <g>
       <use xlink:href="#mc7682bbbf6" x="46.965625" y="19.879321" style="stroke: #000000; stroke-width: 0.8"/>
      </g>
     </g>
     <g id="text_12">
      <!-- 500 -->
      <g transform="translate(20.878125 23.67854)scale(0.1 -0.1)">
       <use xlink:href="#DejaVuSans-35"/>
       <use xlink:href="#DejaVuSans-30" x="63.623047"/>
       <use xlink:href="#DejaVuSans-30" x="127.246094"/>
      </g>
     </g>
    </g>
    <g id="text_13">
     <!-- Loss -->
     <g transform="translate(14.798438 126.887187)rotate(-90)scale(0.1 -0.1)">
      <defs>
       <path id="DejaVuSans-4c" d="M 628 4666 
L 1259 4666 
L 1259 531 
L 3531 531 
L 3531 0 
L 628 0 
L 628 4666 
z
" transform="scale(0.015625)"/>
       <path id="DejaVuSans-73" d="M 2834 3397 
L 2834 2853 
Q 2591 2978 2328 3040 
Q 2066 3103 1784 3103 
Q 1356 3103 1142 2972 
Q 928 2841 928 2578 
Q 928 2378 1081 2264 
Q 1234 2150 1697 2047 
L 1894 2003 
Q 2506 1872 2764 1633 
Q 3022 1394 3022 966 
Q 3022 478 2636 193 
Q 2250 -91 1575 -91 
Q 1294 -91 989 -36 
Q 684 19 347 128 
L 347 722 
Q 666 556 975 473 
Q 1284 391 1588 391 
Q 1994 391 2212 530 
Q 2431 669 2431 922 
Q 2431 1156 2273 1281 
Q 2116 1406 1581 1522 
L 1381 1569 
Q 847 1681 609 1914 
Q 372 2147 372 2553 
Q 372 3047 722 3315 
Q 1072 3584 1716 3584 
Q 2034 3584 2315 3537 
Q 2597 3491 2834 3397 
z
" transform="scale(0.015625)"/>
      </defs>
      <use xlink:href="#DejaVuSans-4c"/>
      <use xlink:href="#DejaVuSans-6f" x="53.962891"/>
      <use xlink:href="#DejaVuSans-73" x="115.144531"/>
      <use xlink:href="#DejaVuSans-73" x="167.244141"/>
     </g>
    </g>
   </g>
   <g id="line2d_12">
    <path d="M 62.183807 17.083636 
L 68.39531 17.437709 
L 74.606812 17.808924 
L 80.818315 18.250229 
L 87.029818 18.847717 
L 93.241321 19.798947 
L 99.452824 21.620674 
L 105.664326 25.216964 
L 111.875829 30.771473 
L 118.087332 38.281805 
L 124.298835 46.54047 
L 130.510337 55.781369 
L 136.72184 64.48203 
L 142.933343 72.544161 
L 149.144846 82.512959 
L 155.356349 91.757095 
L 161.567851 100.059245 
L 167.779354 107.535933 
L 173.990857 113.98569 
L 180.20236 120.30642 
L 186.413862 126.143262 
L 192.625365 131.430896 
L 198.836868 136.559613 
L 205.048371 141.408257 
L 211.259874 146.647858 
L 217.471376 151.725301 
L 223.682879 154.416558 
L 229.894382 158.082124 
L 236.105885 161.69258 
L 242.317388 165.077588 
L 248.52889 168.339671 
L 254.740393 170.523475 
L 260.951896 173.324418 
L 267.163399 175.167813 
L 273.374901 177.663409 
L 279.586404 179.651212 
L 285.797907 181.889188 
L 292.00941 183.517192 
L 298.220913 184.101775 
L 304.432415 186.755487 
L 310.643918 188.584197 
L 316.855421 188.905496 
L 323.066924 190.58101 
L 329.278426 192.039466 
L 335.489929 193.211734 
L 341.701432 194.172159 
L 347.912935 195.398436 
L 354.124438 196.218988 
L 360.33594 197.102202 
L 366.547443 197.928015 
" clip-path="url(#p8ad20de807)" style="fill: none; stroke: #1f77b4; stroke-width: 1.5; stroke-linecap: square"/>
   </g>
   <g id="line2d_13">
    <path d="M 62.183807 65.791103 
L 68.39531 94.218045 
L 74.606812 106.548079 
L 80.818315 114.625675 
L 87.029818 119.786544 
L 93.241321 124.551584 
L 99.452824 132.304704 
L 105.664326 137.49242 
L 111.875829 140.690012 
L 118.087332 144.535304 
L 124.298835 147.828998 
L 130.510337 149.07892 
L 136.72184 146.64155 
L 142.933343 152.971537 
L 149.144846 155.336604 
L 155.356349 156.16489 
L 161.567851 153.889757 
L 167.779354 159.229285 
L 173.990857 158.138382 
L 180.20236 156.063168 
L 186.413862 156.056312 
L 192.625365 159.791349 
L 198.836868 155.944343 
L 205.048371 154.096444 
L 211.259874 156.129171 
L 217.471376 153.694113 
L 223.682879 153.721789 
L 229.894382 155.700565 
L 236.105885 153.132293 
L 242.317388 149.45107 
L 248.52889 146.319242 
L 254.740393 149.568991 
L 260.951896 152.573809 
L 267.163399 150.108289 
L 273.374901 146.114528 
L 279.586404 146.146989 
L 285.797907 145.037049 
L 292.00941 144.038651 
L 298.220913 140.230238 
L 304.432415 141.460795 
L 310.643918 138.15579 
L 316.855421 136.873814 
L 323.066924 142.824983 
L 329.278426 138.404973 
L 335.489929 134.617623 
L 341.701432 129.361415 
L 347.912935 134.194488 
L 354.124438 126.9057 
L 360.33594 131.852197 
L 366.547443 129.987891 
" clip-path="url(#p8ad20de807)" style="fill: none; stroke: #ff7f0e; stroke-width: 1.5; stroke-linecap: square"/>
   </g>
   <g id="line2d_14">
    <path d="M 62.183807 63.790517 
L 68.39531 93.331915 
L 74.606812 104.619717 
L 80.818315 112.72449 
L 87.029818 119.501112 
L 93.241321 125.364438 
L 99.452824 129.948791 
L 105.664326 134.585717 
L 111.875829 138.533894 
L 118.087332 143.497039 
L 124.298835 142.324059 
L 130.510337 146.694676 
L 136.72184 148.583829 
L 142.933343 150.419962 
L 149.144846 152.597137 
L 155.356349 153.828242 
L 161.567851 154.596481 
L 167.779354 154.479833 
L 173.990857 155.129129 
L 180.20236 156.157653 
L 186.413862 155.037793 
L 192.625365 156.223757 
L 198.836868 153.974774 
L 205.048371 149.806586 
L 211.259874 151.375861 
L 217.471376 156.227596 
L 223.682879 156.855695 
L 229.894382 155.829591 
L 236.105885 156.428732 
L 242.317388 149.492689 
L 248.52889 148.328785 
L 254.740393 153.243581 
L 260.951896 150.6483 
L 267.163399 146.33746 
L 273.374901 148.011565 
L 279.586404 143.792578 
L 285.797907 143.289139 
L 292.00941 138.170148 
L 298.220913 140.922821 
L 304.432415 136.947829 
L 310.643918 140.068777 
L 316.855421 138.786098 
L 323.066924 139.077345 
L 329.278426 130.357341 
L 335.489929 131.273884 
L 341.701432 132.036769 
L 347.912935 126.85847 
L 354.124438 125.025639 
L 360.33594 127.112832 
L 366.547443 126.926751 
" clip-path="url(#p8ad20de807)" style="fill: none; stroke: #2ca02c; stroke-width: 1.5; stroke-linecap: square"/>
   </g>
   <g id="line2d_15">
    <path d="M 62.183807 18.335832 
L 68.39531 20.255134 
L 74.606812 22.676673 
L 80.818315 26.518182 
L 87.029818 32.851029 
L 93.241321 41.898882 
L 99.452824 52.406007 
L 105.664326 64.156532 
L 111.875829 76.774768 
L 118.087332 90.405025 
L 124.298835 102.827504 
L 130.510337 114.493302 
L 136.72184 125.085554 
L 142.933343 132.905377 
L 149.144846 139.150109 
L 155.356349 143.421337 
L 161.567851 147.871402 
L 167.779354 152.195002 
L 173.990857 156.314751 
L 180.20236 160.010946 
L 186.413862 163.607013 
L 192.625365 167.586034 
L 198.836868 170.941731 
L 205.048371 175.114046 
L 211.259874 177.043527 
L 217.471376 180.149313 
L 223.682879 182.806534 
L 229.894382 184.416491 
L 236.105885 186.740605 
L 242.317388 188.354088 
L 248.52889 190.270918 
L 254.740393 191.335609 
L 260.951896 192.671667 
L 267.163399 193.91049 
L 273.374901 195.051437 
L 279.586404 195.805928 
L 285.797907 197.265367 
L 292.00941 197.482549 
L 298.220913 200.121556 
L 304.432415 199.911059 
L 310.643918 200.716832 
L 316.855421 203.076614 
L 323.066924 204.109866 
L 329.278426 204.223147 
L 335.489929 205.350499 
L 341.701432 206.106329 
L 347.912935 206.825781 
L 354.124438 208.501137 
L 360.33594 209.203621 
L 366.547443 210.070876 
" clip-path="url(#p8ad20de807)" style="fill: none; stroke: #d62728; stroke-width: 1.5; stroke-linecap: square"/>
   </g>
   <g id="line2d_16">
    <path d="M 62.183807 18.800374 
L 68.39531 21.988757 
L 74.606812 26.892088 
L 80.818315 34.487285 
L 87.029818 45.102875 
L 93.241321 57.890034 
L 99.452824 71.338405 
L 105.664326 83.891114 
L 111.875829 95.401871 
L 118.087332 106.863898 
L 124.298835 117.564256 
L 130.510337 127.316459 
L 136.72184 135.027094 
L 142.933343 140.068323 
L 149.144846 145.489174 
L 155.356349 150.171683 
L 161.567851 154.111149 
L 167.779354 158.443196 
L 173.990857 161.697676 
L 180.20236 164.404734 
L 186.413862 167.994618 
L 192.625365 172.342447 
L 198.836868 175.346188 
L 205.048371 177.967817 
L 211.259874 180.723187 
L 217.471376 183.995788 
L 223.682879 185.471404 
L 229.894382 187.393255 
L 236.105885 189.691392 
L 242.317388 191.446035 
L 248.52889 193.392493 
L 254.740393 194.899988 
L 260.951896 196.526491 
L 267.163399 198.415385 
L 273.374901 198.724935 
L 279.586404 200.061301 
L 285.797907 201.218017 
L 292.00941 201.99987 
L 298.220913 203.0588 
L 304.432415 204.244471 
L 310.643918 205.310796 
L 316.855421 207.359106 
L 323.066924 207.392594 
L 329.278426 209.395132 
L 335.489929 209.861084 
L 341.701432 210.633278 
L 347.912935 211.225908 
L 354.124438 213.713382 
L 360.33594 212.528042 
L 366.547443 214.756364 
" clip-path="url(#p8ad20de807)" style="fill: none; stroke: #9467bd; stroke-width: 1.5; stroke-linecap: square"/>
   </g>
   <g id="line2d_17">
    <path d="M 62.183807 18.658201 
L 68.39531 22.064966 
L 74.606812 27.6853 
L 80.818315 37.109262 
L 87.029818 49.039361 
L 93.241321 60.458594 
L 99.452824 71.961183 
L 105.664326 84.083815 
L 111.875829 96.492445 
L 118.087332 107.567537 
L 124.298835 117.546256 
L 130.510337 125.853326 
L 136.72184 130.918019 
L 142.933343 135.81267 
L 149.144846 140.006902 
L 155.356349 143.670639 
L 161.567851 146.560371 
L 167.779354 150.407531 
L 173.990857 153.245391 
L 180.20236 156.403093 
L 186.413862 159.810958 
L 192.625365 163.805747 
L 198.836868 168.618349 
L 205.048371 172.287482 
L 211.259874 176.576774 
L 217.471376 179.685679 
L 223.682879 182.373226 
L 229.894382 184.54502 
L 236.105885 187.590289 
L 242.317388 188.612887 
L 248.52889 190.299044 
L 254.740393 192.255173 
L 260.951896 193.468028 
L 267.163399 194.888575 
L 273.374901 196.299928 
L 279.586404 197.602387 
L 285.797907 198.812025 
L 292.00941 200.481559 
L 298.220913 201.126853 
L 304.432415 201.793691 
L 310.643918 203.448674 
L 316.855421 204.268928 
L 323.066924 204.938431 
L 329.278426 206.501286 
L 335.489929 207.552893 
L 341.701432 209.024362 
L 347.912935 209.766916 
L 354.124438 211.036821 
L 360.33594 211.58407 
L 366.547443 212.479322 
" clip-path="url(#p8ad20de807)" style="fill: none; stroke: #8c564b; stroke-width: 1.5; stroke-linecap: square"/>
   </g>
   <g id="patch_3">
    <path d="M 46.965625 224.64 
L 46.965625 7.2 
" style="fill: none; stroke: #000000; stroke-width: 0.8; stroke-linejoin: miter; stroke-linecap: square"/>
   </g>
   <g id="patch_4">
    <path d="M 381.765625 224.64 
L 381.765625 7.2 
" style="fill: none; stroke: #000000; stroke-width: 0.8; stroke-linejoin: miter; stroke-linecap: square"/>
   </g>
   <g id="patch_5">
    <path d="M 46.965625 224.64 
L 381.765625 224.64 
" style="fill: none; stroke: #000000; stroke-width: 0.8; stroke-linejoin: miter; stroke-linecap: square"/>
   </g>
   <g id="patch_6">
    <path d="M 46.965625 7.2 
L 381.765625 7.2 
" style="fill: none; stroke: #000000; stroke-width: 0.8; stroke-linejoin: miter; stroke-linecap: square"/>
   </g>
   <g id="legend_1">
    <g id="patch_7">
     <path d="M 236.635938 104.9375 
L 374.765625 104.9375 
Q 376.765625 104.9375 376.765625 102.9375 
L 376.765625 14.2 
Q 376.765625 12.2 374.765625 12.2 
L 236.635938 12.2 
Q 234.635938 12.2 234.635938 14.2 
L 234.635938 102.9375 
Q 234.635938 104.9375 236.635938 104.9375 
z
" style="fill: #ffffff; opacity: 0.8; stroke: #cccccc; stroke-linejoin: miter"/>
    </g>
    <g id="line2d_18">
     <path d="M 238.635938 20.298437 
L 248.635938 20.298437 
L 258.635938 20.298437 
" style="fill: none; stroke: #1f77b4; stroke-width: 1.5; stroke-linecap: square"/>
    </g>
    <g id="text_14">
     <!-- xavier_uniform -->
     <g transform="translate(266.635938 23.798437)scale(0.1 -0.1)">
      <defs>
       <path id="DejaVuSans-78" d="M 3513 3500 
L 2247 1797 
L 3578 0 
L 2900 0 
L 1881 1375 
L 863 0 
L 184 0 
L 1544 1831 
L 300 3500 
L 978 3500 
L 1906 2253 
L 2834 3500 
L 3513 3500 
z
" transform="scale(0.015625)"/>
       <path id="DejaVuSans-61" d="M 2194 1759 
Q 1497 1759 1228 1600 
Q 959 1441 959 1056 
Q 959 750 1161 570 
Q 1363 391 1709 391 
Q 2188 391 2477 730 
Q 2766 1069 2766 1631 
L 2766 1759 
L 2194 1759 
z
M 3341 1997 
L 3341 0 
L 2766 0 
L 2766 531 
Q 2569 213 2275 61 
Q 1981 -91 1556 -91 
Q 1019 -91 701 211 
Q 384 513 384 1019 
Q 384 1609 779 1909 
Q 1175 2209 1959 2209 
L 2766 2209 
L 2766 2266 
Q 2766 2663 2505 2880 
Q 2244 3097 1772 3097 
Q 1472 3097 1187 3025 
Q 903 2953 641 2809 
L 641 3341 
Q 956 3463 1253 3523 
Q 1550 3584 1831 3584 
Q 2591 3584 2966 3190 
Q 3341 2797 3341 1997 
z
" transform="scale(0.015625)"/>
       <path id="DejaVuSans-76" d="M 191 3500 
L 800 3500 
L 1894 563 
L 2988 3500 
L 3597 3500 
L 2284 0 
L 1503 0 
L 191 3500 
z
" transform="scale(0.015625)"/>
       <path id="DejaVuSans-69" d="M 603 3500 
L 1178 3500 
L 1178 0 
L 603 0 
L 603 3500 
z
M 603 4863 
L 1178 4863 
L 1178 4134 
L 603 4134 
L 603 4863 
z
" transform="scale(0.015625)"/>
       <path id="DejaVuSans-65" d="M 3597 1894 
L 3597 1613 
L 953 1613 
Q 991 1019 1311 708 
Q 1631 397 2203 397 
Q 2534 397 2845 478 
Q 3156 559 3463 722 
L 3463 178 
Q 3153 47 2828 -22 
Q 2503 -91 2169 -91 
Q 1331 -91 842 396 
Q 353 884 353 1716 
Q 353 2575 817 3079 
Q 1281 3584 2069 3584 
Q 2775 3584 3186 3129 
Q 3597 2675 3597 1894 
z
M 3022 2063 
Q 3016 2534 2758 2815 
Q 2500 3097 2075 3097 
Q 1594 3097 1305 2825 
Q 1016 2553 972 2059 
L 3022 2063 
z
" transform="scale(0.015625)"/>
       <path id="DejaVuSans-72" d="M 2631 2963 
Q 2534 3019 2420 3045 
Q 2306 3072 2169 3072 
Q 1681 3072 1420 2755 
Q 1159 2438 1159 1844 
L 1159 0 
L 581 0 
L 581 3500 
L 1159 3500 
L 1159 2956 
Q 1341 3275 1631 3429 
Q 1922 3584 2338 3584 
Q 2397 3584 2469 3576 
Q 2541 3569 2628 3553 
L 2631 2963 
z
" transform="scale(0.015625)"/>
       <path id="DejaVuSans-5f" d="M 3263 -1063 
L 3263 -1509 
L -63 -1509 
L -63 -1063 
L 3263 -1063 
z
" transform="scale(0.015625)"/>
       <path id="DejaVuSans-75" d="M 544 1381 
L 544 3500 
L 1119 3500 
L 1119 1403 
Q 1119 906 1312 657 
Q 1506 409 1894 409 
Q 2359 409 2629 706 
Q 2900 1003 2900 1516 
L 2900 3500 
L 3475 3500 
L 3475 0 
L 2900 0 
L 2900 538 
Q 2691 219 2414 64 
Q 2138 -91 1772 -91 
Q 1169 -91 856 284 
Q 544 659 544 1381 
z
M 1991 3584 
L 1991 3584 
z
" transform="scale(0.015625)"/>
       <path id="DejaVuSans-6e" d="M 3513 2113 
L 3513 0 
L 2938 0 
L 2938 2094 
Q 2938 2591 2744 2837 
Q 2550 3084 2163 3084 
Q 1697 3084 1428 2787 
Q 1159 2491 1159 1978 
L 1159 0 
L 581 0 
L 581 3500 
L 1159 3500 
L 1159 2956 
Q 1366 3272 1645 3428 
Q 1925 3584 2291 3584 
Q 2894 3584 3203 3211 
Q 3513 2838 3513 2113 
z
" transform="scale(0.015625)"/>
       <path id="DejaVuSans-66" d="M 2375 4863 
L 2375 4384 
L 1825 4384 
Q 1516 4384 1395 4259 
Q 1275 4134 1275 3809 
L 1275 3500 
L 2222 3500 
L 2222 3053 
L 1275 3053 
L 1275 0 
L 697 0 
L 697 3053 
L 147 3053 
L 147 3500 
L 697 3500 
L 697 3744 
Q 697 4328 969 4595 
Q 1241 4863 1831 4863 
L 2375 4863 
z
" transform="scale(0.015625)"/>
       <path id="DejaVuSans-6d" d="M 3328 2828 
Q 3544 3216 3844 3400 
Q 4144 3584 4550 3584 
Q 5097 3584 5394 3201 
Q 5691 2819 5691 2113 
L 5691 0 
L 5113 0 
L 5113 2094 
Q 5113 2597 4934 2840 
Q 4756 3084 4391 3084 
Q 3944 3084 3684 2787 
Q 3425 2491 3425 1978 
L 3425 0 
L 2847 0 
L 2847 2094 
Q 2847 2600 2669 2842 
Q 2491 3084 2119 3084 
Q 1678 3084 1418 2786 
Q 1159 2488 1159 1978 
L 1159 0 
L 581 0 
L 581 3500 
L 1159 3500 
L 1159 2956 
Q 1356 3278 1631 3431 
Q 1906 3584 2284 3584 
Q 2666 3584 2933 3390 
Q 3200 3197 3328 2828 
z
" transform="scale(0.015625)"/>
      </defs>
      <use xlink:href="#DejaVuSans-78"/>
      <use xlink:href="#DejaVuSans-61" x="59.179688"/>
      <use xlink:href="#DejaVuSans-76" x="120.458984"/>
      <use xlink:href="#DejaVuSans-69" x="179.638672"/>
      <use xlink:href="#DejaVuSans-65" x="207.421875"/>
      <use xlink:href="#DejaVuSans-72" x="268.945312"/>
      <use xlink:href="#DejaVuSans-5f" x="310.058594"/>
      <use xlink:href="#DejaVuSans-75" x="360.058594"/>
      <use xlink:href="#DejaVuSans-6e" x="423.4375"/>
      <use xlink:href="#DejaVuSans-69" x="486.816406"/>
      <use xlink:href="#DejaVuSans-66" x="514.599609"/>
      <use xlink:href="#DejaVuSans-6f" x="549.804688"/>
      <use xlink:href="#DejaVuSans-72" x="610.986328"/>
      <use xlink:href="#DejaVuSans-6d" x="650.349609"/>
     </g>
    </g>
    <g id="line2d_19">
     <path d="M 238.635938 35.254687 
L 248.635938 35.254687 
L 258.635938 35.254687 
" style="fill: none; stroke: #ff7f0e; stroke-width: 1.5; stroke-linecap: square"/>
    </g>
    <g id="text_15">
     <!-- xavier_uniform_M_1 -->
     <g transform="translate(266.635938 38.754687)scale(0.1 -0.1)">
      <defs>
       <path id="DejaVuSans-4d" d="M 628 4666 
L 1569 4666 
L 2759 1491 
L 3956 4666 
L 4897 4666 
L 4897 0 
L 4281 0 
L 4281 4097 
L 3078 897 
L 2444 897 
L 1241 4097 
L 1241 0 
L 628 0 
L 628 4666 
z
" transform="scale(0.015625)"/>
      </defs>
      <use xlink:href="#DejaVuSans-78"/>
      <use xlink:href="#DejaVuSans-61" x="59.179688"/>
      <use xlink:href="#DejaVuSans-76" x="120.458984"/>
      <use xlink:href="#DejaVuSans-69" x="179.638672"/>
      <use xlink:href="#DejaVuSans-65" x="207.421875"/>
      <use xlink:href="#DejaVuSans-72" x="268.945312"/>
      <use xlink:href="#DejaVuSans-5f" x="310.058594"/>
      <use xlink:href="#DejaVuSans-75" x="360.058594"/>
      <use xlink:href="#DejaVuSans-6e" x="423.4375"/>
      <use xlink:href="#DejaVuSans-69" x="486.816406"/>
      <use xlink:href="#DejaVuSans-66" x="514.599609"/>
      <use xlink:href="#DejaVuSans-6f" x="549.804688"/>
      <use xlink:href="#DejaVuSans-72" x="610.986328"/>
      <use xlink:href="#DejaVuSans-6d" x="650.349609"/>
      <use xlink:href="#DejaVuSans-5f" x="747.761719"/>
      <use xlink:href="#DejaVuSans-4d" x="797.761719"/>
      <use xlink:href="#DejaVuSans-5f" x="884.041016"/>
      <use xlink:href="#DejaVuSans-31" x="934.041016"/>
     </g>
    </g>
    <g id="line2d_20">
     <path d="M 238.635938 50.210937 
L 248.635938 50.210937 
L 258.635938 50.210937 
" style="fill: none; stroke: #2ca02c; stroke-width: 1.5; stroke-linecap: square"/>
    </g>
    <g id="text_16">
     <!-- xavier_uniform_M_2 -->
     <g transform="translate(266.635938 53.710937)scale(0.1 -0.1)">
      <use xlink:href="#DejaVuSans-78"/>
      <use xlink:href="#DejaVuSans-61" x="59.179688"/>
      <use xlink:href="#DejaVuSans-76" x="120.458984"/>
      <use xlink:href="#DejaVuSans-69" x="179.638672"/>
      <use xlink:href="#DejaVuSans-65" x="207.421875"/>
      <use xlink:href="#DejaVuSans-72" x="268.945312"/>
      <use xlink:href="#DejaVuSans-5f" x="310.058594"/>
      <use xlink:href="#DejaVuSans-75" x="360.058594"/>
      <use xlink:href="#DejaVuSans-6e" x="423.4375"/>
      <use xlink:href="#DejaVuSans-69" x="486.816406"/>
      <use xlink:href="#DejaVuSans-66" x="514.599609"/>
      <use xlink:href="#DejaVuSans-6f" x="549.804688"/>
      <use xlink:href="#DejaVuSans-72" x="610.986328"/>
      <use xlink:href="#DejaVuSans-6d" x="650.349609"/>
      <use xlink:href="#DejaVuSans-5f" x="747.761719"/>
      <use xlink:href="#DejaVuSans-4d" x="797.761719"/>
      <use xlink:href="#DejaVuSans-5f" x="884.041016"/>
      <use xlink:href="#DejaVuSans-32" x="934.041016"/>
     </g>
    </g>
    <g id="line2d_21">
     <path d="M 238.635938 65.167187 
L 248.635938 65.167187 
L 258.635938 65.167187 
" style="fill: none; stroke: #d62728; stroke-width: 1.5; stroke-linecap: square"/>
    </g>
    <g id="text_17">
     <!-- xavier_uniform_M_10 -->
     <g transform="translate(266.635938 68.667187)scale(0.1 -0.1)">
      <use xlink:href="#DejaVuSans-78"/>
      <use xlink:href="#DejaVuSans-61" x="59.179688"/>
      <use xlink:href="#DejaVuSans-76" x="120.458984"/>
      <use xlink:href="#DejaVuSans-69" x="179.638672"/>
      <use xlink:href="#DejaVuSans-65" x="207.421875"/>
      <use xlink:href="#DejaVuSans-72" x="268.945312"/>
      <use xlink:href="#DejaVuSans-5f" x="310.058594"/>
      <use xlink:href="#DejaVuSans-75" x="360.058594"/>
      <use xlink:href="#DejaVuSans-6e" x="423.4375"/>
      <use xlink:href="#DejaVuSans-69" x="486.816406"/>
      <use xlink:href="#DejaVuSans-66" x="514.599609"/>
      <use xlink:href="#DejaVuSans-6f" x="549.804688"/>
      <use xlink:href="#DejaVuSans-72" x="610.986328"/>
      <use xlink:href="#DejaVuSans-6d" x="650.349609"/>
      <use xlink:href="#DejaVuSans-5f" x="747.761719"/>
      <use xlink:href="#DejaVuSans-4d" x="797.761719"/>
      <use xlink:href="#DejaVuSans-5f" x="884.041016"/>
      <use xlink:href="#DejaVuSans-31" x="934.041016"/>
      <use xlink:href="#DejaVuSans-30" x="997.664062"/>
     </g>
    </g>
    <g id="line2d_22">
     <path d="M 238.635938 80.123437 
L 248.635938 80.123437 
L 258.635938 80.123437 
" style="fill: none; stroke: #9467bd; stroke-width: 1.5; stroke-linecap: square"/>
    </g>
    <g id="text_18">
     <!-- xavier_uniform_M_14 -->
     <g transform="translate(266.635938 83.623437)scale(0.1 -0.1)">
      <use xlink:href="#DejaVuSans-78"/>
      <use xlink:href="#DejaVuSans-61" x="59.179688"/>
      <use xlink:href="#DejaVuSans-76" x="120.458984"/>
      <use xlink:href="#DejaVuSans-69" x="179.638672"/>
      <use xlink:href="#DejaVuSans-65" x="207.421875"/>
      <use xlink:href="#DejaVuSans-72" x="268.945312"/>
      <use xlink:href="#DejaVuSans-5f" x="310.058594"/>
      <use xlink:href="#DejaVuSans-75" x="360.058594"/>
      <use xlink:href="#DejaVuSans-6e" x="423.4375"/>
      <use xlink:href="#DejaVuSans-69" x="486.816406"/>
      <use xlink:href="#DejaVuSans-66" x="514.599609"/>
      <use xlink:href="#DejaVuSans-6f" x="549.804688"/>
      <use xlink:href="#DejaVuSans-72" x="610.986328"/>
      <use xlink:href="#DejaVuSans-6d" x="650.349609"/>
      <use xlink:href="#DejaVuSans-5f" x="747.761719"/>
      <use xlink:href="#DejaVuSans-4d" x="797.761719"/>
      <use xlink:href="#DejaVuSans-5f" x="884.041016"/>
      <use xlink:href="#DejaVuSans-31" x="934.041016"/>
      <use xlink:href="#DejaVuSans-34" x="997.664062"/>
     </g>
    </g>
    <g id="line2d_23">
     <path d="M 238.635938 95.079687 
L 248.635938 95.079687 
L 258.635938 95.079687 
" style="fill: none; stroke: #8c564b; stroke-width: 1.5; stroke-linecap: square"/>
    </g>
    <g id="text_19">
     <!-- xavier_uniform_M_20 -->
     <g transform="translate(266.635938 98.579687)scale(0.1 -0.1)">
      <use xlink:href="#DejaVuSans-78"/>
      <use xlink:href="#DejaVuSans-61" x="59.179688"/>
      <use xlink:href="#DejaVuSans-76" x="120.458984"/>
      <use xlink:href="#DejaVuSans-69" x="179.638672"/>
      <use xlink:href="#DejaVuSans-65" x="207.421875"/>
      <use xlink:href="#DejaVuSans-72" x="268.945312"/>
      <use xlink:href="#DejaVuSans-5f" x="310.058594"/>
      <use xlink:href="#DejaVuSans-75" x="360.058594"/>
      <use xlink:href="#DejaVuSans-6e" x="423.4375"/>
      <use xlink:href="#DejaVuSans-69" x="486.816406"/>
      <use xlink:href="#DejaVuSans-66" x="514.599609"/>
      <use xlink:href="#DejaVuSans-6f" x="549.804688"/>
      <use xlink:href="#DejaVuSans-72" x="610.986328"/>
      <use xlink:href="#DejaVuSans-6d" x="650.349609"/>
      <use xlink:href="#DejaVuSans-5f" x="747.761719"/>
      <use xlink:href="#DejaVuSans-4d" x="797.761719"/>
      <use xlink:href="#DejaVuSans-5f" x="884.041016"/>
      <use xlink:href="#DejaVuSans-32" x="934.041016"/>
      <use xlink:href="#DejaVuSans-30" x="997.664062"/>
     </g>
    </g>
   </g>
  </g>
 </g>
 <defs>
  <clipPath id="p8ad20de807">
   <rect x="46.965625" y="7.2" width="334.8" height="217.44"/>
  </clipPath>
 </defs>
</svg>
