<?xml version="1.0" encoding="utf-8" standalone="no"?>
<!DOCTYPE svg PUBLIC "-//W3C//DTD SVG 1.1//EN"
  "http://www.w3.org/Graphics/SVG/1.1/DTD/svg11.dtd">
<svg xmlns:xlink="http://www.w3.org/1999/xlink" width="388.240625pt" height="259.470569pt" viewBox="0 0 388.240625 259.470569" xmlns="http://www.w3.org/2000/svg" version="1.1">
 <metadata>
  <rdf:RDF xmlns:dc="http://purl.org/dc/elements/1.1/" xmlns:cc="http://creativecommons.org/ns#" xmlns:rdf="http://www.w3.org/1999/02/22-rdf-syntax-ns#">
   <cc:Work>
    <dc:type rdf:resource="http://purl.org/dc/dcmitype/StillImage"/>
    <dc:date>2022-03-29T11:25:50.758899</dc:date>
    <dc:format>image/svg+xml</dc:format>
    <dc:creator>
     <cc:Agent>
      <dc:title>Matplotlib v3.5.0, https://matplotlib.org/</dc:title>
     </cc:Agent>
    </dc:creator>
   </cc:Work>
  </rdf:RDF>
 </metadata>
 <defs>
  <style type="text/css">*{stroke-linejoin: round; stroke-linecap: butt}</style>
 </defs>
 <g id="figure_1">
  <g id="patch_1">
   <path d="M 0 259.470569 
L 388.240625 259.470569 
L 388.240625 0 
L 0 0 
z
" style="fill: #ffffff"/>
  </g>
  <g id="axes_1">
   <g id="patch_2">
    <path d="M 46.240625 226.479944 
L 381.040625 226.479944 
L 381.040625 9.039944 
L 46.240625 9.039944 
z
" style="fill: #ffffff"/>
   </g>
   <g id="matplotlib.axis_1">
    <g id="xtick_1">
     <g id="line2d_1">
      <path d="M 61.458807 226.479944 
L 61.458807 9.039944 
" clip-path="url(#p1744cd5963)" style="fill: none; stroke: #cccccc; stroke-width: 0.8; stroke-linecap: round"/>
     </g>
     <g id="line2d_2"/>
     <g id="text_1">
      <!-- 0 -->
      <g style="fill: #262626" transform="translate(58.678338 237.137756)scale(0.1 -0.1)">
       <defs>
        <path id="ArialMT-30" d="M 266 2259 
Q 266 3072 433 3567 
Q 600 4063 929 4331 
Q 1259 4600 1759 4600 
Q 2128 4600 2406 4451 
Q 2684 4303 2865 4023 
Q 3047 3744 3150 3342 
Q 3253 2941 3253 2259 
Q 3253 1453 3087 958 
Q 2922 463 2592 192 
Q 2263 -78 1759 -78 
Q 1097 -78 719 397 
Q 266 969 266 2259 
z
M 844 2259 
Q 844 1131 1108 757 
Q 1372 384 1759 384 
Q 2147 384 2411 759 
Q 2675 1134 2675 2259 
Q 2675 3391 2411 3762 
Q 2147 4134 1753 4134 
Q 1366 4134 1134 3806 
Q 844 3388 844 2259 
z
" transform="scale(0.015625)"/>
       </defs>
       <use xlink:href="#ArialMT-30"/>
      </g>
     </g>
    </g>
    <g id="xtick_2">
     <g id="line2d_3">
      <path d="M 99.695445 226.479944 
L 99.695445 9.039944 
" clip-path="url(#p1744cd5963)" style="fill: none; stroke: #cccccc; stroke-width: 0.8; stroke-linecap: round"/>
     </g>
     <g id="line2d_4"/>
     <g id="text_2">
      <!-- 25 -->
      <g style="fill: #262626" transform="translate(94.134507 237.137756)scale(0.1 -0.1)">
       <defs>
        <path id="ArialMT-32" d="M 3222 541 
L 3222 0 
L 194 0 
Q 188 203 259 391 
Q 375 700 629 1000 
Q 884 1300 1366 1694 
Q 2113 2306 2375 2664 
Q 2638 3022 2638 3341 
Q 2638 3675 2398 3904 
Q 2159 4134 1775 4134 
Q 1369 4134 1125 3890 
Q 881 3647 878 3216 
L 300 3275 
Q 359 3922 746 4261 
Q 1134 4600 1788 4600 
Q 2447 4600 2831 4234 
Q 3216 3869 3216 3328 
Q 3216 3053 3103 2787 
Q 2991 2522 2730 2228 
Q 2469 1934 1863 1422 
Q 1356 997 1212 845 
Q 1069 694 975 541 
L 3222 541 
z
" transform="scale(0.015625)"/>
        <path id="ArialMT-35" d="M 266 1200 
L 856 1250 
Q 922 819 1161 601 
Q 1400 384 1738 384 
Q 2144 384 2425 690 
Q 2706 997 2706 1503 
Q 2706 1984 2436 2262 
Q 2166 2541 1728 2541 
Q 1456 2541 1237 2417 
Q 1019 2294 894 2097 
L 366 2166 
L 809 4519 
L 3088 4519 
L 3088 3981 
L 1259 3981 
L 1013 2750 
Q 1425 3038 1878 3038 
Q 2478 3038 2890 2622 
Q 3303 2206 3303 1553 
Q 3303 931 2941 478 
Q 2500 -78 1738 -78 
Q 1113 -78 717 272 
Q 322 622 266 1200 
z
" transform="scale(0.015625)"/>
       </defs>
       <use xlink:href="#ArialMT-32"/>
       <use xlink:href="#ArialMT-35" x="55.615234"/>
      </g>
     </g>
    </g>
    <g id="xtick_3">
     <g id="line2d_5">
      <path d="M 137.932082 226.479944 
L 137.932082 9.039944 
" clip-path="url(#p1744cd5963)" style="fill: none; stroke: #cccccc; stroke-width: 0.8; stroke-linecap: round"/>
     </g>
     <g id="line2d_6"/>
     <g id="text_3">
      <!-- 50 -->
      <g style="fill: #262626" transform="translate(132.371145 237.137756)scale(0.1 -0.1)">
       <use xlink:href="#ArialMT-35"/>
       <use xlink:href="#ArialMT-30" x="55.615234"/>
      </g>
     </g>
    </g>
    <g id="xtick_4">
     <g id="line2d_7">
      <path d="M 176.16872 226.479944 
L 176.16872 9.039944 
" clip-path="url(#p1744cd5963)" style="fill: none; stroke: #cccccc; stroke-width: 0.8; stroke-linecap: round"/>
     </g>
     <g id="line2d_8"/>
     <g id="text_4">
      <!-- 75 -->
      <g style="fill: #262626" transform="translate(170.607783 237.137756)scale(0.1 -0.1)">
       <defs>
        <path id="ArialMT-37" d="M 303 3981 
L 303 4522 
L 3269 4522 
L 3269 4084 
Q 2831 3619 2401 2847 
Q 1972 2075 1738 1259 
Q 1569 684 1522 0 
L 944 0 
Q 953 541 1156 1306 
Q 1359 2072 1739 2783 
Q 2119 3494 2547 3981 
L 303 3981 
z
" transform="scale(0.015625)"/>
       </defs>
       <use xlink:href="#ArialMT-37"/>
       <use xlink:href="#ArialMT-35" x="55.615234"/>
      </g>
     </g>
    </g>
    <g id="xtick_5">
     <g id="line2d_9">
      <path d="M 214.405358 226.479944 
L 214.405358 9.039944 
" clip-path="url(#p1744cd5963)" style="fill: none; stroke: #cccccc; stroke-width: 0.8; stroke-linecap: round"/>
     </g>
     <g id="line2d_10"/>
     <g id="text_5">
      <!-- 100 -->
      <g style="fill: #262626" transform="translate(206.063952 237.137756)scale(0.1 -0.1)">
       <defs>
        <path id="ArialMT-31" d="M 2384 0 
L 1822 0 
L 1822 3584 
Q 1619 3391 1289 3197 
Q 959 3003 697 2906 
L 697 3450 
Q 1169 3672 1522 3987 
Q 1875 4303 2022 4600 
L 2384 4600 
L 2384 0 
z
" transform="scale(0.015625)"/>
       </defs>
       <use xlink:href="#ArialMT-31"/>
       <use xlink:href="#ArialMT-30" x="55.615234"/>
       <use xlink:href="#ArialMT-30" x="111.230469"/>
      </g>
     </g>
    </g>
    <g id="xtick_6">
     <g id="line2d_11">
      <path d="M 252.641995 226.479944 
L 252.641995 9.039944 
" clip-path="url(#p1744cd5963)" style="fill: none; stroke: #cccccc; stroke-width: 0.8; stroke-linecap: round"/>
     </g>
     <g id="line2d_12"/>
     <g id="text_6">
      <!-- 125 -->
      <g style="fill: #262626" transform="translate(244.300589 237.137756)scale(0.1 -0.1)">
       <use xlink:href="#ArialMT-31"/>
       <use xlink:href="#ArialMT-32" x="55.615234"/>
       <use xlink:href="#ArialMT-35" x="111.230469"/>
      </g>
     </g>
    </g>
    <g id="xtick_7">
     <g id="line2d_13">
      <path d="M 290.878633 226.479944 
L 290.878633 9.039944 
" clip-path="url(#p1744cd5963)" style="fill: none; stroke: #cccccc; stroke-width: 0.8; stroke-linecap: round"/>
     </g>
     <g id="line2d_14"/>
     <g id="text_7">
      <!-- 150 -->
      <g style="fill: #262626" transform="translate(282.537227 237.137756)scale(0.1 -0.1)">
       <use xlink:href="#ArialMT-31"/>
       <use xlink:href="#ArialMT-35" x="55.615234"/>
       <use xlink:href="#ArialMT-30" x="111.230469"/>
      </g>
     </g>
    </g>
    <g id="xtick_8">
     <g id="line2d_15">
      <path d="M 329.115271 226.479944 
L 329.115271 9.039944 
" clip-path="url(#p1744cd5963)" style="fill: none; stroke: #cccccc; stroke-width: 0.8; stroke-linecap: round"/>
     </g>
     <g id="line2d_16"/>
     <g id="text_8">
      <!-- 175 -->
      <g style="fill: #262626" transform="translate(320.773865 237.137756)scale(0.1 -0.1)">
       <use xlink:href="#ArialMT-31"/>
       <use xlink:href="#ArialMT-37" x="55.615234"/>
       <use xlink:href="#ArialMT-35" x="111.230469"/>
      </g>
     </g>
    </g>
    <g id="xtick_9">
     <g id="line2d_17">
      <path d="M 367.351909 226.479944 
L 367.351909 9.039944 
" clip-path="url(#p1744cd5963)" style="fill: none; stroke: #cccccc; stroke-width: 0.8; stroke-linecap: round"/>
     </g>
     <g id="line2d_18"/>
     <g id="text_9">
      <!-- 200 -->
      <g style="fill: #262626" transform="translate(359.010502 237.137756)scale(0.1 -0.1)">
       <use xlink:href="#ArialMT-32"/>
       <use xlink:href="#ArialMT-30" x="55.615234"/>
       <use xlink:href="#ArialMT-30" x="111.230469"/>
      </g>
     </g>
    </g>
    <g id="text_10">
     <!-- Epoka -->
     <g style="fill: #262626" transform="translate(199.464063 250.283069)scale(0.1 -0.1)">
      <defs>
       <path id="ArialMT-45" d="M 506 0 
L 506 4581 
L 3819 4581 
L 3819 4041 
L 1113 4041 
L 1113 2638 
L 3647 2638 
L 3647 2100 
L 1113 2100 
L 1113 541 
L 3925 541 
L 3925 0 
L 506 0 
z
" transform="scale(0.015625)"/>
       <path id="ArialMT-70" d="M 422 -1272 
L 422 3319 
L 934 3319 
L 934 2888 
Q 1116 3141 1344 3267 
Q 1572 3394 1897 3394 
Q 2322 3394 2647 3175 
Q 2972 2956 3137 2557 
Q 3303 2159 3303 1684 
Q 3303 1175 3120 767 
Q 2938 359 2589 142 
Q 2241 -75 1856 -75 
Q 1575 -75 1351 44 
Q 1128 163 984 344 
L 984 -1272 
L 422 -1272 
z
M 931 1641 
Q 931 1000 1190 694 
Q 1450 388 1819 388 
Q 2194 388 2461 705 
Q 2728 1022 2728 1688 
Q 2728 2322 2467 2637 
Q 2206 2953 1844 2953 
Q 1484 2953 1207 2617 
Q 931 2281 931 1641 
z
" transform="scale(0.015625)"/>
       <path id="ArialMT-6f" d="M 213 1659 
Q 213 2581 725 3025 
Q 1153 3394 1769 3394 
Q 2453 3394 2887 2945 
Q 3322 2497 3322 1706 
Q 3322 1066 3130 698 
Q 2938 331 2570 128 
Q 2203 -75 1769 -75 
Q 1072 -75 642 372 
Q 213 819 213 1659 
z
M 791 1659 
Q 791 1022 1069 705 
Q 1347 388 1769 388 
Q 2188 388 2466 706 
Q 2744 1025 2744 1678 
Q 2744 2294 2464 2611 
Q 2184 2928 1769 2928 
Q 1347 2928 1069 2612 
Q 791 2297 791 1659 
z
" transform="scale(0.015625)"/>
       <path id="ArialMT-6b" d="M 425 0 
L 425 4581 
L 988 4581 
L 988 1969 
L 2319 3319 
L 3047 3319 
L 1778 2088 
L 3175 0 
L 2481 0 
L 1384 1697 
L 988 1316 
L 988 0 
L 425 0 
z
" transform="scale(0.015625)"/>
       <path id="ArialMT-61" d="M 2588 409 
Q 2275 144 1986 34 
Q 1697 -75 1366 -75 
Q 819 -75 525 192 
Q 231 459 231 875 
Q 231 1119 342 1320 
Q 453 1522 633 1644 
Q 813 1766 1038 1828 
Q 1203 1872 1538 1913 
Q 2219 1994 2541 2106 
Q 2544 2222 2544 2253 
Q 2544 2597 2384 2738 
Q 2169 2928 1744 2928 
Q 1347 2928 1158 2789 
Q 969 2650 878 2297 
L 328 2372 
Q 403 2725 575 2942 
Q 747 3159 1072 3276 
Q 1397 3394 1825 3394 
Q 2250 3394 2515 3294 
Q 2781 3194 2906 3042 
Q 3031 2891 3081 2659 
Q 3109 2516 3109 2141 
L 3109 1391 
Q 3109 606 3145 398 
Q 3181 191 3288 0 
L 2700 0 
Q 2613 175 2588 409 
z
M 2541 1666 
Q 2234 1541 1622 1453 
Q 1275 1403 1131 1340 
Q 988 1278 909 1158 
Q 831 1038 831 891 
Q 831 666 1001 516 
Q 1172 366 1500 366 
Q 1825 366 2078 508 
Q 2331 650 2450 897 
Q 2541 1088 2541 1459 
L 2541 1666 
z
" transform="scale(0.015625)"/>
      </defs>
      <use xlink:href="#ArialMT-45"/>
      <use xlink:href="#ArialMT-70" x="66.699219"/>
      <use xlink:href="#ArialMT-6f" x="122.314453"/>
      <use xlink:href="#ArialMT-6b" x="177.929688"/>
      <use xlink:href="#ArialMT-61" x="227.929688"/>
     </g>
    </g>
   </g>
   <g id="matplotlib.axis_2">
    <g id="ytick_1">
     <g id="line2d_19">
      <path d="M 46.240625 218.283361 
L 381.040625 218.283361 
" clip-path="url(#p1744cd5963)" style="fill: none; stroke: #cccccc; stroke-width: 0.8; stroke-linecap: round"/>
     </g>
     <g id="line2d_20"/>
     <g id="text_11">
      <!-- 0 -->
      <g style="fill: #262626" transform="translate(37.179688 221.862268)scale(0.1 -0.1)">
       <use xlink:href="#ArialMT-30"/>
      </g>
     </g>
    </g>
    <g id="ytick_2">
     <g id="line2d_21">
      <path d="M 46.240625 183.699286 
L 381.040625 183.699286 
" clip-path="url(#p1744cd5963)" style="fill: none; stroke: #cccccc; stroke-width: 0.8; stroke-linecap: round"/>
     </g>
     <g id="line2d_22"/>
     <g id="text_12">
      <!-- 200 -->
      <g style="fill: #262626" transform="translate(26.057813 187.278192)scale(0.1 -0.1)">
       <use xlink:href="#ArialMT-32"/>
       <use xlink:href="#ArialMT-30" x="55.615234"/>
       <use xlink:href="#ArialMT-30" x="111.230469"/>
      </g>
     </g>
    </g>
    <g id="ytick_3">
     <g id="line2d_23">
      <path d="M 46.240625 149.11521 
L 381.040625 149.11521 
" clip-path="url(#p1744cd5963)" style="fill: none; stroke: #cccccc; stroke-width: 0.8; stroke-linecap: round"/>
     </g>
     <g id="line2d_24"/>
     <g id="text_13">
      <!-- 400 -->
      <g style="fill: #262626" transform="translate(26.057813 152.694116)scale(0.1 -0.1)">
       <defs>
        <path id="ArialMT-34" d="M 2069 0 
L 2069 1097 
L 81 1097 
L 81 1613 
L 2172 4581 
L 2631 4581 
L 2631 1613 
L 3250 1613 
L 3250 1097 
L 2631 1097 
L 2631 0 
L 2069 0 
z
M 2069 1613 
L 2069 3678 
L 634 1613 
L 2069 1613 
z
" transform="scale(0.015625)"/>
       </defs>
       <use xlink:href="#ArialMT-34"/>
       <use xlink:href="#ArialMT-30" x="55.615234"/>
       <use xlink:href="#ArialMT-30" x="111.230469"/>
      </g>
     </g>
    </g>
    <g id="ytick_4">
     <g id="line2d_25">
      <path d="M 46.240625 114.531134 
L 381.040625 114.531134 
" clip-path="url(#p1744cd5963)" style="fill: none; stroke: #cccccc; stroke-width: 0.8; stroke-linecap: round"/>
     </g>
     <g id="line2d_26"/>
     <g id="text_14">
      <!-- 600 -->
      <g style="fill: #262626" transform="translate(26.057813 118.11004)scale(0.1 -0.1)">
       <defs>
        <path id="ArialMT-36" d="M 3184 3459 
L 2625 3416 
Q 2550 3747 2413 3897 
Q 2184 4138 1850 4138 
Q 1581 4138 1378 3988 
Q 1113 3794 959 3422 
Q 806 3050 800 2363 
Q 1003 2672 1297 2822 
Q 1591 2972 1913 2972 
Q 2475 2972 2870 2558 
Q 3266 2144 3266 1488 
Q 3266 1056 3080 686 
Q 2894 316 2569 119 
Q 2244 -78 1831 -78 
Q 1128 -78 684 439 
Q 241 956 241 2144 
Q 241 3472 731 4075 
Q 1159 4600 1884 4600 
Q 2425 4600 2770 4297 
Q 3116 3994 3184 3459 
z
M 888 1484 
Q 888 1194 1011 928 
Q 1134 663 1356 523 
Q 1578 384 1822 384 
Q 2178 384 2434 671 
Q 2691 959 2691 1453 
Q 2691 1928 2437 2201 
Q 2184 2475 1800 2475 
Q 1419 2475 1153 2201 
Q 888 1928 888 1484 
z
" transform="scale(0.015625)"/>
       </defs>
       <use xlink:href="#ArialMT-36"/>
       <use xlink:href="#ArialMT-30" x="55.615234"/>
       <use xlink:href="#ArialMT-30" x="111.230469"/>
      </g>
     </g>
    </g>
    <g id="ytick_5">
     <g id="line2d_27">
      <path d="M 46.240625 79.947058 
L 381.040625 79.947058 
" clip-path="url(#p1744cd5963)" style="fill: none; stroke: #cccccc; stroke-width: 0.8; stroke-linecap: round"/>
     </g>
     <g id="line2d_28"/>
     <g id="text_15">
      <!-- 800 -->
      <g style="fill: #262626" transform="translate(26.057813 83.525964)scale(0.1 -0.1)">
       <defs>
        <path id="ArialMT-38" d="M 1131 2484 
Q 781 2613 612 2850 
Q 444 3088 444 3419 
Q 444 3919 803 4259 
Q 1163 4600 1759 4600 
Q 2359 4600 2725 4251 
Q 3091 3903 3091 3403 
Q 3091 3084 2923 2848 
Q 2756 2613 2416 2484 
Q 2838 2347 3058 2040 
Q 3278 1734 3278 1309 
Q 3278 722 2862 322 
Q 2447 -78 1769 -78 
Q 1091 -78 675 323 
Q 259 725 259 1325 
Q 259 1772 486 2073 
Q 713 2375 1131 2484 
z
M 1019 3438 
Q 1019 3113 1228 2906 
Q 1438 2700 1772 2700 
Q 2097 2700 2305 2904 
Q 2513 3109 2513 3406 
Q 2513 3716 2298 3927 
Q 2084 4138 1766 4138 
Q 1444 4138 1231 3931 
Q 1019 3725 1019 3438 
z
M 838 1322 
Q 838 1081 952 856 
Q 1066 631 1291 507 
Q 1516 384 1775 384 
Q 2178 384 2440 643 
Q 2703 903 2703 1303 
Q 2703 1709 2433 1975 
Q 2163 2241 1756 2241 
Q 1359 2241 1098 1978 
Q 838 1716 838 1322 
z
" transform="scale(0.015625)"/>
       </defs>
       <use xlink:href="#ArialMT-38"/>
       <use xlink:href="#ArialMT-30" x="55.615234"/>
       <use xlink:href="#ArialMT-30" x="111.230469"/>
      </g>
     </g>
    </g>
    <g id="ytick_6">
     <g id="line2d_29">
      <path d="M 46.240625 45.362982 
L 381.040625 45.362982 
" clip-path="url(#p1744cd5963)" style="fill: none; stroke: #cccccc; stroke-width: 0.8; stroke-linecap: round"/>
     </g>
     <g id="line2d_30"/>
     <g id="text_16">
      <!-- 1000 -->
      <g style="fill: #262626" transform="translate(20.496875 48.941888)scale(0.1 -0.1)">
       <use xlink:href="#ArialMT-31"/>
       <use xlink:href="#ArialMT-30" x="55.615234"/>
       <use xlink:href="#ArialMT-30" x="111.230469"/>
       <use xlink:href="#ArialMT-30" x="166.845703"/>
      </g>
     </g>
    </g>
    <g id="ytick_7">
     <g id="line2d_31">
      <path d="M 46.240625 10.778906 
L 381.040625 10.778906 
" clip-path="url(#p1744cd5963)" style="fill: none; stroke: #cccccc; stroke-width: 0.8; stroke-linecap: round"/>
     </g>
     <g id="line2d_32"/>
     <g id="text_17">
      <!-- 1200 -->
      <g style="fill: #262626" transform="translate(20.496875 14.357812)scale(0.1 -0.1)">
       <use xlink:href="#ArialMT-31"/>
       <use xlink:href="#ArialMT-32" x="55.615234"/>
       <use xlink:href="#ArialMT-30" x="111.230469"/>
       <use xlink:href="#ArialMT-30" x="166.845703"/>
      </g>
     </g>
    </g>
    <g id="text_18">
     <!-- Wartość błędu -->
     <g style="fill: #262626" transform="translate(14.396875 149.528694)rotate(-90)scale(0.1 -0.1)">
      <defs>
       <path id="ArialMT-57" d="M 1294 0 
L 78 4581 
L 700 4581 
L 1397 1578 
Q 1509 1106 1591 641 
Q 1766 1375 1797 1488 
L 2669 4581 
L 3400 4581 
L 4056 2263 
Q 4303 1400 4413 641 
Q 4500 1075 4641 1638 
L 5359 4581 
L 5969 4581 
L 4713 0 
L 4128 0 
L 3163 3491 
Q 3041 3928 3019 4028 
Q 2947 3713 2884 3491 
L 1913 0 
L 1294 0 
z
" transform="scale(0.015625)"/>
       <path id="ArialMT-72" d="M 416 0 
L 416 3319 
L 922 3319 
L 922 2816 
Q 1116 3169 1280 3281 
Q 1444 3394 1641 3394 
Q 1925 3394 2219 3213 
L 2025 2691 
Q 1819 2813 1613 2813 
Q 1428 2813 1281 2702 
Q 1134 2591 1072 2394 
Q 978 2094 978 1738 
L 978 0 
L 416 0 
z
" transform="scale(0.015625)"/>
       <path id="ArialMT-74" d="M 1650 503 
L 1731 6 
Q 1494 -44 1306 -44 
Q 1000 -44 831 53 
Q 663 150 594 308 
Q 525 466 525 972 
L 525 2881 
L 113 2881 
L 113 3319 
L 525 3319 
L 525 4141 
L 1084 4478 
L 1084 3319 
L 1650 3319 
L 1650 2881 
L 1084 2881 
L 1084 941 
Q 1084 700 1114 631 
Q 1144 563 1211 522 
Q 1278 481 1403 481 
Q 1497 481 1650 503 
z
" transform="scale(0.015625)"/>
       <path id="ArialMT-15b" d="M 197 991 
L 753 1078 
Q 800 744 1014 566 
Q 1228 388 1613 388 
Q 2000 388 2187 545 
Q 2375 703 2375 916 
Q 2375 1106 2209 1216 
Q 2094 1291 1634 1406 
Q 1016 1563 777 1677 
Q 538 1791 414 1992 
Q 291 2194 291 2438 
Q 291 2659 392 2848 
Q 494 3038 669 3163 
Q 800 3259 1026 3326 
Q 1253 3394 1513 3394 
Q 1903 3394 2198 3281 
Q 2494 3169 2634 2976 
Q 2775 2784 2828 2463 
L 2278 2388 
Q 2241 2644 2061 2787 
Q 1881 2931 1553 2931 
Q 1166 2931 1000 2803 
Q 834 2675 834 2503 
Q 834 2394 903 2306 
Q 972 2216 1119 2156 
Q 1203 2125 1616 2013 
Q 2213 1853 2448 1751 
Q 2684 1650 2818 1456 
Q 2953 1263 2953 975 
Q 2953 694 2789 445 
Q 2625 197 2315 61 
Q 2006 -75 1616 -75 
Q 969 -75 630 194 
Q 291 463 197 991 
z
M 1231 3731 
L 1647 4606 
L 2384 4606 
L 1697 3731 
L 1231 3731 
z
" transform="scale(0.015625)"/>
       <path id="ArialMT-107" d="M 2588 1216 
L 3141 1144 
Q 3050 572 2676 248 
Q 2303 -75 1759 -75 
Q 1078 -75 664 370 
Q 250 816 250 1647 
Q 250 2184 428 2587 
Q 606 2991 970 3192 
Q 1334 3394 1763 3394 
Q 2303 3394 2647 3120 
Q 2991 2847 3088 2344 
L 2541 2259 
Q 2463 2594 2264 2762 
Q 2066 2931 1784 2931 
Q 1359 2931 1093 2626 
Q 828 2322 828 1663 
Q 828 994 1084 691 
Q 1341 388 1753 388 
Q 2084 388 2306 591 
Q 2528 794 2588 1216 
z
M 1325 3731 
L 1741 4606 
L 2478 4606 
L 1791 3731 
L 1325 3731 
z
" transform="scale(0.015625)"/>
       <path id="ArialMT-20" transform="scale(0.015625)"/>
       <path id="ArialMT-62" d="M 941 0 
L 419 0 
L 419 4581 
L 981 4581 
L 981 2947 
Q 1338 3394 1891 3394 
Q 2197 3394 2470 3270 
Q 2744 3147 2920 2923 
Q 3097 2700 3197 2384 
Q 3297 2069 3297 1709 
Q 3297 856 2875 390 
Q 2453 -75 1863 -75 
Q 1275 -75 941 416 
L 941 0 
z
M 934 1684 
Q 934 1088 1097 822 
Q 1363 388 1816 388 
Q 2184 388 2453 708 
Q 2722 1028 2722 1663 
Q 2722 2313 2464 2622 
Q 2206 2931 1841 2931 
Q 1472 2931 1203 2611 
Q 934 2291 934 1684 
z
" transform="scale(0.015625)"/>
       <path id="ArialMT-142" d="M 416 1794 
L 9 1450 
L 9 1944 
L 416 2288 
L 416 4581 
L 975 4581 
L 975 2763 
L 1397 3122 
L 1397 2631 
L 975 2272 
L 975 0 
L 416 0 
L 416 1794 
z
" transform="scale(0.015625)"/>
       <path id="ArialMT-119" d="M 2694 1069 
L 3275 997 
Q 3138 488 2766 206 
Q 2394 -75 1816 -75 
Q 1088 -75 661 373 
Q 234 822 234 1631 
Q 234 2469 665 2931 
Q 1097 3394 1784 3394 
Q 2450 3394 2872 2941 
Q 3294 2488 3294 1666 
Q 3294 1616 3291 1516 
L 816 1516 
Q 847 969 1125 678 
Q 1403 388 1819 388 
Q 2128 388 2347 550 
Q 2566 713 2694 1069 
z
M 847 1978 
L 2700 1978 
Q 2663 2397 2488 2606 
Q 2219 2931 1791 2931 
Q 1403 2931 1139 2672 
Q 875 2413 847 1978 
z
M 2297 0 
Q 2119 -109 2020 -270 
Q 1922 -431 1922 -597 
Q 1922 -728 1994 -818 
Q 2066 -909 2228 -909 
Q 2300 -909 2375 -889 
Q 2450 -869 2513 -834 
L 2513 -1234 
Q 2284 -1344 2088 -1344 
Q 1928 -1344 1809 -1298 
Q 1691 -1253 1611 -1173 
Q 1531 -1094 1492 -991 
Q 1453 -888 1453 -769 
Q 1453 -569 1565 -367 
Q 1678 -166 1884 0 
L 2297 0 
z
" transform="scale(0.015625)"/>
       <path id="ArialMT-64" d="M 2575 0 
L 2575 419 
Q 2259 -75 1647 -75 
Q 1250 -75 917 144 
Q 584 363 401 755 
Q 219 1147 219 1656 
Q 219 2153 384 2558 
Q 550 2963 881 3178 
Q 1213 3394 1622 3394 
Q 1922 3394 2156 3267 
Q 2391 3141 2538 2938 
L 2538 4581 
L 3097 4581 
L 3097 0 
L 2575 0 
z
M 797 1656 
Q 797 1019 1065 703 
Q 1334 388 1700 388 
Q 2069 388 2326 689 
Q 2584 991 2584 1609 
Q 2584 2291 2321 2609 
Q 2059 2928 1675 2928 
Q 1300 2928 1048 2622 
Q 797 2316 797 1656 
z
" transform="scale(0.015625)"/>
       <path id="ArialMT-75" d="M 2597 0 
L 2597 488 
Q 2209 -75 1544 -75 
Q 1250 -75 995 37 
Q 741 150 617 320 
Q 494 491 444 738 
Q 409 903 409 1263 
L 409 3319 
L 972 3319 
L 972 1478 
Q 972 1038 1006 884 
Q 1059 663 1231 536 
Q 1403 409 1656 409 
Q 1909 409 2131 539 
Q 2353 669 2445 892 
Q 2538 1116 2538 1541 
L 2538 3319 
L 3100 3319 
L 3100 0 
L 2597 0 
z
" transform="scale(0.015625)"/>
      </defs>
      <use xlink:href="#ArialMT-57"/>
      <use xlink:href="#ArialMT-61" x="90.634766"/>
      <use xlink:href="#ArialMT-72" x="146.25"/>
      <use xlink:href="#ArialMT-74" x="179.550781"/>
      <use xlink:href="#ArialMT-6f" x="207.333984"/>
      <use xlink:href="#ArialMT-15b" x="262.949219"/>
      <use xlink:href="#ArialMT-107" x="312.949219"/>
      <use xlink:href="#ArialMT-20" x="362.949219"/>
      <use xlink:href="#ArialMT-62" x="390.732422"/>
      <use xlink:href="#ArialMT-142" x="446.347656"/>
      <use xlink:href="#ArialMT-119" x="468.564453"/>
      <use xlink:href="#ArialMT-64" x="524.179688"/>
      <use xlink:href="#ArialMT-75" x="579.794922"/>
     </g>
    </g>
   </g>
   <g id="line2d_33">
    <path d="M 61.458807 19.084743 
L 62.988272 20.80101 
L 64.517738 26.579044 
L 66.047203 34.250438 
L 69.106134 46.770339 
L 76.753462 75.796932 
L 78.282927 80.914089 
L 84.400789 98.197503 
L 88.989186 108.473896 
L 90.518651 111.304034 
L 92.048117 114.73621 
L 95.107048 119.782976 
L 96.636514 122.898638 
L 101.22491 129.920446 
L 104.283841 134.237218 
L 105.813307 135.752794 
L 108.872238 140.248198 
L 110.401703 141.420301 
L 111.931169 143.435295 
L 113.460634 144.977959 
L 114.9901 146.709501 
L 116.519565 148.156653 
L 118.049031 149.29882 
L 121.107962 152.681214 
L 124.166893 154.856855 
L 127.225824 157.652414 
L 128.755289 158.458373 
L 133.343686 161.689893 
L 134.873151 162.215428 
L 136.402617 163.109133 
L 137.932082 164.246628 
L 139.461548 164.64445 
L 140.991013 165.653405 
L 144.049944 167.053512 
L 147.108875 167.725326 
L 148.638341 168.751054 
L 150.167806 169.031643 
L 151.697272 169.735395 
L 153.226737 170.021635 
L 154.756203 170.090146 
L 156.285668 170.795144 
L 157.815134 171.234844 
L 159.344599 171.297077 
L 160.874065 171.794452 
L 162.40353 171.661798 
L 165.462461 172.813471 
L 166.991927 172.670118 
L 168.521392 173.031157 
L 171.580323 173.017973 
L 173.109789 173.324601 
L 174.639255 172.711246 
L 176.16872 173.668424 
L 177.698186 173.635279 
L 179.227651 173.086908 
L 180.757117 173.809642 
L 182.286582 173.529749 
L 183.816048 173.9778 
L 185.345513 174.047399 
L 186.874979 173.574249 
L 188.404444 174.154896 
L 189.93391 174.332356 
L 192.992841 173.84221 
L 194.522306 173.894129 
L 196.051772 174.233694 
L 197.581237 173.602005 
L 199.110703 173.58732 
L 200.640168 173.081934 
L 203.699099 173.134633 
L 206.75803 172.303033 
L 208.287496 171.253961 
L 211.346427 177.355903 
L 212.875892 178.00284 
L 214.405358 177.463982 
L 215.934823 177.712845 
L 217.464289 177.342423 
L 218.993754 176.310034 
L 220.52322 179.768218 
L 222.052685 180.797332 
L 223.582151 180.006428 
L 225.111616 180.716405 
L 226.641082 179.591175 
L 228.170547 184.179731 
L 229.700013 188.2777 
L 231.229478 189.006633 
L 232.758944 188.576535 
L 234.288409 188.635748 
L 235.817875 188.199441 
L 237.34734 190.080238 
L 238.876806 190.631284 
L 240.406271 190.85386 
L 241.935737 190.142957 
L 243.465202 189.19171 
L 244.994668 192.212945 
L 246.524133 192.374294 
L 248.053599 194.374616 
L 249.583064 196.67588 
L 251.11253 198.071828 
L 252.641995 198.600904 
L 254.171461 198.895155 
L 255.700927 198.572552 
L 258.759858 198.885993 
L 260.289323 198.410242 
L 261.818789 197.589681 
L 263.348254 199.519928 
L 264.87772 200.547088 
L 266.407185 199.56741 
L 267.936651 203.635973 
L 269.466116 204.699508 
L 270.995582 204.265169 
L 272.525047 206.344966 
L 274.054513 207.171283 
L 275.583978 206.934768 
L 277.113444 207.968254 
L 278.642909 208.563929 
L 280.172375 208.278351 
L 281.70184 208.919695 
L 284.760771 209.173207 
L 286.290237 208.920276 
L 287.819702 209.871683 
L 289.349168 210.273703 
L 290.878633 210.023056 
L 292.408099 209.640098 
L 293.937564 211.19887 
L 295.46703 211.460295 
L 296.996495 211.197871 
L 298.525961 212.57852 
L 300.055426 212.428451 
L 301.584892 212.997268 
L 303.114357 212.805554 
L 304.643823 213.409007 
L 306.173288 213.350656 
L 307.702754 213.76248 
L 310.761685 214.139802 
L 312.29115 214.033858 
L 313.820616 214.193158 
L 316.879547 214.250324 
L 318.409012 214.13194 
L 319.938478 214.61487 
L 321.467943 214.874746 
L 324.526874 214.984798 
L 327.585805 215.320614 
L 329.115271 215.253002 
L 333.703667 215.614111 
L 335.233133 215.924494 
L 336.762599 215.661996 
L 339.82153 215.87555 
L 341.350995 216.007706 
L 342.880461 215.942755 
L 345.939392 216.255718 
L 347.468857 216.250863 
L 348.998323 216.377579 
L 350.527788 216.235768 
L 352.057254 216.417177 
L 365.822443 216.583769 
L 365.822443 216.583769 
" clip-path="url(#p1744cd5963)" style="fill: none; stroke: #1f77b4; stroke-width: 1.5; stroke-linecap: round"/>
   </g>
   <g id="line2d_34">
    <path d="M 61.458807 18.92358 
L 62.988272 19.151286 
L 70.6356 19.187229 
L 125.696358 19.213724 
L 127.225824 19.477034 
L 128.755289 23.133935 
L 130.284755 25.755788 
L 133.343686 29.374068 
L 134.873151 30.842985 
L 137.932082 33.075306 
L 139.461548 34.115392 
L 140.991013 36.053445 
L 142.520479 38.652276 
L 144.049944 40.260502 
L 145.57941 41.595903 
L 147.108875 43.128367 
L 148.638341 44.406272 
L 150.167806 46.036383 
L 151.697272 47.33072 
L 154.756203 49.487892 
L 156.285668 51.036529 
L 157.815134 55.860465 
L 162.40353 69.13807 
L 163.932996 72.916151 
L 165.462461 76.144517 
L 166.991927 78.793196 
L 171.580323 96.124371 
L 173.109789 101.713465 
L 174.639255 107.887334 
L 177.698186 117.275914 
L 183.816048 130.727731 
L 186.874979 136.172264 
L 188.404444 138.133748 
L 189.93391 140.32615 
L 191.463375 142.765579 
L 192.992841 144.505487 
L 194.522306 146.498782 
L 196.051772 147.657634 
L 199.110703 150.813945 
L 205.228565 155.764164 
L 206.75803 156.288529 
L 209.816961 158.194849 
L 211.346427 158.599296 
L 212.875892 159.325567 
L 214.405358 159.730496 
L 215.934823 159.483886 
L 217.464289 159.895456 
L 218.993754 160.955003 
L 223.582151 161.872745 
L 225.111616 162.019336 
L 226.641082 162.305032 
L 228.170547 162.173354 
L 231.229478 162.55637 
L 232.758944 163.372647 
L 234.288409 162.334361 
L 235.817875 163.104344 
L 237.34734 162.253068 
L 238.876806 162.4737 
L 240.406271 161.800974 
L 241.935737 162.433318 
L 243.465202 161.539114 
L 244.994668 161.558861 
L 246.524133 161.327581 
L 248.053599 160.132568 
L 249.583064 159.221521 
L 251.11253 162.719586 
L 252.641995 162.443154 
L 254.171461 166.047153 
L 255.700927 166.311231 
L 257.230392 166.697263 
L 258.759858 165.779208 
L 260.289323 168.8097 
L 261.818789 168.915978 
L 263.348254 171.782597 
L 264.87772 171.979357 
L 266.407185 171.345315 
L 267.936651 171.854547 
L 269.466116 170.987871 
L 270.995582 171.209269 
L 272.525047 170.922225 
L 274.054513 170.015532 
L 275.583978 169.886809 
L 277.113444 169.274692 
L 278.642909 171.189663 
L 280.172375 174.294235 
L 281.70184 178.71677 
L 286.290237 178.977125 
L 287.819702 178.590497 
L 289.349168 177.854332 
L 290.878633 179.672706 
L 292.408099 179.453983 
L 293.937564 179.866394 
L 296.996495 178.720675 
L 298.525961 178.437354 
L 300.055426 177.32508 
L 301.584892 180.264431 
L 304.643823 180.149669 
L 306.173288 179.084499 
L 307.702754 183.38156 
L 309.232219 187.256631 
L 310.761685 187.122034 
L 312.29115 188.143077 
L 313.820616 187.777656 
L 315.350081 187.578589 
L 316.879547 188.198465 
L 318.409012 191.181944 
L 319.938478 191.771967 
L 321.467943 191.718315 
L 322.997409 191.393067 
L 324.526874 191.38998 
L 327.585805 190.930779 
L 329.115271 189.940034 
L 330.644736 192.242042 
L 332.174202 192.81843 
L 333.703667 192.686749 
L 335.233133 193.784657 
L 336.762599 195.47767 
L 338.292064 197.872513 
L 341.350995 198.993691 
L 342.880461 198.248741 
L 344.409926 201.352325 
L 352.057254 202.038109 
L 353.586719 203.008614 
L 355.116185 203.302318 
L 356.64565 203.138524 
L 358.175116 203.203146 
L 359.704581 203.428474 
L 361.234047 202.839134 
L 362.763512 204.917976 
L 364.292978 205.654537 
L 365.822443 205.661243 
L 365.822443 205.661243 
" clip-path="url(#p1744cd5963)" style="fill: none; stroke: #ff7f0e; stroke-width: 1.5; stroke-linecap: round"/>
   </g>
   <g id="line2d_35">
    <path d="M 61.458807 18.982824 
L 62.988272 19.166476 
L 76.753462 19.310713 
L 78.282927 20.075911 
L 79.812393 23.744654 
L 81.341858 25.894654 
L 84.400789 33.342307 
L 85.930255 35.789146 
L 87.45972 37.362071 
L 90.518651 41.016799 
L 92.048117 43.643037 
L 93.577583 47.469926 
L 95.107048 51.721848 
L 96.636514 55.491233 
L 98.165979 58.833366 
L 101.22491 65.001746 
L 102.754376 71.142452 
L 104.283841 76.304864 
L 107.342772 85.85052 
L 108.872238 89.648986 
L 111.931169 98.944829 
L 113.460634 103.08688 
L 116.519565 109.943789 
L 118.049031 113.354514 
L 119.578496 116.173762 
L 122.637427 122.45658 
L 124.166893 124.792664 
L 125.696358 127.948903 
L 127.225824 130.257747 
L 128.755289 132.890529 
L 130.284755 135.052654 
L 131.81422 137.601791 
L 133.343686 139.341614 
L 134.873151 141.706638 
L 136.402617 143.240578 
L 137.932082 145.404311 
L 139.461548 146.930181 
L 140.991013 148.896604 
L 145.57941 153.260351 
L 147.108875 154.357454 
L 148.638341 155.922496 
L 150.167806 156.674567 
L 151.697272 158.32958 
L 153.226737 159.421858 
L 154.756203 160.098943 
L 157.815134 161.994085 
L 159.344599 162.379446 
L 160.874065 163.671088 
L 162.40353 163.498487 
L 163.932996 165.209683 
L 165.462461 165.441894 
L 166.991927 166.245299 
L 168.521392 166.797224 
L 170.050858 167.545354 
L 171.580323 167.665469 
L 174.639255 168.494821 
L 176.16872 168.927421 
L 177.698186 168.881561 
L 180.757117 169.835291 
L 183.816048 169.719052 
L 185.345513 169.956261 
L 186.874979 169.751414 
L 188.404444 170.157098 
L 189.93391 169.80797 
L 191.463375 170.74795 
L 192.992841 169.734847 
L 194.522306 170.68747 
L 197.581237 170.022925 
L 199.110703 170.08023 
L 200.640168 169.44272 
L 202.169634 169.313902 
L 203.699099 168.892245 
L 205.228565 169.134861 
L 206.75803 169.090911 
L 208.287496 168.033143 
L 209.816961 168.498182 
L 212.875892 168.101488 
L 214.405358 167.94681 
L 215.934823 167.978841 
L 217.464289 167.302301 
L 218.993754 167.386328 
L 220.52322 166.307497 
L 222.052685 165.708423 
L 225.111616 172.014994 
L 226.641082 175.851275 
L 228.170547 175.980987 
L 229.700013 176.589276 
L 231.229478 176.028077 
L 232.758944 175.272508 
L 234.288409 175.152214 
L 235.817875 175.306149 
L 237.34734 174.643827 
L 240.406271 180.074106 
L 241.935737 183.424003 
L 243.465202 184.277152 
L 244.994668 183.714302 
L 246.524133 186.160741 
L 248.053599 187.997172 
L 249.583064 190.893847 
L 251.11253 190.997495 
L 252.641995 191.552113 
L 254.171461 191.131865 
L 255.700927 192.504949 
L 257.230392 192.982987 
L 258.759858 192.524156 
L 260.289323 194.483001 
L 261.818789 195.10186 
L 263.348254 195.20119 
L 264.87772 194.637617 
L 266.407185 195.762481 
L 267.936651 196.109714 
L 269.466116 196.007894 
L 270.995582 195.596349 
L 272.525047 196.13634 
L 274.054513 195.400133 
L 275.583978 198.98862 
L 277.113444 200.367185 
L 278.642909 200.248515 
L 280.172375 200.543864 
L 281.70184 202.809361 
L 283.231306 202.837553 
L 284.760771 203.08716 
L 286.290237 203.004866 
L 287.819702 202.318936 
L 289.349168 204.900156 
L 290.878633 205.035939 
L 292.408099 205.557361 
L 293.937564 204.974915 
L 295.46703 206.740972 
L 296.996495 207.968112 
L 298.525961 208.459064 
L 306.173288 208.519935 
L 307.702754 209.673625 
L 309.232219 209.916474 
L 310.761685 209.933505 
L 312.29115 210.104707 
L 313.820616 209.929624 
L 315.350081 210.413017 
L 316.879547 210.578471 
L 318.409012 210.392504 
L 319.938478 211.427278 
L 321.467943 212.04842 
L 324.526874 212.274733 
L 326.05634 212.613661 
L 327.585805 212.704997 
L 330.644736 212.583256 
L 332.174202 212.602003 
L 333.703667 213.039422 
L 335.233133 213.181564 
L 336.762599 213.548526 
L 338.292064 213.701157 
L 339.82153 213.65246 
L 341.350995 214.00257 
L 342.880461 214.16753 
L 344.409926 214.129907 
L 345.939392 214.271036 
L 347.468857 214.124442 
L 348.998323 214.554628 
L 350.527788 214.735594 
L 352.057254 214.588449 
L 353.586719 214.871384 
L 355.116185 214.857513 
L 356.64565 214.626032 
L 358.175116 215.229175 
L 362.763512 215.315629 
L 364.292978 215.676145 
L 365.822443 215.840491 
L 365.822443 215.840491 
" clip-path="url(#p1744cd5963)" style="fill: none; stroke: #2ca02c; stroke-width: 1.5; stroke-linecap: round"/>
   </g>
   <g id="line2d_36">
    <path d="M 61.458807 19.59256 
L 62.988272 25.655688 
L 66.047203 44.831887 
L 69.106134 60.053551 
L 70.6356 66.774892 
L 72.165065 72.85764 
L 73.694531 78.478958 
L 75.223996 83.589945 
L 78.282927 93.130422 
L 79.812393 96.621158 
L 81.341858 100.64483 
L 85.930255 110.130796 
L 87.45972 113.082533 
L 88.989186 115.616399 
L 92.048117 120.239514 
L 95.107048 125.184755 
L 96.636514 126.985646 
L 98.165979 129.032717 
L 99.695445 131.327852 
L 102.754376 134.801821 
L 104.283841 136.818006 
L 105.813307 138.11286 
L 107.342772 139.834334 
L 108.872238 141.830739 
L 110.401703 143.200114 
L 111.931169 144.992302 
L 113.460634 146.294678 
L 114.9901 147.880279 
L 116.519565 148.950157 
L 118.049031 150.856415 
L 119.578496 151.672952 
L 121.107962 153.074371 
L 124.166893 155.46114 
L 125.696358 156.33782 
L 130.284755 159.697529 
L 131.81422 160.203179 
L 134.873151 162.053157 
L 136.402617 162.496515 
L 137.932082 163.544623 
L 140.991013 165.056321 
L 142.520479 165.793128 
L 144.049944 166.288927 
L 145.57941 167.358471 
L 147.108875 167.397082 
L 148.638341 168.077337 
L 150.167806 168.223141 
L 151.697272 169.26254 
L 153.226737 169.278434 
L 154.756203 170.02889 
L 156.285668 169.923753 
L 157.815134 171.065686 
L 159.344599 170.876565 
L 160.874065 171.290561 
L 162.40353 171.866293 
L 163.932996 171.579893 
L 165.462461 172.281751 
L 166.991927 171.563453 
L 168.521392 172.130856 
L 170.050858 172.861702 
L 171.580323 172.243526 
L 173.109789 172.888095 
L 174.639255 172.402118 
L 176.16872 173.219601 
L 177.698186 172.834496 
L 179.227651 173.402883 
L 180.757117 172.596737 
L 182.286582 173.230585 
L 183.816048 172.62 
L 185.345513 172.876447 
L 186.874979 173.32715 
L 188.404444 172.630558 
L 191.463375 173.005999 
L 192.992841 172.564321 
L 194.522306 175.317944 
L 196.051772 175.658029 
L 197.581237 175.154244 
L 199.110703 175.586724 
L 200.640168 175.023796 
L 202.169634 175.141067 
L 203.699099 174.418245 
L 205.228565 176.928742 
L 206.75803 180.055416 
L 208.287496 179.838896 
L 209.816961 183.059249 
L 211.346427 183.269592 
L 212.875892 183.686135 
L 214.405358 182.744111 
L 215.934823 184.790605 
L 217.464289 187.623354 
L 218.993754 187.263082 
L 220.52322 187.57531 
L 222.052685 188.175436 
L 223.582151 187.172497 
L 225.111616 190.407596 
L 226.641082 190.896246 
L 228.170547 191.586924 
L 229.700013 190.28493 
L 231.229478 194.947651 
L 232.758944 195.561813 
L 234.288409 196.707406 
L 235.817875 197.39099 
L 237.34734 197.012019 
L 238.876806 198.120115 
L 240.406271 197.822286 
L 241.935737 198.167615 
L 243.465202 197.558213 
L 244.994668 199.674363 
L 246.524133 199.428427 
L 248.053599 201.890831 
L 249.583064 202.629045 
L 251.11253 202.346176 
L 252.641995 203.724723 
L 254.171461 203.665745 
L 255.700927 203.906369 
L 257.230392 205.850778 
L 258.759858 206.975618 
L 260.289323 206.912305 
L 263.348254 207.465859 
L 264.87772 206.87725 
L 266.407185 208.716735 
L 267.936651 209.308888 
L 269.466116 209.086954 
L 272.525047 209.629435 
L 274.054513 209.50775 
L 275.583978 209.667756 
L 277.113444 210.931912 
L 278.642909 211.427831 
L 281.70184 211.464932 
L 283.231306 211.68431 
L 284.760771 211.488443 
L 286.290237 211.898277 
L 287.819702 212.053969 
L 289.349168 211.643251 
L 290.878633 212.798909 
L 292.408099 212.969336 
L 293.937564 212.844403 
L 295.46703 213.123964 
L 298.525961 213.003794 
L 300.055426 213.754429 
L 303.114357 214.088552 
L 304.643823 213.929297 
L 306.173288 214.350104 
L 309.232219 214.647004 
L 310.761685 214.564622 
L 312.29115 214.841615 
L 318.409012 215.288712 
L 322.997409 215.224771 
L 324.526874 215.528382 
L 327.585805 215.723976 
L 329.115271 215.537446 
L 330.644736 215.782164 
L 332.174202 215.702004 
L 336.762599 216.105388 
L 339.82153 216.03339 
L 341.350995 216.207525 
L 362.763512 216.505214 
L 364.292978 216.596307 
L 365.822443 216.484846 
L 365.822443 216.484846 
" clip-path="url(#p1744cd5963)" style="fill: none; stroke: #d62728; stroke-width: 1.5; stroke-linecap: round"/>
   </g>
   <g id="line2d_37">
    <path d="M 61.458807 24.936271 
L 62.988272 42.939148 
L 64.517738 53.860958 
L 66.047203 63.231041 
L 67.576669 70.26792 
L 70.6356 81.406925 
L 72.165065 86.47086 
L 73.694531 90.781651 
L 75.223996 94.694296 
L 78.282927 101.355848 
L 79.812393 104.59308 
L 81.341858 107.034477 
L 82.871324 110.106302 
L 84.400789 112.171023 
L 90.518651 121.40762 
L 92.048117 123.332715 
L 93.577583 125.570795 
L 102.754376 136.475678 
L 104.283841 138.139256 
L 105.813307 140.066235 
L 108.872238 142.714238 
L 110.401703 144.348584 
L 111.931169 145.394106 
L 113.460634 146.989961 
L 114.9901 148.221086 
L 116.519565 149.756765 
L 118.049031 150.898128 
L 121.107962 152.883166 
L 122.637427 154.1252 
L 124.166893 155.161039 
L 127.225824 156.622265 
L 128.755289 158.023512 
L 130.284755 158.788841 
L 131.81422 159.174683 
L 133.343686 160.074686 
L 134.873151 160.767583 
L 136.402617 161.849408 
L 137.932082 162.079715 
L 139.461548 162.742115 
L 140.991013 163.026043 
L 142.520479 163.710088 
L 145.57941 165.328557 
L 147.108875 165.62479 
L 148.638341 166.501213 
L 151.697272 167.398033 
L 153.226737 167.561281 
L 154.756203 167.565061 
L 156.285668 168.528188 
L 157.815134 168.972145 
L 160.874065 169.344061 
L 162.40353 169.655314 
L 163.932996 169.822098 
L 165.462461 170.402884 
L 166.991927 170.640279 
L 168.521392 170.282847 
L 170.050858 170.827133 
L 171.580323 170.998792 
L 173.109789 171.595063 
L 174.639255 171.218119 
L 176.16872 171.710169 
L 177.698186 171.188387 
L 179.227651 171.315727 
L 180.757117 171.115228 
L 182.286582 171.434587 
L 183.816048 171.177914 
L 185.345513 171.411796 
L 186.874979 170.984096 
L 188.404444 171.201376 
L 189.93391 171.032876 
L 191.463375 170.532067 
L 192.992841 173.052894 
L 194.522306 173.875348 
L 196.051772 172.986328 
L 197.581237 173.099735 
L 199.110703 173.526095 
L 200.640168 172.345917 
L 202.169634 175.670595 
L 203.699099 174.925636 
L 206.75803 174.542525 
L 208.287496 177.225617 
L 211.346427 178.511462 
L 212.875892 177.582706 
L 214.405358 177.514409 
L 215.934823 177.622712 
L 217.464289 176.707679 
L 218.993754 178.677034 
L 220.52322 178.718212 
L 222.052685 178.24034 
L 223.582151 178.502407 
L 225.111616 177.120322 
L 226.641082 179.996258 
L 228.170547 181.295944 
L 229.700013 181.716413 
L 231.229478 180.94485 
L 232.758944 182.053448 
L 234.288409 180.32902 
L 235.817875 187.616824 
L 237.34734 189.061313 
L 238.876806 189.856532 
L 240.406271 188.764551 
L 241.935737 191.762457 
L 243.465202 193.330847 
L 244.994668 192.857238 
L 246.524133 195.043888 
L 248.053599 195.909555 
L 249.583064 195.274881 
L 251.11253 198.053731 
L 252.641995 198.235688 
L 254.171461 200.009802 
L 255.700927 200.086887 
L 257.230392 200.326541 
L 258.759858 200.217197 
L 260.289323 200.91879 
L 261.818789 201.935785 
L 263.348254 201.459894 
L 264.87772 203.585882 
L 266.407185 204.110443 
L 267.936651 205.330198 
L 270.995582 205.509358 
L 274.054513 205.396085 
L 275.583978 205.869295 
L 277.113444 205.428921 
L 278.642909 206.194911 
L 280.172375 206.268428 
L 281.70184 206.01438 
L 283.231306 207.761196 
L 284.760771 208.645079 
L 286.290237 208.627476 
L 287.819702 209.95291 
L 289.349168 210.066824 
L 290.878633 210.298323 
L 292.408099 210.228093 
L 293.937564 210.627802 
L 296.996495 210.545116 
L 298.525961 210.72702 
L 301.584892 210.793173 
L 303.114357 210.488219 
L 304.643823 210.990784 
L 306.173288 210.854638 
L 309.232219 210.930613 
L 310.761685 210.690225 
L 312.29115 212.26278 
L 315.350081 212.506646 
L 316.879547 212.328455 
L 319.938478 212.707006 
L 321.467943 212.669944 
L 324.526874 212.439276 
L 326.05634 212.615752 
L 329.115271 212.402096 
L 330.644736 213.383704 
L 332.174202 213.554972 
L 333.703667 213.492052 
L 335.233133 213.65478 
L 336.762599 213.454184 
L 338.292064 214.054653 
L 339.82153 214.239297 
L 341.350995 214.231124 
L 342.880461 214.429331 
L 348.998323 214.397612 
L 350.527788 214.72267 
L 352.057254 214.909109 
L 353.586719 214.757865 
L 356.64565 215.163807 
L 365.822443 215.494439 
L 365.822443 215.494439 
" clip-path="url(#p1744cd5963)" style="fill: none; stroke: #9467bd; stroke-width: 1.5; stroke-linecap: round"/>
   </g>
   <g id="line2d_38">
    <path d="M 61.458807 35.133894 
L 62.988272 56.302855 
L 64.517738 65.511537 
L 67.576669 80.405965 
L 69.106134 85.747949 
L 72.165065 94.847444 
L 73.694531 98.607175 
L 76.753462 105.033959 
L 78.282927 107.888697 
L 79.812393 110.987195 
L 81.341858 113.142896 
L 82.871324 115.875415 
L 85.930255 120.571793 
L 87.45972 122.367676 
L 90.518651 126.516549 
L 92.048117 128.081436 
L 96.636514 133.952051 
L 98.165979 135.342191 
L 99.695445 136.564464 
L 102.754376 139.990877 
L 104.283841 141.409342 
L 105.813307 142.992372 
L 107.342772 144.083714 
L 108.872238 145.677092 
L 110.401703 146.823992 
L 113.460634 149.375692 
L 114.9901 150.216779 
L 118.049031 152.662227 
L 119.578496 153.430912 
L 121.107962 154.964916 
L 122.637427 155.948316 
L 124.166893 156.292805 
L 125.696358 157.502061 
L 127.225824 158.284964 
L 128.755289 158.762714 
L 130.284755 159.940661 
L 131.81422 160.443362 
L 133.343686 161.092643 
L 134.873151 162.093159 
L 136.402617 162.48311 
L 137.932082 163.549918 
L 140.991013 165.2945 
L 144.049944 166.122202 
L 145.57941 166.648353 
L 147.108875 166.642147 
L 148.638341 167.683589 
L 150.167806 167.950371 
L 151.697272 167.958623 
L 153.226737 169.315886 
L 154.756203 169.030752 
L 156.285668 169.991784 
L 159.344599 170.288042 
L 160.874065 171.38016 
L 162.40353 170.568213 
L 163.932996 171.458371 
L 166.991927 172.277772 
L 170.050858 172.528214 
L 171.580323 172.953511 
L 173.109789 172.811808 
L 174.639255 172.219825 
L 176.16872 172.782686 
L 177.698186 172.603862 
L 179.227651 173.291181 
L 180.757117 172.254571 
L 182.286582 173.184313 
L 183.816048 173.096693 
L 186.874979 173.398747 
L 188.404444 172.71148 
L 189.93391 172.778741 
L 191.463375 172.721682 
L 192.992841 173.359463 
L 194.522306 171.555552 
L 196.051772 175.109344 
L 199.110703 174.64977 
L 200.640168 175.214044 
L 202.169634 174.728695 
L 203.699099 174.769298 
L 205.228565 175.12125 
L 206.75803 173.51911 
L 208.287496 178.976642 
L 209.816961 180.830454 
L 211.346427 180.251063 
L 212.875892 182.871259 
L 214.405358 182.600416 
L 215.934823 183.295751 
L 217.464289 182.874119 
L 218.993754 182.14272 
L 220.52322 184.583705 
L 222.052685 184.872858 
L 223.582151 184.667019 
L 225.111616 184.953713 
L 226.641082 183.765286 
L 228.170547 186.340381 
L 229.700013 187.271484 
L 232.758944 186.2603 
L 234.288409 186.547863 
L 235.817875 186.356724 
L 237.34734 185.812144 
L 238.876806 187.927599 
L 240.406271 191.303128 
L 241.935737 191.632936 
L 243.465202 191.646427 
L 244.994668 193.3567 
L 246.524133 194.775213 
L 248.053599 197.540426 
L 249.583064 197.588723 
L 251.11253 199.446359 
L 252.641995 200.884914 
L 254.171461 201.256354 
L 255.700927 201.221455 
L 257.230392 200.950945 
L 258.759858 201.869178 
L 260.289323 202.198084 
L 261.818789 201.31078 
L 263.348254 204.482138 
L 264.87772 205.42881 
L 266.407185 205.154311 
L 267.936651 205.870147 
L 270.995582 208.061916 
L 274.054513 208.341298 
L 277.113444 208.361897 
L 278.642909 208.647179 
L 280.172375 209.921585 
L 281.70184 210.331447 
L 283.231306 210.367524 
L 284.760771 210.538592 
L 286.290237 210.904541 
L 287.819702 211.571813 
L 289.349168 211.927699 
L 290.878633 212.074763 
L 292.408099 212.106562 
L 293.937564 212.279088 
L 295.46703 212.023914 
L 296.996495 212.528694 
L 298.525961 212.564271 
L 300.055426 212.725825 
L 301.584892 213.1923 
L 303.114357 213.296071 
L 304.643823 213.205753 
L 306.173288 213.71096 
L 307.702754 213.726852 
L 309.232219 213.591607 
L 310.761685 213.823324 
L 313.820616 213.925588 
L 315.350081 213.787218 
L 316.879547 214.172552 
L 318.409012 214.113731 
L 319.938478 214.232147 
L 321.467943 213.958334 
L 322.997409 214.601741 
L 327.585805 214.876153 
L 329.115271 214.854859 
L 332.174202 215.334186 
L 333.703667 215.240868 
L 339.82153 215.605347 
L 341.350995 215.616381 
L 342.880461 215.756139 
L 345.939392 215.73645 
L 347.468857 215.997066 
L 348.998323 215.902529 
L 350.527788 216.137643 
L 352.057254 215.989201 
L 353.586719 216.153932 
L 355.116185 216.075167 
L 356.64565 216.279868 
L 359.704581 216.263845 
L 361.234047 216.336169 
L 362.763512 216.222857 
L 365.822443 216.416412 
L 365.822443 216.416412 
" clip-path="url(#p1744cd5963)" style="fill: none; stroke: #8c564b; stroke-width: 1.5; stroke-linecap: round"/>
   </g>
   <g id="line2d_39">
    <path d="M 61.458807 31.993073 
L 62.988272 56.329755 
L 64.517738 65.923253 
L 66.047203 73.574549 
L 67.576669 79.18384 
L 69.106134 84.121083 
L 70.6356 88.626788 
L 73.694531 96.565757 
L 76.753462 103.02997 
L 81.341858 111.412979 
L 82.871324 113.678847 
L 84.400789 116.24566 
L 85.930255 118.121328 
L 87.45972 120.321723 
L 90.518651 124.124956 
L 92.048117 126.006647 
L 93.577583 128.120706 
L 95.107048 130.01572 
L 96.636514 131.484302 
L 98.165979 133.39861 
L 99.695445 135.70944 
L 102.754376 138.195217 
L 104.283841 140.066137 
L 107.342772 142.825705 
L 108.872238 144.549427 
L 111.931169 146.557546 
L 113.460634 148.28276 
L 114.9901 149.634382 
L 116.519565 150.155672 
L 118.049031 151.7923 
L 119.578496 152.755879 
L 122.637427 154.943846 
L 124.166893 155.743891 
L 127.225824 157.611098 
L 128.755289 158.380558 
L 130.284755 159.3331 
L 131.81422 159.858367 
L 133.343686 160.799158 
L 134.873151 161.553936 
L 136.402617 162.085911 
L 137.932082 162.792863 
L 139.461548 163.100462 
L 142.520479 164.533788 
L 144.049944 164.383534 
L 145.57941 165.599863 
L 147.108875 166.290947 
L 148.638341 166.316729 
L 150.167806 166.923678 
L 151.697272 167.141367 
L 153.226737 167.233943 
L 154.756203 168.451198 
L 156.285668 168.565577 
L 157.815134 168.888458 
L 159.344599 169.770636 
L 160.874065 169.831323 
L 162.40353 169.595467 
L 163.932996 170.353977 
L 166.991927 170.630705 
L 168.521392 170.876915 
L 170.050858 171.254194 
L 171.580323 171.242131 
L 173.109789 171.826462 
L 174.639255 171.429198 
L 176.16872 171.66233 
L 177.698186 171.461534 
L 179.227651 171.058716 
L 180.757117 172.034914 
L 182.286582 172.025265 
L 183.816048 171.683936 
L 185.345513 172.041928 
L 186.874979 171.805652 
L 188.404444 171.692459 
L 189.93391 171.806192 
L 191.463375 171.119426 
L 192.992841 171.779281 
L 196.051772 170.948595 
L 197.581237 171.498861 
L 199.110703 170.176193 
L 200.640168 173.60234 
L 202.169634 174.107404 
L 203.699099 173.968913 
L 205.228565 174.458853 
L 206.75803 172.566584 
L 208.287496 178.287233 
L 209.816961 179.408894 
L 211.346427 179.062102 
L 212.875892 179.234265 
L 214.405358 178.972324 
L 215.934823 178.31943 
L 217.464289 180.448164 
L 218.993754 180.28942 
L 220.52322 182.883127 
L 222.052685 185.833292 
L 223.582151 186.747114 
L 225.111616 186.720601 
L 226.641082 187.659602 
L 228.170547 187.956674 
L 229.700013 187.668221 
L 231.229478 188.447596 
L 232.758944 187.923533 
L 234.288409 187.99437 
L 235.817875 187.076927 
L 237.34734 190.562469 
L 238.876806 191.816053 
L 240.406271 190.471745 
L 241.935737 195.458604 
L 243.465202 196.297093 
L 244.994668 196.705767 
L 246.524133 196.055487 
L 248.053599 196.778508 
L 249.583064 198.212357 
L 251.11253 198.314798 
L 252.641995 198.282992 
L 254.171461 198.420902 
L 255.700927 197.684011 
L 257.230392 200.492916 
L 258.759858 200.931138 
L 260.289323 201.82736 
L 264.87772 201.815135 
L 266.407185 203.544241 
L 267.936651 204.330208 
L 269.466116 204.156722 
L 270.995582 205.001011 
L 272.525047 205.310934 
L 274.054513 205.395183 
L 275.583978 204.794932 
L 277.113444 206.353214 
L 278.642909 206.489847 
L 280.172375 207.825541 
L 281.70184 207.915915 
L 283.231306 208.174839 
L 284.760771 207.536403 
L 286.290237 208.417182 
L 289.349168 209.112943 
L 290.878633 208.665336 
L 292.408099 210.150568 
L 295.46703 210.458133 
L 296.996495 210.512406 
L 298.525961 210.350096 
L 300.055426 210.776109 
L 303.114357 210.534809 
L 306.173288 211.633147 
L 307.702754 211.536378 
L 309.232219 211.699709 
L 310.761685 211.481403 
L 312.29115 212.149432 
L 313.820616 211.967987 
L 315.350081 212.815826 
L 316.879547 213.025989 
L 318.409012 212.772787 
L 319.938478 213.303505 
L 322.997409 213.327043 
L 324.526874 213.381001 
L 326.05634 213.275356 
L 327.585805 213.733625 
L 329.115271 213.977526 
L 330.644736 214.033551 
L 332.174202 214.460356 
L 333.703667 214.612824 
L 336.762599 214.607663 
L 338.292064 214.797547 
L 339.82153 214.864268 
L 341.350995 215.207504 
L 342.880461 215.048932 
L 344.409926 215.374441 
L 348.998323 215.402343 
L 352.057254 215.736155 
L 356.64565 215.82206 
L 365.822443 215.88323 
L 365.822443 215.88323 
" clip-path="url(#p1744cd5963)" style="fill: none; stroke: #e377c2; stroke-width: 1.5; stroke-linecap: round"/>
   </g>
   <g id="patch_3">
    <path d="M 46.240625 226.479944 
L 46.240625 9.039944 
" style="fill: none; stroke: #cccccc; stroke-linejoin: miter; stroke-linecap: square"/>
   </g>
   <g id="patch_4">
    <path d="M 381.040625 226.479944 
L 381.040625 9.039944 
" style="fill: none; stroke: #cccccc; stroke-linejoin: miter; stroke-linecap: square"/>
   </g>
   <g id="patch_5">
    <path d="M 46.240625 226.479944 
L 381.040625 226.479944 
" style="fill: none; stroke: #cccccc; stroke-linejoin: miter; stroke-linecap: square"/>
   </g>
   <g id="patch_6">
    <path d="M 46.240625 9.039944 
L 381.040625 9.039944 
" style="fill: none; stroke: #cccccc; stroke-linejoin: miter; stroke-linecap: square"/>
   </g>
   <g id="legend_1">
    <g id="line2d_40">
     <path d="M 247.890625 21.819631 
L 257.890625 21.819631 
L 267.890625 21.819631 
" style="fill: none; stroke: #1f77b4; stroke-width: 1.5; stroke-linecap: round"/>
    </g>
    <g id="text_19">
     <!-- xavier_uniform -->
     <g style="fill: #262626" transform="translate(275.890625 25.319631)scale(0.1 -0.1)">
      <defs>
       <path id="ArialMT-78" d="M 47 0 
L 1259 1725 
L 138 3319 
L 841 3319 
L 1350 2541 
Q 1494 2319 1581 2169 
Q 1719 2375 1834 2534 
L 2394 3319 
L 3066 3319 
L 1919 1756 
L 3153 0 
L 2463 0 
L 1781 1031 
L 1600 1309 
L 728 0 
L 47 0 
z
" transform="scale(0.015625)"/>
       <path id="ArialMT-76" d="M 1344 0 
L 81 3319 
L 675 3319 
L 1388 1331 
Q 1503 1009 1600 663 
Q 1675 925 1809 1294 
L 2547 3319 
L 3125 3319 
L 1869 0 
L 1344 0 
z
" transform="scale(0.015625)"/>
       <path id="ArialMT-69" d="M 425 3934 
L 425 4581 
L 988 4581 
L 988 3934 
L 425 3934 
z
M 425 0 
L 425 3319 
L 988 3319 
L 988 0 
L 425 0 
z
" transform="scale(0.015625)"/>
       <path id="ArialMT-65" d="M 2694 1069 
L 3275 997 
Q 3138 488 2766 206 
Q 2394 -75 1816 -75 
Q 1088 -75 661 373 
Q 234 822 234 1631 
Q 234 2469 665 2931 
Q 1097 3394 1784 3394 
Q 2450 3394 2872 2941 
Q 3294 2488 3294 1666 
Q 3294 1616 3291 1516 
L 816 1516 
Q 847 969 1125 678 
Q 1403 388 1819 388 
Q 2128 388 2347 550 
Q 2566 713 2694 1069 
z
M 847 1978 
L 2700 1978 
Q 2663 2397 2488 2606 
Q 2219 2931 1791 2931 
Q 1403 2931 1139 2672 
Q 875 2413 847 1978 
z
" transform="scale(0.015625)"/>
       <path id="ArialMT-5f" d="M -97 -1272 
L -97 -866 
L 3631 -866 
L 3631 -1272 
L -97 -1272 
z
" transform="scale(0.015625)"/>
       <path id="ArialMT-6e" d="M 422 0 
L 422 3319 
L 928 3319 
L 928 2847 
Q 1294 3394 1984 3394 
Q 2284 3394 2536 3286 
Q 2788 3178 2913 3003 
Q 3038 2828 3088 2588 
Q 3119 2431 3119 2041 
L 3119 0 
L 2556 0 
L 2556 2019 
Q 2556 2363 2490 2533 
Q 2425 2703 2258 2804 
Q 2091 2906 1866 2906 
Q 1506 2906 1245 2678 
Q 984 2450 984 1813 
L 984 0 
L 422 0 
z
" transform="scale(0.015625)"/>
       <path id="ArialMT-66" d="M 556 0 
L 556 2881 
L 59 2881 
L 59 3319 
L 556 3319 
L 556 3672 
Q 556 4006 616 4169 
Q 697 4388 901 4523 
Q 1106 4659 1475 4659 
Q 1713 4659 2000 4603 
L 1916 4113 
Q 1741 4144 1584 4144 
Q 1328 4144 1222 4034 
Q 1116 3925 1116 3625 
L 1116 3319 
L 1763 3319 
L 1763 2881 
L 1116 2881 
L 1116 0 
L 556 0 
z
" transform="scale(0.015625)"/>
       <path id="ArialMT-6d" d="M 422 0 
L 422 3319 
L 925 3319 
L 925 2853 
Q 1081 3097 1340 3245 
Q 1600 3394 1931 3394 
Q 2300 3394 2536 3241 
Q 2772 3088 2869 2813 
Q 3263 3394 3894 3394 
Q 4388 3394 4653 3120 
Q 4919 2847 4919 2278 
L 4919 0 
L 4359 0 
L 4359 2091 
Q 4359 2428 4304 2576 
Q 4250 2725 4106 2815 
Q 3963 2906 3769 2906 
Q 3419 2906 3187 2673 
Q 2956 2441 2956 1928 
L 2956 0 
L 2394 0 
L 2394 2156 
Q 2394 2531 2256 2718 
Q 2119 2906 1806 2906 
Q 1569 2906 1367 2781 
Q 1166 2656 1075 2415 
Q 984 2175 984 1722 
L 984 0 
L 422 0 
z
" transform="scale(0.015625)"/>
      </defs>
      <use xlink:href="#ArialMT-78"/>
      <use xlink:href="#ArialMT-61" x="50"/>
      <use xlink:href="#ArialMT-76" x="105.615234"/>
      <use xlink:href="#ArialMT-69" x="155.615234"/>
      <use xlink:href="#ArialMT-65" x="177.832031"/>
      <use xlink:href="#ArialMT-72" x="233.447266"/>
      <use xlink:href="#ArialMT-5f" x="266.748047"/>
      <use xlink:href="#ArialMT-75" x="322.363281"/>
      <use xlink:href="#ArialMT-6e" x="377.978516"/>
      <use xlink:href="#ArialMT-69" x="433.59375"/>
      <use xlink:href="#ArialMT-66" x="455.810547"/>
      <use xlink:href="#ArialMT-6f" x="483.59375"/>
      <use xlink:href="#ArialMT-72" x="539.208984"/>
      <use xlink:href="#ArialMT-6d" x="572.509766"/>
     </g>
    </g>
    <g id="line2d_41">
     <path d="M 247.890625 36.086819 
L 257.890625 36.086819 
L 267.890625 36.086819 
" style="fill: none; stroke: #ff7f0e; stroke-width: 1.5; stroke-linecap: round"/>
    </g>
    <g id="text_20">
     <!-- xavier_uniform_M_1 -->
     <g style="fill: #262626" transform="translate(275.890625 39.586819)scale(0.1 -0.1)">
      <defs>
       <path id="ArialMT-4d" d="M 475 0 
L 475 4581 
L 1388 4581 
L 2472 1338 
Q 2622 884 2691 659 
Q 2769 909 2934 1394 
L 4031 4581 
L 4847 4581 
L 4847 0 
L 4263 0 
L 4263 3834 
L 2931 0 
L 2384 0 
L 1059 3900 
L 1059 0 
L 475 0 
z
" transform="scale(0.015625)"/>
      </defs>
      <use xlink:href="#ArialMT-78"/>
      <use xlink:href="#ArialMT-61" x="50"/>
      <use xlink:href="#ArialMT-76" x="105.615234"/>
      <use xlink:href="#ArialMT-69" x="155.615234"/>
      <use xlink:href="#ArialMT-65" x="177.832031"/>
      <use xlink:href="#ArialMT-72" x="233.447266"/>
      <use xlink:href="#ArialMT-5f" x="266.748047"/>
      <use xlink:href="#ArialMT-75" x="322.363281"/>
      <use xlink:href="#ArialMT-6e" x="377.978516"/>
      <use xlink:href="#ArialMT-69" x="433.59375"/>
      <use xlink:href="#ArialMT-66" x="455.810547"/>
      <use xlink:href="#ArialMT-6f" x="483.59375"/>
      <use xlink:href="#ArialMT-72" x="539.208984"/>
      <use xlink:href="#ArialMT-6d" x="572.509766"/>
      <use xlink:href="#ArialMT-5f" x="655.810547"/>
      <use xlink:href="#ArialMT-4d" x="711.425781"/>
      <use xlink:href="#ArialMT-5f" x="794.726562"/>
      <use xlink:href="#ArialMT-31" x="850.341797"/>
     </g>
    </g>
    <g id="line2d_42">
     <path d="M 247.890625 50.354006 
L 257.890625 50.354006 
L 267.890625 50.354006 
" style="fill: none; stroke: #2ca02c; stroke-width: 1.5; stroke-linecap: round"/>
    </g>
    <g id="text_21">
     <!-- xavier_uniform_M_2 -->
     <g style="fill: #262626" transform="translate(275.890625 53.854006)scale(0.1 -0.1)">
      <use xlink:href="#ArialMT-78"/>
      <use xlink:href="#ArialMT-61" x="50"/>
      <use xlink:href="#ArialMT-76" x="105.615234"/>
      <use xlink:href="#ArialMT-69" x="155.615234"/>
      <use xlink:href="#ArialMT-65" x="177.832031"/>
      <use xlink:href="#ArialMT-72" x="233.447266"/>
      <use xlink:href="#ArialMT-5f" x="266.748047"/>
      <use xlink:href="#ArialMT-75" x="322.363281"/>
      <use xlink:href="#ArialMT-6e" x="377.978516"/>
      <use xlink:href="#ArialMT-69" x="433.59375"/>
      <use xlink:href="#ArialMT-66" x="455.810547"/>
      <use xlink:href="#ArialMT-6f" x="483.59375"/>
      <use xlink:href="#ArialMT-72" x="539.208984"/>
      <use xlink:href="#ArialMT-6d" x="572.509766"/>
      <use xlink:href="#ArialMT-5f" x="655.810547"/>
      <use xlink:href="#ArialMT-4d" x="711.425781"/>
      <use xlink:href="#ArialMT-5f" x="794.726562"/>
      <use xlink:href="#ArialMT-32" x="850.341797"/>
     </g>
    </g>
    <g id="line2d_43">
     <path d="M 247.890625 64.621194 
L 257.890625 64.621194 
L 267.890625 64.621194 
" style="fill: none; stroke: #d62728; stroke-width: 1.5; stroke-linecap: round"/>
    </g>
    <g id="text_22">
     <!-- xavier_uniform_M_10 -->
     <g style="fill: #262626" transform="translate(275.890625 68.121194)scale(0.1 -0.1)">
      <use xlink:href="#ArialMT-78"/>
      <use xlink:href="#ArialMT-61" x="50"/>
      <use xlink:href="#ArialMT-76" x="105.615234"/>
      <use xlink:href="#ArialMT-69" x="155.615234"/>
      <use xlink:href="#ArialMT-65" x="177.832031"/>
      <use xlink:href="#ArialMT-72" x="233.447266"/>
      <use xlink:href="#ArialMT-5f" x="266.748047"/>
      <use xlink:href="#ArialMT-75" x="322.363281"/>
      <use xlink:href="#ArialMT-6e" x="377.978516"/>
      <use xlink:href="#ArialMT-69" x="433.59375"/>
      <use xlink:href="#ArialMT-66" x="455.810547"/>
      <use xlink:href="#ArialMT-6f" x="483.59375"/>
      <use xlink:href="#ArialMT-72" x="539.208984"/>
      <use xlink:href="#ArialMT-6d" x="572.509766"/>
      <use xlink:href="#ArialMT-5f" x="655.810547"/>
      <use xlink:href="#ArialMT-4d" x="711.425781"/>
      <use xlink:href="#ArialMT-5f" x="794.726562"/>
      <use xlink:href="#ArialMT-31" x="850.341797"/>
      <use xlink:href="#ArialMT-30" x="905.957031"/>
     </g>
    </g>
    <g id="line2d_44">
     <path d="M 247.890625 78.888381 
L 257.890625 78.888381 
L 267.890625 78.888381 
" style="fill: none; stroke: #9467bd; stroke-width: 1.5; stroke-linecap: round"/>
    </g>
    <g id="text_23">
     <!-- xavier_uniform_M_14 -->
     <g style="fill: #262626" transform="translate(275.890625 82.388381)scale(0.1 -0.1)">
      <use xlink:href="#ArialMT-78"/>
      <use xlink:href="#ArialMT-61" x="50"/>
      <use xlink:href="#ArialMT-76" x="105.615234"/>
      <use xlink:href="#ArialMT-69" x="155.615234"/>
      <use xlink:href="#ArialMT-65" x="177.832031"/>
      <use xlink:href="#ArialMT-72" x="233.447266"/>
      <use xlink:href="#ArialMT-5f" x="266.748047"/>
      <use xlink:href="#ArialMT-75" x="322.363281"/>
      <use xlink:href="#ArialMT-6e" x="377.978516"/>
      <use xlink:href="#ArialMT-69" x="433.59375"/>
      <use xlink:href="#ArialMT-66" x="455.810547"/>
      <use xlink:href="#ArialMT-6f" x="483.59375"/>
      <use xlink:href="#ArialMT-72" x="539.208984"/>
      <use xlink:href="#ArialMT-6d" x="572.509766"/>
      <use xlink:href="#ArialMT-5f" x="655.810547"/>
      <use xlink:href="#ArialMT-4d" x="711.425781"/>
      <use xlink:href="#ArialMT-5f" x="794.726562"/>
      <use xlink:href="#ArialMT-31" x="850.341797"/>
      <use xlink:href="#ArialMT-34" x="905.957031"/>
     </g>
    </g>
    <g id="line2d_45">
     <path d="M 247.890625 93.155569 
L 257.890625 93.155569 
L 267.890625 93.155569 
" style="fill: none; stroke: #8c564b; stroke-width: 1.5; stroke-linecap: round"/>
    </g>
    <g id="text_24">
     <!-- xavier_uniform_M_20 -->
     <g style="fill: #262626" transform="translate(275.890625 96.655569)scale(0.1 -0.1)">
      <use xlink:href="#ArialMT-78"/>
      <use xlink:href="#ArialMT-61" x="50"/>
      <use xlink:href="#ArialMT-76" x="105.615234"/>
      <use xlink:href="#ArialMT-69" x="155.615234"/>
      <use xlink:href="#ArialMT-65" x="177.832031"/>
      <use xlink:href="#ArialMT-72" x="233.447266"/>
      <use xlink:href="#ArialMT-5f" x="266.748047"/>
      <use xlink:href="#ArialMT-75" x="322.363281"/>
      <use xlink:href="#ArialMT-6e" x="377.978516"/>
      <use xlink:href="#ArialMT-69" x="433.59375"/>
      <use xlink:href="#ArialMT-66" x="455.810547"/>
      <use xlink:href="#ArialMT-6f" x="483.59375"/>
      <use xlink:href="#ArialMT-72" x="539.208984"/>
      <use xlink:href="#ArialMT-6d" x="572.509766"/>
      <use xlink:href="#ArialMT-5f" x="655.810547"/>
      <use xlink:href="#ArialMT-4d" x="711.425781"/>
      <use xlink:href="#ArialMT-5f" x="794.726562"/>
      <use xlink:href="#ArialMT-32" x="850.341797"/>
      <use xlink:href="#ArialMT-30" x="905.957031"/>
     </g>
    </g>
    <g id="line2d_46">
     <path d="M 247.890625 107.422756 
L 257.890625 107.422756 
L 267.890625 107.422756 
" style="fill: none; stroke: #e377c2; stroke-width: 1.5; stroke-linecap: round"/>
    </g>
    <g id="text_25">
     <!-- kaiming_uniform -->
     <g style="fill: #262626" transform="translate(275.890625 110.922756)scale(0.1 -0.1)">
      <defs>
       <path id="ArialMT-67" d="M 319 -275 
L 866 -356 
Q 900 -609 1056 -725 
Q 1266 -881 1628 -881 
Q 2019 -881 2231 -725 
Q 2444 -569 2519 -288 
Q 2563 -116 2559 434 
Q 2191 0 1641 0 
Q 956 0 581 494 
Q 206 988 206 1678 
Q 206 2153 378 2554 
Q 550 2956 876 3175 
Q 1203 3394 1644 3394 
Q 2231 3394 2613 2919 
L 2613 3319 
L 3131 3319 
L 3131 450 
Q 3131 -325 2973 -648 
Q 2816 -972 2473 -1159 
Q 2131 -1347 1631 -1347 
Q 1038 -1347 672 -1080 
Q 306 -813 319 -275 
z
M 784 1719 
Q 784 1066 1043 766 
Q 1303 466 1694 466 
Q 2081 466 2343 764 
Q 2606 1063 2606 1700 
Q 2606 2309 2336 2618 
Q 2066 2928 1684 2928 
Q 1309 2928 1046 2623 
Q 784 2319 784 1719 
z
" transform="scale(0.015625)"/>
      </defs>
      <use xlink:href="#ArialMT-6b"/>
      <use xlink:href="#ArialMT-61" x="50"/>
      <use xlink:href="#ArialMT-69" x="105.615234"/>
      <use xlink:href="#ArialMT-6d" x="127.832031"/>
      <use xlink:href="#ArialMT-69" x="211.132812"/>
      <use xlink:href="#ArialMT-6e" x="233.349609"/>
      <use xlink:href="#ArialMT-67" x="288.964844"/>
      <use xlink:href="#ArialMT-5f" x="344.580078"/>
      <use xlink:href="#ArialMT-75" x="400.195312"/>
      <use xlink:href="#ArialMT-6e" x="455.810547"/>
      <use xlink:href="#ArialMT-69" x="511.425781"/>
      <use xlink:href="#ArialMT-66" x="533.642578"/>
      <use xlink:href="#ArialMT-6f" x="561.425781"/>
      <use xlink:href="#ArialMT-72" x="617.041016"/>
      <use xlink:href="#ArialMT-6d" x="650.341797"/>
     </g>
    </g>
   </g>
  </g>
 </g>
 <defs>
  <clipPath id="p1744cd5963">
   <rect x="46.240625" y="9.039944" width="334.8" height="217.44"/>
  </clipPath>
 </defs>
</svg>
