<?xml version="1.0" encoding="utf-8" standalone="no"?>
<!DOCTYPE svg PUBLIC "-//W3C//DTD SVG 1.1//EN"
  "http://www.w3.org/Graphics/SVG/1.1/DTD/svg11.dtd">
<svg xmlns:xlink="http://www.w3.org/1999/xlink" width="379.984375pt" height="257.630625pt" viewBox="0 0 379.984375 257.630625" xmlns="http://www.w3.org/2000/svg" version="1.1">
 <metadata>
  <rdf:RDF xmlns:dc="http://purl.org/dc/elements/1.1/" xmlns:cc="http://creativecommons.org/ns#" xmlns:rdf="http://www.w3.org/1999/02/22-rdf-syntax-ns#">
   <cc:Work>
    <dc:type rdf:resource="http://purl.org/dc/dcmitype/StillImage"/>
    <dc:date>2022-06-27T17:32:26.636206</dc:date>
    <dc:format>image/svg+xml</dc:format>
    <dc:creator>
     <cc:Agent>
      <dc:title>Matplotlib v3.5.0, https://matplotlib.org/</dc:title>
     </cc:Agent>
    </dc:creator>
   </cc:Work>
  </rdf:RDF>
 </metadata>
 <defs>
  <style type="text/css">*{stroke-linejoin: round; stroke-linecap: butt}</style>
 </defs>
 <g id="figure_1">
  <g id="patch_1">
   <path d="M 0 257.630625 
L 379.984375 257.630625 
L 379.984375 0 
L 0 0 
z
" style="fill: #ffffff"/>
  </g>
  <g id="axes_1">
   <g id="patch_2">
    <path d="M 37.984375 224.64 
L 372.784375 224.64 
L 372.784375 7.2 
L 37.984375 7.2 
z
" style="fill: #ffffff"/>
   </g>
   <g id="matplotlib.axis_1">
    <g id="xtick_1">
     <g id="line2d_1">
      <path d="M 53.202557 224.64 
L 53.202557 7.2 
" clip-path="url(#pa4c19fa8ec)" style="fill: none; stroke: #cccccc; stroke-width: 0.8; stroke-linecap: round"/>
     </g>
     <g id="line2d_2"/>
     <g id="text_1">
      <text style="fill: #262626; font: 10px 'sans-serif'; text-anchor: middle" x="53.202557" y="235.297812" transform="rotate(-0, 53.202557, 235.297812)">0</text>
     </g>
    </g>
    <g id="xtick_2">
     <g id="line2d_3">
      <path d="M 91.439195 224.64 
L 91.439195 7.2 
" clip-path="url(#pa4c19fa8ec)" style="fill: none; stroke: #cccccc; stroke-width: 0.8; stroke-linecap: round"/>
     </g>
     <g id="line2d_4"/>
     <g id="text_2">
      <text style="fill: #262626; font: 10px 'sans-serif'; text-anchor: middle" x="91.439195" y="235.297812" transform="rotate(-0, 91.439195, 235.297812)">25</text>
     </g>
    </g>
    <g id="xtick_3">
     <g id="line2d_5">
      <path d="M 129.675832 224.64 
L 129.675832 7.2 
" clip-path="url(#pa4c19fa8ec)" style="fill: none; stroke: #cccccc; stroke-width: 0.8; stroke-linecap: round"/>
     </g>
     <g id="line2d_6"/>
     <g id="text_3">
      <text style="fill: #262626; font: 10px 'sans-serif'; text-anchor: middle" x="129.675832" y="235.297812" transform="rotate(-0, 129.675832, 235.297812)">50</text>
     </g>
    </g>
    <g id="xtick_4">
     <g id="line2d_7">
      <path d="M 167.91247 224.64 
L 167.91247 7.2 
" clip-path="url(#pa4c19fa8ec)" style="fill: none; stroke: #cccccc; stroke-width: 0.8; stroke-linecap: round"/>
     </g>
     <g id="line2d_8"/>
     <g id="text_4">
      <text style="fill: #262626; font: 10px 'sans-serif'; text-anchor: middle" x="167.91247" y="235.297812" transform="rotate(-0, 167.91247, 235.297812)">75</text>
     </g>
    </g>
    <g id="xtick_5">
     <g id="line2d_9">
      <path d="M 206.149108 224.64 
L 206.149108 7.2 
" clip-path="url(#pa4c19fa8ec)" style="fill: none; stroke: #cccccc; stroke-width: 0.8; stroke-linecap: round"/>
     </g>
     <g id="line2d_10"/>
     <g id="text_5">
      <text style="fill: #262626; font: 10px 'sans-serif'; text-anchor: middle" x="206.149108" y="235.297812" transform="rotate(-0, 206.149108, 235.297812)">100</text>
     </g>
    </g>
    <g id="xtick_6">
     <g id="line2d_11">
      <path d="M 244.385745 224.64 
L 244.385745 7.2 
" clip-path="url(#pa4c19fa8ec)" style="fill: none; stroke: #cccccc; stroke-width: 0.8; stroke-linecap: round"/>
     </g>
     <g id="line2d_12"/>
     <g id="text_6">
      <text style="fill: #262626; font: 10px 'sans-serif'; text-anchor: middle" x="244.385745" y="235.297812" transform="rotate(-0, 244.385745, 235.297812)">125</text>
     </g>
    </g>
    <g id="xtick_7">
     <g id="line2d_13">
      <path d="M 282.622383 224.64 
L 282.622383 7.2 
" clip-path="url(#pa4c19fa8ec)" style="fill: none; stroke: #cccccc; stroke-width: 0.8; stroke-linecap: round"/>
     </g>
     <g id="line2d_14"/>
     <g id="text_7">
      <text style="fill: #262626; font: 10px 'sans-serif'; text-anchor: middle" x="282.622383" y="235.297812" transform="rotate(-0, 282.622383, 235.297812)">150</text>
     </g>
    </g>
    <g id="xtick_8">
     <g id="line2d_15">
      <path d="M 320.859021 224.64 
L 320.859021 7.2 
" clip-path="url(#pa4c19fa8ec)" style="fill: none; stroke: #cccccc; stroke-width: 0.8; stroke-linecap: round"/>
     </g>
     <g id="line2d_16"/>
     <g id="text_8">
      <text style="fill: #262626; font: 10px 'sans-serif'; text-anchor: middle" x="320.859021" y="235.297812" transform="rotate(-0, 320.859021, 235.297812)">175</text>
     </g>
    </g>
    <g id="xtick_9">
     <g id="line2d_17">
      <path d="M 359.095659 224.64 
L 359.095659 7.2 
" clip-path="url(#pa4c19fa8ec)" style="fill: none; stroke: #cccccc; stroke-width: 0.8; stroke-linecap: round"/>
     </g>
     <g id="line2d_18"/>
     <g id="text_9">
      <text style="fill: #262626; font: 10px 'sans-serif'; text-anchor: middle" x="359.095659" y="235.297812" transform="rotate(-0, 359.095659, 235.297812)">200</text>
     </g>
    </g>
    <g id="text_10">
     <text style="fill: #262626; font: 10px 'sans-serif'; text-anchor: middle" x="205.384375" y="248.443125" transform="rotate(-0, 205.384375, 248.443125)">Epoka</text>
    </g>
   </g>
   <g id="matplotlib.axis_2">
    <g id="ytick_1">
     <g id="line2d_19">
      <path d="M 37.984375 216.443418 
L 372.784375 216.443418 
" clip-path="url(#pa4c19fa8ec)" style="fill: none; stroke: #cccccc; stroke-width: 0.8; stroke-linecap: round"/>
     </g>
     <g id="line2d_20"/>
     <g id="text_11">
      <text style="fill: #262626; font: 10px 'sans-serif'; text-anchor: end" x="34.484375" y="220.022324" transform="rotate(-0, 34.484375, 220.022324)">0.0</text>
     </g>
    </g>
    <g id="ytick_2">
     <g id="line2d_21">
      <path d="M 37.984375 173.213323 
L 372.784375 173.213323 
" clip-path="url(#pa4c19fa8ec)" style="fill: none; stroke: #cccccc; stroke-width: 0.8; stroke-linecap: round"/>
     </g>
     <g id="line2d_22"/>
     <g id="text_12">
      <text style="fill: #262626; font: 10px 'sans-serif'; text-anchor: end" x="34.484375" y="176.792229" transform="rotate(-0, 34.484375, 176.792229)">0.5</text>
     </g>
    </g>
    <g id="ytick_3">
     <g id="line2d_23">
      <path d="M 37.984375 129.983228 
L 372.784375 129.983228 
" clip-path="url(#pa4c19fa8ec)" style="fill: none; stroke: #cccccc; stroke-width: 0.8; stroke-linecap: round"/>
     </g>
     <g id="line2d_24"/>
     <g id="text_13">
      <text style="fill: #262626; font: 10px 'sans-serif'; text-anchor: end" x="34.484375" y="133.562134" transform="rotate(-0, 34.484375, 133.562134)">1.0</text>
     </g>
    </g>
    <g id="ytick_4">
     <g id="line2d_25">
      <path d="M 37.984375 86.753133 
L 372.784375 86.753133 
" clip-path="url(#pa4c19fa8ec)" style="fill: none; stroke: #cccccc; stroke-width: 0.8; stroke-linecap: round"/>
     </g>
     <g id="line2d_26"/>
     <g id="text_14">
      <text style="fill: #262626; font: 10px 'sans-serif'; text-anchor: end" x="34.484375" y="90.332039" transform="rotate(-0, 34.484375, 90.332039)">1.5</text>
     </g>
    </g>
    <g id="ytick_5">
     <g id="line2d_27">
      <path d="M 37.984375 43.523038 
L 372.784375 43.523038 
" clip-path="url(#pa4c19fa8ec)" style="fill: none; stroke: #cccccc; stroke-width: 0.8; stroke-linecap: round"/>
     </g>
     <g id="line2d_28"/>
     <g id="text_15">
      <text style="fill: #262626; font: 10px 'sans-serif'; text-anchor: end" x="34.484375" y="47.101945" transform="rotate(-0, 34.484375, 47.101945)">2.0</text>
     </g>
    </g>
    <g id="text_16">
     <text style="fill: #262626; font: 10px 'sans-serif'; text-anchor: middle" x="14.479688" y="115.92" transform="rotate(-90, 14.479688, 115.92)">Wartość funkcji celu</text>
    </g>
   </g>
   <g id="line2d_29">
    <path d="M 53.202557 17.244799 
L 54.732022 18.961066 
L 56.261488 24.739101 
L 57.790953 32.410494 
L 60.849884 44.930395 
L 68.497212 73.956989 
L 70.026677 79.074145 
L 76.144539 96.35756 
L 80.732936 106.633953 
L 82.262401 109.464091 
L 83.791867 112.896266 
L 86.850798 117.943033 
L 88.380264 121.058695 
L 92.96866 128.080502 
L 96.027591 132.397275 
L 97.557057 133.91285 
L 100.615988 138.408254 
L 102.145453 139.580357 
L 103.674919 141.595352 
L 105.204384 143.138015 
L 106.73385 144.869557 
L 108.263315 146.31671 
L 109.792781 147.458876 
L 112.851712 150.841271 
L 115.910643 153.016911 
L 118.969574 155.81247 
L 120.499039 156.618429 
L 125.087436 159.84995 
L 126.616901 160.375484 
L 128.146367 161.269189 
L 129.675832 162.406685 
L 131.205298 162.804506 
L 132.734763 163.813461 
L 135.793694 165.213568 
L 138.852625 165.885382 
L 140.382091 166.91111 
L 141.911556 167.191699 
L 143.441022 167.895451 
L 144.970487 168.181692 
L 146.499953 168.250202 
L 148.029418 168.955201 
L 149.558884 169.3949 
L 151.088349 169.457133 
L 152.617815 169.954509 
L 154.14728 169.821854 
L 157.206211 170.973527 
L 158.735677 170.830175 
L 160.265142 171.191214 
L 163.324073 171.178029 
L 164.853539 171.484657 
L 166.383005 170.871303 
L 167.91247 171.82848 
L 169.441936 171.795335 
L 170.971401 171.246964 
L 172.500867 171.969699 
L 174.030332 171.689805 
L 175.559798 172.137857 
L 177.089263 172.207456 
L 178.618729 171.734305 
L 180.148194 172.314952 
L 181.67766 172.492412 
L 184.736591 172.002266 
L 186.266056 172.054186 
L 187.795522 172.39375 
L 189.324987 171.762061 
L 190.854453 171.747376 
L 192.383918 171.24199 
L 195.442849 171.29469 
L 198.50178 170.463089 
L 200.031246 169.414017 
L 203.090177 175.51596 
L 204.619642 176.162896 
L 206.149108 175.624038 
L 207.678573 175.872902 
L 209.208039 175.50248 
L 210.737504 174.47009 
L 212.26697 177.928274 
L 213.796435 178.957388 
L 215.325901 178.166484 
L 216.855366 178.876461 
L 218.384832 177.751232 
L 219.914297 182.339788 
L 221.443763 186.437756 
L 222.973228 187.16669 
L 224.502694 186.736591 
L 226.032159 186.795804 
L 227.561625 186.359497 
L 229.09109 188.240294 
L 230.620556 188.79134 
L 232.150021 189.013916 
L 233.679487 188.303013 
L 235.208952 187.351766 
L 236.738418 190.373001 
L 238.267883 190.53435 
L 239.797349 192.534672 
L 241.326814 194.835937 
L 242.85628 196.231885 
L 244.385745 196.76096 
L 245.915211 197.055211 
L 247.444677 196.732608 
L 250.503608 197.046049 
L 252.033073 196.570298 
L 253.562539 195.749737 
L 255.092004 197.679984 
L 256.62147 198.707144 
L 258.150935 197.727466 
L 259.680401 201.796029 
L 261.209866 202.859564 
L 262.739332 202.425225 
L 264.268797 204.505022 
L 265.798263 205.331339 
L 267.327728 205.094824 
L 268.857194 206.12831 
L 270.386659 206.723985 
L 271.916125 206.438407 
L 273.44559 207.079752 
L 276.504521 207.333263 
L 278.033987 207.080332 
L 279.563452 208.031739 
L 281.092918 208.433759 
L 282.622383 208.183112 
L 284.151849 207.800155 
L 285.681314 209.358926 
L 287.21078 209.620351 
L 288.740245 209.357927 
L 290.269711 210.738576 
L 291.799176 210.588508 
L 293.328642 211.157324 
L 294.858107 210.96561 
L 296.387573 211.569063 
L 297.917038 211.510713 
L 299.446504 211.922537 
L 302.505435 212.299859 
L 304.0349 212.193914 
L 305.564366 212.353215 
L 308.623297 212.41038 
L 310.152762 212.291996 
L 311.682228 212.774927 
L 313.211693 213.034802 
L 316.270624 213.144854 
L 319.329555 213.480671 
L 320.859021 213.413059 
L 325.447417 213.774167 
L 326.976883 214.08455 
L 328.506349 213.822052 
L 331.56528 214.035606 
L 333.094745 214.167762 
L 334.624211 214.102812 
L 337.683142 214.415774 
L 339.212607 214.410919 
L 340.742073 214.537635 
L 342.271538 214.395824 
L 343.801004 214.577233 
L 357.566193 214.743825 
L 357.566193 214.743825 
" clip-path="url(#pa4c19fa8ec)" style="fill: none; stroke: #1f77b4; stroke-width: 1.5; stroke-linecap: round"/>
   </g>
   <g id="line2d_30">
    <path d="M 53.202557 17.083636 
L 54.732022 17.311343 
L 62.37935 17.347286 
L 117.440108 17.37378 
L 118.969574 17.63709 
L 120.499039 21.293991 
L 122.028505 23.915844 
L 125.087436 27.534124 
L 126.616901 29.003042 
L 129.675832 31.235362 
L 131.205298 32.275449 
L 132.734763 34.213501 
L 134.264229 36.812333 
L 135.793694 38.420559 
L 137.32316 39.755959 
L 138.852625 41.288423 
L 140.382091 42.566329 
L 141.911556 44.196439 
L 143.441022 45.490776 
L 146.499953 47.647948 
L 148.029418 49.196585 
L 149.558884 54.020521 
L 154.14728 67.298126 
L 155.676746 71.076207 
L 157.206211 74.304573 
L 158.735677 76.953253 
L 163.324073 94.284428 
L 164.853539 99.873521 
L 166.383005 106.04739 
L 169.441936 115.43597 
L 175.559798 128.887787 
L 178.618729 134.33232 
L 180.148194 136.293805 
L 181.67766 138.486206 
L 183.207125 140.925635 
L 184.736591 142.665544 
L 186.266056 144.658838 
L 187.795522 145.817691 
L 190.854453 148.974001 
L 196.972315 153.92422 
L 198.50178 154.448585 
L 201.560711 156.354906 
L 203.090177 156.759352 
L 204.619642 157.485624 
L 206.149108 157.890552 
L 207.678573 157.643943 
L 209.208039 158.055512 
L 210.737504 159.11506 
L 215.325901 160.032802 
L 216.855366 160.179393 
L 218.384832 160.465089 
L 219.914297 160.333411 
L 222.973228 160.716427 
L 224.502694 161.532704 
L 226.032159 160.494418 
L 227.561625 161.2644 
L 229.09109 160.413124 
L 230.620556 160.633756 
L 232.150021 159.96103 
L 233.679487 160.593374 
L 235.208952 159.69917 
L 236.738418 159.718917 
L 238.267883 159.487638 
L 239.797349 158.292625 
L 241.326814 157.381577 
L 242.85628 160.879643 
L 244.385745 160.60321 
L 245.915211 164.207209 
L 247.444677 164.471287 
L 248.974142 164.85732 
L 250.503608 163.939264 
L 252.033073 166.969756 
L 253.562539 167.076034 
L 255.092004 169.942653 
L 256.62147 170.139413 
L 258.150935 169.505371 
L 259.680401 170.014603 
L 261.209866 169.147927 
L 262.739332 169.369325 
L 264.268797 169.082281 
L 265.798263 168.175588 
L 267.327728 168.046866 
L 268.857194 167.434748 
L 270.386659 169.349719 
L 271.916125 172.454292 
L 273.44559 176.876827 
L 278.033987 177.137181 
L 279.563452 176.750553 
L 281.092918 176.014388 
L 282.622383 177.832763 
L 284.151849 177.614039 
L 285.681314 178.02645 
L 288.740245 176.880731 
L 290.269711 176.597411 
L 291.799176 175.485136 
L 293.328642 178.424488 
L 296.387573 178.309726 
L 297.917038 177.244555 
L 299.446504 181.541617 
L 300.975969 185.416687 
L 302.505435 185.28209 
L 304.0349 186.303133 
L 305.564366 185.937712 
L 307.093831 185.738645 
L 308.623297 186.358522 
L 310.152762 189.342 
L 311.682228 189.932023 
L 313.211693 189.878372 
L 314.741159 189.553123 
L 316.270624 189.550036 
L 319.329555 189.090835 
L 320.859021 188.100091 
L 322.388486 190.402099 
L 323.917952 190.978487 
L 325.447417 190.846805 
L 326.976883 191.944713 
L 328.506349 193.637727 
L 330.035814 196.032569 
L 333.094745 197.153748 
L 334.624211 196.408797 
L 336.153676 199.512381 
L 343.801004 200.198165 
L 345.330469 201.168671 
L 346.859935 201.462375 
L 348.3894 201.29858 
L 349.918866 201.363203 
L 351.448331 201.588531 
L 352.977797 200.99919 
L 354.507262 203.078032 
L 356.036728 203.814593 
L 357.566193 203.821299 
L 357.566193 203.821299 
" clip-path="url(#pa4c19fa8ec)" style="fill: none; stroke: #ff7f0e; stroke-width: 1.5; stroke-linecap: round"/>
   </g>
   <g id="line2d_31">
    <path d="M 53.202557 17.14288 
L 54.732022 17.326532 
L 68.497212 17.470769 
L 70.026677 18.235967 
L 71.556143 21.90471 
L 73.085608 24.05471 
L 76.144539 31.502364 
L 77.674005 33.949202 
L 79.20347 35.522127 
L 82.262401 39.176855 
L 83.791867 41.803093 
L 85.321333 45.629982 
L 86.850798 49.881904 
L 88.380264 53.65129 
L 89.909729 56.993423 
L 92.96866 63.161803 
L 94.498126 69.302508 
L 96.027591 74.46492 
L 99.086522 84.010576 
L 100.615988 87.809042 
L 103.674919 97.104885 
L 105.204384 101.246937 
L 108.263315 108.103845 
L 109.792781 111.51457 
L 111.322246 114.333818 
L 114.381177 120.616636 
L 115.910643 122.95272 
L 117.440108 126.108959 
L 118.969574 128.417803 
L 120.499039 131.050585 
L 122.028505 133.21271 
L 123.55797 135.761847 
L 125.087436 137.50167 
L 126.616901 139.866694 
L 128.146367 141.400634 
L 129.675832 143.564367 
L 131.205298 145.090237 
L 132.734763 147.05666 
L 137.32316 151.420407 
L 138.852625 152.517511 
L 140.382091 154.082552 
L 141.911556 154.834624 
L 143.441022 156.489636 
L 144.970487 157.581914 
L 146.499953 158.258999 
L 149.558884 160.154141 
L 151.088349 160.539503 
L 152.617815 161.831144 
L 154.14728 161.658544 
L 155.676746 163.36974 
L 157.206211 163.60195 
L 158.735677 164.405355 
L 160.265142 164.95728 
L 161.794608 165.70541 
L 163.324073 165.825525 
L 166.383005 166.654877 
L 167.91247 167.087478 
L 169.441936 167.041617 
L 172.500867 167.995348 
L 175.559798 167.879108 
L 177.089263 168.116317 
L 178.618729 167.91147 
L 180.148194 168.317154 
L 181.67766 167.968027 
L 183.207125 168.908006 
L 184.736591 167.894904 
L 186.266056 168.847526 
L 189.324987 168.182982 
L 190.854453 168.240286 
L 192.383918 167.602776 
L 193.913384 167.473958 
L 195.442849 167.052302 
L 196.972315 167.294918 
L 198.50178 167.250967 
L 200.031246 166.1932 
L 201.560711 166.658238 
L 204.619642 166.261544 
L 206.149108 166.106866 
L 207.678573 166.138897 
L 209.208039 165.462357 
L 210.737504 165.546384 
L 212.26697 164.467553 
L 213.796435 163.868479 
L 216.855366 170.17505 
L 218.384832 174.011331 
L 219.914297 174.141043 
L 221.443763 174.749332 
L 222.973228 174.188133 
L 224.502694 173.432565 
L 226.032159 173.312271 
L 227.561625 173.466205 
L 229.09109 172.803884 
L 232.150021 178.234162 
L 233.679487 181.584059 
L 235.208952 182.437208 
L 236.738418 181.874358 
L 238.267883 184.320797 
L 239.797349 186.157228 
L 241.326814 189.053903 
L 242.85628 189.157551 
L 244.385745 189.71217 
L 245.915211 189.291921 
L 247.444677 190.665005 
L 248.974142 191.143043 
L 250.503608 190.684212 
L 252.033073 192.643057 
L 253.562539 193.261916 
L 255.092004 193.361247 
L 256.62147 192.797673 
L 258.150935 193.922537 
L 259.680401 194.26977 
L 261.209866 194.167951 
L 262.739332 193.756405 
L 264.268797 194.296397 
L 265.798263 193.560189 
L 267.327728 197.148676 
L 268.857194 198.527242 
L 270.386659 198.408571 
L 271.916125 198.70392 
L 273.44559 200.969417 
L 274.975056 200.997609 
L 276.504521 201.247217 
L 278.033987 201.164922 
L 279.563452 200.478992 
L 281.092918 203.060212 
L 282.622383 203.195995 
L 284.151849 203.717417 
L 285.681314 203.134972 
L 287.21078 204.901028 
L 288.740245 206.128168 
L 290.269711 206.61912 
L 297.917038 206.679991 
L 299.446504 207.833682 
L 300.975969 208.076531 
L 302.505435 208.093562 
L 304.0349 208.264764 
L 305.564366 208.089681 
L 307.093831 208.573073 
L 308.623297 208.738527 
L 310.152762 208.55256 
L 311.682228 209.587334 
L 313.211693 210.208476 
L 316.270624 210.434789 
L 317.80009 210.773717 
L 319.329555 210.865054 
L 322.388486 210.743312 
L 323.917952 210.76206 
L 325.447417 211.199478 
L 326.976883 211.34162 
L 328.506349 211.708582 
L 330.035814 211.861213 
L 331.56528 211.812516 
L 333.094745 212.162627 
L 334.624211 212.327587 
L 336.153676 212.289964 
L 337.683142 212.431093 
L 339.212607 212.284499 
L 340.742073 212.714684 
L 342.271538 212.89565 
L 343.801004 212.748505 
L 345.330469 213.031441 
L 346.859935 213.017569 
L 348.3894 212.786088 
L 349.918866 213.389231 
L 354.507262 213.475685 
L 356.036728 213.836201 
L 357.566193 214.000548 
L 357.566193 214.000548 
" clip-path="url(#pa4c19fa8ec)" style="fill: none; stroke: #2ca02c; stroke-width: 1.5; stroke-linecap: round"/>
   </g>
   <g id="line2d_32">
    <path d="M 53.202557 17.752616 
L 54.732022 23.815745 
L 57.790953 42.991943 
L 60.849884 58.213607 
L 62.37935 64.934949 
L 63.908815 71.017697 
L 65.438281 76.639014 
L 66.967746 81.750001 
L 70.026677 91.290478 
L 71.556143 94.781214 
L 73.085608 98.804886 
L 77.674005 108.290852 
L 79.20347 111.242589 
L 80.732936 113.776455 
L 83.791867 118.39957 
L 86.850798 123.344812 
L 88.380264 125.145702 
L 89.909729 127.192774 
L 91.439195 129.487908 
L 94.498126 132.961877 
L 96.027591 134.978062 
L 97.557057 136.272917 
L 99.086522 137.99439 
L 100.615988 139.990795 
L 102.145453 141.360171 
L 103.674919 143.152358 
L 105.204384 144.454734 
L 106.73385 146.040335 
L 108.263315 147.110213 
L 109.792781 149.016471 
L 111.322246 149.833009 
L 112.851712 151.234427 
L 115.910643 153.621196 
L 117.440108 154.497877 
L 122.028505 157.857585 
L 123.55797 158.363235 
L 126.616901 160.213213 
L 128.146367 160.656571 
L 129.675832 161.704679 
L 132.734763 163.216377 
L 134.264229 163.953184 
L 135.793694 164.448984 
L 137.32316 165.518527 
L 138.852625 165.557138 
L 140.382091 166.237393 
L 141.911556 166.383197 
L 143.441022 167.422596 
L 144.970487 167.43849 
L 146.499953 168.188947 
L 148.029418 168.083809 
L 149.558884 169.225743 
L 151.088349 169.036621 
L 152.617815 169.450617 
L 154.14728 170.026349 
L 155.676746 169.739949 
L 157.206211 170.441807 
L 158.735677 169.723509 
L 160.265142 170.290912 
L 161.794608 171.021759 
L 163.324073 170.403582 
L 164.853539 171.048152 
L 166.383005 170.562174 
L 167.91247 171.379657 
L 169.441936 170.994552 
L 170.971401 171.56294 
L 172.500867 170.756794 
L 174.030332 171.390641 
L 175.559798 170.780056 
L 177.089263 171.036503 
L 178.618729 171.487206 
L 180.148194 170.790615 
L 183.207125 171.166056 
L 184.736591 170.724377 
L 186.266056 173.478 
L 187.795522 173.818086 
L 189.324987 173.3143 
L 190.854453 173.74678 
L 192.383918 173.183852 
L 193.913384 173.301124 
L 195.442849 172.578302 
L 196.972315 175.088799 
L 198.50178 178.215472 
L 200.031246 177.998952 
L 201.560711 181.219305 
L 203.090177 181.429649 
L 204.619642 181.846191 
L 206.149108 180.904167 
L 207.678573 182.950661 
L 209.208039 185.78341 
L 210.737504 185.423139 
L 212.26697 185.735366 
L 213.796435 186.335492 
L 215.325901 185.332553 
L 216.855366 188.567652 
L 218.384832 189.056302 
L 219.914297 189.746981 
L 221.443763 188.444986 
L 222.973228 193.107707 
L 224.502694 193.72187 
L 226.032159 194.867463 
L 227.561625 195.551046 
L 229.09109 195.172075 
L 230.620556 196.280171 
L 232.150021 195.982343 
L 233.679487 196.327672 
L 235.208952 195.718269 
L 236.738418 197.834419 
L 238.267883 197.588483 
L 239.797349 200.050888 
L 241.326814 200.789101 
L 242.85628 200.506233 
L 244.385745 201.884779 
L 245.915211 201.825801 
L 247.444677 202.066425 
L 248.974142 204.010835 
L 250.503608 205.135674 
L 252.033073 205.072361 
L 255.092004 205.625915 
L 256.62147 205.037306 
L 258.150935 206.876792 
L 259.680401 207.468944 
L 261.209866 207.24701 
L 264.268797 207.789491 
L 265.798263 207.667806 
L 267.327728 207.827812 
L 268.857194 209.091968 
L 270.386659 209.587887 
L 273.44559 209.624988 
L 274.975056 209.844366 
L 276.504521 209.648499 
L 278.033987 210.058334 
L 279.563452 210.214025 
L 281.092918 209.803307 
L 282.622383 210.958965 
L 284.151849 211.129392 
L 285.681314 211.004459 
L 287.21078 211.284021 
L 290.269711 211.16385 
L 291.799176 211.914485 
L 294.858107 212.248608 
L 296.387573 212.089353 
L 297.917038 212.510161 
L 300.975969 212.80706 
L 302.505435 212.724678 
L 304.0349 213.001671 
L 310.152762 213.448768 
L 314.741159 213.384827 
L 316.270624 213.688439 
L 319.329555 213.884032 
L 320.859021 213.697502 
L 322.388486 213.94222 
L 323.917952 213.86206 
L 328.506349 214.265445 
L 331.56528 214.193447 
L 333.094745 214.367581 
L 354.507262 214.665271 
L 356.036728 214.756364 
L 357.566193 214.644902 
L 357.566193 214.644902 
" clip-path="url(#pa4c19fa8ec)" style="fill: none; stroke: #d62728; stroke-width: 1.5; stroke-linecap: round"/>
   </g>
   <g id="line2d_33">
    <path d="M 53.202557 23.096327 
L 54.732022 41.099204 
L 56.261488 52.021014 
L 57.790953 61.391098 
L 59.320419 68.427976 
L 62.37935 79.566981 
L 63.908815 84.630916 
L 65.438281 88.941708 
L 66.967746 92.854352 
L 70.026677 99.515905 
L 71.556143 102.753137 
L 73.085608 105.194533 
L 74.615074 108.266358 
L 76.144539 110.331079 
L 82.262401 119.567676 
L 83.791867 121.492772 
L 85.321333 123.730852 
L 94.498126 134.635734 
L 96.027591 136.299312 
L 97.557057 138.226292 
L 100.615988 140.874294 
L 102.145453 142.508641 
L 103.674919 143.554162 
L 105.204384 145.150017 
L 106.73385 146.381142 
L 108.263315 147.916821 
L 109.792781 149.058184 
L 112.851712 151.043223 
L 114.381177 152.285257 
L 115.910643 153.321095 
L 118.969574 154.782321 
L 120.499039 156.183569 
L 122.028505 156.948898 
L 123.55797 157.334739 
L 125.087436 158.234743 
L 126.616901 158.927639 
L 128.146367 160.009464 
L 129.675832 160.239771 
L 131.205298 160.902172 
L 132.734763 161.186099 
L 134.264229 161.870144 
L 137.32316 163.488614 
L 138.852625 163.784846 
L 140.382091 164.661269 
L 143.441022 165.558089 
L 144.970487 165.721338 
L 146.499953 165.725117 
L 148.029418 166.688244 
L 149.558884 167.132201 
L 152.617815 167.504117 
L 154.14728 167.815371 
L 155.676746 167.982154 
L 157.206211 168.56294 
L 158.735677 168.800335 
L 160.265142 168.442903 
L 161.794608 168.987189 
L 163.324073 169.158849 
L 164.853539 169.755119 
L 166.383005 169.378175 
L 167.91247 169.870225 
L 169.441936 169.348443 
L 170.971401 169.475783 
L 172.500867 169.275284 
L 174.030332 169.594643 
L 175.559798 169.33797 
L 177.089263 169.571852 
L 178.618729 169.144153 
L 180.148194 169.361432 
L 181.67766 169.192932 
L 183.207125 168.692123 
L 184.736591 171.21295 
L 186.266056 172.035404 
L 187.795522 171.146384 
L 189.324987 171.259792 
L 190.854453 171.686151 
L 192.383918 170.505973 
L 193.913384 173.830651 
L 195.442849 173.085692 
L 198.50178 172.702582 
L 200.031246 175.385673 
L 203.090177 176.671518 
L 204.619642 175.742763 
L 206.149108 175.674465 
L 207.678573 175.782768 
L 209.208039 174.867735 
L 210.737504 176.83709 
L 212.26697 176.878268 
L 213.796435 176.400396 
L 215.325901 176.662463 
L 216.855366 175.280378 
L 218.384832 178.156315 
L 219.914297 179.456001 
L 221.443763 179.876469 
L 222.973228 179.104907 
L 224.502694 180.213504 
L 226.032159 178.489076 
L 227.561625 185.77688 
L 229.09109 187.22137 
L 230.620556 188.016588 
L 232.150021 186.924607 
L 233.679487 189.922514 
L 235.208952 191.490903 
L 236.738418 191.017294 
L 238.267883 193.203945 
L 239.797349 194.069612 
L 241.326814 193.434937 
L 242.85628 196.213787 
L 244.385745 196.395744 
L 245.915211 198.169858 
L 247.444677 198.246944 
L 248.974142 198.486597 
L 250.503608 198.377253 
L 252.033073 199.078846 
L 253.562539 200.095842 
L 255.092004 199.619951 
L 256.62147 201.745938 
L 258.150935 202.270499 
L 259.680401 203.490255 
L 262.739332 203.669415 
L 265.798263 203.556141 
L 267.327728 204.029352 
L 268.857194 203.588978 
L 270.386659 204.354967 
L 271.916125 204.428484 
L 273.44559 204.174436 
L 274.975056 205.921253 
L 276.504521 206.805135 
L 278.033987 206.787532 
L 279.563452 208.112966 
L 281.092918 208.22688 
L 282.622383 208.45838 
L 284.151849 208.388149 
L 285.681314 208.787858 
L 288.740245 208.705173 
L 290.269711 208.887076 
L 293.328642 208.95323 
L 294.858107 208.648276 
L 296.387573 209.15084 
L 297.917038 209.014695 
L 300.975969 209.090669 
L 302.505435 208.850281 
L 304.0349 210.422836 
L 307.093831 210.666703 
L 308.623297 210.488511 
L 311.682228 210.867062 
L 313.211693 210.830001 
L 316.270624 210.599333 
L 317.80009 210.775808 
L 320.859021 210.562152 
L 322.388486 211.54376 
L 323.917952 211.715029 
L 325.447417 211.652109 
L 326.976883 211.814837 
L 328.506349 211.61424 
L 330.035814 212.214709 
L 331.56528 212.399353 
L 333.094745 212.39118 
L 334.624211 212.589387 
L 340.742073 212.557668 
L 342.271538 212.882726 
L 343.801004 213.069165 
L 345.330469 212.917922 
L 348.3894 213.323863 
L 357.566193 213.654495 
L 357.566193 213.654495 
" clip-path="url(#pa4c19fa8ec)" style="fill: none; stroke: #9467bd; stroke-width: 1.5; stroke-linecap: round"/>
   </g>
   <g id="line2d_34">
    <path d="M 53.202557 33.29395 
L 54.732022 54.462911 
L 56.261488 63.671593 
L 59.320419 78.566021 
L 60.849884 83.908005 
L 63.908815 93.007501 
L 65.438281 96.767231 
L 68.497212 103.194015 
L 70.026677 106.048753 
L 71.556143 109.147252 
L 73.085608 111.302953 
L 74.615074 114.035471 
L 77.674005 118.731849 
L 79.20347 120.527732 
L 82.262401 124.676606 
L 83.791867 126.241493 
L 88.380264 132.112108 
L 89.909729 133.502247 
L 91.439195 134.72452 
L 94.498126 138.150933 
L 96.027591 139.569398 
L 97.557057 141.152428 
L 99.086522 142.24377 
L 100.615988 143.837149 
L 102.145453 144.984048 
L 105.204384 147.535748 
L 106.73385 148.376835 
L 109.792781 150.822283 
L 111.322246 151.590969 
L 112.851712 153.124973 
L 114.381177 154.108373 
L 115.910643 154.452861 
L 117.440108 155.662117 
L 118.969574 156.44502 
L 120.499039 156.92277 
L 122.028505 158.100717 
L 123.55797 158.603418 
L 125.087436 159.252699 
L 126.616901 160.253215 
L 128.146367 160.643166 
L 129.675832 161.709975 
L 132.734763 163.454557 
L 135.793694 164.282258 
L 137.32316 164.808409 
L 138.852625 164.802204 
L 140.382091 165.843645 
L 141.911556 166.110427 
L 143.441022 166.118679 
L 144.970487 167.475942 
L 146.499953 167.190809 
L 148.029418 168.15184 
L 151.088349 168.448098 
L 152.617815 169.540216 
L 154.14728 168.728269 
L 155.676746 169.618427 
L 158.735677 170.437828 
L 161.794608 170.68827 
L 163.324073 171.113568 
L 164.853539 170.971864 
L 166.383005 170.379881 
L 167.91247 170.942743 
L 169.441936 170.763919 
L 170.971401 171.451237 
L 172.500867 170.414627 
L 174.030332 171.344369 
L 175.559798 171.256749 
L 178.618729 171.558803 
L 180.148194 170.871537 
L 181.67766 170.938797 
L 183.207125 170.881738 
L 184.736591 171.519519 
L 186.266056 169.715608 
L 187.795522 173.2694 
L 190.854453 172.809826 
L 192.383918 173.3741 
L 193.913384 172.888751 
L 195.442849 172.929354 
L 196.972315 173.281307 
L 198.50178 171.679166 
L 200.031246 177.136699 
L 201.560711 178.990511 
L 203.090177 178.41112 
L 204.619642 181.031315 
L 206.149108 180.760472 
L 207.678573 181.455807 
L 209.208039 181.034175 
L 210.737504 180.302776 
L 212.26697 182.743761 
L 213.796435 183.032914 
L 215.325901 182.827075 
L 216.855366 183.113769 
L 218.384832 181.925342 
L 219.914297 184.500437 
L 221.443763 185.43154 
L 224.502694 184.420356 
L 226.032159 184.707919 
L 227.561625 184.516781 
L 229.09109 183.9722 
L 230.620556 186.087655 
L 232.150021 189.463184 
L 233.679487 189.792992 
L 235.208952 189.806483 
L 236.738418 191.516757 
L 238.267883 192.935269 
L 239.797349 195.700483 
L 241.326814 195.748779 
L 242.85628 197.606415 
L 244.385745 199.04497 
L 245.915211 199.416411 
L 247.444677 199.381511 
L 248.974142 199.111001 
L 250.503608 200.029235 
L 252.033073 200.35814 
L 253.562539 199.470836 
L 255.092004 202.642194 
L 256.62147 203.588866 
L 258.150935 203.314367 
L 259.680401 204.030203 
L 262.739332 206.221972 
L 265.798263 206.501354 
L 268.857194 206.521953 
L 270.386659 206.807235 
L 271.916125 208.081642 
L 273.44559 208.491504 
L 274.975056 208.527581 
L 276.504521 208.698648 
L 278.033987 209.064597 
L 279.563452 209.73187 
L 281.092918 210.087755 
L 282.622383 210.23482 
L 284.151849 210.266619 
L 285.681314 210.439144 
L 287.21078 210.183971 
L 288.740245 210.68875 
L 290.269711 210.724327 
L 291.799176 210.885881 
L 293.328642 211.352357 
L 294.858107 211.456128 
L 296.387573 211.365809 
L 297.917038 211.871017 
L 299.446504 211.886908 
L 300.975969 211.751663 
L 302.505435 211.98338 
L 305.564366 212.085644 
L 307.093831 211.947274 
L 308.623297 212.332608 
L 310.152762 212.273787 
L 311.682228 212.392203 
L 313.211693 212.118391 
L 314.741159 212.761797 
L 319.329555 213.036209 
L 320.859021 213.014915 
L 323.917952 213.494242 
L 325.447417 213.400924 
L 331.56528 213.765403 
L 333.094745 213.776438 
L 334.624211 213.916195 
L 337.683142 213.896507 
L 339.212607 214.157122 
L 340.742073 214.062585 
L 342.271538 214.297699 
L 343.801004 214.149257 
L 345.330469 214.313988 
L 346.859935 214.235224 
L 348.3894 214.439925 
L 351.448331 214.423901 
L 352.977797 214.496225 
L 354.507262 214.382913 
L 357.566193 214.576469 
L 357.566193 214.576469 
" clip-path="url(#pa4c19fa8ec)" style="fill: none; stroke: #8c564b; stroke-width: 1.5; stroke-linecap: round"/>
   </g>
   <g id="line2d_35">
    <path d="M 53.202557 30.153129 
L 54.732022 54.489811 
L 56.261488 64.083309 
L 57.790953 71.734606 
L 59.320419 77.343897 
L 60.849884 82.281139 
L 62.37935 86.786844 
L 65.438281 94.725813 
L 68.497212 101.190027 
L 73.085608 109.573036 
L 74.615074 111.838903 
L 76.144539 114.405716 
L 77.674005 116.281385 
L 79.20347 118.481779 
L 82.262401 122.285012 
L 83.791867 124.166703 
L 85.321333 126.280762 
L 86.850798 128.175776 
L 88.380264 129.644358 
L 89.909729 131.558666 
L 91.439195 133.869496 
L 94.498126 136.355273 
L 96.027591 138.226194 
L 99.086522 140.985761 
L 100.615988 142.709483 
L 103.674919 144.717603 
L 105.204384 146.442816 
L 106.73385 147.794438 
L 108.263315 148.315728 
L 109.792781 149.952356 
L 111.322246 150.915935 
L 114.381177 153.103902 
L 115.910643 153.903948 
L 118.969574 155.771154 
L 120.499039 156.540615 
L 122.028505 157.493156 
L 123.55797 158.018424 
L 125.087436 158.959214 
L 126.616901 159.713992 
L 128.146367 160.245967 
L 129.675832 160.952919 
L 131.205298 161.260518 
L 134.264229 162.693844 
L 135.793694 162.543591 
L 137.32316 163.759919 
L 138.852625 164.451004 
L 140.382091 164.476785 
L 141.911556 165.083734 
L 143.441022 165.301424 
L 144.970487 165.393999 
L 146.499953 166.611254 
L 148.029418 166.725633 
L 149.558884 167.048514 
L 151.088349 167.930692 
L 152.617815 167.991379 
L 154.14728 167.755524 
L 155.676746 168.514033 
L 158.735677 168.790761 
L 160.265142 169.036971 
L 161.794608 169.414251 
L 163.324073 169.402188 
L 164.853539 169.986518 
L 166.383005 169.589254 
L 167.91247 169.822386 
L 169.441936 169.62159 
L 170.971401 169.218772 
L 172.500867 170.194971 
L 174.030332 170.185321 
L 175.559798 169.843992 
L 177.089263 170.201984 
L 178.618729 169.965708 
L 180.148194 169.852515 
L 181.67766 169.966248 
L 183.207125 169.279482 
L 184.736591 169.939337 
L 187.795522 169.108651 
L 189.324987 169.658918 
L 190.854453 168.336249 
L 192.383918 171.762397 
L 193.913384 172.26746 
L 195.442849 172.128969 
L 196.972315 172.618909 
L 198.50178 170.72664 
L 200.031246 176.447289 
L 201.560711 177.56895 
L 203.090177 177.222159 
L 204.619642 177.394321 
L 206.149108 177.13238 
L 207.678573 176.479486 
L 209.208039 178.60822 
L 210.737504 178.449476 
L 212.26697 181.043184 
L 213.796435 183.993348 
L 215.325901 184.907171 
L 216.855366 184.880657 
L 218.384832 185.819658 
L 219.914297 186.11673 
L 221.443763 185.828277 
L 222.973228 186.607652 
L 224.502694 186.08359 
L 226.032159 186.154427 
L 227.561625 185.236984 
L 229.09109 188.722526 
L 230.620556 189.97611 
L 232.150021 188.631801 
L 233.679487 193.61866 
L 235.208952 194.45715 
L 236.738418 194.865824 
L 238.267883 194.215543 
L 239.797349 194.938565 
L 241.326814 196.372413 
L 242.85628 196.474854 
L 244.385745 196.443048 
L 245.915211 196.580958 
L 247.444677 195.844067 
L 248.974142 198.652973 
L 250.503608 199.091194 
L 252.033073 199.987416 
L 256.62147 199.975191 
L 258.150935 201.704298 
L 259.680401 202.490264 
L 261.209866 202.316779 
L 262.739332 203.161067 
L 264.268797 203.47099 
L 265.798263 203.555239 
L 267.327728 202.954988 
L 268.857194 204.51327 
L 270.386659 204.649904 
L 271.916125 205.985597 
L 273.44559 206.075972 
L 274.975056 206.334895 
L 276.504521 205.696459 
L 278.033987 206.577238 
L 281.092918 207.273 
L 282.622383 206.825392 
L 284.151849 208.310625 
L 287.21078 208.618189 
L 288.740245 208.672463 
L 290.269711 208.510153 
L 291.799176 208.936165 
L 294.858107 208.694865 
L 297.917038 209.793203 
L 299.446504 209.696434 
L 300.975969 209.859765 
L 302.505435 209.641459 
L 304.0349 210.309489 
L 305.564366 210.128043 
L 307.093831 210.975883 
L 308.623297 211.186045 
L 310.152762 210.932844 
L 311.682228 211.463561 
L 314.741159 211.487099 
L 316.270624 211.541057 
L 317.80009 211.435412 
L 319.329555 211.893681 
L 320.859021 212.137583 
L 322.388486 212.193607 
L 323.917952 212.620412 
L 325.447417 212.77288 
L 328.506349 212.767719 
L 330.035814 212.957603 
L 331.56528 213.024325 
L 333.094745 213.367561 
L 334.624211 213.208989 
L 336.153676 213.534497 
L 340.742073 213.5624 
L 343.801004 213.896211 
L 348.3894 213.982116 
L 357.566193 214.043286 
L 357.566193 214.043286 
" clip-path="url(#pa4c19fa8ec)" style="fill: none; stroke: #e377c2; stroke-width: 1.5; stroke-linecap: round"/>
   </g>
   <g id="patch_3">
    <path d="M 37.984375 224.64 
L 37.984375 7.2 
" style="fill: none; stroke: #cccccc; stroke-linejoin: miter; stroke-linecap: square"/>
   </g>
   <g id="patch_4">
    <path d="M 372.784375 224.64 
L 372.784375 7.2 
" style="fill: none; stroke: #cccccc; stroke-linejoin: miter; stroke-linecap: square"/>
   </g>
   <g id="patch_5">
    <path d="M 37.984375 224.64 
L 372.784375 224.64 
" style="fill: none; stroke: #cccccc; stroke-linejoin: miter; stroke-linecap: square"/>
   </g>
   <g id="patch_6">
    <path d="M 37.984375 7.2 
L 372.784375 7.2 
" style="fill: none; stroke: #cccccc; stroke-linejoin: miter; stroke-linecap: square"/>
   </g>
   <g id="legend_1">
    <g id="patch_7">
     <path d="M 254.3125 114.45625 
L 365.784375 114.45625 
Q 367.784375 114.45625 367.784375 112.45625 
L 367.784375 14.2 
Q 367.784375 12.2 365.784375 12.2 
L 254.3125 12.2 
Q 252.3125 12.2 252.3125 14.2 
L 252.3125 112.45625 
Q 252.3125 114.45625 254.3125 114.45625 
z
" style="fill: #ffffff; stroke: #cccccc; stroke-linejoin: miter"/>
    </g>
    <g id="line2d_36">
     <path d="M 256.3125 19.857813 
L 266.3125 19.857813 
L 276.3125 19.857813 
" style="fill: none; stroke: #1f77b4; stroke-width: 1.5; stroke-linecap: round"/>
    </g>
    <g id="text_17">
     <text style="fill: #262626; font: 10px 'sans-serif'; text-anchor: start" x="284.3125" y="23.357813" transform="rotate(-0, 284.3125, 23.357813)">xavier uniform</text>
    </g>
    <g id="line2d_37">
     <path d="M 256.3125 34.003125 
L 266.3125 34.003125 
L 276.3125 34.003125 
" style="fill: none; stroke: #ff7f0e; stroke-width: 1.5; stroke-linecap: round"/>
    </g>
    <g id="text_18">
     <text style="fill: #262626; font: 10px 'sans-serif'; text-anchor: start" x="284.3125" y="37.503125" transform="rotate(-0, 284.3125, 37.503125)">xavier uniform  1</text>
    </g>
    <g id="line2d_38">
     <path d="M 256.3125 48.148438 
L 266.3125 48.148438 
L 276.3125 48.148438 
" style="fill: none; stroke: #2ca02c; stroke-width: 1.5; stroke-linecap: round"/>
    </g>
    <g id="text_19">
     <text style="fill: #262626; font: 10px 'sans-serif'; text-anchor: start" x="284.3125" y="51.648438" transform="rotate(-0, 284.3125, 51.648438)">xavier uniform  2</text>
    </g>
    <g id="line2d_39">
     <path d="M 256.3125 62.29375 
L 266.3125 62.29375 
L 276.3125 62.29375 
" style="fill: none; stroke: #d62728; stroke-width: 1.5; stroke-linecap: round"/>
    </g>
    <g id="text_20">
     <text style="fill: #262626; font: 10px 'sans-serif'; text-anchor: start" x="284.3125" y="65.79375" transform="rotate(-0, 284.3125, 65.79375)">xavier uniform  10</text>
    </g>
    <g id="line2d_40">
     <path d="M 256.3125 76.439063 
L 266.3125 76.439063 
L 276.3125 76.439063 
" style="fill: none; stroke: #9467bd; stroke-width: 1.5; stroke-linecap: round"/>
    </g>
    <g id="text_21">
     <text style="fill: #262626; font: 10px 'sans-serif'; text-anchor: start" x="284.3125" y="79.939063" transform="rotate(-0, 284.3125, 79.939063)">xavier uniform  14</text>
    </g>
    <g id="line2d_41">
     <path d="M 256.3125 90.584375 
L 266.3125 90.584375 
L 276.3125 90.584375 
" style="fill: none; stroke: #8c564b; stroke-width: 1.5; stroke-linecap: round"/>
    </g>
    <g id="text_22">
     <text style="fill: #262626; font: 10px 'sans-serif'; text-anchor: start" x="284.3125" y="94.084375" transform="rotate(-0, 284.3125, 94.084375)">xavier uniform  20</text>
    </g>
    <g id="line2d_42">
     <path d="M 256.3125 104.851562 
L 266.3125 104.851562 
L 276.3125 104.851562 
" style="fill: none; stroke: #e377c2; stroke-width: 1.5; stroke-linecap: round"/>
    </g>
    <g id="text_23">
     <text style="fill: #262626; font: 10px 'sans-serif'; text-anchor: start" x="284.3125" y="108.351562" transform="rotate(-0, 284.3125, 108.351562)">kaiming uniform</text>
    </g>
   </g>
  </g>
 </g>
 <defs>
  <clipPath id="pa4c19fa8ec">
   <rect x="37.984375" y="7.2" width="334.8" height="217.44"/>
  </clipPath>
 </defs>
</svg>
