<?xml version="1.0" encoding="utf-8" standalone="no"?>
<!DOCTYPE svg PUBLIC "-//W3C//DTD SVG 1.1//EN"
  "http://www.w3.org/Graphics/SVG/1.1/DTD/svg11.dtd">
<svg xmlns:xlink="http://www.w3.org/1999/xlink" width="395.328125pt" height="264.256506pt" viewBox="0 0 395.328125 264.256506" xmlns="http://www.w3.org/2000/svg" version="1.1">
 <metadata>
  <rdf:RDF xmlns:dc="http://purl.org/dc/elements/1.1/" xmlns:cc="http://creativecommons.org/ns#" xmlns:rdf="http://www.w3.org/1999/02/22-rdf-syntax-ns#">
   <cc:Work>
    <dc:type rdf:resource="http://purl.org/dc/dcmitype/StillImage"/>
    <dc:date>2022-01-28T19:17:18.542855</dc:date>
    <dc:format>image/svg+xml</dc:format>
    <dc:creator>
     <cc:Agent>
      <dc:title>Matplotlib v3.5.0, https://matplotlib.org/</dc:title>
     </cc:Agent>
    </dc:creator>
   </cc:Work>
  </rdf:RDF>
 </metadata>
 <defs>
  <style type="text/css">*{stroke-linejoin: round; stroke-linecap: butt}</style>
 </defs>
 <g id="figure_1">
  <g id="patch_1">
   <path d="M 0 264.256506 
L 395.328125 264.256506 
L 395.328125 0 
L 0 0 
L 0 264.256506 
z
" style="fill: none"/>
  </g>
  <g id="axes_1">
   <g id="patch_2">
    <path d="M 53.328125 226.700256 
L 388.128125 226.700256 
L 388.128125 9.260256 
L 53.328125 9.260256 
z
" style="fill: #ffffff"/>
   </g>
   <g id="matplotlib.axis_1">
    <g id="xtick_1">
     <g id="line2d_1">
      <defs>
       <path id="me1036f2082" d="M 0 0 
L 0 3.5 
" style="stroke: #000000; stroke-width: 0.8"/>
      </defs>
      <g>
       <use xlink:href="#me1036f2082" x="68.546307" y="226.700256" style="stroke: #000000; stroke-width: 0.8"/>
      </g>
     </g>
     <g id="text_1">
      <!-- 0 -->
      <g transform="translate(65.365057 241.298694)scale(0.1 -0.1)">
       <defs>
        <path id="DejaVuSans-30" d="M 2034 4250 
Q 1547 4250 1301 3770 
Q 1056 3291 1056 2328 
Q 1056 1369 1301 889 
Q 1547 409 2034 409 
Q 2525 409 2770 889 
Q 3016 1369 3016 2328 
Q 3016 3291 2770 3770 
Q 2525 4250 2034 4250 
z
M 2034 4750 
Q 2819 4750 3233 4129 
Q 3647 3509 3647 2328 
Q 3647 1150 3233 529 
Q 2819 -91 2034 -91 
Q 1250 -91 836 529 
Q 422 1150 422 2328 
Q 422 3509 836 4129 
Q 1250 4750 2034 4750 
z
" transform="scale(0.015625)"/>
       </defs>
       <use xlink:href="#DejaVuSans-30"/>
      </g>
     </g>
    </g>
    <g id="xtick_2">
     <g id="line2d_2">
      <g>
       <use xlink:href="#me1036f2082" x="106.782945" y="226.700256" style="stroke: #000000; stroke-width: 0.8"/>
      </g>
     </g>
     <g id="text_2">
      <!-- 25 -->
      <g transform="translate(100.420445 241.298694)scale(0.1 -0.1)">
       <defs>
        <path id="DejaVuSans-32" d="M 1228 531 
L 3431 531 
L 3431 0 
L 469 0 
L 469 531 
Q 828 903 1448 1529 
Q 2069 2156 2228 2338 
Q 2531 2678 2651 2914 
Q 2772 3150 2772 3378 
Q 2772 3750 2511 3984 
Q 2250 4219 1831 4219 
Q 1534 4219 1204 4116 
Q 875 4013 500 3803 
L 500 4441 
Q 881 4594 1212 4672 
Q 1544 4750 1819 4750 
Q 2544 4750 2975 4387 
Q 3406 4025 3406 3419 
Q 3406 3131 3298 2873 
Q 3191 2616 2906 2266 
Q 2828 2175 2409 1742 
Q 1991 1309 1228 531 
z
" transform="scale(0.015625)"/>
        <path id="DejaVuSans-35" d="M 691 4666 
L 3169 4666 
L 3169 4134 
L 1269 4134 
L 1269 2991 
Q 1406 3038 1543 3061 
Q 1681 3084 1819 3084 
Q 2600 3084 3056 2656 
Q 3513 2228 3513 1497 
Q 3513 744 3044 326 
Q 2575 -91 1722 -91 
Q 1428 -91 1123 -41 
Q 819 9 494 109 
L 494 744 
Q 775 591 1075 516 
Q 1375 441 1709 441 
Q 2250 441 2565 725 
Q 2881 1009 2881 1497 
Q 2881 1984 2565 2268 
Q 2250 2553 1709 2553 
Q 1456 2553 1204 2497 
Q 953 2441 691 2322 
L 691 4666 
z
" transform="scale(0.015625)"/>
       </defs>
       <use xlink:href="#DejaVuSans-32"/>
       <use xlink:href="#DejaVuSans-35" x="63.623047"/>
      </g>
     </g>
    </g>
    <g id="xtick_3">
     <g id="line2d_3">
      <g>
       <use xlink:href="#me1036f2082" x="145.019582" y="226.700256" style="stroke: #000000; stroke-width: 0.8"/>
      </g>
     </g>
     <g id="text_3">
      <!-- 50 -->
      <g transform="translate(138.657082 241.298694)scale(0.1 -0.1)">
       <use xlink:href="#DejaVuSans-35"/>
       <use xlink:href="#DejaVuSans-30" x="63.623047"/>
      </g>
     </g>
    </g>
    <g id="xtick_4">
     <g id="line2d_4">
      <g>
       <use xlink:href="#me1036f2082" x="183.25622" y="226.700256" style="stroke: #000000; stroke-width: 0.8"/>
      </g>
     </g>
     <g id="text_4">
      <!-- 75 -->
      <g transform="translate(176.89372 241.298694)scale(0.1 -0.1)">
       <defs>
        <path id="DejaVuSans-37" d="M 525 4666 
L 3525 4666 
L 3525 4397 
L 1831 0 
L 1172 0 
L 2766 4134 
L 525 4134 
L 525 4666 
z
" transform="scale(0.015625)"/>
       </defs>
       <use xlink:href="#DejaVuSans-37"/>
       <use xlink:href="#DejaVuSans-35" x="63.623047"/>
      </g>
     </g>
    </g>
    <g id="xtick_5">
     <g id="line2d_5">
      <g>
       <use xlink:href="#me1036f2082" x="221.492858" y="226.700256" style="stroke: #000000; stroke-width: 0.8"/>
      </g>
     </g>
     <g id="text_5">
      <!-- 100 -->
      <g transform="translate(211.949108 241.298694)scale(0.1 -0.1)">
       <defs>
        <path id="DejaVuSans-31" d="M 794 531 
L 1825 531 
L 1825 4091 
L 703 3866 
L 703 4441 
L 1819 4666 
L 2450 4666 
L 2450 531 
L 3481 531 
L 3481 0 
L 794 0 
L 794 531 
z
" transform="scale(0.015625)"/>
       </defs>
       <use xlink:href="#DejaVuSans-31"/>
       <use xlink:href="#DejaVuSans-30" x="63.623047"/>
       <use xlink:href="#DejaVuSans-30" x="127.246094"/>
      </g>
     </g>
    </g>
    <g id="xtick_6">
     <g id="line2d_6">
      <g>
       <use xlink:href="#me1036f2082" x="259.729495" y="226.700256" style="stroke: #000000; stroke-width: 0.8"/>
      </g>
     </g>
     <g id="text_6">
      <!-- 125 -->
      <g transform="translate(250.185745 241.298694)scale(0.1 -0.1)">
       <use xlink:href="#DejaVuSans-31"/>
       <use xlink:href="#DejaVuSans-32" x="63.623047"/>
       <use xlink:href="#DejaVuSans-35" x="127.246094"/>
      </g>
     </g>
    </g>
    <g id="xtick_7">
     <g id="line2d_7">
      <g>
       <use xlink:href="#me1036f2082" x="297.966133" y="226.700256" style="stroke: #000000; stroke-width: 0.8"/>
      </g>
     </g>
     <g id="text_7">
      <!-- 150 -->
      <g transform="translate(288.422383 241.298694)scale(0.1 -0.1)">
       <use xlink:href="#DejaVuSans-31"/>
       <use xlink:href="#DejaVuSans-35" x="63.623047"/>
       <use xlink:href="#DejaVuSans-30" x="127.246094"/>
      </g>
     </g>
    </g>
    <g id="xtick_8">
     <g id="line2d_8">
      <g>
       <use xlink:href="#me1036f2082" x="336.202771" y="226.700256" style="stroke: #000000; stroke-width: 0.8"/>
      </g>
     </g>
     <g id="text_8">
      <!-- 175 -->
      <g transform="translate(326.659021 241.298694)scale(0.1 -0.1)">
       <use xlink:href="#DejaVuSans-31"/>
       <use xlink:href="#DejaVuSans-37" x="63.623047"/>
       <use xlink:href="#DejaVuSans-35" x="127.246094"/>
      </g>
     </g>
    </g>
    <g id="xtick_9">
     <g id="line2d_9">
      <g>
       <use xlink:href="#me1036f2082" x="374.439409" y="226.700256" style="stroke: #000000; stroke-width: 0.8"/>
      </g>
     </g>
     <g id="text_9">
      <!-- 200 -->
      <g transform="translate(364.895659 241.298694)scale(0.1 -0.1)">
       <use xlink:href="#DejaVuSans-32"/>
       <use xlink:href="#DejaVuSans-30" x="63.623047"/>
       <use xlink:href="#DejaVuSans-30" x="127.246094"/>
      </g>
     </g>
    </g>
    <g id="text_10">
     <!-- Epoch -->
     <g transform="translate(205.417188 254.976819)scale(0.1 -0.1)">
      <defs>
       <path id="DejaVuSans-45" d="M 628 4666 
L 3578 4666 
L 3578 4134 
L 1259 4134 
L 1259 2753 
L 3481 2753 
L 3481 2222 
L 1259 2222 
L 1259 531 
L 3634 531 
L 3634 0 
L 628 0 
L 628 4666 
z
" transform="scale(0.015625)"/>
       <path id="DejaVuSans-70" d="M 1159 525 
L 1159 -1331 
L 581 -1331 
L 581 3500 
L 1159 3500 
L 1159 2969 
Q 1341 3281 1617 3432 
Q 1894 3584 2278 3584 
Q 2916 3584 3314 3078 
Q 3713 2572 3713 1747 
Q 3713 922 3314 415 
Q 2916 -91 2278 -91 
Q 1894 -91 1617 61 
Q 1341 213 1159 525 
z
M 3116 1747 
Q 3116 2381 2855 2742 
Q 2594 3103 2138 3103 
Q 1681 3103 1420 2742 
Q 1159 2381 1159 1747 
Q 1159 1113 1420 752 
Q 1681 391 2138 391 
Q 2594 391 2855 752 
Q 3116 1113 3116 1747 
z
" transform="scale(0.015625)"/>
       <path id="DejaVuSans-6f" d="M 1959 3097 
Q 1497 3097 1228 2736 
Q 959 2375 959 1747 
Q 959 1119 1226 758 
Q 1494 397 1959 397 
Q 2419 397 2687 759 
Q 2956 1122 2956 1747 
Q 2956 2369 2687 2733 
Q 2419 3097 1959 3097 
z
M 1959 3584 
Q 2709 3584 3137 3096 
Q 3566 2609 3566 1747 
Q 3566 888 3137 398 
Q 2709 -91 1959 -91 
Q 1206 -91 779 398 
Q 353 888 353 1747 
Q 353 2609 779 3096 
Q 1206 3584 1959 3584 
z
" transform="scale(0.015625)"/>
       <path id="DejaVuSans-63" d="M 3122 3366 
L 3122 2828 
Q 2878 2963 2633 3030 
Q 2388 3097 2138 3097 
Q 1578 3097 1268 2742 
Q 959 2388 959 1747 
Q 959 1106 1268 751 
Q 1578 397 2138 397 
Q 2388 397 2633 464 
Q 2878 531 3122 666 
L 3122 134 
Q 2881 22 2623 -34 
Q 2366 -91 2075 -91 
Q 1284 -91 818 406 
Q 353 903 353 1747 
Q 353 2603 823 3093 
Q 1294 3584 2113 3584 
Q 2378 3584 2631 3529 
Q 2884 3475 3122 3366 
z
" transform="scale(0.015625)"/>
       <path id="DejaVuSans-68" d="M 3513 2113 
L 3513 0 
L 2938 0 
L 2938 2094 
Q 2938 2591 2744 2837 
Q 2550 3084 2163 3084 
Q 1697 3084 1428 2787 
Q 1159 2491 1159 1978 
L 1159 0 
L 581 0 
L 581 4863 
L 1159 4863 
L 1159 2956 
Q 1366 3272 1645 3428 
Q 1925 3584 2291 3584 
Q 2894 3584 3203 3211 
Q 3513 2838 3513 2113 
z
" transform="scale(0.015625)"/>
      </defs>
      <use xlink:href="#DejaVuSans-45"/>
      <use xlink:href="#DejaVuSans-70" x="63.183594"/>
      <use xlink:href="#DejaVuSans-6f" x="126.660156"/>
      <use xlink:href="#DejaVuSans-63" x="187.841797"/>
      <use xlink:href="#DejaVuSans-68" x="242.822266"/>
     </g>
    </g>
   </g>
   <g id="matplotlib.axis_2">
    <g id="ytick_1">
     <g id="line2d_10">
      <defs>
       <path id="mb058d17e02" d="M 0 0 
L -3.5 0 
" style="stroke: #000000; stroke-width: 0.8"/>
      </defs>
      <g>
       <use xlink:href="#mb058d17e02" x="53.328125" y="218.503674" style="stroke: #000000; stroke-width: 0.8"/>
      </g>
     </g>
     <g id="text_11">
      <!-- 0 -->
      <g transform="translate(39.965625 222.302893)scale(0.1 -0.1)">
       <use xlink:href="#DejaVuSans-30"/>
      </g>
     </g>
    </g>
    <g id="ytick_2">
     <g id="line2d_11">
      <g>
       <use xlink:href="#mb058d17e02" x="53.328125" y="183.919598" style="stroke: #000000; stroke-width: 0.8"/>
      </g>
     </g>
     <g id="text_12">
      <!-- 200 -->
      <g transform="translate(27.240625 187.718817)scale(0.1 -0.1)">
       <use xlink:href="#DejaVuSans-32"/>
       <use xlink:href="#DejaVuSans-30" x="63.623047"/>
       <use xlink:href="#DejaVuSans-30" x="127.246094"/>
      </g>
     </g>
    </g>
    <g id="ytick_3">
     <g id="line2d_12">
      <g>
       <use xlink:href="#mb058d17e02" x="53.328125" y="149.335522" style="stroke: #000000; stroke-width: 0.8"/>
      </g>
     </g>
     <g id="text_13">
      <!-- 400 -->
      <g transform="translate(27.240625 153.134741)scale(0.1 -0.1)">
       <defs>
        <path id="DejaVuSans-34" d="M 2419 4116 
L 825 1625 
L 2419 1625 
L 2419 4116 
z
M 2253 4666 
L 3047 4666 
L 3047 1625 
L 3713 1625 
L 3713 1100 
L 3047 1100 
L 3047 0 
L 2419 0 
L 2419 1100 
L 313 1100 
L 313 1709 
L 2253 4666 
z
" transform="scale(0.015625)"/>
       </defs>
       <use xlink:href="#DejaVuSans-34"/>
       <use xlink:href="#DejaVuSans-30" x="63.623047"/>
       <use xlink:href="#DejaVuSans-30" x="127.246094"/>
      </g>
     </g>
    </g>
    <g id="ytick_4">
     <g id="line2d_13">
      <g>
       <use xlink:href="#mb058d17e02" x="53.328125" y="114.751446" style="stroke: #000000; stroke-width: 0.8"/>
      </g>
     </g>
     <g id="text_14">
      <!-- 600 -->
      <g transform="translate(27.240625 118.550665)scale(0.1 -0.1)">
       <defs>
        <path id="DejaVuSans-36" d="M 2113 2584 
Q 1688 2584 1439 2293 
Q 1191 2003 1191 1497 
Q 1191 994 1439 701 
Q 1688 409 2113 409 
Q 2538 409 2786 701 
Q 3034 994 3034 1497 
Q 3034 2003 2786 2293 
Q 2538 2584 2113 2584 
z
M 3366 4563 
L 3366 3988 
Q 3128 4100 2886 4159 
Q 2644 4219 2406 4219 
Q 1781 4219 1451 3797 
Q 1122 3375 1075 2522 
Q 1259 2794 1537 2939 
Q 1816 3084 2150 3084 
Q 2853 3084 3261 2657 
Q 3669 2231 3669 1497 
Q 3669 778 3244 343 
Q 2819 -91 2113 -91 
Q 1303 -91 875 529 
Q 447 1150 447 2328 
Q 447 3434 972 4092 
Q 1497 4750 2381 4750 
Q 2619 4750 2861 4703 
Q 3103 4656 3366 4563 
z
" transform="scale(0.015625)"/>
       </defs>
       <use xlink:href="#DejaVuSans-36"/>
       <use xlink:href="#DejaVuSans-30" x="63.623047"/>
       <use xlink:href="#DejaVuSans-30" x="127.246094"/>
      </g>
     </g>
    </g>
    <g id="ytick_5">
     <g id="line2d_14">
      <g>
       <use xlink:href="#mb058d17e02" x="53.328125" y="80.16737" style="stroke: #000000; stroke-width: 0.8"/>
      </g>
     </g>
     <g id="text_15">
      <!-- 800 -->
      <g transform="translate(27.240625 83.966589)scale(0.1 -0.1)">
       <defs>
        <path id="DejaVuSans-38" d="M 2034 2216 
Q 1584 2216 1326 1975 
Q 1069 1734 1069 1313 
Q 1069 891 1326 650 
Q 1584 409 2034 409 
Q 2484 409 2743 651 
Q 3003 894 3003 1313 
Q 3003 1734 2745 1975 
Q 2488 2216 2034 2216 
z
M 1403 2484 
Q 997 2584 770 2862 
Q 544 3141 544 3541 
Q 544 4100 942 4425 
Q 1341 4750 2034 4750 
Q 2731 4750 3128 4425 
Q 3525 4100 3525 3541 
Q 3525 3141 3298 2862 
Q 3072 2584 2669 2484 
Q 3125 2378 3379 2068 
Q 3634 1759 3634 1313 
Q 3634 634 3220 271 
Q 2806 -91 2034 -91 
Q 1263 -91 848 271 
Q 434 634 434 1313 
Q 434 1759 690 2068 
Q 947 2378 1403 2484 
z
M 1172 3481 
Q 1172 3119 1398 2916 
Q 1625 2713 2034 2713 
Q 2441 2713 2670 2916 
Q 2900 3119 2900 3481 
Q 2900 3844 2670 4047 
Q 2441 4250 2034 4250 
Q 1625 4250 1398 4047 
Q 1172 3844 1172 3481 
z
" transform="scale(0.015625)"/>
       </defs>
       <use xlink:href="#DejaVuSans-38"/>
       <use xlink:href="#DejaVuSans-30" x="63.623047"/>
       <use xlink:href="#DejaVuSans-30" x="127.246094"/>
      </g>
     </g>
    </g>
    <g id="ytick_6">
     <g id="line2d_15">
      <g>
       <use xlink:href="#mb058d17e02" x="53.328125" y="45.583295" style="stroke: #000000; stroke-width: 0.8"/>
      </g>
     </g>
     <g id="text_16">
      <!-- 1000 -->
      <g transform="translate(20.878125 49.382513)scale(0.1 -0.1)">
       <use xlink:href="#DejaVuSans-31"/>
       <use xlink:href="#DejaVuSans-30" x="63.623047"/>
       <use xlink:href="#DejaVuSans-30" x="127.246094"/>
       <use xlink:href="#DejaVuSans-30" x="190.869141"/>
      </g>
     </g>
    </g>
    <g id="ytick_7">
     <g id="line2d_16">
      <g>
       <use xlink:href="#mb058d17e02" x="53.328125" y="10.999219" style="stroke: #000000; stroke-width: 0.8"/>
      </g>
     </g>
     <g id="text_17">
      <!-- 1200 -->
      <g transform="translate(20.878125 14.798438)scale(0.1 -0.1)">
       <use xlink:href="#DejaVuSans-31"/>
       <use xlink:href="#DejaVuSans-32" x="63.623047"/>
       <use xlink:href="#DejaVuSans-30" x="127.246094"/>
       <use xlink:href="#DejaVuSans-30" x="190.869141"/>
      </g>
     </g>
    </g>
    <g id="text_18">
     <!-- Loss -->
     <g transform="translate(14.798438 128.947444)rotate(-90)scale(0.1 -0.1)">
      <defs>
       <path id="DejaVuSans-4c" d="M 628 4666 
L 1259 4666 
L 1259 531 
L 3531 531 
L 3531 0 
L 628 0 
L 628 4666 
z
" transform="scale(0.015625)"/>
       <path id="DejaVuSans-73" d="M 2834 3397 
L 2834 2853 
Q 2591 2978 2328 3040 
Q 2066 3103 1784 3103 
Q 1356 3103 1142 2972 
Q 928 2841 928 2578 
Q 928 2378 1081 2264 
Q 1234 2150 1697 2047 
L 1894 2003 
Q 2506 1872 2764 1633 
Q 3022 1394 3022 966 
Q 3022 478 2636 193 
Q 2250 -91 1575 -91 
Q 1294 -91 989 -36 
Q 684 19 347 128 
L 347 722 
Q 666 556 975 473 
Q 1284 391 1588 391 
Q 1994 391 2212 530 
Q 2431 669 2431 922 
Q 2431 1156 2273 1281 
Q 2116 1406 1581 1522 
L 1381 1569 
Q 847 1681 609 1914 
Q 372 2147 372 2553 
Q 372 3047 722 3315 
Q 1072 3584 1716 3584 
Q 2034 3584 2315 3537 
Q 2597 3491 2834 3397 
z
" transform="scale(0.015625)"/>
      </defs>
      <use xlink:href="#DejaVuSans-4c"/>
      <use xlink:href="#DejaVuSans-6f" x="53.962891"/>
      <use xlink:href="#DejaVuSans-73" x="115.144531"/>
      <use xlink:href="#DejaVuSans-73" x="167.244141"/>
     </g>
    </g>
   </g>
   <g id="line2d_17">
    <path d="M 68.546307 19.305055 
L 70.075772 21.021323 
L 71.605238 26.799357 
L 73.134703 34.47075 
L 76.193634 46.990651 
L 83.840962 76.017245 
L 85.370427 81.134401 
L 91.488289 98.417816 
L 96.076686 108.694209 
L 97.606151 111.524347 
L 99.135617 114.956522 
L 102.194548 120.003289 
L 103.724014 123.118951 
L 108.31241 130.140758 
L 111.371341 134.457531 
L 112.900807 135.973106 
L 115.959738 140.468511 
L 117.489203 141.640614 
L 119.018669 143.655608 
L 120.548134 145.198271 
L 122.0776 146.929813 
L 123.607065 148.376966 
L 125.136531 149.519132 
L 128.195462 152.901527 
L 131.254393 155.077167 
L 134.313324 157.872726 
L 135.842789 158.678686 
L 140.431186 161.910206 
L 141.960651 162.43574 
L 143.490117 163.329446 
L 145.019582 164.466941 
L 146.549048 164.864762 
L 148.078513 165.873718 
L 151.137444 167.273824 
L 154.196375 167.945638 
L 155.725841 168.971367 
L 157.255306 169.251956 
L 158.784772 169.955707 
L 160.314237 170.241948 
L 161.843703 170.310458 
L 163.373168 171.015457 
L 164.902634 171.455156 
L 166.432099 171.51739 
L 167.961565 172.014765 
L 169.49103 171.882111 
L 172.549961 173.033783 
L 174.079427 172.890431 
L 175.608892 173.25147 
L 178.667823 173.238286 
L 180.197289 173.544913 
L 181.726755 172.931559 
L 183.25622 173.888736 
L 184.785686 173.855592 
L 186.315151 173.30722 
L 187.844617 174.029955 
L 189.374082 173.750062 
L 190.903548 174.198113 
L 192.433013 174.267712 
L 193.962479 173.794561 
L 195.491944 174.375209 
L 197.02141 174.552668 
L 200.080341 174.062523 
L 201.609806 174.114442 
L 203.139272 174.454007 
L 204.668737 173.822318 
L 206.198203 173.807633 
L 207.727668 173.302247 
L 210.786599 173.354946 
L 213.84553 172.523345 
L 215.374996 171.474274 
L 218.433927 177.576216 
L 219.963392 178.223152 
L 221.492858 177.684295 
L 223.022323 177.933158 
L 224.551789 177.562736 
L 226.081254 176.530346 
L 227.61072 179.98853 
L 229.140185 181.017644 
L 230.669651 180.22674 
L 232.199116 180.936718 
L 233.728582 179.811488 
L 235.258047 184.400044 
L 236.787513 188.498012 
L 238.316978 189.226946 
L 239.846444 188.796847 
L 241.375909 188.856061 
L 242.905375 188.419753 
L 244.43484 190.300551 
L 245.964306 190.851596 
L 247.493771 191.074172 
L 249.023237 190.36327 
L 250.552702 189.412022 
L 252.082168 192.433258 
L 253.611633 192.594606 
L 255.141099 194.594928 
L 256.670564 196.896193 
L 258.20003 198.292141 
L 259.729495 198.821216 
L 261.258961 199.115467 
L 262.788427 198.792865 
L 265.847358 199.106305 
L 267.376823 198.630554 
L 268.906289 197.809993 
L 270.435754 199.740241 
L 271.96522 200.767401 
L 273.494685 199.787723 
L 275.024151 203.856285 
L 276.553616 204.91982 
L 278.083082 204.485481 
L 279.612547 206.565279 
L 281.142013 207.391596 
L 282.671478 207.15508 
L 284.200944 208.188566 
L 285.730409 208.784241 
L 287.259875 208.498663 
L 288.78934 209.140008 
L 291.848271 209.393519 
L 293.377737 209.140589 
L 294.907202 210.091995 
L 296.436668 210.494016 
L 297.966133 210.243368 
L 299.495599 209.860411 
L 301.025064 211.419182 
L 302.55453 211.680607 
L 304.083995 211.418184 
L 305.613461 212.798832 
L 307.142926 212.648764 
L 308.672392 213.21758 
L 310.201857 213.025867 
L 311.731323 213.629319 
L 313.260788 213.570969 
L 314.790254 213.982793 
L 317.849185 214.360115 
L 319.37865 214.254171 
L 320.908116 214.413471 
L 323.967047 214.470636 
L 325.496512 214.352253 
L 327.025978 214.835183 
L 328.555443 215.095058 
L 331.614374 215.20511 
L 334.673305 215.540927 
L 336.202771 215.473315 
L 340.791167 215.834423 
L 342.320633 216.144806 
L 343.850099 215.882308 
L 346.90903 216.095862 
L 348.438495 216.228018 
L 349.967961 216.163068 
L 353.026892 216.476031 
L 354.556357 216.471176 
L 356.085823 216.597891 
L 357.615288 216.45608 
L 359.144754 216.637489 
L 372.909943 216.804081 
L 372.909943 216.804081 
" clip-path="url(#pd92e65f696)" style="fill: none; stroke: #1f77b4; stroke-width: 1.5; stroke-linecap: square"/>
   </g>
   <g id="line2d_18">
    <path d="M 68.546307 19.143893 
L 70.075772 19.371599 
L 77.7231 19.407542 
L 132.783858 19.434036 
L 134.313324 19.697346 
L 135.842789 23.354248 
L 137.372255 25.9761 
L 140.431186 29.59438 
L 141.960651 31.063298 
L 145.019582 33.295618 
L 146.549048 34.335705 
L 148.078513 36.273757 
L 149.607979 38.872589 
L 151.137444 40.480815 
L 152.66691 41.816215 
L 154.196375 43.348679 
L 155.725841 44.626585 
L 157.255306 46.256696 
L 158.784772 47.551032 
L 161.843703 49.708204 
L 163.373168 51.256841 
L 164.902634 56.080778 
L 169.49103 69.358382 
L 171.020496 73.136463 
L 172.549961 76.364829 
L 174.079427 79.013509 
L 178.667823 96.344684 
L 180.197289 101.933777 
L 181.726755 108.107646 
L 184.785686 117.496226 
L 190.903548 130.948043 
L 193.962479 136.392576 
L 195.491944 138.354061 
L 197.02141 140.546463 
L 198.550875 142.985892 
L 200.080341 144.7258 
L 201.609806 146.719094 
L 203.139272 147.877947 
L 206.198203 151.034258 
L 212.316065 155.984477 
L 213.84553 156.508841 
L 216.904461 158.415162 
L 218.433927 158.819609 
L 219.963392 159.54588 
L 221.492858 159.950808 
L 223.022323 159.704199 
L 224.551789 160.115768 
L 226.081254 161.175316 
L 230.669651 162.093058 
L 232.199116 162.239649 
L 233.728582 162.525345 
L 235.258047 162.393667 
L 238.316978 162.776683 
L 239.846444 163.59296 
L 241.375909 162.554674 
L 242.905375 163.324657 
L 244.43484 162.47338 
L 245.964306 162.694013 
L 247.493771 162.021287 
L 249.023237 162.65363 
L 250.552702 161.759427 
L 252.082168 161.779173 
L 253.611633 161.547894 
L 255.141099 160.352881 
L 256.670564 159.441833 
L 258.20003 162.939899 
L 259.729495 162.663466 
L 261.258961 166.267466 
L 262.788427 166.531543 
L 264.317892 166.917576 
L 265.847358 165.999521 
L 267.376823 169.030013 
L 268.906289 169.13629 
L 270.435754 172.002909 
L 271.96522 172.19967 
L 273.494685 171.565628 
L 275.024151 172.074859 
L 276.553616 171.208183 
L 278.083082 171.429582 
L 279.612547 171.142537 
L 281.142013 170.235844 
L 282.671478 170.107122 
L 284.200944 169.495004 
L 285.730409 171.409976 
L 287.259875 174.514548 
L 288.78934 178.937083 
L 293.377737 179.197437 
L 294.907202 178.810809 
L 296.436668 178.074644 
L 297.966133 179.893019 
L 299.495599 179.674295 
L 301.025064 180.086706 
L 304.083995 178.940987 
L 305.613461 178.657667 
L 307.142926 177.545393 
L 308.672392 180.484744 
L 311.731323 180.369982 
L 313.260788 179.304812 
L 314.790254 183.601873 
L 316.319719 187.476943 
L 317.849185 187.342347 
L 319.37865 188.363389 
L 320.908116 187.997968 
L 322.437581 187.798902 
L 323.967047 188.418778 
L 325.496512 191.402256 
L 327.025978 191.99228 
L 328.555443 191.938628 
L 330.084909 191.61338 
L 331.614374 191.610292 
L 334.673305 191.151092 
L 336.202771 190.160347 
L 337.732236 192.462355 
L 339.261702 193.038743 
L 340.791167 192.907061 
L 342.320633 194.004969 
L 343.850099 195.697983 
L 345.379564 198.092825 
L 348.438495 199.214004 
L 349.967961 198.469053 
L 351.497426 201.572638 
L 359.144754 202.258421 
L 360.674219 203.228927 
L 362.203685 203.522631 
L 363.73315 203.358837 
L 365.262616 203.423459 
L 366.792081 203.648787 
L 368.321547 203.059446 
L 369.851012 205.138288 
L 371.380478 205.874849 
L 372.909943 205.881556 
L 372.909943 205.881556 
" clip-path="url(#pd92e65f696)" style="fill: none; stroke: #ff7f0e; stroke-width: 1.5; stroke-linecap: square"/>
   </g>
   <g id="line2d_19">
    <path d="M 68.546307 19.203136 
L 70.075772 19.386788 
L 83.840962 19.531025 
L 85.370427 20.296223 
L 86.899893 23.964966 
L 88.429358 26.114966 
L 91.488289 33.56262 
L 93.017755 36.009459 
L 94.54722 37.582383 
L 97.606151 41.237112 
L 99.135617 43.863349 
L 100.665083 47.690239 
L 102.194548 51.94216 
L 103.724014 55.711546 
L 105.253479 59.053679 
L 108.31241 65.222059 
L 109.841876 71.362764 
L 111.371341 76.525176 
L 114.430272 86.070832 
L 115.959738 89.869299 
L 119.018669 99.165142 
L 120.548134 103.307193 
L 123.607065 110.164101 
L 125.136531 113.574827 
L 126.665996 116.394075 
L 129.724927 122.676892 
L 131.254393 125.012977 
L 132.783858 128.169215 
L 134.313324 130.478059 
L 135.842789 133.110841 
L 137.372255 135.272966 
L 138.90172 137.822103 
L 140.431186 139.561926 
L 141.960651 141.92695 
L 143.490117 143.46089 
L 145.019582 145.624623 
L 146.549048 147.150493 
L 148.078513 149.116916 
L 152.66691 153.480663 
L 154.196375 154.577767 
L 155.725841 156.142808 
L 157.255306 156.89488 
L 158.784772 158.549893 
L 160.314237 159.642171 
L 161.843703 160.319255 
L 164.902634 162.214398 
L 166.432099 162.599759 
L 167.961565 163.8914 
L 169.49103 163.7188 
L 171.020496 165.429996 
L 172.549961 165.662206 
L 174.079427 166.465611 
L 175.608892 167.017536 
L 177.138358 167.765666 
L 178.667823 167.885782 
L 181.726755 168.715134 
L 183.25622 169.147734 
L 184.785686 169.101874 
L 187.844617 170.055604 
L 190.903548 169.939364 
L 192.433013 170.176573 
L 193.962479 169.971726 
L 195.491944 170.37741 
L 197.02141 170.028283 
L 198.550875 170.968262 
L 200.080341 169.95516 
L 201.609806 170.907782 
L 204.668737 170.243238 
L 206.198203 170.300542 
L 207.727668 169.663032 
L 209.257134 169.534214 
L 210.786599 169.112558 
L 212.316065 169.355174 
L 213.84553 169.311223 
L 215.374996 168.253456 
L 216.904461 168.718494 
L 219.963392 168.321801 
L 221.492858 168.167123 
L 223.022323 168.199154 
L 224.551789 167.522613 
L 226.081254 167.606641 
L 227.61072 166.527809 
L 229.140185 165.928735 
L 232.199116 172.235306 
L 233.728582 176.071588 
L 235.258047 176.201299 
L 236.787513 176.809588 
L 238.316978 176.248389 
L 239.846444 175.492821 
L 241.375909 175.372527 
L 242.905375 175.526461 
L 244.43484 174.86414 
L 247.493771 180.294418 
L 249.023237 183.644315 
L 250.552702 184.497465 
L 252.082168 183.934614 
L 253.611633 186.381054 
L 255.141099 188.217484 
L 256.670564 191.11416 
L 258.20003 191.217808 
L 259.729495 191.772426 
L 261.258961 191.352177 
L 262.788427 192.725261 
L 264.317892 193.2033 
L 265.847358 192.744468 
L 267.376823 194.703314 
L 268.906289 195.322173 
L 270.435754 195.421503 
L 271.96522 194.85793 
L 273.494685 195.982793 
L 275.024151 196.330026 
L 276.553616 196.228207 
L 278.083082 195.816661 
L 279.612547 196.356653 
L 281.142013 195.620445 
L 282.671478 199.208932 
L 284.200944 200.587498 
L 285.730409 200.468827 
L 287.259875 200.764176 
L 288.78934 203.029674 
L 290.318806 203.057865 
L 291.848271 203.307473 
L 293.377737 203.225179 
L 294.907202 202.539249 
L 296.436668 205.120469 
L 297.966133 205.256252 
L 299.495599 205.777673 
L 301.025064 205.195228 
L 302.55453 206.961285 
L 304.083995 208.188424 
L 305.613461 208.679376 
L 313.260788 208.740247 
L 314.790254 209.893938 
L 316.319719 210.136787 
L 317.849185 210.153818 
L 319.37865 210.32502 
L 320.908116 210.149937 
L 322.437581 210.633329 
L 323.967047 210.798783 
L 325.496512 210.612816 
L 327.025978 211.64759 
L 328.555443 212.268733 
L 331.614374 212.495045 
L 333.14384 212.833974 
L 334.673305 212.92531 
L 337.732236 212.803568 
L 339.261702 212.822316 
L 340.791167 213.259735 
L 342.320633 213.401877 
L 343.850099 213.768838 
L 345.379564 213.92147 
L 346.90903 213.872772 
L 348.438495 214.222883 
L 349.967961 214.387843 
L 351.497426 214.35022 
L 353.026892 214.491349 
L 354.556357 214.344755 
L 356.085823 214.774941 
L 357.615288 214.955907 
L 359.144754 214.808761 
L 360.674219 215.091697 
L 362.203685 215.077826 
L 363.73315 214.846345 
L 365.262616 215.449487 
L 369.851012 215.535941 
L 371.380478 215.896457 
L 372.909943 216.060804 
L 372.909943 216.060804 
" clip-path="url(#pd92e65f696)" style="fill: none; stroke: #2ca02c; stroke-width: 1.5; stroke-linecap: square"/>
   </g>
   <g id="line2d_20">
    <path d="M 68.546307 19.812872 
L 70.075772 25.876001 
L 73.134703 45.052199 
L 76.193634 60.273864 
L 77.7231 66.995205 
L 79.252565 73.077953 
L 80.782031 78.699271 
L 82.311496 83.810257 
L 85.370427 93.350734 
L 86.899893 96.84147 
L 88.429358 100.865142 
L 93.017755 110.351108 
L 94.54722 113.302845 
L 96.076686 115.836711 
L 99.135617 120.459827 
L 102.194548 125.405068 
L 103.724014 127.205959 
L 105.253479 129.25303 
L 106.782945 131.548164 
L 109.841876 135.022134 
L 111.371341 137.038318 
L 112.900807 138.333173 
L 114.430272 140.054646 
L 115.959738 142.051051 
L 117.489203 143.420427 
L 119.018669 145.212614 
L 120.548134 146.51499 
L 122.0776 148.100591 
L 123.607065 149.17047 
L 125.136531 151.076728 
L 126.665996 151.893265 
L 128.195462 153.294683 
L 131.254393 155.681452 
L 132.783858 156.558133 
L 137.372255 159.917841 
L 138.90172 160.423492 
L 141.960651 162.273469 
L 143.490117 162.716828 
L 145.019582 163.764935 
L 148.078513 165.276633 
L 149.607979 166.013441 
L 151.137444 166.50924 
L 152.66691 167.578783 
L 154.196375 167.617394 
L 155.725841 168.29765 
L 157.255306 168.443453 
L 158.784772 169.482853 
L 160.314237 169.498746 
L 161.843703 170.249203 
L 163.373168 170.144065 
L 164.902634 171.285999 
L 166.432099 171.096877 
L 167.961565 171.510873 
L 169.49103 172.086605 
L 171.020496 171.800205 
L 172.549961 172.502063 
L 174.079427 171.783765 
L 175.608892 172.351169 
L 177.138358 173.082015 
L 178.667823 172.463838 
L 180.197289 173.108408 
L 181.726755 172.62243 
L 183.25622 173.439913 
L 184.785686 173.054808 
L 186.315151 173.623196 
L 187.844617 172.81705 
L 189.374082 173.450898 
L 190.903548 172.840312 
L 192.433013 173.09676 
L 193.962479 173.547462 
L 195.491944 172.850871 
L 198.550875 173.226312 
L 200.080341 172.784634 
L 201.609806 175.538256 
L 203.139272 175.878342 
L 204.668737 175.374556 
L 206.198203 175.807036 
L 207.727668 175.244109 
L 209.257134 175.36138 
L 210.786599 174.638558 
L 212.316065 177.149055 
L 213.84553 180.275728 
L 215.374996 180.059208 
L 216.904461 183.279562 
L 218.433927 183.489905 
L 219.963392 183.906447 
L 221.492858 182.964424 
L 223.022323 185.010918 
L 224.551789 187.843666 
L 226.081254 187.483395 
L 227.61072 187.795622 
L 229.140185 188.395749 
L 230.669651 187.392809 
L 232.199116 190.627909 
L 233.728582 191.116558 
L 235.258047 191.807237 
L 236.787513 190.505242 
L 238.316978 195.167963 
L 239.846444 195.782126 
L 241.375909 196.927719 
L 242.905375 197.611303 
L 244.43484 197.232331 
L 245.964306 198.340427 
L 247.493771 198.042599 
L 249.023237 198.387928 
L 250.552702 197.778525 
L 252.082168 199.894675 
L 253.611633 199.64874 
L 255.141099 202.111144 
L 256.670564 202.849357 
L 258.20003 202.566489 
L 259.729495 203.945035 
L 261.258961 203.886057 
L 262.788427 204.126682 
L 264.317892 206.071091 
L 265.847358 207.19593 
L 267.376823 207.132617 
L 270.435754 207.686171 
L 271.96522 207.097562 
L 273.494685 208.937048 
L 275.024151 209.529201 
L 276.553616 209.307266 
L 279.612547 209.849748 
L 281.142013 209.728062 
L 282.671478 209.888068 
L 284.200944 211.152224 
L 285.730409 211.648144 
L 288.78934 211.685245 
L 290.318806 211.904623 
L 291.848271 211.708756 
L 293.377737 212.11859 
L 294.907202 212.274282 
L 296.436668 211.863563 
L 297.966133 213.019221 
L 299.495599 213.189649 
L 301.025064 213.064715 
L 302.55453 213.344277 
L 305.613461 213.224106 
L 307.142926 213.974741 
L 310.201857 214.308864 
L 311.731323 214.149609 
L 313.260788 214.570417 
L 316.319719 214.867317 
L 317.849185 214.784934 
L 319.37865 215.061927 
L 325.496512 215.509024 
L 330.084909 215.445084 
L 331.614374 215.748695 
L 334.673305 215.944289 
L 336.202771 215.757758 
L 337.732236 216.002476 
L 339.261702 215.922316 
L 343.850099 216.325701 
L 346.90903 216.253703 
L 348.438495 216.427837 
L 369.851012 216.725527 
L 371.380478 216.81662 
L 372.909943 216.705159 
L 372.909943 216.705159 
" clip-path="url(#pd92e65f696)" style="fill: none; stroke: #d62728; stroke-width: 1.5; stroke-linecap: square"/>
   </g>
   <g id="line2d_21">
    <path d="M 68.546307 25.156583 
L 70.075772 43.15946 
L 71.605238 54.08127 
L 73.134703 63.451354 
L 74.664169 70.488233 
L 77.7231 81.627237 
L 79.252565 86.691172 
L 80.782031 91.001964 
L 82.311496 94.914608 
L 85.370427 101.576161 
L 86.899893 104.813393 
L 88.429358 107.25479 
L 89.958824 110.326614 
L 91.488289 112.391335 
L 97.606151 121.627932 
L 99.135617 123.553028 
L 100.665083 125.791108 
L 109.841876 136.69599 
L 111.371341 138.359569 
L 112.900807 140.286548 
L 115.959738 142.934551 
L 117.489203 144.568897 
L 119.018669 145.614418 
L 120.548134 147.210273 
L 122.0776 148.441398 
L 123.607065 149.977078 
L 125.136531 151.118441 
L 128.195462 153.103479 
L 129.724927 154.345513 
L 131.254393 155.381351 
L 134.313324 156.842577 
L 135.842789 158.243825 
L 137.372255 159.009154 
L 138.90172 159.394995 
L 140.431186 160.294999 
L 141.960651 160.987895 
L 143.490117 162.069721 
L 145.019582 162.300028 
L 146.549048 162.962428 
L 148.078513 163.246355 
L 149.607979 163.9304 
L 152.66691 165.54887 
L 154.196375 165.845103 
L 155.725841 166.721526 
L 158.784772 167.618346 
L 160.314237 167.781594 
L 161.843703 167.785374 
L 163.373168 168.7485 
L 164.902634 169.192458 
L 167.961565 169.564373 
L 169.49103 169.875627 
L 171.020496 170.042411 
L 172.549961 170.623196 
L 174.079427 170.860591 
L 175.608892 170.503159 
L 177.138358 171.047445 
L 178.667823 171.219105 
L 180.197289 171.815376 
L 181.726755 171.438432 
L 183.25622 171.930481 
L 184.785686 171.408699 
L 186.315151 171.536039 
L 187.844617 171.335541 
L 189.374082 171.6549 
L 190.903548 171.398227 
L 192.433013 171.632108 
L 193.962479 171.204409 
L 195.491944 171.421689 
L 197.02141 171.253188 
L 198.550875 170.75238 
L 200.080341 173.273206 
L 201.609806 174.095661 
L 203.139272 173.20664 
L 204.668737 173.320048 
L 206.198203 173.746408 
L 207.727668 172.566229 
L 209.257134 175.890908 
L 210.786599 175.145948 
L 213.84553 174.762838 
L 215.374996 177.445929 
L 218.433927 178.731774 
L 219.963392 177.803019 
L 221.492858 177.734721 
L 223.022323 177.843024 
L 224.551789 176.927992 
L 226.081254 178.897347 
L 227.61072 178.938524 
L 229.140185 178.460652 
L 230.669651 178.722719 
L 232.199116 177.340634 
L 233.728582 180.216571 
L 235.258047 181.516257 
L 236.787513 181.936725 
L 238.316978 181.165163 
L 239.846444 182.27376 
L 241.375909 180.549332 
L 242.905375 187.837136 
L 244.43484 189.281626 
L 245.964306 190.076845 
L 247.493771 188.984863 
L 249.023237 191.98277 
L 250.552702 193.551159 
L 252.082168 193.077551 
L 253.611633 195.264201 
L 255.141099 196.129868 
L 256.670564 195.495193 
L 258.20003 198.274043 
L 259.729495 198.456 
L 261.258961 200.230115 
L 262.788427 200.3072 
L 264.317892 200.546853 
L 265.847358 200.43751 
L 267.376823 201.139102 
L 268.906289 202.156098 
L 270.435754 201.680207 
L 271.96522 203.806194 
L 273.494685 204.330755 
L 275.024151 205.550511 
L 278.083082 205.729671 
L 281.142013 205.616397 
L 282.671478 206.089608 
L 284.200944 205.649234 
L 285.730409 206.415223 
L 287.259875 206.48874 
L 288.78934 206.234692 
L 290.318806 207.981509 
L 291.848271 208.865392 
L 293.377737 208.847788 
L 294.907202 210.173222 
L 296.436668 210.287136 
L 297.966133 210.518636 
L 299.495599 210.448405 
L 301.025064 210.848114 
L 304.083995 210.765429 
L 305.613461 210.947333 
L 308.672392 211.013486 
L 310.201857 210.708532 
L 311.731323 211.211096 
L 313.260788 211.074951 
L 316.319719 211.150926 
L 317.849185 210.910537 
L 319.37865 212.483092 
L 322.437581 212.726959 
L 323.967047 212.548768 
L 327.025978 212.927319 
L 328.555443 212.890257 
L 331.614374 212.659589 
L 333.14384 212.836065 
L 336.202771 212.622408 
L 337.732236 213.604016 
L 339.261702 213.775285 
L 340.791167 213.712365 
L 342.320633 213.875093 
L 343.850099 213.674496 
L 345.379564 214.274965 
L 346.90903 214.459609 
L 348.438495 214.451437 
L 349.967961 214.649643 
L 356.085823 214.617924 
L 357.615288 214.942982 
L 359.144754 215.129421 
L 360.674219 214.978178 
L 363.73315 215.384119 
L 372.909943 215.714751 
L 372.909943 215.714751 
" clip-path="url(#pd92e65f696)" style="fill: none; stroke: #9467bd; stroke-width: 1.5; stroke-linecap: square"/>
   </g>
   <g id="line2d_22">
    <path d="M 68.546307 35.354206 
L 70.075772 56.523168 
L 71.605238 65.73185 
L 74.664169 80.626277 
L 76.193634 85.968262 
L 79.252565 95.067757 
L 80.782031 98.827487 
L 83.840962 105.254271 
L 85.370427 108.109009 
L 86.899893 111.207508 
L 88.429358 113.363209 
L 89.958824 116.095727 
L 93.017755 120.792105 
L 94.54722 122.587989 
L 97.606151 126.736862 
L 99.135617 128.301749 
L 103.724014 134.172364 
L 105.253479 135.562503 
L 106.782945 136.784777 
L 109.841876 140.211189 
L 111.371341 141.629655 
L 112.900807 143.212685 
L 114.430272 144.304027 
L 115.959738 145.897405 
L 117.489203 147.044305 
L 120.548134 149.596004 
L 122.0776 150.437091 
L 125.136531 152.882539 
L 126.665996 153.651225 
L 128.195462 155.185229 
L 129.724927 156.168629 
L 131.254393 156.513117 
L 132.783858 157.722374 
L 134.313324 158.505277 
L 135.842789 158.983026 
L 137.372255 160.160973 
L 138.90172 160.663674 
L 140.431186 161.312956 
L 141.960651 162.313472 
L 143.490117 162.703422 
L 145.019582 163.770231 
L 148.078513 165.514813 
L 151.137444 166.342514 
L 152.66691 166.868666 
L 154.196375 166.86246 
L 155.725841 167.903901 
L 157.255306 168.170683 
L 158.784772 168.178935 
L 160.314237 169.536198 
L 161.843703 169.251065 
L 163.373168 170.212096 
L 166.432099 170.508355 
L 167.961565 171.600472 
L 169.49103 170.788525 
L 171.020496 171.678684 
L 174.079427 172.498084 
L 177.138358 172.748527 
L 178.667823 173.173824 
L 180.197289 173.03212 
L 181.726755 172.440137 
L 183.25622 173.002999 
L 184.785686 172.824175 
L 186.315151 173.511493 
L 187.844617 172.474884 
L 189.374082 173.404625 
L 190.903548 173.317005 
L 193.962479 173.619059 
L 195.491944 172.931793 
L 197.02141 172.999053 
L 198.550875 172.941994 
L 200.080341 173.579775 
L 201.609806 171.775864 
L 203.139272 175.329656 
L 206.198203 174.870082 
L 207.727668 175.434356 
L 209.257134 174.949008 
L 210.786599 174.98961 
L 212.316065 175.341563 
L 213.84553 173.739423 
L 215.374996 179.196955 
L 216.904461 181.050767 
L 218.433927 180.471376 
L 219.963392 183.091571 
L 221.492858 182.820728 
L 223.022323 183.516063 
L 224.551789 183.094431 
L 226.081254 182.363033 
L 227.61072 184.804017 
L 229.140185 185.09317 
L 230.669651 184.887331 
L 232.199116 185.174025 
L 233.728582 183.985598 
L 235.258047 186.560694 
L 236.787513 187.491796 
L 239.846444 186.480612 
L 241.375909 186.768176 
L 242.905375 186.577037 
L 244.43484 186.032456 
L 245.964306 188.147912 
L 247.493771 191.52344 
L 249.023237 191.853248 
L 250.552702 191.866739 
L 252.082168 193.577013 
L 253.611633 194.995525 
L 255.141099 197.760739 
L 256.670564 197.809035 
L 258.20003 199.666671 
L 259.729495 201.105226 
L 261.258961 201.476667 
L 262.788427 201.441768 
L 264.317892 201.171257 
L 265.847358 202.089491 
L 267.376823 202.418396 
L 268.906289 201.531092 
L 270.435754 204.702451 
L 271.96522 205.649122 
L 273.494685 205.374623 
L 275.024151 206.090459 
L 278.083082 208.282228 
L 281.142013 208.56161 
L 284.200944 208.58221 
L 285.730409 208.867491 
L 287.259875 210.141898 
L 288.78934 210.55176 
L 290.318806 210.587837 
L 291.848271 210.758905 
L 293.377737 211.124853 
L 294.907202 211.792126 
L 296.436668 212.148011 
L 297.966133 212.295076 
L 299.495599 212.326875 
L 301.025064 212.4994 
L 302.55453 212.244227 
L 304.083995 212.749006 
L 305.613461 212.784583 
L 307.142926 212.946138 
L 308.672392 213.412613 
L 310.201857 213.516384 
L 311.731323 213.426066 
L 313.260788 213.931273 
L 314.790254 213.947165 
L 316.319719 213.811919 
L 317.849185 214.043637 
L 320.908116 214.145901 
L 322.437581 214.00753 
L 323.967047 214.392865 
L 325.496512 214.334043 
L 327.025978 214.452459 
L 328.555443 214.178647 
L 330.084909 214.822054 
L 334.673305 215.096466 
L 336.202771 215.075171 
L 339.261702 215.554498 
L 340.791167 215.46118 
L 346.90903 215.825659 
L 348.438495 215.836694 
L 349.967961 215.976451 
L 353.026892 215.956763 
L 354.556357 216.217378 
L 356.085823 216.122841 
L 357.615288 216.357956 
L 359.144754 216.209513 
L 360.674219 216.374245 
L 362.203685 216.29548 
L 363.73315 216.500181 
L 366.792081 216.484157 
L 368.321547 216.556482 
L 369.851012 216.443169 
L 372.909943 216.636725 
L 372.909943 216.636725 
" clip-path="url(#pd92e65f696)" style="fill: none; stroke: #8c564b; stroke-width: 1.5; stroke-linecap: square"/>
   </g>
   <g id="patch_3">
    <path d="M 53.328125 226.700256 
L 53.328125 9.260256 
" style="fill: none; stroke: #000000; stroke-width: 0.8; stroke-linejoin: miter; stroke-linecap: square"/>
   </g>
   <g id="patch_4">
    <path d="M 388.128125 226.700256 
L 388.128125 9.260256 
" style="fill: none; stroke: #000000; stroke-width: 0.8; stroke-linejoin: miter; stroke-linecap: square"/>
   </g>
   <g id="patch_5">
    <path d="M 53.328125 226.700256 
L 388.128125 226.700256 
" style="fill: none; stroke: #000000; stroke-width: 0.8; stroke-linejoin: miter; stroke-linecap: square"/>
   </g>
   <g id="patch_6">
    <path d="M 53.328125 9.260256 
L 388.128125 9.260256 
" style="fill: none; stroke: #000000; stroke-width: 0.8; stroke-linejoin: miter; stroke-linecap: square"/>
   </g>
   <g id="legend_1">
    <g id="patch_7">
     <path d="M 242.998438 106.997756 
L 381.128125 106.997756 
Q 383.128125 106.997756 383.128125 104.997756 
L 383.128125 16.260256 
Q 383.128125 14.260256 381.128125 14.260256 
L 242.998438 14.260256 
Q 240.998438 14.260256 240.998438 16.260256 
L 240.998438 104.997756 
Q 240.998438 106.997756 242.998438 106.997756 
z
" style="fill: #ffffff; opacity: 0.8; stroke: #cccccc; stroke-linejoin: miter"/>
    </g>
    <g id="line2d_23">
     <path d="M 244.998438 22.358694 
L 254.998438 22.358694 
L 264.998438 22.358694 
" style="fill: none; stroke: #1f77b4; stroke-width: 1.5; stroke-linecap: square"/>
    </g>
    <g id="text_19">
     <!-- xavier_uniform -->
     <g transform="translate(272.998438 25.858694)scale(0.1 -0.1)">
      <defs>
       <path id="DejaVuSans-78" d="M 3513 3500 
L 2247 1797 
L 3578 0 
L 2900 0 
L 1881 1375 
L 863 0 
L 184 0 
L 1544 1831 
L 300 3500 
L 978 3500 
L 1906 2253 
L 2834 3500 
L 3513 3500 
z
" transform="scale(0.015625)"/>
       <path id="DejaVuSans-61" d="M 2194 1759 
Q 1497 1759 1228 1600 
Q 959 1441 959 1056 
Q 959 750 1161 570 
Q 1363 391 1709 391 
Q 2188 391 2477 730 
Q 2766 1069 2766 1631 
L 2766 1759 
L 2194 1759 
z
M 3341 1997 
L 3341 0 
L 2766 0 
L 2766 531 
Q 2569 213 2275 61 
Q 1981 -91 1556 -91 
Q 1019 -91 701 211 
Q 384 513 384 1019 
Q 384 1609 779 1909 
Q 1175 2209 1959 2209 
L 2766 2209 
L 2766 2266 
Q 2766 2663 2505 2880 
Q 2244 3097 1772 3097 
Q 1472 3097 1187 3025 
Q 903 2953 641 2809 
L 641 3341 
Q 956 3463 1253 3523 
Q 1550 3584 1831 3584 
Q 2591 3584 2966 3190 
Q 3341 2797 3341 1997 
z
" transform="scale(0.015625)"/>
       <path id="DejaVuSans-76" d="M 191 3500 
L 800 3500 
L 1894 563 
L 2988 3500 
L 3597 3500 
L 2284 0 
L 1503 0 
L 191 3500 
z
" transform="scale(0.015625)"/>
       <path id="DejaVuSans-69" d="M 603 3500 
L 1178 3500 
L 1178 0 
L 603 0 
L 603 3500 
z
M 603 4863 
L 1178 4863 
L 1178 4134 
L 603 4134 
L 603 4863 
z
" transform="scale(0.015625)"/>
       <path id="DejaVuSans-65" d="M 3597 1894 
L 3597 1613 
L 953 1613 
Q 991 1019 1311 708 
Q 1631 397 2203 397 
Q 2534 397 2845 478 
Q 3156 559 3463 722 
L 3463 178 
Q 3153 47 2828 -22 
Q 2503 -91 2169 -91 
Q 1331 -91 842 396 
Q 353 884 353 1716 
Q 353 2575 817 3079 
Q 1281 3584 2069 3584 
Q 2775 3584 3186 3129 
Q 3597 2675 3597 1894 
z
M 3022 2063 
Q 3016 2534 2758 2815 
Q 2500 3097 2075 3097 
Q 1594 3097 1305 2825 
Q 1016 2553 972 2059 
L 3022 2063 
z
" transform="scale(0.015625)"/>
       <path id="DejaVuSans-72" d="M 2631 2963 
Q 2534 3019 2420 3045 
Q 2306 3072 2169 3072 
Q 1681 3072 1420 2755 
Q 1159 2438 1159 1844 
L 1159 0 
L 581 0 
L 581 3500 
L 1159 3500 
L 1159 2956 
Q 1341 3275 1631 3429 
Q 1922 3584 2338 3584 
Q 2397 3584 2469 3576 
Q 2541 3569 2628 3553 
L 2631 2963 
z
" transform="scale(0.015625)"/>
       <path id="DejaVuSans-5f" d="M 3263 -1063 
L 3263 -1509 
L -63 -1509 
L -63 -1063 
L 3263 -1063 
z
" transform="scale(0.015625)"/>
       <path id="DejaVuSans-75" d="M 544 1381 
L 544 3500 
L 1119 3500 
L 1119 1403 
Q 1119 906 1312 657 
Q 1506 409 1894 409 
Q 2359 409 2629 706 
Q 2900 1003 2900 1516 
L 2900 3500 
L 3475 3500 
L 3475 0 
L 2900 0 
L 2900 538 
Q 2691 219 2414 64 
Q 2138 -91 1772 -91 
Q 1169 -91 856 284 
Q 544 659 544 1381 
z
M 1991 3584 
L 1991 3584 
z
" transform="scale(0.015625)"/>
       <path id="DejaVuSans-6e" d="M 3513 2113 
L 3513 0 
L 2938 0 
L 2938 2094 
Q 2938 2591 2744 2837 
Q 2550 3084 2163 3084 
Q 1697 3084 1428 2787 
Q 1159 2491 1159 1978 
L 1159 0 
L 581 0 
L 581 3500 
L 1159 3500 
L 1159 2956 
Q 1366 3272 1645 3428 
Q 1925 3584 2291 3584 
Q 2894 3584 3203 3211 
Q 3513 2838 3513 2113 
z
" transform="scale(0.015625)"/>
       <path id="DejaVuSans-66" d="M 2375 4863 
L 2375 4384 
L 1825 4384 
Q 1516 4384 1395 4259 
Q 1275 4134 1275 3809 
L 1275 3500 
L 2222 3500 
L 2222 3053 
L 1275 3053 
L 1275 0 
L 697 0 
L 697 3053 
L 147 3053 
L 147 3500 
L 697 3500 
L 697 3744 
Q 697 4328 969 4595 
Q 1241 4863 1831 4863 
L 2375 4863 
z
" transform="scale(0.015625)"/>
       <path id="DejaVuSans-6d" d="M 3328 2828 
Q 3544 3216 3844 3400 
Q 4144 3584 4550 3584 
Q 5097 3584 5394 3201 
Q 5691 2819 5691 2113 
L 5691 0 
L 5113 0 
L 5113 2094 
Q 5113 2597 4934 2840 
Q 4756 3084 4391 3084 
Q 3944 3084 3684 2787 
Q 3425 2491 3425 1978 
L 3425 0 
L 2847 0 
L 2847 2094 
Q 2847 2600 2669 2842 
Q 2491 3084 2119 3084 
Q 1678 3084 1418 2786 
Q 1159 2488 1159 1978 
L 1159 0 
L 581 0 
L 581 3500 
L 1159 3500 
L 1159 2956 
Q 1356 3278 1631 3431 
Q 1906 3584 2284 3584 
Q 2666 3584 2933 3390 
Q 3200 3197 3328 2828 
z
" transform="scale(0.015625)"/>
      </defs>
      <use xlink:href="#DejaVuSans-78"/>
      <use xlink:href="#DejaVuSans-61" x="59.179688"/>
      <use xlink:href="#DejaVuSans-76" x="120.458984"/>
      <use xlink:href="#DejaVuSans-69" x="179.638672"/>
      <use xlink:href="#DejaVuSans-65" x="207.421875"/>
      <use xlink:href="#DejaVuSans-72" x="268.945312"/>
      <use xlink:href="#DejaVuSans-5f" x="310.058594"/>
      <use xlink:href="#DejaVuSans-75" x="360.058594"/>
      <use xlink:href="#DejaVuSans-6e" x="423.4375"/>
      <use xlink:href="#DejaVuSans-69" x="486.816406"/>
      <use xlink:href="#DejaVuSans-66" x="514.599609"/>
      <use xlink:href="#DejaVuSans-6f" x="549.804688"/>
      <use xlink:href="#DejaVuSans-72" x="610.986328"/>
      <use xlink:href="#DejaVuSans-6d" x="650.349609"/>
     </g>
    </g>
    <g id="line2d_24">
     <path d="M 244.998438 37.314944 
L 254.998438 37.314944 
L 264.998438 37.314944 
" style="fill: none; stroke: #ff7f0e; stroke-width: 1.5; stroke-linecap: square"/>
    </g>
    <g id="text_20">
     <!-- xavier_uniform_M_1 -->
     <g transform="translate(272.998438 40.814944)scale(0.1 -0.1)">
      <defs>
       <path id="DejaVuSans-4d" d="M 628 4666 
L 1569 4666 
L 2759 1491 
L 3956 4666 
L 4897 4666 
L 4897 0 
L 4281 0 
L 4281 4097 
L 3078 897 
L 2444 897 
L 1241 4097 
L 1241 0 
L 628 0 
L 628 4666 
z
" transform="scale(0.015625)"/>
      </defs>
      <use xlink:href="#DejaVuSans-78"/>
      <use xlink:href="#DejaVuSans-61" x="59.179688"/>
      <use xlink:href="#DejaVuSans-76" x="120.458984"/>
      <use xlink:href="#DejaVuSans-69" x="179.638672"/>
      <use xlink:href="#DejaVuSans-65" x="207.421875"/>
      <use xlink:href="#DejaVuSans-72" x="268.945312"/>
      <use xlink:href="#DejaVuSans-5f" x="310.058594"/>
      <use xlink:href="#DejaVuSans-75" x="360.058594"/>
      <use xlink:href="#DejaVuSans-6e" x="423.4375"/>
      <use xlink:href="#DejaVuSans-69" x="486.816406"/>
      <use xlink:href="#DejaVuSans-66" x="514.599609"/>
      <use xlink:href="#DejaVuSans-6f" x="549.804688"/>
      <use xlink:href="#DejaVuSans-72" x="610.986328"/>
      <use xlink:href="#DejaVuSans-6d" x="650.349609"/>
      <use xlink:href="#DejaVuSans-5f" x="747.761719"/>
      <use xlink:href="#DejaVuSans-4d" x="797.761719"/>
      <use xlink:href="#DejaVuSans-5f" x="884.041016"/>
      <use xlink:href="#DejaVuSans-31" x="934.041016"/>
     </g>
    </g>
    <g id="line2d_25">
     <path d="M 244.998438 52.271194 
L 254.998438 52.271194 
L 264.998438 52.271194 
" style="fill: none; stroke: #2ca02c; stroke-width: 1.5; stroke-linecap: square"/>
    </g>
    <g id="text_21">
     <!-- xavier_uniform_M_2 -->
     <g transform="translate(272.998438 55.771194)scale(0.1 -0.1)">
      <use xlink:href="#DejaVuSans-78"/>
      <use xlink:href="#DejaVuSans-61" x="59.179688"/>
      <use xlink:href="#DejaVuSans-76" x="120.458984"/>
      <use xlink:href="#DejaVuSans-69" x="179.638672"/>
      <use xlink:href="#DejaVuSans-65" x="207.421875"/>
      <use xlink:href="#DejaVuSans-72" x="268.945312"/>
      <use xlink:href="#DejaVuSans-5f" x="310.058594"/>
      <use xlink:href="#DejaVuSans-75" x="360.058594"/>
      <use xlink:href="#DejaVuSans-6e" x="423.4375"/>
      <use xlink:href="#DejaVuSans-69" x="486.816406"/>
      <use xlink:href="#DejaVuSans-66" x="514.599609"/>
      <use xlink:href="#DejaVuSans-6f" x="549.804688"/>
      <use xlink:href="#DejaVuSans-72" x="610.986328"/>
      <use xlink:href="#DejaVuSans-6d" x="650.349609"/>
      <use xlink:href="#DejaVuSans-5f" x="747.761719"/>
      <use xlink:href="#DejaVuSans-4d" x="797.761719"/>
      <use xlink:href="#DejaVuSans-5f" x="884.041016"/>
      <use xlink:href="#DejaVuSans-32" x="934.041016"/>
     </g>
    </g>
    <g id="line2d_26">
     <path d="M 244.998438 67.227444 
L 254.998438 67.227444 
L 264.998438 67.227444 
" style="fill: none; stroke: #d62728; stroke-width: 1.5; stroke-linecap: square"/>
    </g>
    <g id="text_22">
     <!-- xavier_uniform_M_10 -->
     <g transform="translate(272.998438 70.727444)scale(0.1 -0.1)">
      <use xlink:href="#DejaVuSans-78"/>
      <use xlink:href="#DejaVuSans-61" x="59.179688"/>
      <use xlink:href="#DejaVuSans-76" x="120.458984"/>
      <use xlink:href="#DejaVuSans-69" x="179.638672"/>
      <use xlink:href="#DejaVuSans-65" x="207.421875"/>
      <use xlink:href="#DejaVuSans-72" x="268.945312"/>
      <use xlink:href="#DejaVuSans-5f" x="310.058594"/>
      <use xlink:href="#DejaVuSans-75" x="360.058594"/>
      <use xlink:href="#DejaVuSans-6e" x="423.4375"/>
      <use xlink:href="#DejaVuSans-69" x="486.816406"/>
      <use xlink:href="#DejaVuSans-66" x="514.599609"/>
      <use xlink:href="#DejaVuSans-6f" x="549.804688"/>
      <use xlink:href="#DejaVuSans-72" x="610.986328"/>
      <use xlink:href="#DejaVuSans-6d" x="650.349609"/>
      <use xlink:href="#DejaVuSans-5f" x="747.761719"/>
      <use xlink:href="#DejaVuSans-4d" x="797.761719"/>
      <use xlink:href="#DejaVuSans-5f" x="884.041016"/>
      <use xlink:href="#DejaVuSans-31" x="934.041016"/>
      <use xlink:href="#DejaVuSans-30" x="997.664062"/>
     </g>
    </g>
    <g id="line2d_27">
     <path d="M 244.998438 82.183694 
L 254.998438 82.183694 
L 264.998438 82.183694 
" style="fill: none; stroke: #9467bd; stroke-width: 1.5; stroke-linecap: square"/>
    </g>
    <g id="text_23">
     <!-- xavier_uniform_M_14 -->
     <g transform="translate(272.998438 85.683694)scale(0.1 -0.1)">
      <use xlink:href="#DejaVuSans-78"/>
      <use xlink:href="#DejaVuSans-61" x="59.179688"/>
      <use xlink:href="#DejaVuSans-76" x="120.458984"/>
      <use xlink:href="#DejaVuSans-69" x="179.638672"/>
      <use xlink:href="#DejaVuSans-65" x="207.421875"/>
      <use xlink:href="#DejaVuSans-72" x="268.945312"/>
      <use xlink:href="#DejaVuSans-5f" x="310.058594"/>
      <use xlink:href="#DejaVuSans-75" x="360.058594"/>
      <use xlink:href="#DejaVuSans-6e" x="423.4375"/>
      <use xlink:href="#DejaVuSans-69" x="486.816406"/>
      <use xlink:href="#DejaVuSans-66" x="514.599609"/>
      <use xlink:href="#DejaVuSans-6f" x="549.804688"/>
      <use xlink:href="#DejaVuSans-72" x="610.986328"/>
      <use xlink:href="#DejaVuSans-6d" x="650.349609"/>
      <use xlink:href="#DejaVuSans-5f" x="747.761719"/>
      <use xlink:href="#DejaVuSans-4d" x="797.761719"/>
      <use xlink:href="#DejaVuSans-5f" x="884.041016"/>
      <use xlink:href="#DejaVuSans-31" x="934.041016"/>
      <use xlink:href="#DejaVuSans-34" x="997.664062"/>
     </g>
    </g>
    <g id="line2d_28">
     <path d="M 244.998438 97.139944 
L 254.998438 97.139944 
L 264.998438 97.139944 
" style="fill: none; stroke: #8c564b; stroke-width: 1.5; stroke-linecap: square"/>
    </g>
    <g id="text_24">
     <!-- xavier_uniform_M_20 -->
     <g transform="translate(272.998438 100.639944)scale(0.1 -0.1)">
      <use xlink:href="#DejaVuSans-78"/>
      <use xlink:href="#DejaVuSans-61" x="59.179688"/>
      <use xlink:href="#DejaVuSans-76" x="120.458984"/>
      <use xlink:href="#DejaVuSans-69" x="179.638672"/>
      <use xlink:href="#DejaVuSans-65" x="207.421875"/>
      <use xlink:href="#DejaVuSans-72" x="268.945312"/>
      <use xlink:href="#DejaVuSans-5f" x="310.058594"/>
      <use xlink:href="#DejaVuSans-75" x="360.058594"/>
      <use xlink:href="#DejaVuSans-6e" x="423.4375"/>
      <use xlink:href="#DejaVuSans-69" x="486.816406"/>
      <use xlink:href="#DejaVuSans-66" x="514.599609"/>
      <use xlink:href="#DejaVuSans-6f" x="549.804688"/>
      <use xlink:href="#DejaVuSans-72" x="610.986328"/>
      <use xlink:href="#DejaVuSans-6d" x="650.349609"/>
      <use xlink:href="#DejaVuSans-5f" x="747.761719"/>
      <use xlink:href="#DejaVuSans-4d" x="797.761719"/>
      <use xlink:href="#DejaVuSans-5f" x="884.041016"/>
      <use xlink:href="#DejaVuSans-32" x="934.041016"/>
      <use xlink:href="#DejaVuSans-30" x="997.664062"/>
     </g>
    </g>
   </g>
  </g>
 </g>
 <defs>
  <clipPath id="pd92e65f696">
   <rect x="53.328125" y="9.260256" width="334.8" height="217.44"/>
  </clipPath>
 </defs>
</svg>
