<?xml version="1.0" encoding="utf-8" standalone="no"?>
<!DOCTYPE svg PUBLIC "-//W3C//DTD SVG 1.1//EN"
  "http://www.w3.org/Graphics/SVG/1.1/DTD/svg11.dtd">
<svg xmlns:xlink="http://www.w3.org/1999/xlink" width="525.390625pt" height="260.60496pt" viewBox="0 0 525.390625 260.60496" xmlns="http://www.w3.org/2000/svg" version="1.1">
 <metadata>
  <rdf:RDF xmlns:dc="http://purl.org/dc/elements/1.1/" xmlns:cc="http://creativecommons.org/ns#" xmlns:rdf="http://www.w3.org/1999/02/22-rdf-syntax-ns#">
   <cc:Work>
    <dc:type rdf:resource="http://purl.org/dc/dcmitype/StillImage"/>
    <dc:date>2022-03-30T19:53:12.198043</dc:date>
    <dc:format>image/svg+xml</dc:format>
    <dc:creator>
     <cc:Agent>
      <dc:title>Matplotlib v3.5.0, https://matplotlib.org/</dc:title>
     </cc:Agent>
    </dc:creator>
   </cc:Work>
  </rdf:RDF>
 </metadata>
 <defs>
  <style type="text/css">*{stroke-linejoin: round; stroke-linecap: butt}</style>
 </defs>
 <g id="figure_1">
  <g id="patch_1">
   <path d="M 0 260.60496 
L 525.390625 260.60496 
L 525.390625 0 
L 0 0 
z
" style="fill: #ffffff"/>
  </g>
  <g id="axes_1">
   <g id="patch_2">
    <path d="M 46.240625 227.614335 
L 381.040625 227.614335 
L 381.040625 10.174335 
L 46.240625 10.174335 
z
" style="fill: #ffffff"/>
   </g>
   <g id="matplotlib.axis_1">
    <g id="xtick_1">
     <g id="line2d_1">
      <path d="M 61.458807 227.614335 
L 61.458807 10.174335 
" clip-path="url(#p1826964846)" style="fill: none; stroke: #cccccc; stroke-width: 0.8; stroke-linecap: round"/>
     </g>
     <g id="line2d_2"/>
     <g id="text_1">
      <!-- 0 -->
      <g style="fill: #262626" transform="translate(58.678338 238.272147)scale(0.1 -0.1)">
       <defs>
        <path id="ArialMT-30" d="M 266 2259 
Q 266 3072 433 3567 
Q 600 4063 929 4331 
Q 1259 4600 1759 4600 
Q 2128 4600 2406 4451 
Q 2684 4303 2865 4023 
Q 3047 3744 3150 3342 
Q 3253 2941 3253 2259 
Q 3253 1453 3087 958 
Q 2922 463 2592 192 
Q 2263 -78 1759 -78 
Q 1097 -78 719 397 
Q 266 969 266 2259 
z
M 844 2259 
Q 844 1131 1108 757 
Q 1372 384 1759 384 
Q 2147 384 2411 759 
Q 2675 1134 2675 2259 
Q 2675 3391 2411 3762 
Q 2147 4134 1753 4134 
Q 1366 4134 1134 3806 
Q 844 3388 844 2259 
z
" transform="scale(0.015625)"/>
       </defs>
       <use xlink:href="#ArialMT-30"/>
      </g>
     </g>
    </g>
    <g id="xtick_2">
     <g id="line2d_3">
      <path d="M 100.479786 227.614335 
L 100.479786 10.174335 
" clip-path="url(#p1826964846)" style="fill: none; stroke: #cccccc; stroke-width: 0.8; stroke-linecap: round"/>
     </g>
     <g id="line2d_4"/>
     <g id="text_2">
      <!-- 5 -->
      <g style="fill: #262626" transform="translate(97.699317 238.272147)scale(0.1 -0.1)">
       <defs>
        <path id="ArialMT-35" d="M 266 1200 
L 856 1250 
Q 922 819 1161 601 
Q 1400 384 1738 384 
Q 2144 384 2425 690 
Q 2706 997 2706 1503 
Q 2706 1984 2436 2262 
Q 2166 2541 1728 2541 
Q 1456 2541 1237 2417 
Q 1019 2294 894 2097 
L 366 2166 
L 809 4519 
L 3088 4519 
L 3088 3981 
L 1259 3981 
L 1013 2750 
Q 1425 3038 1878 3038 
Q 2478 3038 2890 2622 
Q 3303 2206 3303 1553 
Q 3303 931 2941 478 
Q 2500 -78 1738 -78 
Q 1113 -78 717 272 
Q 322 622 266 1200 
z
" transform="scale(0.015625)"/>
       </defs>
       <use xlink:href="#ArialMT-35"/>
      </g>
     </g>
    </g>
    <g id="xtick_3">
     <g id="line2d_5">
      <path d="M 139.500765 227.614335 
L 139.500765 10.174335 
" clip-path="url(#p1826964846)" style="fill: none; stroke: #cccccc; stroke-width: 0.8; stroke-linecap: round"/>
     </g>
     <g id="line2d_6"/>
     <g id="text_3">
      <!-- 10 -->
      <g style="fill: #262626" transform="translate(133.939827 238.272147)scale(0.1 -0.1)">
       <defs>
        <path id="ArialMT-31" d="M 2384 0 
L 1822 0 
L 1822 3584 
Q 1619 3391 1289 3197 
Q 959 3003 697 2906 
L 697 3450 
Q 1169 3672 1522 3987 
Q 1875 4303 2022 4600 
L 2384 4600 
L 2384 0 
z
" transform="scale(0.015625)"/>
       </defs>
       <use xlink:href="#ArialMT-31"/>
       <use xlink:href="#ArialMT-30" x="55.615234"/>
      </g>
     </g>
    </g>
    <g id="xtick_4">
     <g id="line2d_7">
      <path d="M 178.521744 227.614335 
L 178.521744 10.174335 
" clip-path="url(#p1826964846)" style="fill: none; stroke: #cccccc; stroke-width: 0.8; stroke-linecap: round"/>
     </g>
     <g id="line2d_8"/>
     <g id="text_4">
      <!-- 15 -->
      <g style="fill: #262626" transform="translate(172.960806 238.272147)scale(0.1 -0.1)">
       <use xlink:href="#ArialMT-31"/>
       <use xlink:href="#ArialMT-35" x="55.615234"/>
      </g>
     </g>
    </g>
    <g id="xtick_5">
     <g id="line2d_9">
      <path d="M 217.542723 227.614335 
L 217.542723 10.174335 
" clip-path="url(#p1826964846)" style="fill: none; stroke: #cccccc; stroke-width: 0.8; stroke-linecap: round"/>
     </g>
     <g id="line2d_10"/>
     <g id="text_5">
      <!-- 20 -->
      <g style="fill: #262626" transform="translate(211.981785 238.272147)scale(0.1 -0.1)">
       <defs>
        <path id="ArialMT-32" d="M 3222 541 
L 3222 0 
L 194 0 
Q 188 203 259 391 
Q 375 700 629 1000 
Q 884 1300 1366 1694 
Q 2113 2306 2375 2664 
Q 2638 3022 2638 3341 
Q 2638 3675 2398 3904 
Q 2159 4134 1775 4134 
Q 1369 4134 1125 3890 
Q 881 3647 878 3216 
L 300 3275 
Q 359 3922 746 4261 
Q 1134 4600 1788 4600 
Q 2447 4600 2831 4234 
Q 3216 3869 3216 3328 
Q 3216 3053 3103 2787 
Q 2991 2522 2730 2228 
Q 2469 1934 1863 1422 
Q 1356 997 1212 845 
Q 1069 694 975 541 
L 3222 541 
z
" transform="scale(0.015625)"/>
       </defs>
       <use xlink:href="#ArialMT-32"/>
       <use xlink:href="#ArialMT-30" x="55.615234"/>
      </g>
     </g>
    </g>
    <g id="xtick_6">
     <g id="line2d_11">
      <path d="M 256.563702 227.614335 
L 256.563702 10.174335 
" clip-path="url(#p1826964846)" style="fill: none; stroke: #cccccc; stroke-width: 0.8; stroke-linecap: round"/>
     </g>
     <g id="line2d_12"/>
     <g id="text_6">
      <!-- 25 -->
      <g style="fill: #262626" transform="translate(251.002764 238.272147)scale(0.1 -0.1)">
       <use xlink:href="#ArialMT-32"/>
       <use xlink:href="#ArialMT-35" x="55.615234"/>
      </g>
     </g>
    </g>
    <g id="xtick_7">
     <g id="line2d_13">
      <path d="M 295.584681 227.614335 
L 295.584681 10.174335 
" clip-path="url(#p1826964846)" style="fill: none; stroke: #cccccc; stroke-width: 0.8; stroke-linecap: round"/>
     </g>
     <g id="line2d_14"/>
     <g id="text_7">
      <!-- 30 -->
      <g style="fill: #262626" transform="translate(290.023743 238.272147)scale(0.1 -0.1)">
       <defs>
        <path id="ArialMT-33" d="M 269 1209 
L 831 1284 
Q 928 806 1161 595 
Q 1394 384 1728 384 
Q 2125 384 2398 659 
Q 2672 934 2672 1341 
Q 2672 1728 2419 1979 
Q 2166 2231 1775 2231 
Q 1616 2231 1378 2169 
L 1441 2663 
Q 1497 2656 1531 2656 
Q 1891 2656 2178 2843 
Q 2466 3031 2466 3422 
Q 2466 3731 2256 3934 
Q 2047 4138 1716 4138 
Q 1388 4138 1169 3931 
Q 950 3725 888 3313 
L 325 3413 
Q 428 3978 793 4289 
Q 1159 4600 1703 4600 
Q 2078 4600 2393 4439 
Q 2709 4278 2876 4000 
Q 3044 3722 3044 3409 
Q 3044 3113 2884 2869 
Q 2725 2625 2413 2481 
Q 2819 2388 3044 2092 
Q 3269 1797 3269 1353 
Q 3269 753 2831 336 
Q 2394 -81 1725 -81 
Q 1122 -81 723 278 
Q 325 638 269 1209 
z
" transform="scale(0.015625)"/>
       </defs>
       <use xlink:href="#ArialMT-33"/>
       <use xlink:href="#ArialMT-30" x="55.615234"/>
      </g>
     </g>
    </g>
    <g id="xtick_8">
     <g id="line2d_15">
      <path d="M 334.60566 227.614335 
L 334.60566 10.174335 
" clip-path="url(#p1826964846)" style="fill: none; stroke: #cccccc; stroke-width: 0.8; stroke-linecap: round"/>
     </g>
     <g id="line2d_16"/>
     <g id="text_8">
      <!-- 35 -->
      <g style="fill: #262626" transform="translate(329.044722 238.272147)scale(0.1 -0.1)">
       <use xlink:href="#ArialMT-33"/>
       <use xlink:href="#ArialMT-35" x="55.615234"/>
      </g>
     </g>
    </g>
    <g id="xtick_9">
     <g id="line2d_17">
      <path d="M 373.626639 227.614335 
L 373.626639 10.174335 
" clip-path="url(#p1826964846)" style="fill: none; stroke: #cccccc; stroke-width: 0.8; stroke-linecap: round"/>
     </g>
     <g id="line2d_18"/>
     <g id="text_9">
      <!-- 40 -->
      <g style="fill: #262626" transform="translate(368.065701 238.272147)scale(0.1 -0.1)">
       <defs>
        <path id="ArialMT-34" d="M 2069 0 
L 2069 1097 
L 81 1097 
L 81 1613 
L 2172 4581 
L 2631 4581 
L 2631 1613 
L 3250 1613 
L 3250 1097 
L 2631 1097 
L 2631 0 
L 2069 0 
z
M 2069 1613 
L 2069 3678 
L 634 1613 
L 2069 1613 
z
" transform="scale(0.015625)"/>
       </defs>
       <use xlink:href="#ArialMT-34"/>
       <use xlink:href="#ArialMT-30" x="55.615234"/>
      </g>
     </g>
    </g>
    <g id="text_10">
     <!-- Epoka -->
     <g style="fill: #262626" transform="translate(199.464063 251.41746)scale(0.1 -0.1)">
      <defs>
       <path id="ArialMT-45" d="M 506 0 
L 506 4581 
L 3819 4581 
L 3819 4041 
L 1113 4041 
L 1113 2638 
L 3647 2638 
L 3647 2100 
L 1113 2100 
L 1113 541 
L 3925 541 
L 3925 0 
L 506 0 
z
" transform="scale(0.015625)"/>
       <path id="ArialMT-70" d="M 422 -1272 
L 422 3319 
L 934 3319 
L 934 2888 
Q 1116 3141 1344 3267 
Q 1572 3394 1897 3394 
Q 2322 3394 2647 3175 
Q 2972 2956 3137 2557 
Q 3303 2159 3303 1684 
Q 3303 1175 3120 767 
Q 2938 359 2589 142 
Q 2241 -75 1856 -75 
Q 1575 -75 1351 44 
Q 1128 163 984 344 
L 984 -1272 
L 422 -1272 
z
M 931 1641 
Q 931 1000 1190 694 
Q 1450 388 1819 388 
Q 2194 388 2461 705 
Q 2728 1022 2728 1688 
Q 2728 2322 2467 2637 
Q 2206 2953 1844 2953 
Q 1484 2953 1207 2617 
Q 931 2281 931 1641 
z
" transform="scale(0.015625)"/>
       <path id="ArialMT-6f" d="M 213 1659 
Q 213 2581 725 3025 
Q 1153 3394 1769 3394 
Q 2453 3394 2887 2945 
Q 3322 2497 3322 1706 
Q 3322 1066 3130 698 
Q 2938 331 2570 128 
Q 2203 -75 1769 -75 
Q 1072 -75 642 372 
Q 213 819 213 1659 
z
M 791 1659 
Q 791 1022 1069 705 
Q 1347 388 1769 388 
Q 2188 388 2466 706 
Q 2744 1025 2744 1678 
Q 2744 2294 2464 2611 
Q 2184 2928 1769 2928 
Q 1347 2928 1069 2612 
Q 791 2297 791 1659 
z
" transform="scale(0.015625)"/>
       <path id="ArialMT-6b" d="M 425 0 
L 425 4581 
L 988 4581 
L 988 1969 
L 2319 3319 
L 3047 3319 
L 1778 2088 
L 3175 0 
L 2481 0 
L 1384 1697 
L 988 1316 
L 988 0 
L 425 0 
z
" transform="scale(0.015625)"/>
       <path id="ArialMT-61" d="M 2588 409 
Q 2275 144 1986 34 
Q 1697 -75 1366 -75 
Q 819 -75 525 192 
Q 231 459 231 875 
Q 231 1119 342 1320 
Q 453 1522 633 1644 
Q 813 1766 1038 1828 
Q 1203 1872 1538 1913 
Q 2219 1994 2541 2106 
Q 2544 2222 2544 2253 
Q 2544 2597 2384 2738 
Q 2169 2928 1744 2928 
Q 1347 2928 1158 2789 
Q 969 2650 878 2297 
L 328 2372 
Q 403 2725 575 2942 
Q 747 3159 1072 3276 
Q 1397 3394 1825 3394 
Q 2250 3394 2515 3294 
Q 2781 3194 2906 3042 
Q 3031 2891 3081 2659 
Q 3109 2516 3109 2141 
L 3109 1391 
Q 3109 606 3145 398 
Q 3181 191 3288 0 
L 2700 0 
Q 2613 175 2588 409 
z
M 2541 1666 
Q 2234 1541 1622 1453 
Q 1275 1403 1131 1340 
Q 988 1278 909 1158 
Q 831 1038 831 891 
Q 831 666 1001 516 
Q 1172 366 1500 366 
Q 1825 366 2078 508 
Q 2331 650 2450 897 
Q 2541 1088 2541 1459 
L 2541 1666 
z
" transform="scale(0.015625)"/>
      </defs>
      <use xlink:href="#ArialMT-45"/>
      <use xlink:href="#ArialMT-70" x="66.699219"/>
      <use xlink:href="#ArialMT-6f" x="122.314453"/>
      <use xlink:href="#ArialMT-6b" x="177.929688"/>
      <use xlink:href="#ArialMT-61" x="227.929688"/>
     </g>
    </g>
   </g>
   <g id="matplotlib.axis_2">
    <g id="ytick_1">
     <g id="line2d_19">
      <path d="M 46.240625 211.449477 
L 381.040625 211.449477 
" clip-path="url(#p1826964846)" style="fill: none; stroke: #cccccc; stroke-width: 0.8; stroke-linecap: round"/>
     </g>
     <g id="line2d_20"/>
     <g id="text_11">
      <!-- 200 -->
      <g style="fill: #262626" transform="translate(26.057813 215.028384)scale(0.1 -0.1)">
       <use xlink:href="#ArialMT-32"/>
       <use xlink:href="#ArialMT-30" x="55.615234"/>
       <use xlink:href="#ArialMT-30" x="111.230469"/>
      </g>
     </g>
    </g>
    <g id="ytick_2">
     <g id="line2d_21">
      <path d="M 46.240625 171.315363 
L 381.040625 171.315363 
" clip-path="url(#p1826964846)" style="fill: none; stroke: #cccccc; stroke-width: 0.8; stroke-linecap: round"/>
     </g>
     <g id="line2d_22"/>
     <g id="text_12">
      <!-- 400 -->
      <g style="fill: #262626" transform="translate(26.057813 174.894269)scale(0.1 -0.1)">
       <use xlink:href="#ArialMT-34"/>
       <use xlink:href="#ArialMT-30" x="55.615234"/>
       <use xlink:href="#ArialMT-30" x="111.230469"/>
      </g>
     </g>
    </g>
    <g id="ytick_3">
     <g id="line2d_23">
      <path d="M 46.240625 131.181249 
L 381.040625 131.181249 
" clip-path="url(#p1826964846)" style="fill: none; stroke: #cccccc; stroke-width: 0.8; stroke-linecap: round"/>
     </g>
     <g id="line2d_24"/>
     <g id="text_13">
      <!-- 600 -->
      <g style="fill: #262626" transform="translate(26.057813 134.760155)scale(0.1 -0.1)">
       <defs>
        <path id="ArialMT-36" d="M 3184 3459 
L 2625 3416 
Q 2550 3747 2413 3897 
Q 2184 4138 1850 4138 
Q 1581 4138 1378 3988 
Q 1113 3794 959 3422 
Q 806 3050 800 2363 
Q 1003 2672 1297 2822 
Q 1591 2972 1913 2972 
Q 2475 2972 2870 2558 
Q 3266 2144 3266 1488 
Q 3266 1056 3080 686 
Q 2894 316 2569 119 
Q 2244 -78 1831 -78 
Q 1128 -78 684 439 
Q 241 956 241 2144 
Q 241 3472 731 4075 
Q 1159 4600 1884 4600 
Q 2425 4600 2770 4297 
Q 3116 3994 3184 3459 
z
M 888 1484 
Q 888 1194 1011 928 
Q 1134 663 1356 523 
Q 1578 384 1822 384 
Q 2178 384 2434 671 
Q 2691 959 2691 1453 
Q 2691 1928 2437 2201 
Q 2184 2475 1800 2475 
Q 1419 2475 1153 2201 
Q 888 1928 888 1484 
z
" transform="scale(0.015625)"/>
       </defs>
       <use xlink:href="#ArialMT-36"/>
       <use xlink:href="#ArialMT-30" x="55.615234"/>
       <use xlink:href="#ArialMT-30" x="111.230469"/>
      </g>
     </g>
    </g>
    <g id="ytick_4">
     <g id="line2d_25">
      <path d="M 46.240625 91.047135 
L 381.040625 91.047135 
" clip-path="url(#p1826964846)" style="fill: none; stroke: #cccccc; stroke-width: 0.8; stroke-linecap: round"/>
     </g>
     <g id="line2d_26"/>
     <g id="text_14">
      <!-- 800 -->
      <g style="fill: #262626" transform="translate(26.057813 94.626041)scale(0.1 -0.1)">
       <defs>
        <path id="ArialMT-38" d="M 1131 2484 
Q 781 2613 612 2850 
Q 444 3088 444 3419 
Q 444 3919 803 4259 
Q 1163 4600 1759 4600 
Q 2359 4600 2725 4251 
Q 3091 3903 3091 3403 
Q 3091 3084 2923 2848 
Q 2756 2613 2416 2484 
Q 2838 2347 3058 2040 
Q 3278 1734 3278 1309 
Q 3278 722 2862 322 
Q 2447 -78 1769 -78 
Q 1091 -78 675 323 
Q 259 725 259 1325 
Q 259 1772 486 2073 
Q 713 2375 1131 2484 
z
M 1019 3438 
Q 1019 3113 1228 2906 
Q 1438 2700 1772 2700 
Q 2097 2700 2305 2904 
Q 2513 3109 2513 3406 
Q 2513 3716 2298 3927 
Q 2084 4138 1766 4138 
Q 1444 4138 1231 3931 
Q 1019 3725 1019 3438 
z
M 838 1322 
Q 838 1081 952 856 
Q 1066 631 1291 507 
Q 1516 384 1775 384 
Q 2178 384 2440 643 
Q 2703 903 2703 1303 
Q 2703 1709 2433 1975 
Q 2163 2241 1756 2241 
Q 1359 2241 1098 1978 
Q 838 1716 838 1322 
z
" transform="scale(0.015625)"/>
       </defs>
       <use xlink:href="#ArialMT-38"/>
       <use xlink:href="#ArialMT-30" x="55.615234"/>
       <use xlink:href="#ArialMT-30" x="111.230469"/>
      </g>
     </g>
    </g>
    <g id="ytick_5">
     <g id="line2d_27">
      <path d="M 46.240625 50.91302 
L 381.040625 50.91302 
" clip-path="url(#p1826964846)" style="fill: none; stroke: #cccccc; stroke-width: 0.8; stroke-linecap: round"/>
     </g>
     <g id="line2d_28"/>
     <g id="text_15">
      <!-- 1000 -->
      <g style="fill: #262626" transform="translate(20.496875 54.491927)scale(0.1 -0.1)">
       <use xlink:href="#ArialMT-31"/>
       <use xlink:href="#ArialMT-30" x="55.615234"/>
       <use xlink:href="#ArialMT-30" x="111.230469"/>
       <use xlink:href="#ArialMT-30" x="166.845703"/>
      </g>
     </g>
    </g>
    <g id="ytick_6">
     <g id="line2d_29">
      <path d="M 46.240625 10.778906 
L 381.040625 10.778906 
" clip-path="url(#p1826964846)" style="fill: none; stroke: #cccccc; stroke-width: 0.8; stroke-linecap: round"/>
     </g>
     <g id="line2d_30"/>
     <g id="text_16">
      <!-- 1200 -->
      <g style="fill: #262626" transform="translate(20.496875 14.357812)scale(0.1 -0.1)">
       <use xlink:href="#ArialMT-31"/>
       <use xlink:href="#ArialMT-32" x="55.615234"/>
       <use xlink:href="#ArialMT-30" x="111.230469"/>
       <use xlink:href="#ArialMT-30" x="166.845703"/>
      </g>
     </g>
    </g>
    <g id="text_17">
     <!-- Wartość błędu -->
     <g style="fill: #262626" transform="translate(14.396875 150.663085)rotate(-90)scale(0.1 -0.1)">
      <defs>
       <path id="ArialMT-57" d="M 1294 0 
L 78 4581 
L 700 4581 
L 1397 1578 
Q 1509 1106 1591 641 
Q 1766 1375 1797 1488 
L 2669 4581 
L 3400 4581 
L 4056 2263 
Q 4303 1400 4413 641 
Q 4500 1075 4641 1638 
L 5359 4581 
L 5969 4581 
L 4713 0 
L 4128 0 
L 3163 3491 
Q 3041 3928 3019 4028 
Q 2947 3713 2884 3491 
L 1913 0 
L 1294 0 
z
" transform="scale(0.015625)"/>
       <path id="ArialMT-72" d="M 416 0 
L 416 3319 
L 922 3319 
L 922 2816 
Q 1116 3169 1280 3281 
Q 1444 3394 1641 3394 
Q 1925 3394 2219 3213 
L 2025 2691 
Q 1819 2813 1613 2813 
Q 1428 2813 1281 2702 
Q 1134 2591 1072 2394 
Q 978 2094 978 1738 
L 978 0 
L 416 0 
z
" transform="scale(0.015625)"/>
       <path id="ArialMT-74" d="M 1650 503 
L 1731 6 
Q 1494 -44 1306 -44 
Q 1000 -44 831 53 
Q 663 150 594 308 
Q 525 466 525 972 
L 525 2881 
L 113 2881 
L 113 3319 
L 525 3319 
L 525 4141 
L 1084 4478 
L 1084 3319 
L 1650 3319 
L 1650 2881 
L 1084 2881 
L 1084 941 
Q 1084 700 1114 631 
Q 1144 563 1211 522 
Q 1278 481 1403 481 
Q 1497 481 1650 503 
z
" transform="scale(0.015625)"/>
       <path id="ArialMT-15b" d="M 197 991 
L 753 1078 
Q 800 744 1014 566 
Q 1228 388 1613 388 
Q 2000 388 2187 545 
Q 2375 703 2375 916 
Q 2375 1106 2209 1216 
Q 2094 1291 1634 1406 
Q 1016 1563 777 1677 
Q 538 1791 414 1992 
Q 291 2194 291 2438 
Q 291 2659 392 2848 
Q 494 3038 669 3163 
Q 800 3259 1026 3326 
Q 1253 3394 1513 3394 
Q 1903 3394 2198 3281 
Q 2494 3169 2634 2976 
Q 2775 2784 2828 2463 
L 2278 2388 
Q 2241 2644 2061 2787 
Q 1881 2931 1553 2931 
Q 1166 2931 1000 2803 
Q 834 2675 834 2503 
Q 834 2394 903 2306 
Q 972 2216 1119 2156 
Q 1203 2125 1616 2013 
Q 2213 1853 2448 1751 
Q 2684 1650 2818 1456 
Q 2953 1263 2953 975 
Q 2953 694 2789 445 
Q 2625 197 2315 61 
Q 2006 -75 1616 -75 
Q 969 -75 630 194 
Q 291 463 197 991 
z
M 1231 3731 
L 1647 4606 
L 2384 4606 
L 1697 3731 
L 1231 3731 
z
" transform="scale(0.015625)"/>
       <path id="ArialMT-107" d="M 2588 1216 
L 3141 1144 
Q 3050 572 2676 248 
Q 2303 -75 1759 -75 
Q 1078 -75 664 370 
Q 250 816 250 1647 
Q 250 2184 428 2587 
Q 606 2991 970 3192 
Q 1334 3394 1763 3394 
Q 2303 3394 2647 3120 
Q 2991 2847 3088 2344 
L 2541 2259 
Q 2463 2594 2264 2762 
Q 2066 2931 1784 2931 
Q 1359 2931 1093 2626 
Q 828 2322 828 1663 
Q 828 994 1084 691 
Q 1341 388 1753 388 
Q 2084 388 2306 591 
Q 2528 794 2588 1216 
z
M 1325 3731 
L 1741 4606 
L 2478 4606 
L 1791 3731 
L 1325 3731 
z
" transform="scale(0.015625)"/>
       <path id="ArialMT-20" transform="scale(0.015625)"/>
       <path id="ArialMT-62" d="M 941 0 
L 419 0 
L 419 4581 
L 981 4581 
L 981 2947 
Q 1338 3394 1891 3394 
Q 2197 3394 2470 3270 
Q 2744 3147 2920 2923 
Q 3097 2700 3197 2384 
Q 3297 2069 3297 1709 
Q 3297 856 2875 390 
Q 2453 -75 1863 -75 
Q 1275 -75 941 416 
L 941 0 
z
M 934 1684 
Q 934 1088 1097 822 
Q 1363 388 1816 388 
Q 2184 388 2453 708 
Q 2722 1028 2722 1663 
Q 2722 2313 2464 2622 
Q 2206 2931 1841 2931 
Q 1472 2931 1203 2611 
Q 934 2291 934 1684 
z
" transform="scale(0.015625)"/>
       <path id="ArialMT-142" d="M 416 1794 
L 9 1450 
L 9 1944 
L 416 2288 
L 416 4581 
L 975 4581 
L 975 2763 
L 1397 3122 
L 1397 2631 
L 975 2272 
L 975 0 
L 416 0 
L 416 1794 
z
" transform="scale(0.015625)"/>
       <path id="ArialMT-119" d="M 2694 1069 
L 3275 997 
Q 3138 488 2766 206 
Q 2394 -75 1816 -75 
Q 1088 -75 661 373 
Q 234 822 234 1631 
Q 234 2469 665 2931 
Q 1097 3394 1784 3394 
Q 2450 3394 2872 2941 
Q 3294 2488 3294 1666 
Q 3294 1616 3291 1516 
L 816 1516 
Q 847 969 1125 678 
Q 1403 388 1819 388 
Q 2128 388 2347 550 
Q 2566 713 2694 1069 
z
M 847 1978 
L 2700 1978 
Q 2663 2397 2488 2606 
Q 2219 2931 1791 2931 
Q 1403 2931 1139 2672 
Q 875 2413 847 1978 
z
M 2297 0 
Q 2119 -109 2020 -270 
Q 1922 -431 1922 -597 
Q 1922 -728 1994 -818 
Q 2066 -909 2228 -909 
Q 2300 -909 2375 -889 
Q 2450 -869 2513 -834 
L 2513 -1234 
Q 2284 -1344 2088 -1344 
Q 1928 -1344 1809 -1298 
Q 1691 -1253 1611 -1173 
Q 1531 -1094 1492 -991 
Q 1453 -888 1453 -769 
Q 1453 -569 1565 -367 
Q 1678 -166 1884 0 
L 2297 0 
z
" transform="scale(0.015625)"/>
       <path id="ArialMT-64" d="M 2575 0 
L 2575 419 
Q 2259 -75 1647 -75 
Q 1250 -75 917 144 
Q 584 363 401 755 
Q 219 1147 219 1656 
Q 219 2153 384 2558 
Q 550 2963 881 3178 
Q 1213 3394 1622 3394 
Q 1922 3394 2156 3267 
Q 2391 3141 2538 2938 
L 2538 4581 
L 3097 4581 
L 3097 0 
L 2575 0 
z
M 797 1656 
Q 797 1019 1065 703 
Q 1334 388 1700 388 
Q 2069 388 2326 689 
Q 2584 991 2584 1609 
Q 2584 2291 2321 2609 
Q 2059 2928 1675 2928 
Q 1300 2928 1048 2622 
Q 797 2316 797 1656 
z
" transform="scale(0.015625)"/>
       <path id="ArialMT-75" d="M 2597 0 
L 2597 488 
Q 2209 -75 1544 -75 
Q 1250 -75 995 37 
Q 741 150 617 320 
Q 494 491 444 738 
Q 409 903 409 1263 
L 409 3319 
L 972 3319 
L 972 1478 
Q 972 1038 1006 884 
Q 1059 663 1231 536 
Q 1403 409 1656 409 
Q 1909 409 2131 539 
Q 2353 669 2445 892 
Q 2538 1116 2538 1541 
L 2538 3319 
L 3100 3319 
L 3100 0 
L 2597 0 
z
" transform="scale(0.015625)"/>
      </defs>
      <use xlink:href="#ArialMT-57"/>
      <use xlink:href="#ArialMT-61" x="90.634766"/>
      <use xlink:href="#ArialMT-72" x="146.25"/>
      <use xlink:href="#ArialMT-74" x="179.550781"/>
      <use xlink:href="#ArialMT-6f" x="207.333984"/>
      <use xlink:href="#ArialMT-15b" x="262.949219"/>
      <use xlink:href="#ArialMT-107" x="312.949219"/>
      <use xlink:href="#ArialMT-20" x="362.949219"/>
      <use xlink:href="#ArialMT-62" x="390.732422"/>
      <use xlink:href="#ArialMT-142" x="446.347656"/>
      <use xlink:href="#ArialMT-119" x="468.564453"/>
      <use xlink:href="#ArialMT-64" x="524.179688"/>
      <use xlink:href="#ArialMT-75" x="579.794922"/>
     </g>
    </g>
   </g>
   <g id="line2d_31">
    <path d="M 61.458807 22.501922 
L 69.263003 41.685649 
L 77.067198 61.712679 
L 84.871394 77.089119 
L 92.67559 91.369026 
L 100.479786 102.814292 
L 108.283982 113.007435 
L 116.088177 122.444316 
L 123.892373 131.482738 
L 131.696569 138.472185 
L 139.500765 144.478494 
L 147.304961 149.829292 
L 155.109156 154.687206 
L 162.913352 159.441041 
L 170.717548 163.553503 
L 178.521744 167.921953 
L 186.32594 170.809112 
L 194.130135 174.183568 
L 201.934331 177.08337 
L 209.738527 180.240554 
L 217.542723 183.121179 
L 225.346919 185.308189 
L 233.151115 188.20921 
L 240.95531 190.290563 
L 248.759506 192.623531 
L 256.563702 194.207162 
L 264.367898 196.297177 
L 272.172094 198.262264 
L 279.976289 200.053112 
L 287.780485 202.081158 
L 295.584681 203.112137 
L 303.388877 204.463361 
L 311.193073 206.725583 
L 318.997268 207.708137 
L 326.801464 208.951186 
L 334.60566 210.171394 
L 342.409856 211.116813 
L 350.214052 212.079003 
L 358.018247 213.118995 
L 365.822443 213.5761 
" clip-path="url(#p1826964846)" style="fill: none; stroke: #1f77b4; stroke-width: 1.5; stroke-linecap: round"/>
   </g>
   <g id="line2d_32">
    <path d="M 61.458807 20.10062 
L 69.263003 20.414735 
L 77.067198 20.50833 
L 84.871394 20.536708 
L 92.67559 20.545041 
L 100.479786 20.546253 
L 108.283982 20.547106 
L 116.088177 20.547236 
L 123.892373 20.547646 
L 131.696569 20.547127 
L 139.500765 20.546937 
L 147.304961 20.547693 
L 155.109156 20.546602 
L 162.913352 20.5466 
L 170.717548 20.547254 
L 178.521744 20.547012 
L 186.32594 20.546959 
L 194.130135 20.547509 
L 201.934331 20.547515 
L 209.738527 20.546869 
L 217.542723 20.547821 
L 225.346919 20.547577 
L 233.151115 20.549034 
L 240.95531 20.549225 
L 248.759506 20.55082 
L 256.563702 20.556076 
L 264.367898 20.582405 
L 272.172094 22.530008 
L 279.976289 28.845238 
L 287.780485 32.553655 
L 295.584681 41.402375 
L 303.388877 47.867331 
L 311.193073 56.442441 
L 318.997268 68.936756 
L 326.801464 77.746213 
L 334.60566 86.105846 
L 342.409856 94.474236 
L 350.214052 103.08679 
L 358.018247 111.717651 
L 365.822443 120.161809 
" clip-path="url(#p1826964846)" style="fill: none; stroke: #ff7f0e; stroke-width: 1.5; stroke-linecap: round"/>
   </g>
   <g id="line2d_33">
    <path d="M 61.458807 20.057971 
L 69.263003 20.409966 
L 77.067198 20.518996 
L 84.871394 20.565782 
L 92.67559 20.642427 
L 100.479786 21.743533 
L 108.283982 28.362865 
L 116.088177 36.39847 
L 123.892373 45.141704 
L 131.696569 55.614948 
L 139.500765 64.61448 
L 147.304961 73.127621 
L 155.109156 81.241936 
L 162.913352 89.507178 
L 170.717548 98.165038 
L 178.521744 105.898587 
L 186.32594 114.100829 
L 194.130135 122.221766 
L 201.934331 128.941352 
L 209.738527 134.3399 
L 217.542723 140.503958 
L 225.346919 145.065157 
L 233.151115 150.105351 
L 240.95531 153.903418 
L 248.759506 157.860816 
L 256.563702 161.203318 
L 264.367898 164.908826 
L 272.172094 167.792815 
L 279.976289 171.024847 
L 287.780485 173.85621 
L 295.584681 176.784576 
L 303.388877 178.842983 
L 311.193073 181.722328 
L 318.997268 183.479929 
L 326.801464 185.903776 
L 334.60566 188.713979 
L 342.409856 190.187532 
L 350.214052 191.974269 
L 358.018247 194.012901 
L 365.822443 195.85739 
" clip-path="url(#p1826964846)" style="fill: none; stroke: #2ca02c; stroke-width: 1.5; stroke-linecap: round"/>
   </g>
   <g id="line2d_34">
    <path d="M 61.458807 33.245531 
L 69.263003 65.399948 
L 77.067198 90.713885 
L 84.871394 105.867758 
L 92.67559 118.355252 
L 100.479786 128.80291 
L 108.283982 137.50216 
L 116.088177 144.651524 
L 123.892373 150.577944 
L 131.696569 155.600626 
L 139.500765 160.244986 
L 147.304961 164.999566 
L 155.109156 168.699312 
L 162.913352 172.599284 
L 170.717548 175.921959 
L 178.521744 179.162914 
L 186.32594 182.491093 
L 194.130135 184.391437 
L 201.934331 187.973466 
L 209.738527 190.013875 
L 217.542723 193.136358 
L 225.346919 194.962071 
L 233.151115 197.117433 
L 240.95531 199.108913 
L 248.759506 201.253147 
L 256.563702 203.007663 
L 264.367898 205.19675 
L 272.172094 206.235131 
L 279.976289 207.496672 
L 287.780485 208.661364 
L 295.584681 210.086811 
L 303.388877 211.236133 
L 311.193073 212.556042 
L 318.997268 213.371911 
L 326.801464 214.424328 
L 334.60566 214.89621 
L 342.409856 216.403514 
L 350.214052 216.49109 
L 358.018247 217.553516 
L 365.822443 217.730698 
" clip-path="url(#p1826964846)" style="fill: none; stroke: #d62728; stroke-width: 1.5; stroke-linecap: round"/>
   </g>
   <g id="line2d_35">
    <path d="M 61.458807 39.657891 
L 69.263003 77.417183 
L 77.067198 99.7158 
L 84.871394 114.537319 
L 92.67559 125.927594 
L 100.479786 135.230796 
L 108.283982 142.825591 
L 116.088177 149.523725 
L 123.892373 154.673375 
L 131.696569 159.844355 
L 139.500765 163.623131 
L 147.304961 167.989921 
L 155.109156 171.438976 
L 162.913352 175.071768 
L 170.717548 178.354947 
L 178.521744 181.588421 
L 186.32594 184.293621 
L 194.130135 187.030679 
L 201.934331 189.145615 
L 209.738527 191.578793 
L 217.542723 194.210436 
L 225.346919 195.916745 
L 233.151115 197.96884 
L 240.95531 199.549642 
L 248.759506 201.535385 
L 256.563702 203.402831 
L 264.367898 205.226459 
L 272.172094 205.69347 
L 279.976289 207.413693 
L 287.780485 208.297933 
L 295.584681 210.144237 
L 303.388877 210.654954 
L 311.193073 212.166545 
L 318.997268 213.369253 
L 326.801464 213.289678 
L 334.60566 213.906332 
L 342.409856 215.282566 
L 350.214052 215.463406 
L 358.018247 216.472194 
L 365.822443 216.206041 
" clip-path="url(#p1826964846)" style="fill: none; stroke: #9467bd; stroke-width: 1.5; stroke-linecap: round"/>
   </g>
   <g id="line2d_36">
    <path d="M 61.458807 38.460838 
L 69.263003 76.150958 
L 77.067198 100.050382 
L 84.871394 113.757909 
L 92.67559 124.446375 
L 100.479786 133.341161 
L 108.283982 140.722179 
L 116.088177 147.010687 
L 123.892373 152.19079 
L 131.696569 156.626051 
L 139.500765 161.449184 
L 147.304961 164.553733 
L 155.109156 168.210014 
L 162.913352 172.143624 
L 170.717548 174.646028 
L 178.521744 178.182975 
L 186.32594 181.304049 
L 194.130135 183.375569 
L 201.934331 184.878267 
L 209.738527 188.055356 
L 217.542723 189.467596 
L 225.346919 191.883944 
L 233.151115 193.932935 
L 240.95531 195.375529 
L 248.759506 196.485339 
L 256.563702 198.827554 
L 264.367898 200.202975 
L 272.172094 200.718737 
L 279.976289 202.717423 
L 287.780485 203.317211 
L 295.584681 204.514643 
L 303.388877 205.908932 
L 311.193073 206.347975 
L 318.997268 206.947433 
L 326.801464 208.862666 
L 334.60566 209.334885 
L 342.409856 210.089436 
L 350.214052 210.048564 
L 358.018247 210.509078 
L 365.822443 211.466272 
" clip-path="url(#p1826964846)" style="fill: none; stroke: #8c564b; stroke-width: 1.5; stroke-linecap: round"/>
   </g>
   <g id="line2d_37">
    <path d="M 61.458807 54.490957 
L 69.263003 97.31874 
L 77.067198 121.084921 
L 84.871394 136.674862 
L 92.67559 148.138965 
L 100.479786 156.641295 
L 108.283982 162.602616 
L 116.088177 167.934164 
L 123.892373 171.042427 
L 131.696569 174.838106 
L 139.500765 176.757604 
L 147.304961 179.204382 
L 155.109156 180.671876 
L 162.913352 181.907859 
L 170.717548 182.087439 
L 178.521744 183.183043 
L 186.32594 183.93178 
L 194.130135 182.809526 
L 201.934331 184.485399 
L 209.738527 184.811794 
L 217.542723 184.792683 
L 225.346919 184.782141 
L 233.151115 184.752008 
L 240.95531 184.810084 
L 248.759506 184.939495 
L 256.563702 184.62398 
L 264.367898 185.553976 
L 272.172094 185.016705 
L 279.976289 184.778896 
L 287.780485 184.369486 
L 295.584681 186.02146 
L 303.388877 183.756077 
L 311.193073 183.53231 
L 318.997268 183.487828 
L 326.801464 181.990849 
L 334.60566 182.571483 
L 342.409856 182.276328 
L 350.214052 182.324331 
L 358.018247 180.701918 
L 365.822443 180.641382 
" clip-path="url(#p1826964846)" style="fill: none; stroke: #e377c2; stroke-width: 1.5; stroke-linecap: round"/>
   </g>
   <g id="patch_3">
    <path d="M 46.240625 227.614335 
L 46.240625 10.174335 
" style="fill: none; stroke: #cccccc; stroke-linejoin: miter; stroke-linecap: square"/>
   </g>
   <g id="patch_4">
    <path d="M 381.040625 227.614335 
L 381.040625 10.174335 
" style="fill: none; stroke: #cccccc; stroke-linejoin: miter; stroke-linecap: square"/>
   </g>
   <g id="patch_5">
    <path d="M 46.240625 227.614335 
L 381.040625 227.614335 
" style="fill: none; stroke: #cccccc; stroke-linejoin: miter; stroke-linecap: square"/>
   </g>
   <g id="patch_6">
    <path d="M 46.240625 10.174335 
L 381.040625 10.174335 
" style="fill: none; stroke: #cccccc; stroke-linejoin: miter; stroke-linecap: square"/>
   </g>
   <g id="legend_1">
    <g id="line2d_38">
     <path d="M 390.040625 75.180272 
L 400.040625 75.180272 
L 410.040625 75.180272 
" style="fill: none; stroke: #1f77b4; stroke-width: 1.5; stroke-linecap: round"/>
    </g>
    <g id="text_18">
     <!-- xavier_uniform -->
     <g style="fill: #262626" transform="translate(418.040625 78.680272)scale(0.1 -0.1)">
      <defs>
       <path id="ArialMT-78" d="M 47 0 
L 1259 1725 
L 138 3319 
L 841 3319 
L 1350 2541 
Q 1494 2319 1581 2169 
Q 1719 2375 1834 2534 
L 2394 3319 
L 3066 3319 
L 1919 1756 
L 3153 0 
L 2463 0 
L 1781 1031 
L 1600 1309 
L 728 0 
L 47 0 
z
" transform="scale(0.015625)"/>
       <path id="ArialMT-76" d="M 1344 0 
L 81 3319 
L 675 3319 
L 1388 1331 
Q 1503 1009 1600 663 
Q 1675 925 1809 1294 
L 2547 3319 
L 3125 3319 
L 1869 0 
L 1344 0 
z
" transform="scale(0.015625)"/>
       <path id="ArialMT-69" d="M 425 3934 
L 425 4581 
L 988 4581 
L 988 3934 
L 425 3934 
z
M 425 0 
L 425 3319 
L 988 3319 
L 988 0 
L 425 0 
z
" transform="scale(0.015625)"/>
       <path id="ArialMT-65" d="M 2694 1069 
L 3275 997 
Q 3138 488 2766 206 
Q 2394 -75 1816 -75 
Q 1088 -75 661 373 
Q 234 822 234 1631 
Q 234 2469 665 2931 
Q 1097 3394 1784 3394 
Q 2450 3394 2872 2941 
Q 3294 2488 3294 1666 
Q 3294 1616 3291 1516 
L 816 1516 
Q 847 969 1125 678 
Q 1403 388 1819 388 
Q 2128 388 2347 550 
Q 2566 713 2694 1069 
z
M 847 1978 
L 2700 1978 
Q 2663 2397 2488 2606 
Q 2219 2931 1791 2931 
Q 1403 2931 1139 2672 
Q 875 2413 847 1978 
z
" transform="scale(0.015625)"/>
       <path id="ArialMT-5f" d="M -97 -1272 
L -97 -866 
L 3631 -866 
L 3631 -1272 
L -97 -1272 
z
" transform="scale(0.015625)"/>
       <path id="ArialMT-6e" d="M 422 0 
L 422 3319 
L 928 3319 
L 928 2847 
Q 1294 3394 1984 3394 
Q 2284 3394 2536 3286 
Q 2788 3178 2913 3003 
Q 3038 2828 3088 2588 
Q 3119 2431 3119 2041 
L 3119 0 
L 2556 0 
L 2556 2019 
Q 2556 2363 2490 2533 
Q 2425 2703 2258 2804 
Q 2091 2906 1866 2906 
Q 1506 2906 1245 2678 
Q 984 2450 984 1813 
L 984 0 
L 422 0 
z
" transform="scale(0.015625)"/>
       <path id="ArialMT-66" d="M 556 0 
L 556 2881 
L 59 2881 
L 59 3319 
L 556 3319 
L 556 3672 
Q 556 4006 616 4169 
Q 697 4388 901 4523 
Q 1106 4659 1475 4659 
Q 1713 4659 2000 4603 
L 1916 4113 
Q 1741 4144 1584 4144 
Q 1328 4144 1222 4034 
Q 1116 3925 1116 3625 
L 1116 3319 
L 1763 3319 
L 1763 2881 
L 1116 2881 
L 1116 0 
L 556 0 
z
" transform="scale(0.015625)"/>
       <path id="ArialMT-6d" d="M 422 0 
L 422 3319 
L 925 3319 
L 925 2853 
Q 1081 3097 1340 3245 
Q 1600 3394 1931 3394 
Q 2300 3394 2536 3241 
Q 2772 3088 2869 2813 
Q 3263 3394 3894 3394 
Q 4388 3394 4653 3120 
Q 4919 2847 4919 2278 
L 4919 0 
L 4359 0 
L 4359 2091 
Q 4359 2428 4304 2576 
Q 4250 2725 4106 2815 
Q 3963 2906 3769 2906 
Q 3419 2906 3187 2673 
Q 2956 2441 2956 1928 
L 2956 0 
L 2394 0 
L 2394 2156 
Q 2394 2531 2256 2718 
Q 2119 2906 1806 2906 
Q 1569 2906 1367 2781 
Q 1166 2656 1075 2415 
Q 984 2175 984 1722 
L 984 0 
L 422 0 
z
" transform="scale(0.015625)"/>
      </defs>
      <use xlink:href="#ArialMT-78"/>
      <use xlink:href="#ArialMT-61" x="50"/>
      <use xlink:href="#ArialMT-76" x="105.615234"/>
      <use xlink:href="#ArialMT-69" x="155.615234"/>
      <use xlink:href="#ArialMT-65" x="177.832031"/>
      <use xlink:href="#ArialMT-72" x="233.447266"/>
      <use xlink:href="#ArialMT-5f" x="266.748047"/>
      <use xlink:href="#ArialMT-75" x="322.363281"/>
      <use xlink:href="#ArialMT-6e" x="377.978516"/>
      <use xlink:href="#ArialMT-69" x="433.59375"/>
      <use xlink:href="#ArialMT-66" x="455.810547"/>
      <use xlink:href="#ArialMT-6f" x="483.59375"/>
      <use xlink:href="#ArialMT-72" x="539.208984"/>
      <use xlink:href="#ArialMT-6d" x="572.509766"/>
     </g>
    </g>
    <g id="line2d_39">
     <path d="M 390.040625 89.44746 
L 400.040625 89.44746 
L 410.040625 89.44746 
" style="fill: none; stroke: #ff7f0e; stroke-width: 1.5; stroke-linecap: round"/>
    </g>
    <g id="text_19">
     <!-- xavier_uniform_M_1 -->
     <g style="fill: #262626" transform="translate(418.040625 92.94746)scale(0.1 -0.1)">
      <defs>
       <path id="ArialMT-4d" d="M 475 0 
L 475 4581 
L 1388 4581 
L 2472 1338 
Q 2622 884 2691 659 
Q 2769 909 2934 1394 
L 4031 4581 
L 4847 4581 
L 4847 0 
L 4263 0 
L 4263 3834 
L 2931 0 
L 2384 0 
L 1059 3900 
L 1059 0 
L 475 0 
z
" transform="scale(0.015625)"/>
      </defs>
      <use xlink:href="#ArialMT-78"/>
      <use xlink:href="#ArialMT-61" x="50"/>
      <use xlink:href="#ArialMT-76" x="105.615234"/>
      <use xlink:href="#ArialMT-69" x="155.615234"/>
      <use xlink:href="#ArialMT-65" x="177.832031"/>
      <use xlink:href="#ArialMT-72" x="233.447266"/>
      <use xlink:href="#ArialMT-5f" x="266.748047"/>
      <use xlink:href="#ArialMT-75" x="322.363281"/>
      <use xlink:href="#ArialMT-6e" x="377.978516"/>
      <use xlink:href="#ArialMT-69" x="433.59375"/>
      <use xlink:href="#ArialMT-66" x="455.810547"/>
      <use xlink:href="#ArialMT-6f" x="483.59375"/>
      <use xlink:href="#ArialMT-72" x="539.208984"/>
      <use xlink:href="#ArialMT-6d" x="572.509766"/>
      <use xlink:href="#ArialMT-5f" x="655.810547"/>
      <use xlink:href="#ArialMT-4d" x="711.425781"/>
      <use xlink:href="#ArialMT-5f" x="794.726562"/>
      <use xlink:href="#ArialMT-31" x="850.341797"/>
     </g>
    </g>
    <g id="line2d_40">
     <path d="M 390.040625 103.714647 
L 400.040625 103.714647 
L 410.040625 103.714647 
" style="fill: none; stroke: #2ca02c; stroke-width: 1.5; stroke-linecap: round"/>
    </g>
    <g id="text_20">
     <!-- xavier_uniform_M_2 -->
     <g style="fill: #262626" transform="translate(418.040625 107.214647)scale(0.1 -0.1)">
      <use xlink:href="#ArialMT-78"/>
      <use xlink:href="#ArialMT-61" x="50"/>
      <use xlink:href="#ArialMT-76" x="105.615234"/>
      <use xlink:href="#ArialMT-69" x="155.615234"/>
      <use xlink:href="#ArialMT-65" x="177.832031"/>
      <use xlink:href="#ArialMT-72" x="233.447266"/>
      <use xlink:href="#ArialMT-5f" x="266.748047"/>
      <use xlink:href="#ArialMT-75" x="322.363281"/>
      <use xlink:href="#ArialMT-6e" x="377.978516"/>
      <use xlink:href="#ArialMT-69" x="433.59375"/>
      <use xlink:href="#ArialMT-66" x="455.810547"/>
      <use xlink:href="#ArialMT-6f" x="483.59375"/>
      <use xlink:href="#ArialMT-72" x="539.208984"/>
      <use xlink:href="#ArialMT-6d" x="572.509766"/>
      <use xlink:href="#ArialMT-5f" x="655.810547"/>
      <use xlink:href="#ArialMT-4d" x="711.425781"/>
      <use xlink:href="#ArialMT-5f" x="794.726562"/>
      <use xlink:href="#ArialMT-32" x="850.341797"/>
     </g>
    </g>
    <g id="line2d_41">
     <path d="M 390.040625 117.981835 
L 400.040625 117.981835 
L 410.040625 117.981835 
" style="fill: none; stroke: #d62728; stroke-width: 1.5; stroke-linecap: round"/>
    </g>
    <g id="text_21">
     <!-- xavier_uniform_M_10 -->
     <g style="fill: #262626" transform="translate(418.040625 121.481835)scale(0.1 -0.1)">
      <use xlink:href="#ArialMT-78"/>
      <use xlink:href="#ArialMT-61" x="50"/>
      <use xlink:href="#ArialMT-76" x="105.615234"/>
      <use xlink:href="#ArialMT-69" x="155.615234"/>
      <use xlink:href="#ArialMT-65" x="177.832031"/>
      <use xlink:href="#ArialMT-72" x="233.447266"/>
      <use xlink:href="#ArialMT-5f" x="266.748047"/>
      <use xlink:href="#ArialMT-75" x="322.363281"/>
      <use xlink:href="#ArialMT-6e" x="377.978516"/>
      <use xlink:href="#ArialMT-69" x="433.59375"/>
      <use xlink:href="#ArialMT-66" x="455.810547"/>
      <use xlink:href="#ArialMT-6f" x="483.59375"/>
      <use xlink:href="#ArialMT-72" x="539.208984"/>
      <use xlink:href="#ArialMT-6d" x="572.509766"/>
      <use xlink:href="#ArialMT-5f" x="655.810547"/>
      <use xlink:href="#ArialMT-4d" x="711.425781"/>
      <use xlink:href="#ArialMT-5f" x="794.726562"/>
      <use xlink:href="#ArialMT-31" x="850.341797"/>
      <use xlink:href="#ArialMT-30" x="905.957031"/>
     </g>
    </g>
    <g id="line2d_42">
     <path d="M 390.040625 132.249022 
L 400.040625 132.249022 
L 410.040625 132.249022 
" style="fill: none; stroke: #9467bd; stroke-width: 1.5; stroke-linecap: round"/>
    </g>
    <g id="text_22">
     <!-- xavier_uniform_M_14 -->
     <g style="fill: #262626" transform="translate(418.040625 135.749022)scale(0.1 -0.1)">
      <use xlink:href="#ArialMT-78"/>
      <use xlink:href="#ArialMT-61" x="50"/>
      <use xlink:href="#ArialMT-76" x="105.615234"/>
      <use xlink:href="#ArialMT-69" x="155.615234"/>
      <use xlink:href="#ArialMT-65" x="177.832031"/>
      <use xlink:href="#ArialMT-72" x="233.447266"/>
      <use xlink:href="#ArialMT-5f" x="266.748047"/>
      <use xlink:href="#ArialMT-75" x="322.363281"/>
      <use xlink:href="#ArialMT-6e" x="377.978516"/>
      <use xlink:href="#ArialMT-69" x="433.59375"/>
      <use xlink:href="#ArialMT-66" x="455.810547"/>
      <use xlink:href="#ArialMT-6f" x="483.59375"/>
      <use xlink:href="#ArialMT-72" x="539.208984"/>
      <use xlink:href="#ArialMT-6d" x="572.509766"/>
      <use xlink:href="#ArialMT-5f" x="655.810547"/>
      <use xlink:href="#ArialMT-4d" x="711.425781"/>
      <use xlink:href="#ArialMT-5f" x="794.726562"/>
      <use xlink:href="#ArialMT-31" x="850.341797"/>
      <use xlink:href="#ArialMT-34" x="905.957031"/>
     </g>
    </g>
    <g id="line2d_43">
     <path d="M 390.040625 146.51621 
L 400.040625 146.51621 
L 410.040625 146.51621 
" style="fill: none; stroke: #8c564b; stroke-width: 1.5; stroke-linecap: round"/>
    </g>
    <g id="text_23">
     <!-- xavier_uniform_M_20 -->
     <g style="fill: #262626" transform="translate(418.040625 150.01621)scale(0.1 -0.1)">
      <use xlink:href="#ArialMT-78"/>
      <use xlink:href="#ArialMT-61" x="50"/>
      <use xlink:href="#ArialMT-76" x="105.615234"/>
      <use xlink:href="#ArialMT-69" x="155.615234"/>
      <use xlink:href="#ArialMT-65" x="177.832031"/>
      <use xlink:href="#ArialMT-72" x="233.447266"/>
      <use xlink:href="#ArialMT-5f" x="266.748047"/>
      <use xlink:href="#ArialMT-75" x="322.363281"/>
      <use xlink:href="#ArialMT-6e" x="377.978516"/>
      <use xlink:href="#ArialMT-69" x="433.59375"/>
      <use xlink:href="#ArialMT-66" x="455.810547"/>
      <use xlink:href="#ArialMT-6f" x="483.59375"/>
      <use xlink:href="#ArialMT-72" x="539.208984"/>
      <use xlink:href="#ArialMT-6d" x="572.509766"/>
      <use xlink:href="#ArialMT-5f" x="655.810547"/>
      <use xlink:href="#ArialMT-4d" x="711.425781"/>
      <use xlink:href="#ArialMT-5f" x="794.726562"/>
      <use xlink:href="#ArialMT-32" x="850.341797"/>
      <use xlink:href="#ArialMT-30" x="905.957031"/>
     </g>
    </g>
    <g id="line2d_44">
     <path d="M 390.040625 160.783397 
L 400.040625 160.783397 
L 410.040625 160.783397 
" style="fill: none; stroke: #e377c2; stroke-width: 1.5; stroke-linecap: round"/>
    </g>
    <g id="text_24">
     <!-- kaiming_uniform -->
     <g style="fill: #262626" transform="translate(418.040625 164.283397)scale(0.1 -0.1)">
      <defs>
       <path id="ArialMT-67" d="M 319 -275 
L 866 -356 
Q 900 -609 1056 -725 
Q 1266 -881 1628 -881 
Q 2019 -881 2231 -725 
Q 2444 -569 2519 -288 
Q 2563 -116 2559 434 
Q 2191 0 1641 0 
Q 956 0 581 494 
Q 206 988 206 1678 
Q 206 2153 378 2554 
Q 550 2956 876 3175 
Q 1203 3394 1644 3394 
Q 2231 3394 2613 2919 
L 2613 3319 
L 3131 3319 
L 3131 450 
Q 3131 -325 2973 -648 
Q 2816 -972 2473 -1159 
Q 2131 -1347 1631 -1347 
Q 1038 -1347 672 -1080 
Q 306 -813 319 -275 
z
M 784 1719 
Q 784 1066 1043 766 
Q 1303 466 1694 466 
Q 2081 466 2343 764 
Q 2606 1063 2606 1700 
Q 2606 2309 2336 2618 
Q 2066 2928 1684 2928 
Q 1309 2928 1046 2623 
Q 784 2319 784 1719 
z
" transform="scale(0.015625)"/>
      </defs>
      <use xlink:href="#ArialMT-6b"/>
      <use xlink:href="#ArialMT-61" x="50"/>
      <use xlink:href="#ArialMT-69" x="105.615234"/>
      <use xlink:href="#ArialMT-6d" x="127.832031"/>
      <use xlink:href="#ArialMT-69" x="211.132812"/>
      <use xlink:href="#ArialMT-6e" x="233.349609"/>
      <use xlink:href="#ArialMT-67" x="288.964844"/>
      <use xlink:href="#ArialMT-5f" x="344.580078"/>
      <use xlink:href="#ArialMT-75" x="400.195312"/>
      <use xlink:href="#ArialMT-6e" x="455.810547"/>
      <use xlink:href="#ArialMT-69" x="511.425781"/>
      <use xlink:href="#ArialMT-66" x="533.642578"/>
      <use xlink:href="#ArialMT-6f" x="561.425781"/>
      <use xlink:href="#ArialMT-72" x="617.041016"/>
      <use xlink:href="#ArialMT-6d" x="650.341797"/>
     </g>
    </g>
   </g>
  </g>
 </g>
 <defs>
  <clipPath id="p1826964846">
   <rect x="46.240625" y="10.174335" width="334.8" height="217.44"/>
  </clipPath>
 </defs>
</svg>
