<?xml version="1.0" encoding="utf-8" standalone="no"?>
<!DOCTYPE svg PUBLIC "-//W3C//DTD SVG 1.1//EN"
  "http://www.w3.org/Graphics/SVG/1.1/DTD/svg11.dtd">
<svg xmlns:xlink="http://www.w3.org/1999/xlink" width="383.25125pt" height="260.374219pt" viewBox="0 0 383.25125 260.374219" xmlns="http://www.w3.org/2000/svg" version="1.1">
 <metadata>
  <rdf:RDF xmlns:dc="http://purl.org/dc/elements/1.1/" xmlns:cc="http://creativecommons.org/ns#" xmlns:rdf="http://www.w3.org/1999/02/22-rdf-syntax-ns#">
   <cc:Work>
    <dc:type rdf:resource="http://purl.org/dc/dcmitype/StillImage"/>
    <dc:date>2022-05-09T12:55:07.121357</dc:date>
    <dc:format>image/svg+xml</dc:format>
    <dc:creator>
     <cc:Agent>
      <dc:title>Matplotlib v3.5.0, https://matplotlib.org/</dc:title>
     </cc:Agent>
    </dc:creator>
   </cc:Work>
  </rdf:RDF>
 </metadata>
 <defs>
  <style type="text/css">*{stroke-linejoin: round; stroke-linecap: butt}</style>
 </defs>
 <g id="figure_1">
  <g id="patch_1">
   <path d="M 0 260.374219 
L 383.25125 260.374219 
L 383.25125 0 
L 0 0 
z
" style="fill: #ffffff"/>
  </g>
  <g id="axes_1">
   <g id="patch_2">
    <path d="M 41.25125 224.64 
L 376.05125 224.64 
L 376.05125 7.2 
L 41.25125 7.2 
z
" style="fill: #ffffff"/>
   </g>
   <g id="matplotlib.axis_1">
    <g id="xtick_1">
     <g id="line2d_1">
      <path d="M 56.469432 224.64 
L 56.469432 7.2 
" clip-path="url(#p773817e9ec)" style="fill: none; stroke: #cccccc; stroke-linecap: round"/>
     </g>
     <g id="text_1">
      <text style="fill: #262626; font: 11px 'sans-serif'; text-anchor: middle" x="56.469432" y="236.013594" transform="rotate(-0, 56.469432, 236.013594)">0</text>
     </g>
    </g>
    <g id="xtick_2">
     <g id="line2d_2">
      <path d="M 94.70607 224.64 
L 94.70607 7.2 
" clip-path="url(#p773817e9ec)" style="fill: none; stroke: #cccccc; stroke-linecap: round"/>
     </g>
     <g id="text_2">
      <text style="fill: #262626; font: 11px 'sans-serif'; text-anchor: middle" x="94.70607" y="236.013594" transform="rotate(-0, 94.70607, 236.013594)">25</text>
     </g>
    </g>
    <g id="xtick_3">
     <g id="line2d_3">
      <path d="M 132.942707 224.64 
L 132.942707 7.2 
" clip-path="url(#p773817e9ec)" style="fill: none; stroke: #cccccc; stroke-linecap: round"/>
     </g>
     <g id="text_3">
      <text style="fill: #262626; font: 11px 'sans-serif'; text-anchor: middle" x="132.942707" y="236.013594" transform="rotate(-0, 132.942707, 236.013594)">50</text>
     </g>
    </g>
    <g id="xtick_4">
     <g id="line2d_4">
      <path d="M 171.179345 224.64 
L 171.179345 7.2 
" clip-path="url(#p773817e9ec)" style="fill: none; stroke: #cccccc; stroke-linecap: round"/>
     </g>
     <g id="text_4">
      <text style="fill: #262626; font: 11px 'sans-serif'; text-anchor: middle" x="171.179345" y="236.013594" transform="rotate(-0, 171.179345, 236.013594)">75</text>
     </g>
    </g>
    <g id="xtick_5">
     <g id="line2d_5">
      <path d="M 209.415983 224.64 
L 209.415983 7.2 
" clip-path="url(#p773817e9ec)" style="fill: none; stroke: #cccccc; stroke-linecap: round"/>
     </g>
     <g id="text_5">
      <text style="fill: #262626; font: 11px 'sans-serif'; text-anchor: middle" x="209.415983" y="236.013594" transform="rotate(-0, 209.415983, 236.013594)">100</text>
     </g>
    </g>
    <g id="xtick_6">
     <g id="line2d_6">
      <path d="M 247.65262 224.64 
L 247.65262 7.2 
" clip-path="url(#p773817e9ec)" style="fill: none; stroke: #cccccc; stroke-linecap: round"/>
     </g>
     <g id="text_6">
      <text style="fill: #262626; font: 11px 'sans-serif'; text-anchor: middle" x="247.65262" y="236.013594" transform="rotate(-0, 247.65262, 236.013594)">125</text>
     </g>
    </g>
    <g id="xtick_7">
     <g id="line2d_7">
      <path d="M 285.889258 224.64 
L 285.889258 7.2 
" clip-path="url(#p773817e9ec)" style="fill: none; stroke: #cccccc; stroke-linecap: round"/>
     </g>
     <g id="text_7">
      <text style="fill: #262626; font: 11px 'sans-serif'; text-anchor: middle" x="285.889258" y="236.013594" transform="rotate(-0, 285.889258, 236.013594)">150</text>
     </g>
    </g>
    <g id="xtick_8">
     <g id="line2d_8">
      <path d="M 324.125896 224.64 
L 324.125896 7.2 
" clip-path="url(#p773817e9ec)" style="fill: none; stroke: #cccccc; stroke-linecap: round"/>
     </g>
     <g id="text_8">
      <text style="fill: #262626; font: 11px 'sans-serif'; text-anchor: middle" x="324.125896" y="236.013594" transform="rotate(-0, 324.125896, 236.013594)">175</text>
     </g>
    </g>
    <g id="xtick_9">
     <g id="line2d_9">
      <path d="M 362.362534 224.64 
L 362.362534 7.2 
" clip-path="url(#p773817e9ec)" style="fill: none; stroke: #cccccc; stroke-linecap: round"/>
     </g>
     <g id="text_9">
      <text style="fill: #262626; font: 11px 'sans-serif'; text-anchor: middle" x="362.362534" y="236.013594" transform="rotate(-0, 362.362534, 236.013594)">200</text>
     </g>
    </g>
    <g id="text_10">
     <text style="fill: #262626; font: 12px 'sans-serif'; text-anchor: middle" x="208.65125" y="250.789219" transform="rotate(-0, 208.65125, 250.789219)">Epoka</text>
    </g>
   </g>
   <g id="matplotlib.axis_2">
    <g id="ytick_1">
     <g id="line2d_10">
      <path d="M 41.25125 216.443418 
L 376.05125 216.443418 
" clip-path="url(#p773817e9ec)" style="fill: none; stroke: #cccccc; stroke-linecap: round"/>
     </g>
     <g id="text_11">
      <text style="fill: #262626; font: 11px 'sans-serif'; text-anchor: end" x="37.75125" y="220.380215" transform="rotate(-0, 37.75125, 220.380215)">0.0</text>
     </g>
    </g>
    <g id="ytick_2">
     <g id="line2d_11">
      <path d="M 41.25125 173.213323 
L 376.05125 173.213323 
" clip-path="url(#p773817e9ec)" style="fill: none; stroke: #cccccc; stroke-linecap: round"/>
     </g>
     <g id="text_12">
      <text style="fill: #262626; font: 11px 'sans-serif'; text-anchor: end" x="37.75125" y="177.15012" transform="rotate(-0, 37.75125, 177.15012)">0.5</text>
     </g>
    </g>
    <g id="ytick_3">
     <g id="line2d_12">
      <path d="M 41.25125 129.983228 
L 376.05125 129.983228 
" clip-path="url(#p773817e9ec)" style="fill: none; stroke: #cccccc; stroke-linecap: round"/>
     </g>
     <g id="text_13">
      <text style="fill: #262626; font: 11px 'sans-serif'; text-anchor: end" x="37.75125" y="133.920025" transform="rotate(-0, 37.75125, 133.920025)">1.0</text>
     </g>
    </g>
    <g id="ytick_4">
     <g id="line2d_13">
      <path d="M 41.25125 86.753133 
L 376.05125 86.753133 
" clip-path="url(#p773817e9ec)" style="fill: none; stroke: #cccccc; stroke-linecap: round"/>
     </g>
     <g id="text_14">
      <text style="fill: #262626; font: 11px 'sans-serif'; text-anchor: end" x="37.75125" y="90.68993" transform="rotate(-0, 37.75125, 90.68993)">1.5</text>
     </g>
    </g>
    <g id="ytick_5">
     <g id="line2d_14">
      <path d="M 41.25125 43.523038 
L 376.05125 43.523038 
" clip-path="url(#p773817e9ec)" style="fill: none; stroke: #cccccc; stroke-linecap: round"/>
     </g>
     <g id="text_15">
      <text style="fill: #262626; font: 11px 'sans-serif'; text-anchor: end" x="37.75125" y="47.459835" transform="rotate(-0, 37.75125, 47.459835)">2.0</text>
     </g>
    </g>
    <g id="text_16">
     <text style="fill: #262626; font: 12px 'sans-serif'; text-anchor: middle" x="15.935625" y="115.92" transform="rotate(-90, 15.935625, 115.92)">Wartość funkcji celu</text>
    </g>
   </g>
   <g id="line2d_15">
    <path d="M 56.469432 17.244799 
L 57.998897 18.961066 
L 59.528363 24.739101 
L 61.057828 32.410494 
L 64.116759 44.930395 
L 71.764087 73.956989 
L 73.293552 79.074145 
L 79.411414 96.35756 
L 83.999811 106.633953 
L 85.529276 109.464091 
L 87.058742 112.896266 
L 90.117673 117.943033 
L 91.647139 121.058695 
L 96.235535 128.080502 
L 99.294466 132.397275 
L 100.823932 133.91285 
L 103.882863 138.408254 
L 105.412328 139.580357 
L 106.941794 141.595352 
L 108.471259 143.138015 
L 110.000725 144.869557 
L 111.53019 146.31671 
L 113.059656 147.458876 
L 116.118587 150.841271 
L 119.177518 153.016911 
L 122.236449 155.81247 
L 123.765914 156.618429 
L 128.354311 159.84995 
L 129.883776 160.375484 
L 131.413242 161.269189 
L 132.942707 162.406685 
L 134.472173 162.804506 
L 136.001638 163.813461 
L 139.060569 165.213568 
L 142.1195 165.885382 
L 143.648966 166.91111 
L 145.178431 167.191699 
L 146.707897 167.895451 
L 148.237362 168.181692 
L 149.766828 168.250202 
L 151.296293 168.955201 
L 152.825759 169.3949 
L 154.355224 169.457133 
L 155.88469 169.954509 
L 157.414155 169.821854 
L 160.473086 170.973527 
L 162.002552 170.830175 
L 163.532017 171.191214 
L 166.590948 171.178029 
L 168.120414 171.484657 
L 169.64988 170.871303 
L 171.179345 171.82848 
L 172.708811 171.795335 
L 174.238276 171.246964 
L 175.767742 171.969699 
L 177.297207 171.689805 
L 178.826673 172.137857 
L 180.356138 172.207456 
L 181.885604 171.734305 
L 183.415069 172.314952 
L 184.944535 172.492412 
L 188.003466 172.002266 
L 189.532931 172.054186 
L 191.062397 172.39375 
L 192.591862 171.762061 
L 194.121328 171.747376 
L 195.650793 171.24199 
L 198.709724 171.29469 
L 201.768655 170.463089 
L 203.298121 169.414017 
L 206.357052 175.51596 
L 207.886517 176.162896 
L 209.415983 175.624038 
L 210.945448 175.872902 
L 212.474914 175.50248 
L 214.004379 174.47009 
L 215.533845 177.928274 
L 217.06331 178.957388 
L 218.592776 178.166484 
L 220.122241 178.876461 
L 221.651707 177.751232 
L 223.181172 182.339788 
L 224.710638 186.437756 
L 226.240103 187.16669 
L 227.769569 186.736591 
L 229.299034 186.795804 
L 230.8285 186.359497 
L 232.357965 188.240294 
L 233.887431 188.79134 
L 235.416896 189.013916 
L 236.946362 188.303013 
L 238.475827 187.351766 
L 240.005293 190.373001 
L 241.534758 190.53435 
L 243.064224 192.534672 
L 244.593689 194.835937 
L 246.123155 196.231885 
L 247.65262 196.76096 
L 249.182086 197.055211 
L 250.711552 196.732608 
L 253.770483 197.046049 
L 255.299948 196.570298 
L 256.829414 195.749737 
L 258.358879 197.679984 
L 259.888345 198.707144 
L 261.41781 197.727466 
L 262.947276 201.796029 
L 264.476741 202.859564 
L 266.006207 202.425225 
L 267.535672 204.505022 
L 269.065138 205.331339 
L 270.594603 205.094824 
L 272.124069 206.12831 
L 273.653534 206.723985 
L 275.183 206.438407 
L 276.712465 207.079752 
L 279.771396 207.333263 
L 281.300862 207.080332 
L 282.830327 208.031739 
L 284.359793 208.433759 
L 285.889258 208.183112 
L 287.418724 207.800155 
L 288.948189 209.358926 
L 290.477655 209.620351 
L 292.00712 209.357927 
L 293.536586 210.738576 
L 295.066051 210.588508 
L 296.595517 211.157324 
L 298.124982 210.96561 
L 299.654448 211.569063 
L 301.183913 211.510713 
L 302.713379 211.922537 
L 305.77231 212.299859 
L 307.301775 212.193914 
L 308.831241 212.353215 
L 311.890172 212.41038 
L 313.419637 212.291996 
L 314.949103 212.774927 
L 316.478568 213.034802 
L 319.537499 213.144854 
L 322.59643 213.480671 
L 324.125896 213.413059 
L 328.714292 213.774167 
L 330.243758 214.08455 
L 331.773224 213.822052 
L 334.832155 214.035606 
L 336.36162 214.167762 
L 337.891086 214.102812 
L 340.950017 214.415774 
L 342.479482 214.410919 
L 344.008948 214.537635 
L 345.538413 214.395824 
L 347.067879 214.577233 
L 360.833068 214.743825 
L 360.833068 214.743825 
" clip-path="url(#p773817e9ec)" style="fill: none; stroke: #4c72b0; stroke-width: 1.5; stroke-linecap: round"/>
   </g>
   <g id="line2d_16">
    <path d="M 56.469432 17.083636 
L 57.998897 17.311343 
L 65.646225 17.347286 
L 120.706983 17.37378 
L 122.236449 17.63709 
L 123.765914 21.293991 
L 125.29538 23.915844 
L 128.354311 27.534124 
L 129.883776 29.003042 
L 132.942707 31.235362 
L 134.472173 32.275449 
L 136.001638 34.213501 
L 137.531104 36.812333 
L 139.060569 38.420559 
L 140.590035 39.755959 
L 142.1195 41.288423 
L 143.648966 42.566329 
L 145.178431 44.196439 
L 146.707897 45.490776 
L 149.766828 47.647948 
L 151.296293 49.196585 
L 152.825759 54.020521 
L 157.414155 67.298126 
L 158.943621 71.076207 
L 160.473086 74.304573 
L 162.002552 76.953253 
L 166.590948 94.284428 
L 168.120414 99.873521 
L 169.64988 106.04739 
L 172.708811 115.43597 
L 178.826673 128.887787 
L 181.885604 134.33232 
L 183.415069 136.293805 
L 184.944535 138.486206 
L 186.474 140.925635 
L 188.003466 142.665544 
L 189.532931 144.658838 
L 191.062397 145.817691 
L 194.121328 148.974001 
L 200.23919 153.92422 
L 201.768655 154.448585 
L 204.827586 156.354906 
L 206.357052 156.759352 
L 207.886517 157.485624 
L 209.415983 157.890552 
L 210.945448 157.643943 
L 212.474914 158.055512 
L 214.004379 159.11506 
L 218.592776 160.032802 
L 220.122241 160.179393 
L 221.651707 160.465089 
L 223.181172 160.333411 
L 226.240103 160.716427 
L 227.769569 161.532704 
L 229.299034 160.494418 
L 230.8285 161.2644 
L 232.357965 160.413124 
L 233.887431 160.633756 
L 235.416896 159.96103 
L 236.946362 160.593374 
L 238.475827 159.69917 
L 240.005293 159.718917 
L 241.534758 159.487638 
L 243.064224 158.292625 
L 244.593689 157.381577 
L 246.123155 160.879643 
L 247.65262 160.60321 
L 249.182086 164.207209 
L 250.711552 164.471287 
L 252.241017 164.85732 
L 253.770483 163.939264 
L 255.299948 166.969756 
L 256.829414 167.076034 
L 258.358879 169.942653 
L 259.888345 170.139413 
L 261.41781 169.505371 
L 262.947276 170.014603 
L 264.476741 169.147927 
L 266.006207 169.369325 
L 267.535672 169.082281 
L 269.065138 168.175588 
L 270.594603 168.046866 
L 272.124069 167.434748 
L 273.653534 169.349719 
L 275.183 172.454292 
L 276.712465 176.876827 
L 281.300862 177.137181 
L 282.830327 176.750553 
L 284.359793 176.014388 
L 285.889258 177.832763 
L 287.418724 177.614039 
L 288.948189 178.02645 
L 292.00712 176.880731 
L 293.536586 176.597411 
L 295.066051 175.485136 
L 296.595517 178.424488 
L 299.654448 178.309726 
L 301.183913 177.244555 
L 302.713379 181.541617 
L 304.242844 185.416687 
L 305.77231 185.28209 
L 307.301775 186.303133 
L 308.831241 185.937712 
L 310.360706 185.738645 
L 311.890172 186.358522 
L 313.419637 189.342 
L 314.949103 189.932023 
L 316.478568 189.878372 
L 318.008034 189.553123 
L 319.537499 189.550036 
L 322.59643 189.090835 
L 324.125896 188.100091 
L 325.655361 190.402099 
L 327.184827 190.978487 
L 328.714292 190.846805 
L 330.243758 191.944713 
L 331.773224 193.637727 
L 333.302689 196.032569 
L 336.36162 197.153748 
L 337.891086 196.408797 
L 339.420551 199.512381 
L 347.067879 200.198165 
L 348.597344 201.168671 
L 350.12681 201.462375 
L 351.656275 201.29858 
L 353.185741 201.363203 
L 354.715206 201.588531 
L 356.244672 200.99919 
L 357.774137 203.078032 
L 359.303603 203.814593 
L 360.833068 203.821299 
L 360.833068 203.821299 
" clip-path="url(#p773817e9ec)" style="fill: none; stroke: #dd8452; stroke-width: 1.5; stroke-linecap: round"/>
   </g>
   <g id="line2d_17">
    <path d="M 56.469432 17.14288 
L 57.998897 17.326532 
L 71.764087 17.470769 
L 73.293552 18.235967 
L 74.823018 21.90471 
L 76.352483 24.05471 
L 79.411414 31.502364 
L 80.94088 33.949202 
L 82.470345 35.522127 
L 85.529276 39.176855 
L 87.058742 41.803093 
L 88.588208 45.629982 
L 90.117673 49.881904 
L 91.647139 53.65129 
L 93.176604 56.993423 
L 96.235535 63.161803 
L 97.765001 69.302508 
L 99.294466 74.46492 
L 102.353397 84.010576 
L 103.882863 87.809042 
L 106.941794 97.104885 
L 108.471259 101.246937 
L 111.53019 108.103845 
L 113.059656 111.51457 
L 114.589121 114.333818 
L 117.648052 120.616636 
L 119.177518 122.95272 
L 120.706983 126.108959 
L 122.236449 128.417803 
L 123.765914 131.050585 
L 125.29538 133.21271 
L 126.824845 135.761847 
L 128.354311 137.50167 
L 129.883776 139.866694 
L 131.413242 141.400634 
L 132.942707 143.564367 
L 134.472173 145.090237 
L 136.001638 147.05666 
L 140.590035 151.420407 
L 142.1195 152.517511 
L 143.648966 154.082552 
L 145.178431 154.834624 
L 146.707897 156.489636 
L 148.237362 157.581914 
L 149.766828 158.258999 
L 152.825759 160.154141 
L 154.355224 160.539503 
L 155.88469 161.831144 
L 157.414155 161.658544 
L 158.943621 163.36974 
L 160.473086 163.60195 
L 162.002552 164.405355 
L 163.532017 164.95728 
L 165.061483 165.70541 
L 166.590948 165.825525 
L 169.64988 166.654877 
L 171.179345 167.087478 
L 172.708811 167.041617 
L 175.767742 167.995348 
L 178.826673 167.879108 
L 180.356138 168.116317 
L 181.885604 167.91147 
L 183.415069 168.317154 
L 184.944535 167.968027 
L 186.474 168.908006 
L 188.003466 167.894904 
L 189.532931 168.847526 
L 192.591862 168.182982 
L 194.121328 168.240286 
L 195.650793 167.602776 
L 197.180259 167.473958 
L 198.709724 167.052302 
L 200.23919 167.294918 
L 201.768655 167.250967 
L 203.298121 166.1932 
L 204.827586 166.658238 
L 207.886517 166.261544 
L 209.415983 166.106866 
L 210.945448 166.138897 
L 212.474914 165.462357 
L 214.004379 165.546384 
L 215.533845 164.467553 
L 217.06331 163.868479 
L 220.122241 170.17505 
L 221.651707 174.011331 
L 223.181172 174.141043 
L 224.710638 174.749332 
L 226.240103 174.188133 
L 227.769569 173.432565 
L 229.299034 173.312271 
L 230.8285 173.466205 
L 232.357965 172.803884 
L 235.416896 178.234162 
L 236.946362 181.584059 
L 238.475827 182.437208 
L 240.005293 181.874358 
L 241.534758 184.320797 
L 243.064224 186.157228 
L 244.593689 189.053903 
L 246.123155 189.157551 
L 247.65262 189.71217 
L 249.182086 189.291921 
L 250.711552 190.665005 
L 252.241017 191.143043 
L 253.770483 190.684212 
L 255.299948 192.643057 
L 256.829414 193.261916 
L 258.358879 193.361247 
L 259.888345 192.797673 
L 261.41781 193.922537 
L 262.947276 194.26977 
L 264.476741 194.167951 
L 266.006207 193.756405 
L 267.535672 194.296397 
L 269.065138 193.560189 
L 270.594603 197.148676 
L 272.124069 198.527242 
L 273.653534 198.408571 
L 275.183 198.70392 
L 276.712465 200.969417 
L 278.241931 200.997609 
L 279.771396 201.247217 
L 281.300862 201.164922 
L 282.830327 200.478992 
L 284.359793 203.060212 
L 285.889258 203.195995 
L 287.418724 203.717417 
L 288.948189 203.134972 
L 290.477655 204.901028 
L 292.00712 206.128168 
L 293.536586 206.61912 
L 301.183913 206.679991 
L 302.713379 207.833682 
L 304.242844 208.076531 
L 305.77231 208.093562 
L 307.301775 208.264764 
L 308.831241 208.089681 
L 310.360706 208.573073 
L 311.890172 208.738527 
L 313.419637 208.55256 
L 314.949103 209.587334 
L 316.478568 210.208476 
L 319.537499 210.434789 
L 321.066965 210.773717 
L 322.59643 210.865054 
L 325.655361 210.743312 
L 327.184827 210.76206 
L 328.714292 211.199478 
L 330.243758 211.34162 
L 331.773224 211.708582 
L 333.302689 211.861213 
L 334.832155 211.812516 
L 336.36162 212.162627 
L 337.891086 212.327587 
L 339.420551 212.289964 
L 340.950017 212.431093 
L 342.479482 212.284499 
L 344.008948 212.714684 
L 345.538413 212.89565 
L 347.067879 212.748505 
L 348.597344 213.031441 
L 350.12681 213.017569 
L 351.656275 212.786088 
L 353.185741 213.389231 
L 357.774137 213.475685 
L 359.303603 213.836201 
L 360.833068 214.000548 
L 360.833068 214.000548 
" clip-path="url(#p773817e9ec)" style="fill: none; stroke: #55a868; stroke-width: 1.5; stroke-linecap: round"/>
   </g>
   <g id="line2d_18">
    <path d="M 56.469432 17.752616 
L 57.998897 23.815745 
L 61.057828 42.991943 
L 64.116759 58.213607 
L 65.646225 64.934949 
L 67.17569 71.017697 
L 68.705156 76.639014 
L 70.234621 81.750001 
L 73.293552 91.290478 
L 74.823018 94.781214 
L 76.352483 98.804886 
L 80.94088 108.290852 
L 82.470345 111.242589 
L 83.999811 113.776455 
L 87.058742 118.39957 
L 90.117673 123.344812 
L 91.647139 125.145702 
L 93.176604 127.192774 
L 94.70607 129.487908 
L 97.765001 132.961877 
L 99.294466 134.978062 
L 100.823932 136.272917 
L 102.353397 137.99439 
L 103.882863 139.990795 
L 105.412328 141.360171 
L 106.941794 143.152358 
L 108.471259 144.454734 
L 110.000725 146.040335 
L 111.53019 147.110213 
L 113.059656 149.016471 
L 114.589121 149.833009 
L 116.118587 151.234427 
L 119.177518 153.621196 
L 120.706983 154.497877 
L 125.29538 157.857585 
L 126.824845 158.363235 
L 129.883776 160.213213 
L 131.413242 160.656571 
L 132.942707 161.704679 
L 136.001638 163.216377 
L 137.531104 163.953184 
L 139.060569 164.448984 
L 140.590035 165.518527 
L 142.1195 165.557138 
L 143.648966 166.237393 
L 145.178431 166.383197 
L 146.707897 167.422596 
L 148.237362 167.43849 
L 149.766828 168.188947 
L 151.296293 168.083809 
L 152.825759 169.225743 
L 154.355224 169.036621 
L 155.88469 169.450617 
L 157.414155 170.026349 
L 158.943621 169.739949 
L 160.473086 170.441807 
L 162.002552 169.723509 
L 163.532017 170.290912 
L 165.061483 171.021759 
L 166.590948 170.403582 
L 168.120414 171.048152 
L 169.64988 170.562174 
L 171.179345 171.379657 
L 172.708811 170.994552 
L 174.238276 171.56294 
L 175.767742 170.756794 
L 177.297207 171.390641 
L 178.826673 170.780056 
L 180.356138 171.036503 
L 181.885604 171.487206 
L 183.415069 170.790615 
L 186.474 171.166056 
L 188.003466 170.724377 
L 189.532931 173.478 
L 191.062397 173.818086 
L 192.591862 173.3143 
L 194.121328 173.74678 
L 195.650793 173.183852 
L 197.180259 173.301124 
L 198.709724 172.578302 
L 200.23919 175.088799 
L 201.768655 178.215472 
L 203.298121 177.998952 
L 204.827586 181.219305 
L 206.357052 181.429649 
L 207.886517 181.846191 
L 209.415983 180.904167 
L 210.945448 182.950661 
L 212.474914 185.78341 
L 214.004379 185.423139 
L 215.533845 185.735366 
L 217.06331 186.335492 
L 218.592776 185.332553 
L 220.122241 188.567652 
L 221.651707 189.056302 
L 223.181172 189.746981 
L 224.710638 188.444986 
L 226.240103 193.107707 
L 227.769569 193.72187 
L 229.299034 194.867463 
L 230.8285 195.551046 
L 232.357965 195.172075 
L 233.887431 196.280171 
L 235.416896 195.982343 
L 236.946362 196.327672 
L 238.475827 195.718269 
L 240.005293 197.834419 
L 241.534758 197.588483 
L 243.064224 200.050888 
L 244.593689 200.789101 
L 246.123155 200.506233 
L 247.65262 201.884779 
L 249.182086 201.825801 
L 250.711552 202.066425 
L 252.241017 204.010835 
L 253.770483 205.135674 
L 255.299948 205.072361 
L 258.358879 205.625915 
L 259.888345 205.037306 
L 261.41781 206.876792 
L 262.947276 207.468944 
L 264.476741 207.24701 
L 267.535672 207.789491 
L 269.065138 207.667806 
L 270.594603 207.827812 
L 272.124069 209.091968 
L 273.653534 209.587887 
L 276.712465 209.624988 
L 278.241931 209.844366 
L 279.771396 209.648499 
L 281.300862 210.058334 
L 282.830327 210.214025 
L 284.359793 209.803307 
L 285.889258 210.958965 
L 287.418724 211.129392 
L 288.948189 211.004459 
L 290.477655 211.284021 
L 293.536586 211.16385 
L 295.066051 211.914485 
L 298.124982 212.248608 
L 299.654448 212.089353 
L 301.183913 212.510161 
L 304.242844 212.80706 
L 305.77231 212.724678 
L 307.301775 213.001671 
L 313.419637 213.448768 
L 318.008034 213.384827 
L 319.537499 213.688439 
L 322.59643 213.884032 
L 324.125896 213.697502 
L 325.655361 213.94222 
L 327.184827 213.86206 
L 331.773224 214.265445 
L 334.832155 214.193447 
L 336.36162 214.367581 
L 357.774137 214.665271 
L 359.303603 214.756364 
L 360.833068 214.644902 
L 360.833068 214.644902 
" clip-path="url(#p773817e9ec)" style="fill: none; stroke: #c44e52; stroke-width: 1.5; stroke-linecap: round"/>
   </g>
   <g id="line2d_19">
    <path d="M 56.469432 23.096327 
L 57.998897 41.099204 
L 59.528363 52.021014 
L 61.057828 61.391098 
L 62.587294 68.427976 
L 65.646225 79.566981 
L 67.17569 84.630916 
L 68.705156 88.941708 
L 70.234621 92.854352 
L 73.293552 99.515905 
L 74.823018 102.753137 
L 76.352483 105.194533 
L 77.881949 108.266358 
L 79.411414 110.331079 
L 85.529276 119.567676 
L 87.058742 121.492772 
L 88.588208 123.730852 
L 97.765001 134.635734 
L 99.294466 136.299312 
L 100.823932 138.226292 
L 103.882863 140.874294 
L 105.412328 142.508641 
L 106.941794 143.554162 
L 108.471259 145.150017 
L 110.000725 146.381142 
L 111.53019 147.916821 
L 113.059656 149.058184 
L 116.118587 151.043223 
L 117.648052 152.285257 
L 119.177518 153.321095 
L 122.236449 154.782321 
L 123.765914 156.183569 
L 125.29538 156.948898 
L 126.824845 157.334739 
L 128.354311 158.234743 
L 129.883776 158.927639 
L 131.413242 160.009464 
L 132.942707 160.239771 
L 134.472173 160.902172 
L 136.001638 161.186099 
L 137.531104 161.870144 
L 140.590035 163.488614 
L 142.1195 163.784846 
L 143.648966 164.661269 
L 146.707897 165.558089 
L 148.237362 165.721338 
L 149.766828 165.725117 
L 151.296293 166.688244 
L 152.825759 167.132201 
L 155.88469 167.504117 
L 157.414155 167.815371 
L 158.943621 167.982154 
L 160.473086 168.56294 
L 162.002552 168.800335 
L 163.532017 168.442903 
L 165.061483 168.987189 
L 166.590948 169.158849 
L 168.120414 169.755119 
L 169.64988 169.378175 
L 171.179345 169.870225 
L 172.708811 169.348443 
L 174.238276 169.475783 
L 175.767742 169.275284 
L 177.297207 169.594643 
L 178.826673 169.33797 
L 180.356138 169.571852 
L 181.885604 169.144153 
L 183.415069 169.361432 
L 184.944535 169.192932 
L 186.474 168.692123 
L 188.003466 171.21295 
L 189.532931 172.035404 
L 191.062397 171.146384 
L 192.591862 171.259792 
L 194.121328 171.686151 
L 195.650793 170.505973 
L 197.180259 173.830651 
L 198.709724 173.085692 
L 201.768655 172.702582 
L 203.298121 175.385673 
L 206.357052 176.671518 
L 207.886517 175.742763 
L 209.415983 175.674465 
L 210.945448 175.782768 
L 212.474914 174.867735 
L 214.004379 176.83709 
L 215.533845 176.878268 
L 217.06331 176.400396 
L 218.592776 176.662463 
L 220.122241 175.280378 
L 221.651707 178.156315 
L 223.181172 179.456001 
L 224.710638 179.876469 
L 226.240103 179.104907 
L 227.769569 180.213504 
L 229.299034 178.489076 
L 230.8285 185.77688 
L 232.357965 187.22137 
L 233.887431 188.016588 
L 235.416896 186.924607 
L 236.946362 189.922514 
L 238.475827 191.490903 
L 240.005293 191.017294 
L 241.534758 193.203945 
L 243.064224 194.069612 
L 244.593689 193.434937 
L 246.123155 196.213787 
L 247.65262 196.395744 
L 249.182086 198.169858 
L 250.711552 198.246944 
L 252.241017 198.486597 
L 253.770483 198.377253 
L 255.299948 199.078846 
L 256.829414 200.095842 
L 258.358879 199.619951 
L 259.888345 201.745938 
L 261.41781 202.270499 
L 262.947276 203.490255 
L 266.006207 203.669415 
L 269.065138 203.556141 
L 270.594603 204.029352 
L 272.124069 203.588978 
L 273.653534 204.354967 
L 275.183 204.428484 
L 276.712465 204.174436 
L 278.241931 205.921253 
L 279.771396 206.805135 
L 281.300862 206.787532 
L 282.830327 208.112966 
L 284.359793 208.22688 
L 285.889258 208.45838 
L 287.418724 208.388149 
L 288.948189 208.787858 
L 292.00712 208.705173 
L 293.536586 208.887076 
L 296.595517 208.95323 
L 298.124982 208.648276 
L 299.654448 209.15084 
L 301.183913 209.014695 
L 304.242844 209.090669 
L 305.77231 208.850281 
L 307.301775 210.422836 
L 310.360706 210.666703 
L 311.890172 210.488511 
L 314.949103 210.867062 
L 316.478568 210.830001 
L 319.537499 210.599333 
L 321.066965 210.775808 
L 324.125896 210.562152 
L 325.655361 211.54376 
L 327.184827 211.715029 
L 328.714292 211.652109 
L 330.243758 211.814837 
L 331.773224 211.61424 
L 333.302689 212.214709 
L 334.832155 212.399353 
L 336.36162 212.39118 
L 337.891086 212.589387 
L 344.008948 212.557668 
L 345.538413 212.882726 
L 347.067879 213.069165 
L 348.597344 212.917922 
L 351.656275 213.323863 
L 360.833068 213.654495 
L 360.833068 213.654495 
" clip-path="url(#p773817e9ec)" style="fill: none; stroke: #8172b3; stroke-width: 1.5; stroke-linecap: round"/>
   </g>
   <g id="line2d_20">
    <path d="M 56.469432 33.29395 
L 57.998897 54.462911 
L 59.528363 63.671593 
L 62.587294 78.566021 
L 64.116759 83.908005 
L 67.17569 93.007501 
L 68.705156 96.767231 
L 71.764087 103.194015 
L 73.293552 106.048753 
L 74.823018 109.147252 
L 76.352483 111.302953 
L 77.881949 114.035471 
L 80.94088 118.731849 
L 82.470345 120.527732 
L 85.529276 124.676606 
L 87.058742 126.241493 
L 91.647139 132.112108 
L 93.176604 133.502247 
L 94.70607 134.72452 
L 97.765001 138.150933 
L 99.294466 139.569398 
L 100.823932 141.152428 
L 102.353397 142.24377 
L 103.882863 143.837149 
L 105.412328 144.984048 
L 108.471259 147.535748 
L 110.000725 148.376835 
L 113.059656 150.822283 
L 114.589121 151.590969 
L 116.118587 153.124973 
L 117.648052 154.108373 
L 119.177518 154.452861 
L 120.706983 155.662117 
L 122.236449 156.44502 
L 123.765914 156.92277 
L 125.29538 158.100717 
L 126.824845 158.603418 
L 128.354311 159.252699 
L 129.883776 160.253215 
L 131.413242 160.643166 
L 132.942707 161.709975 
L 136.001638 163.454557 
L 139.060569 164.282258 
L 140.590035 164.808409 
L 142.1195 164.802204 
L 143.648966 165.843645 
L 145.178431 166.110427 
L 146.707897 166.118679 
L 148.237362 167.475942 
L 149.766828 167.190809 
L 151.296293 168.15184 
L 154.355224 168.448098 
L 155.88469 169.540216 
L 157.414155 168.728269 
L 158.943621 169.618427 
L 162.002552 170.437828 
L 165.061483 170.68827 
L 166.590948 171.113568 
L 168.120414 170.971864 
L 169.64988 170.379881 
L 171.179345 170.942743 
L 172.708811 170.763919 
L 174.238276 171.451237 
L 175.767742 170.414627 
L 177.297207 171.344369 
L 178.826673 171.256749 
L 181.885604 171.558803 
L 183.415069 170.871537 
L 184.944535 170.938797 
L 186.474 170.881738 
L 188.003466 171.519519 
L 189.532931 169.715608 
L 191.062397 173.2694 
L 194.121328 172.809826 
L 195.650793 173.3741 
L 197.180259 172.888751 
L 198.709724 172.929354 
L 200.23919 173.281307 
L 201.768655 171.679166 
L 203.298121 177.136699 
L 204.827586 178.990511 
L 206.357052 178.41112 
L 207.886517 181.031315 
L 209.415983 180.760472 
L 210.945448 181.455807 
L 212.474914 181.034175 
L 214.004379 180.302776 
L 215.533845 182.743761 
L 217.06331 183.032914 
L 218.592776 182.827075 
L 220.122241 183.113769 
L 221.651707 181.925342 
L 223.181172 184.500437 
L 224.710638 185.43154 
L 227.769569 184.420356 
L 229.299034 184.707919 
L 230.8285 184.516781 
L 232.357965 183.9722 
L 233.887431 186.087655 
L 235.416896 189.463184 
L 236.946362 189.792992 
L 238.475827 189.806483 
L 240.005293 191.516757 
L 241.534758 192.935269 
L 243.064224 195.700483 
L 244.593689 195.748779 
L 246.123155 197.606415 
L 247.65262 199.04497 
L 249.182086 199.416411 
L 250.711552 199.381511 
L 252.241017 199.111001 
L 253.770483 200.029235 
L 255.299948 200.35814 
L 256.829414 199.470836 
L 258.358879 202.642194 
L 259.888345 203.588866 
L 261.41781 203.314367 
L 262.947276 204.030203 
L 266.006207 206.221972 
L 269.065138 206.501354 
L 272.124069 206.521953 
L 273.653534 206.807235 
L 275.183 208.081642 
L 276.712465 208.491504 
L 278.241931 208.527581 
L 279.771396 208.698648 
L 281.300862 209.064597 
L 282.830327 209.73187 
L 284.359793 210.087755 
L 285.889258 210.23482 
L 287.418724 210.266619 
L 288.948189 210.439144 
L 290.477655 210.183971 
L 292.00712 210.68875 
L 293.536586 210.724327 
L 295.066051 210.885881 
L 296.595517 211.352357 
L 298.124982 211.456128 
L 299.654448 211.365809 
L 301.183913 211.871017 
L 302.713379 211.886908 
L 304.242844 211.751663 
L 305.77231 211.98338 
L 308.831241 212.085644 
L 310.360706 211.947274 
L 311.890172 212.332608 
L 313.419637 212.273787 
L 314.949103 212.392203 
L 316.478568 212.118391 
L 318.008034 212.761797 
L 322.59643 213.036209 
L 324.125896 213.014915 
L 327.184827 213.494242 
L 328.714292 213.400924 
L 334.832155 213.765403 
L 336.36162 213.776438 
L 337.891086 213.916195 
L 340.950017 213.896507 
L 342.479482 214.157122 
L 344.008948 214.062585 
L 345.538413 214.297699 
L 347.067879 214.149257 
L 348.597344 214.313988 
L 350.12681 214.235224 
L 351.656275 214.439925 
L 354.715206 214.423901 
L 356.244672 214.496225 
L 357.774137 214.382913 
L 360.833068 214.576469 
L 360.833068 214.576469 
" clip-path="url(#p773817e9ec)" style="fill: none; stroke: #937860; stroke-width: 1.5; stroke-linecap: round"/>
   </g>
   <g id="line2d_21">
    <path d="M 56.469432 30.153129 
L 57.998897 54.489811 
L 59.528363 64.083309 
L 61.057828 71.734606 
L 62.587294 77.343897 
L 64.116759 82.281139 
L 65.646225 86.786844 
L 68.705156 94.725813 
L 71.764087 101.190027 
L 76.352483 109.573036 
L 77.881949 111.838903 
L 79.411414 114.405716 
L 80.94088 116.281385 
L 82.470345 118.481779 
L 85.529276 122.285012 
L 87.058742 124.166703 
L 88.588208 126.280762 
L 90.117673 128.175776 
L 91.647139 129.644358 
L 93.176604 131.558666 
L 94.70607 133.869496 
L 97.765001 136.355273 
L 99.294466 138.226194 
L 102.353397 140.985761 
L 103.882863 142.709483 
L 106.941794 144.717603 
L 108.471259 146.442816 
L 110.000725 147.794438 
L 111.53019 148.315728 
L 113.059656 149.952356 
L 114.589121 150.915935 
L 117.648052 153.103902 
L 119.177518 153.903948 
L 122.236449 155.771154 
L 123.765914 156.540615 
L 125.29538 157.493156 
L 126.824845 158.018424 
L 128.354311 158.959214 
L 129.883776 159.713992 
L 131.413242 160.245967 
L 132.942707 160.952919 
L 134.472173 161.260518 
L 137.531104 162.693844 
L 139.060569 162.543591 
L 140.590035 163.759919 
L 142.1195 164.451004 
L 143.648966 164.476785 
L 145.178431 165.083734 
L 146.707897 165.301424 
L 148.237362 165.393999 
L 149.766828 166.611254 
L 151.296293 166.725633 
L 152.825759 167.048514 
L 154.355224 167.930692 
L 155.88469 167.991379 
L 157.414155 167.755524 
L 158.943621 168.514033 
L 162.002552 168.790761 
L 163.532017 169.036971 
L 165.061483 169.414251 
L 166.590948 169.402188 
L 168.120414 169.986518 
L 169.64988 169.589254 
L 171.179345 169.822386 
L 172.708811 169.62159 
L 174.238276 169.218772 
L 175.767742 170.194971 
L 177.297207 170.185321 
L 178.826673 169.843992 
L 180.356138 170.201984 
L 181.885604 169.965708 
L 183.415069 169.852515 
L 184.944535 169.966248 
L 186.474 169.279482 
L 188.003466 169.939337 
L 191.062397 169.108651 
L 192.591862 169.658918 
L 194.121328 168.336249 
L 195.650793 171.762397 
L 197.180259 172.26746 
L 198.709724 172.128969 
L 200.23919 172.618909 
L 201.768655 170.72664 
L 203.298121 176.447289 
L 204.827586 177.56895 
L 206.357052 177.222159 
L 207.886517 177.394321 
L 209.415983 177.13238 
L 210.945448 176.479486 
L 212.474914 178.60822 
L 214.004379 178.449476 
L 215.533845 181.043184 
L 217.06331 183.993348 
L 218.592776 184.907171 
L 220.122241 184.880657 
L 221.651707 185.819658 
L 223.181172 186.11673 
L 224.710638 185.828277 
L 226.240103 186.607652 
L 227.769569 186.08359 
L 229.299034 186.154427 
L 230.8285 185.236984 
L 232.357965 188.722526 
L 233.887431 189.97611 
L 235.416896 188.631801 
L 236.946362 193.61866 
L 238.475827 194.45715 
L 240.005293 194.865824 
L 241.534758 194.215543 
L 243.064224 194.938565 
L 244.593689 196.372413 
L 246.123155 196.474854 
L 247.65262 196.443048 
L 249.182086 196.580958 
L 250.711552 195.844067 
L 252.241017 198.652973 
L 253.770483 199.091194 
L 255.299948 199.987416 
L 259.888345 199.975191 
L 261.41781 201.704298 
L 262.947276 202.490264 
L 264.476741 202.316779 
L 266.006207 203.161067 
L 267.535672 203.47099 
L 269.065138 203.555239 
L 270.594603 202.954988 
L 272.124069 204.51327 
L 273.653534 204.649904 
L 275.183 205.985597 
L 276.712465 206.075972 
L 278.241931 206.334895 
L 279.771396 205.696459 
L 281.300862 206.577238 
L 284.359793 207.273 
L 285.889258 206.825392 
L 287.418724 208.310625 
L 290.477655 208.618189 
L 292.00712 208.672463 
L 293.536586 208.510153 
L 295.066051 208.936165 
L 298.124982 208.694865 
L 301.183913 209.793203 
L 302.713379 209.696434 
L 304.242844 209.859765 
L 305.77231 209.641459 
L 307.301775 210.309489 
L 308.831241 210.128043 
L 310.360706 210.975883 
L 311.890172 211.186045 
L 313.419637 210.932844 
L 314.949103 211.463561 
L 318.008034 211.487099 
L 319.537499 211.541057 
L 321.066965 211.435412 
L 322.59643 211.893681 
L 324.125896 212.137583 
L 325.655361 212.193607 
L 327.184827 212.620412 
L 328.714292 212.77288 
L 331.773224 212.767719 
L 333.302689 212.957603 
L 334.832155 213.024325 
L 336.36162 213.367561 
L 337.891086 213.208989 
L 339.420551 213.534497 
L 344.008948 213.5624 
L 347.067879 213.896211 
L 351.656275 213.982116 
L 360.833068 214.043286 
L 360.833068 214.043286 
" clip-path="url(#p773817e9ec)" style="fill: none; stroke: #da8bc3; stroke-width: 1.5; stroke-linecap: round"/>
   </g>
   <g id="patch_3">
    <path d="M 41.25125 224.64 
L 41.25125 7.2 
" style="fill: none; stroke: #cccccc; stroke-linejoin: miter; stroke-linecap: square"/>
   </g>
   <g id="patch_4">
    <path d="M 376.05125 224.64 
L 376.05125 7.2 
" style="fill: none; stroke: #cccccc; stroke-linejoin: miter; stroke-linecap: square"/>
   </g>
   <g id="patch_5">
    <path d="M 41.25125 224.64 
L 376.05125 224.64 
" style="fill: none; stroke: #cccccc; stroke-linejoin: miter; stroke-linecap: square"/>
   </g>
   <g id="patch_6">
    <path d="M 41.25125 7.2 
L 376.05125 7.2 
" style="fill: none; stroke: #cccccc; stroke-linejoin: miter; stroke-linecap: square"/>
   </g>
   <g id="legend_1">
    <g id="line2d_22">
     <path d="M 238.769531 21.123594 
L 249.769531 21.123594 
L 260.769531 21.123594 
" style="fill: none; stroke: #4c72b0; stroke-width: 1.5; stroke-linecap: round"/>
    </g>
    <g id="text_17">
     <text style="fill: #262626; font: 11px 'sans-serif'; text-anchor: start" x="269.569531" y="24.973594" transform="rotate(-0, 269.569531, 24.973594)">xavier uniform</text>
    </g>
    <g id="line2d_23">
     <path d="M 238.769531 36.683437 
L 249.769531 36.683437 
L 260.769531 36.683437 
" style="fill: none; stroke: #dd8452; stroke-width: 1.5; stroke-linecap: round"/>
    </g>
    <g id="text_18">
     <text style="fill: #262626; font: 11px 'sans-serif'; text-anchor: start" x="269.569531" y="40.533437" transform="rotate(-0, 269.569531, 40.533437)">xavier uniform M 1</text>
    </g>
    <g id="line2d_24">
     <path d="M 238.769531 52.243281 
L 249.769531 52.243281 
L 260.769531 52.243281 
" style="fill: none; stroke: #55a868; stroke-width: 1.5; stroke-linecap: round"/>
    </g>
    <g id="text_19">
     <text style="fill: #262626; font: 11px 'sans-serif'; text-anchor: start" x="269.569531" y="56.093281" transform="rotate(-0, 269.569531, 56.093281)">xavier uniform M 2</text>
    </g>
    <g id="line2d_25">
     <path d="M 238.769531 67.803125 
L 249.769531 67.803125 
L 260.769531 67.803125 
" style="fill: none; stroke: #c44e52; stroke-width: 1.5; stroke-linecap: round"/>
    </g>
    <g id="text_20">
     <text style="fill: #262626; font: 11px 'sans-serif'; text-anchor: start" x="269.569531" y="71.653125" transform="rotate(-0, 269.569531, 71.653125)">xavier uniform M 10</text>
    </g>
    <g id="line2d_26">
     <path d="M 238.769531 83.362969 
L 249.769531 83.362969 
L 260.769531 83.362969 
" style="fill: none; stroke: #8172b3; stroke-width: 1.5; stroke-linecap: round"/>
    </g>
    <g id="text_21">
     <text style="fill: #262626; font: 11px 'sans-serif'; text-anchor: start" x="269.569531" y="87.212969" transform="rotate(-0, 269.569531, 87.212969)">xavier uniform M 14</text>
    </g>
    <g id="line2d_27">
     <path d="M 238.769531 98.922812 
L 249.769531 98.922812 
L 260.769531 98.922812 
" style="fill: none; stroke: #937860; stroke-width: 1.5; stroke-linecap: round"/>
    </g>
    <g id="text_22">
     <text style="fill: #262626; font: 11px 'sans-serif'; text-anchor: start" x="269.569531" y="102.772812" transform="rotate(-0, 269.569531, 102.772812)">xavier uniform M 20</text>
    </g>
    <g id="line2d_28">
     <path d="M 238.769531 114.616719 
L 249.769531 114.616719 
L 260.769531 114.616719 
" style="fill: none; stroke: #da8bc3; stroke-width: 1.5; stroke-linecap: round"/>
    </g>
    <g id="text_23">
     <text style="fill: #262626; font: 11px 'sans-serif'; text-anchor: start" x="269.569531" y="118.466719" transform="rotate(-0, 269.569531, 118.466719)">kaiming uniform</text>
    </g>
   </g>
  </g>
 </g>
 <defs>
  <clipPath id="p773817e9ec">
   <rect x="41.25125" y="7.2" width="334.8" height="217.44"/>
  </clipPath>
 </defs>
</svg>
