<?xml version="1.0" encoding="utf-8" standalone="no"?>
<!DOCTYPE svg PUBLIC "-//W3C//DTD SVG 1.1//EN"
  "http://www.w3.org/Graphics/SVG/1.1/DTD/svg11.dtd">
<svg xmlns:xlink="http://www.w3.org/1999/xlink" width="383.25125pt" height="260.374219pt" viewBox="0 0 383.25125 260.374219" xmlns="http://www.w3.org/2000/svg" version="1.1">
 <metadata>
  <rdf:RDF xmlns:dc="http://purl.org/dc/elements/1.1/" xmlns:cc="http://creativecommons.org/ns#" xmlns:rdf="http://www.w3.org/1999/02/22-rdf-syntax-ns#">
   <cc:Work>
    <dc:type rdf:resource="http://purl.org/dc/dcmitype/StillImage"/>
    <dc:date>2022-05-09T12:55:07.985267</dc:date>
    <dc:format>image/svg+xml</dc:format>
    <dc:creator>
     <cc:Agent>
      <dc:title>Matplotlib v3.5.0, https://matplotlib.org/</dc:title>
     </cc:Agent>
    </dc:creator>
   </cc:Work>
  </rdf:RDF>
 </metadata>
 <defs>
  <style type="text/css">*{stroke-linejoin: round; stroke-linecap: butt}</style>
 </defs>
 <g id="figure_1">
  <g id="patch_1">
   <path d="M 0 260.374219 
L 383.25125 260.374219 
L 383.25125 0 
L 0 0 
z
" style="fill: #ffffff"/>
  </g>
  <g id="axes_1">
   <g id="patch_2">
    <path d="M 41.25125 224.64 
L 376.05125 224.64 
L 376.05125 7.2 
L 41.25125 7.2 
z
" style="fill: #ffffff"/>
   </g>
   <g id="matplotlib.axis_1">
    <g id="xtick_1">
     <g id="line2d_1">
      <path d="M 56.469432 224.64 
L 56.469432 7.2 
" clip-path="url(#pe5a64f4986)" style="fill: none; stroke: #cccccc; stroke-linecap: round"/>
     </g>
     <g id="text_1">
      <text style="fill: #262626; font: 11px 'sans-serif'; text-anchor: middle" x="56.469432" y="236.013594" transform="rotate(-0, 56.469432, 236.013594)">0</text>
     </g>
    </g>
    <g id="xtick_2">
     <g id="line2d_2">
      <path d="M 118.58446 224.64 
L 118.58446 7.2 
" clip-path="url(#pe5a64f4986)" style="fill: none; stroke: #cccccc; stroke-linecap: round"/>
     </g>
     <g id="text_2">
      <text style="fill: #262626; font: 11px 'sans-serif'; text-anchor: middle" x="118.58446" y="236.013594" transform="rotate(-0, 118.58446, 236.013594)">10</text>
     </g>
    </g>
    <g id="xtick_3">
     <g id="line2d_3">
      <path d="M 180.699487 224.64 
L 180.699487 7.2 
" clip-path="url(#pe5a64f4986)" style="fill: none; stroke: #cccccc; stroke-linecap: round"/>
     </g>
     <g id="text_3">
      <text style="fill: #262626; font: 11px 'sans-serif'; text-anchor: middle" x="180.699487" y="236.013594" transform="rotate(-0, 180.699487, 236.013594)">20</text>
     </g>
    </g>
    <g id="xtick_4">
     <g id="line2d_4">
      <path d="M 242.814515 224.64 
L 242.814515 7.2 
" clip-path="url(#pe5a64f4986)" style="fill: none; stroke: #cccccc; stroke-linecap: round"/>
     </g>
     <g id="text_4">
      <text style="fill: #262626; font: 11px 'sans-serif'; text-anchor: middle" x="242.814515" y="236.013594" transform="rotate(-0, 242.814515, 236.013594)">30</text>
     </g>
    </g>
    <g id="xtick_5">
     <g id="line2d_5">
      <path d="M 304.929543 224.64 
L 304.929543 7.2 
" clip-path="url(#pe5a64f4986)" style="fill: none; stroke: #cccccc; stroke-linecap: round"/>
     </g>
     <g id="text_5">
      <text style="fill: #262626; font: 11px 'sans-serif'; text-anchor: middle" x="304.929543" y="236.013594" transform="rotate(-0, 304.929543, 236.013594)">40</text>
     </g>
    </g>
    <g id="xtick_6">
     <g id="line2d_6">
      <path d="M 367.044571 224.64 
L 367.044571 7.2 
" clip-path="url(#pe5a64f4986)" style="fill: none; stroke: #cccccc; stroke-linecap: round"/>
     </g>
     <g id="text_6">
      <text style="fill: #262626; font: 11px 'sans-serif'; text-anchor: middle" x="367.044571" y="236.013594" transform="rotate(-0, 367.044571, 236.013594)">50</text>
     </g>
    </g>
    <g id="text_7">
     <text style="fill: #262626; font: 12px 'sans-serif'; text-anchor: middle" x="208.65125" y="250.789219" transform="rotate(-0, 208.65125, 250.789219)">Epoka</text>
    </g>
   </g>
   <g id="matplotlib.axis_2">
    <g id="ytick_1">
     <g id="line2d_7">
      <path d="M 41.25125 222.549078 
L 376.05125 222.549078 
" clip-path="url(#pe5a64f4986)" style="fill: none; stroke: #cccccc; stroke-linecap: round"/>
     </g>
     <g id="text_8">
      <text style="fill: #262626; font: 11px 'sans-serif'; text-anchor: end" x="37.75125" y="226.485875" transform="rotate(-0, 37.75125, 226.485875)">0.2</text>
     </g>
    </g>
    <g id="ytick_2">
     <g id="line2d_8">
      <path d="M 41.25125 196.88095 
L 376.05125 196.88095 
" clip-path="url(#pe5a64f4986)" style="fill: none; stroke: #cccccc; stroke-linecap: round"/>
     </g>
     <g id="text_9">
      <text style="fill: #262626; font: 11px 'sans-serif'; text-anchor: end" x="37.75125" y="200.817747" transform="rotate(-0, 37.75125, 200.817747)">0.4</text>
     </g>
    </g>
    <g id="ytick_3">
     <g id="line2d_9">
      <path d="M 41.25125 171.212821 
L 376.05125 171.212821 
" clip-path="url(#pe5a64f4986)" style="fill: none; stroke: #cccccc; stroke-linecap: round"/>
     </g>
     <g id="text_10">
      <text style="fill: #262626; font: 11px 'sans-serif'; text-anchor: end" x="37.75125" y="175.149618" transform="rotate(-0, 37.75125, 175.149618)">0.6</text>
     </g>
    </g>
    <g id="ytick_4">
     <g id="line2d_10">
      <path d="M 41.25125 145.544692 
L 376.05125 145.544692 
" clip-path="url(#pe5a64f4986)" style="fill: none; stroke: #cccccc; stroke-linecap: round"/>
     </g>
     <g id="text_11">
      <text style="fill: #262626; font: 11px 'sans-serif'; text-anchor: end" x="37.75125" y="149.481489" transform="rotate(-0, 37.75125, 149.481489)">0.8</text>
     </g>
    </g>
    <g id="ytick_5">
     <g id="line2d_11">
      <path d="M 41.25125 119.876564 
L 376.05125 119.876564 
" clip-path="url(#pe5a64f4986)" style="fill: none; stroke: #cccccc; stroke-linecap: round"/>
     </g>
     <g id="text_12">
      <text style="fill: #262626; font: 11px 'sans-serif'; text-anchor: end" x="37.75125" y="123.813361" transform="rotate(-0, 37.75125, 123.813361)">1.0</text>
     </g>
    </g>
    <g id="ytick_6">
     <g id="line2d_12">
      <path d="M 41.25125 94.208435 
L 376.05125 94.208435 
" clip-path="url(#pe5a64f4986)" style="fill: none; stroke: #cccccc; stroke-linecap: round"/>
     </g>
     <g id="text_13">
      <text style="fill: #262626; font: 11px 'sans-serif'; text-anchor: end" x="37.75125" y="98.145232" transform="rotate(-0, 37.75125, 98.145232)">1.2</text>
     </g>
    </g>
    <g id="ytick_7">
     <g id="line2d_13">
      <path d="M 41.25125 68.540307 
L 376.05125 68.540307 
" clip-path="url(#pe5a64f4986)" style="fill: none; stroke: #cccccc; stroke-linecap: round"/>
     </g>
     <g id="text_14">
      <text style="fill: #262626; font: 11px 'sans-serif'; text-anchor: end" x="37.75125" y="72.477103" transform="rotate(-0, 37.75125, 72.477103)">1.4</text>
     </g>
    </g>
    <g id="ytick_8">
     <g id="line2d_14">
      <path d="M 41.25125 42.872178 
L 376.05125 42.872178 
" clip-path="url(#pe5a64f4986)" style="fill: none; stroke: #cccccc; stroke-linecap: round"/>
     </g>
     <g id="text_15">
      <text style="fill: #262626; font: 11px 'sans-serif'; text-anchor: end" x="37.75125" y="46.808975" transform="rotate(-0, 37.75125, 46.808975)">1.6</text>
     </g>
    </g>
    <g id="ytick_9">
     <g id="line2d_15">
      <path d="M 41.25125 17.204049 
L 376.05125 17.204049 
" clip-path="url(#pe5a64f4986)" style="fill: none; stroke: #cccccc; stroke-linecap: round"/>
     </g>
     <g id="text_16">
      <text style="fill: #262626; font: 11px 'sans-serif'; text-anchor: end" x="37.75125" y="21.140846" transform="rotate(-0, 37.75125, 21.140846)">1.8</text>
     </g>
    </g>
    <g id="text_17">
     <text style="fill: #262626; font: 12px 'sans-serif'; text-anchor: middle" x="15.935625" y="115.92" transform="rotate(-90, 15.935625, 115.92)">Wartość funkcji celu</text>
    </g>
   </g>
   <g id="line2d_16">
    <path d="M 56.469432 17.083636 
L 62.680935 17.434385 
L 68.892437 17.802114 
L 75.10394 18.239276 
L 81.315443 18.831155 
L 87.526946 19.773454 
L 93.738449 21.578077 
L 99.949951 25.140604 
L 106.161454 30.642963 
L 112.372957 38.082784 
L 118.58446 46.263911 
L 124.795962 55.418051 
L 131.007465 64.037025 
L 137.218968 72.023464 
L 143.430471 81.898668 
L 149.641974 91.056015 
L 155.853476 99.280219 
L 162.064979 106.686711 
L 168.276482 113.075914 
L 174.487985 119.337302 
L 180.699487 125.119344 
L 186.91099 130.357334 
L 193.122493 135.4379 
L 199.333996 140.241022 
L 205.545499 145.43143 
L 211.757001 150.461202 
L 217.968504 153.127192 
L 224.180007 156.758344 
L 230.39151 160.334902 
L 236.603013 163.688131 
L 242.814515 166.919587 
L 249.026018 169.082888 
L 255.237521 171.857534 
L 261.449024 173.683622 
L 267.660526 176.155788 
L 273.872029 178.124928 
L 280.083532 180.341892 
L 286.295035 181.954612 
L 292.506538 182.533707 
L 298.71804 185.162504 
L 304.929543 186.974044 
L 311.141046 187.292327 
L 317.352549 188.95211 
L 323.564051 190.396874 
L 329.775554 191.558135 
L 335.987057 192.509544 
L 342.19856 193.724308 
L 348.410063 194.537156 
L 354.621565 195.412078 
L 360.833068 196.230137 
" clip-path="url(#pe5a64f4986)" style="fill: none; stroke: #4c72b0; stroke-width: 1.5; stroke-linecap: round"/>
   </g>
   <g id="line2d_17">
    <path d="M 56.469432 65.333808 
L 62.680935 93.49386 
L 68.892437 105.708132 
L 75.10394 113.709891 
L 81.315443 118.822307 
L 87.526946 123.542609 
L 93.738449 131.222938 
L 99.949951 136.361948 
L 106.161454 139.52952 
L 112.372957 143.338709 
L 118.58446 146.60148 
L 124.795962 147.839668 
L 131.007465 145.425181 
L 137.218968 151.695738 
L 143.430471 154.038601 
L 149.641974 154.85911 
L 155.853476 152.605337 
L 162.064979 157.894734 
L 168.276482 156.814074 
L 174.487985 154.758343 
L 180.699487 154.751551 
L 186.91099 158.451522 
L 193.122493 154.640634 
L 199.333996 152.810084 
L 205.545499 154.823726 
L 211.757001 152.41153 
L 217.968504 152.438946 
L 224.180007 154.399145 
L 230.39151 151.854985 
L 236.603013 148.208324 
L 242.814515 145.1059 
L 249.026018 148.325138 
L 255.237521 151.301744 
L 261.449024 148.859373 
L 267.660526 144.903107 
L 273.872029 144.935264 
L 280.083532 143.835744 
L 286.295035 142.84672 
L 292.506538 139.074063 
L 298.71804 140.293066 
L 304.929543 137.01909 
L 311.141046 135.749151 
L 317.352549 141.644446 
L 323.564051 137.265934 
L 329.775554 133.514142 
L 335.987057 128.307283 
L 342.19856 133.094979 
L 348.410063 125.874623 
L 354.621565 130.77468 
L 360.833068 128.927876 
" clip-path="url(#pe5a64f4986)" style="fill: none; stroke: #dd8452; stroke-width: 1.5; stroke-linecap: round"/>
   </g>
   <g id="line2d_18">
    <path d="M 56.469432 63.352004 
L 62.680935 92.616049 
L 68.892437 103.797875 
L 75.10394 111.826555 
L 81.315443 118.539554 
L 87.526946 124.347832 
L 93.738449 128.889144 
L 99.949951 133.482536 
L 106.161454 137.393645 
L 112.372957 142.310193 
L 118.58446 141.148225 
L 124.795962 145.477809 
L 131.007465 147.349225 
L 137.218968 149.168119 
L 143.430471 151.324854 
L 149.641974 152.5444 
L 155.853476 153.305426 
L 162.064979 153.189873 
L 168.276482 153.833074 
L 174.487985 154.851941 
L 180.699487 153.742595 
L 186.91099 154.917425 
L 193.122493 152.689556 
L 199.333996 148.560501 
L 205.545499 150.115043 
L 211.757001 154.921227 
L 217.968504 155.543429 
L 224.180007 154.526959 
L 230.39151 155.120475 
L 236.603013 148.249552 
L 242.814515 147.096575 
L 249.026018 151.965228 
L 255.237521 149.394313 
L 261.449024 145.123946 
L 267.660526 146.782333 
L 273.872029 142.602957 
L 280.083532 142.104244 
L 286.295035 137.033314 
L 292.506538 139.760143 
L 298.71804 135.822471 
L 304.929543 138.914117 
L 311.141046 137.643481 
L 317.352549 137.931994 
L 323.564051 129.293858 
L 329.775554 130.201796 
L 335.987057 130.957519 
L 342.19856 125.827837 
L 348.410063 124.012214 
L 354.621565 126.079811 
L 360.833068 125.895477 
" clip-path="url(#pe5a64f4986)" style="fill: none; stroke: #55a868; stroke-width: 1.5; stroke-linecap: round"/>
   </g>
   <g id="line2d_19">
    <path d="M 56.469432 18.324076 
L 62.680935 20.225358 
L 68.892437 22.624162 
L 75.10394 26.429605 
L 81.315443 32.702995 
L 87.526946 41.665901 
L 93.738449 52.074379 
L 99.949951 63.714583 
L 106.161454 76.214351 
L 112.372957 89.716639 
L 118.58446 102.022488 
L 124.795962 113.57876 
L 131.007465 124.071566 
L 137.218968 131.817972 
L 143.430471 138.004075 
L 149.641974 142.235202 
L 155.853476 146.643487 
L 162.064979 150.926494 
L 168.276482 155.007564 
L 174.487985 158.669057 
L 180.699487 162.231362 
L 186.91099 166.173026 
L 193.122493 169.497217 
L 199.333996 173.630359 
L 205.545499 175.541726 
L 211.757001 178.618353 
L 217.968504 181.250626 
L 224.180007 182.845468 
L 230.39151 185.147762 
L 236.603013 186.746096 
L 242.814515 188.64493 
L 249.026018 189.699625 
L 255.237521 191.023139 
L 261.449024 192.250332 
L 267.660526 193.380566 
L 273.872029 194.127974 
L 280.083532 195.57371 
L 286.295035 195.788853 
L 292.506538 198.403084 
L 298.71804 198.194564 
L 304.929543 198.992771 
L 311.141046 201.330398 
L 317.352549 202.35395 
L 323.564051 202.466167 
L 329.775554 203.582935 
L 335.987057 204.331668 
L 342.19856 205.044366 
L 348.410063 206.703992 
L 354.621565 207.399881 
L 360.833068 208.258993 
" clip-path="url(#pe5a64f4986)" style="fill: none; stroke: #c44e52; stroke-width: 1.5; stroke-linecap: round"/>
   </g>
   <g id="line2d_20">
    <path d="M 56.469432 18.784256 
L 62.680935 21.942705 
L 68.892437 26.8 
L 75.10394 34.323889 
L 81.315443 44.839813 
L 87.526946 57.506919 
L 93.738449 70.829028 
L 99.949951 83.263885 
L 106.161454 94.666571 
L 112.372957 106.020986 
L 118.58446 116.620883 
L 124.795962 126.281526 
L 131.007465 133.919768 
L 137.218968 138.913668 
L 143.430471 144.283624 
L 149.641974 148.922171 
L 155.853476 152.824651 
L 162.064979 157.116026 
L 168.276482 160.339951 
L 174.487985 163.021593 
L 180.699487 166.577773 
L 186.91099 170.884782 
L 193.122493 173.860323 
L 199.333996 176.457338 
L 205.545499 179.186839 
L 211.757001 182.428714 
L 217.968504 183.890476 
L 224.180007 185.794285 
L 230.39151 188.070845 
L 236.603013 189.809015 
L 242.814515 191.737198 
L 249.026018 193.23054 
L 255.237521 194.841772 
L 261.449024 196.712931 
L 267.660526 197.019576 
L 273.872029 198.343395 
L 280.083532 199.489251 
L 286.295035 200.263763 
L 292.506538 201.312751 
L 298.71804 202.48729 
L 304.929543 203.543604 
L 311.141046 205.572684 
L 317.352549 205.605857 
L 323.564051 207.589594 
L 329.775554 208.051171 
L 335.987057 208.816116 
L 342.19856 209.403181 
L 348.410063 211.867302 
L 354.621565 210.693091 
L 360.833068 212.900491 
" clip-path="url(#pe5a64f4986)" style="fill: none; stroke: #8172b3; stroke-width: 1.5; stroke-linecap: round"/>
   </g>
   <g id="line2d_21">
    <path d="M 56.469432 18.643418 
L 62.680935 22.018199 
L 68.892437 27.585766 
L 75.10394 36.921249 
L 81.315443 48.739341 
L 87.526946 60.051363 
L 93.738449 71.445959 
L 99.949951 83.454776 
L 106.161454 95.746906 
L 112.372957 106.718019 
L 118.58446 116.603051 
L 124.795962 124.83213 
L 131.007465 129.849272 
L 137.218968 134.697969 
L 143.430471 138.852823 
L 149.641974 142.482163 
L 155.853476 145.344764 
L 162.064979 149.155804 
L 168.276482 151.967021 
L 174.487985 155.095077 
L 180.699487 158.470946 
L 186.91099 162.42823 
L 193.122493 167.195649 
L 199.333996 170.830333 
L 205.545499 175.079355 
L 211.757001 178.159072 
L 217.968504 180.821387 
L 224.180007 182.97279 
L 230.39151 185.989468 
L 236.603013 187.002466 
L 242.814515 188.672792 
L 249.026018 190.610555 
L 255.237521 191.812023 
L 261.449024 193.219233 
L 267.660526 194.617336 
L 273.872029 195.907567 
L 280.083532 197.105848 
L 286.295035 198.759707 
L 292.506538 199.398943 
L 298.71804 200.05952 
L 304.929543 201.698966 
L 311.141046 202.511518 
L 317.352549 203.174736 
L 323.564051 204.722917 
L 329.775554 205.764651 
L 335.987057 207.222305 
L 342.19856 207.957887 
L 348.410063 209.215869 
L 354.621565 209.757981 
L 360.833068 210.644828 
" clip-path="url(#pe5a64f4986)" style="fill: none; stroke: #937860; stroke-width: 1.5; stroke-linecap: round"/>
   </g>
   <g id="line2d_22">
    <path d="M 56.469432 55.6145 
L 62.680935 89.138366 
L 68.892437 100.509788 
L 75.10394 108.469325 
L 81.315443 114.278618 
L 87.526946 121.541654 
L 93.738449 127.105902 
L 99.949951 132.331375 
L 106.161454 137.833622 
L 112.372957 142.332279 
L 118.58446 146.370593 
L 124.795962 150.673319 
L 131.007465 155.10586 
L 137.218968 158.001963 
L 143.430471 160.56846 
L 149.641974 164.984782 
L 155.853476 167.177136 
L 162.064979 168.157507 
L 168.276482 170.879342 
L 174.487985 173.170075 
L 180.699487 175.392962 
L 186.91099 177.927979 
L 193.122493 179.564806 
L 199.333996 180.101239 
L 205.545499 182.527029 
L 211.757001 183.684842 
L 217.968504 184.969156 
L 224.180007 186.109698 
L 230.39151 187.980461 
L 236.603013 189.341983 
L 242.814515 191.644213 
L 249.026018 192.415378 
L 255.237521 193.936162 
L 261.449024 196.60647 
L 267.660526 196.838526 
L 273.872029 198.275953 
L 280.083532 199.706619 
L 286.295035 200.542586 
L 292.506538 203.004496 
L 298.71804 203.818651 
L 304.929543 203.601855 
L 311.141046 206.645807 
L 317.352549 207.138504 
L 323.564051 209.648562 
L 329.775554 210.159326 
L 335.987057 211.228396 
L 342.19856 212.887006 
L 348.410063 213.981186 
L 354.621565 214.697913 
L 360.833068 214.756364 
" clip-path="url(#pe5a64f4986)" style="fill: none; stroke: #da8bc3; stroke-width: 1.5; stroke-linecap: round"/>
   </g>
   <g id="patch_3">
    <path d="M 41.25125 224.64 
L 41.25125 7.2 
" style="fill: none; stroke: #cccccc; stroke-linejoin: miter; stroke-linecap: square"/>
   </g>
   <g id="patch_4">
    <path d="M 376.05125 224.64 
L 376.05125 7.2 
" style="fill: none; stroke: #cccccc; stroke-linejoin: miter; stroke-linecap: square"/>
   </g>
   <g id="patch_5">
    <path d="M 41.25125 224.64 
L 376.05125 224.64 
" style="fill: none; stroke: #cccccc; stroke-linejoin: miter; stroke-linecap: square"/>
   </g>
   <g id="patch_6">
    <path d="M 41.25125 7.2 
L 376.05125 7.2 
" style="fill: none; stroke: #cccccc; stroke-linejoin: miter; stroke-linecap: square"/>
   </g>
   <g id="legend_1">
    <g id="line2d_23">
     <path d="M 238.769531 21.123594 
L 249.769531 21.123594 
L 260.769531 21.123594 
" style="fill: none; stroke: #4c72b0; stroke-width: 1.5; stroke-linecap: round"/>
    </g>
    <g id="text_18">
     <text style="fill: #262626; font: 11px 'sans-serif'; text-anchor: start" x="269.569531" y="24.973594" transform="rotate(-0, 269.569531, 24.973594)">xavier uniform</text>
    </g>
    <g id="line2d_24">
     <path d="M 238.769531 36.683437 
L 249.769531 36.683437 
L 260.769531 36.683437 
" style="fill: none; stroke: #dd8452; stroke-width: 1.5; stroke-linecap: round"/>
    </g>
    <g id="text_19">
     <text style="fill: #262626; font: 11px 'sans-serif'; text-anchor: start" x="269.569531" y="40.533437" transform="rotate(-0, 269.569531, 40.533437)">xavier uniform M 1</text>
    </g>
    <g id="line2d_25">
     <path d="M 238.769531 52.243281 
L 249.769531 52.243281 
L 260.769531 52.243281 
" style="fill: none; stroke: #55a868; stroke-width: 1.5; stroke-linecap: round"/>
    </g>
    <g id="text_20">
     <text style="fill: #262626; font: 11px 'sans-serif'; text-anchor: start" x="269.569531" y="56.093281" transform="rotate(-0, 269.569531, 56.093281)">xavier uniform M 2</text>
    </g>
    <g id="line2d_26">
     <path d="M 238.769531 67.803125 
L 249.769531 67.803125 
L 260.769531 67.803125 
" style="fill: none; stroke: #c44e52; stroke-width: 1.5; stroke-linecap: round"/>
    </g>
    <g id="text_21">
     <text style="fill: #262626; font: 11px 'sans-serif'; text-anchor: start" x="269.569531" y="71.653125" transform="rotate(-0, 269.569531, 71.653125)">xavier uniform M 10</text>
    </g>
    <g id="line2d_27">
     <path d="M 238.769531 83.362969 
L 249.769531 83.362969 
L 260.769531 83.362969 
" style="fill: none; stroke: #8172b3; stroke-width: 1.5; stroke-linecap: round"/>
    </g>
    <g id="text_22">
     <text style="fill: #262626; font: 11px 'sans-serif'; text-anchor: start" x="269.569531" y="87.212969" transform="rotate(-0, 269.569531, 87.212969)">xavier uniform M 14</text>
    </g>
    <g id="line2d_28">
     <path d="M 238.769531 98.922812 
L 249.769531 98.922812 
L 260.769531 98.922812 
" style="fill: none; stroke: #937860; stroke-width: 1.5; stroke-linecap: round"/>
    </g>
    <g id="text_23">
     <text style="fill: #262626; font: 11px 'sans-serif'; text-anchor: start" x="269.569531" y="102.772812" transform="rotate(-0, 269.569531, 102.772812)">xavier uniform M 20</text>
    </g>
    <g id="line2d_29">
     <path d="M 238.769531 114.616719 
L 249.769531 114.616719 
L 260.769531 114.616719 
" style="fill: none; stroke: #da8bc3; stroke-width: 1.5; stroke-linecap: round"/>
    </g>
    <g id="text_24">
     <text style="fill: #262626; font: 11px 'sans-serif'; text-anchor: start" x="269.569531" y="118.466719" transform="rotate(-0, 269.569531, 118.466719)">kaiming uniform</text>
    </g>
   </g>
  </g>
 </g>
 <defs>
  <clipPath id="pe5a64f4986">
   <rect x="41.25125" y="7.2" width="334.8" height="217.44"/>
  </clipPath>
 </defs>
</svg>
