<?xml version="1.0" encoding="utf-8" standalone="no"?>
<!DOCTYPE svg PUBLIC "-//W3C//DTD SVG 1.1//EN"
  "http://www.w3.org/Graphics/SVG/1.1/DTD/svg11.dtd">
<svg xmlns:xlink="http://www.w3.org/1999/xlink" width="389.368281pt" height="260.374219pt" viewBox="0 0 389.368281 260.374219" xmlns="http://www.w3.org/2000/svg" version="1.1">
 <metadata>
  <rdf:RDF xmlns:dc="http://purl.org/dc/elements/1.1/" xmlns:cc="http://creativecommons.org/ns#" xmlns:rdf="http://www.w3.org/1999/02/22-rdf-syntax-ns#">
   <cc:Work>
    <dc:type rdf:resource="http://purl.org/dc/dcmitype/StillImage"/>
    <dc:date>2022-05-09T12:55:06.609722</dc:date>
    <dc:format>image/svg+xml</dc:format>
    <dc:creator>
     <cc:Agent>
      <dc:title>Matplotlib v3.5.0, https://matplotlib.org/</dc:title>
     </cc:Agent>
    </dc:creator>
   </cc:Work>
  </rdf:RDF>
 </metadata>
 <defs>
  <style type="text/css">*{stroke-linejoin: round; stroke-linecap: butt}</style>
 </defs>
 <g id="figure_1">
  <g id="patch_1">
   <path d="M 0 260.374219 
L 389.368281 260.374219 
L 389.368281 0 
L 0 0 
z
" style="fill: #ffffff"/>
  </g>
  <g id="axes_1">
   <g id="patch_2">
    <path d="M 47.368281 224.64 
L 382.168281 224.64 
L 382.168281 7.2 
L 47.368281 7.2 
z
" style="fill: #ffffff"/>
   </g>
   <g id="matplotlib.axis_1">
    <g id="xtick_1">
     <g id="line2d_1">
      <path d="M 62.586463 224.64 
L 62.586463 7.2 
" clip-path="url(#pd30bbec86a)" style="fill: none; stroke: #cccccc; stroke-linecap: round"/>
     </g>
     <g id="text_1">
      <text style="fill: #262626; font: 11px 'sans-serif'; text-anchor: middle" x="62.586463" y="236.013594" transform="rotate(-0, 62.586463, 236.013594)">0</text>
     </g>
    </g>
    <g id="xtick_2">
     <g id="line2d_2">
      <path d="M 100.823101 224.64 
L 100.823101 7.2 
" clip-path="url(#pd30bbec86a)" style="fill: none; stroke: #cccccc; stroke-linecap: round"/>
     </g>
     <g id="text_2">
      <text style="fill: #262626; font: 11px 'sans-serif'; text-anchor: middle" x="100.823101" y="236.013594" transform="rotate(-0, 100.823101, 236.013594)">25</text>
     </g>
    </g>
    <g id="xtick_3">
     <g id="line2d_3">
      <path d="M 139.059739 224.64 
L 139.059739 7.2 
" clip-path="url(#pd30bbec86a)" style="fill: none; stroke: #cccccc; stroke-linecap: round"/>
     </g>
     <g id="text_3">
      <text style="fill: #262626; font: 11px 'sans-serif'; text-anchor: middle" x="139.059739" y="236.013594" transform="rotate(-0, 139.059739, 236.013594)">50</text>
     </g>
    </g>
    <g id="xtick_4">
     <g id="line2d_4">
      <path d="M 177.296376 224.64 
L 177.296376 7.2 
" clip-path="url(#pd30bbec86a)" style="fill: none; stroke: #cccccc; stroke-linecap: round"/>
     </g>
     <g id="text_4">
      <text style="fill: #262626; font: 11px 'sans-serif'; text-anchor: middle" x="177.296376" y="236.013594" transform="rotate(-0, 177.296376, 236.013594)">75</text>
     </g>
    </g>
    <g id="xtick_5">
     <g id="line2d_5">
      <path d="M 215.533014 224.64 
L 215.533014 7.2 
" clip-path="url(#pd30bbec86a)" style="fill: none; stroke: #cccccc; stroke-linecap: round"/>
     </g>
     <g id="text_5">
      <text style="fill: #262626; font: 11px 'sans-serif'; text-anchor: middle" x="215.533014" y="236.013594" transform="rotate(-0, 215.533014, 236.013594)">100</text>
     </g>
    </g>
    <g id="xtick_6">
     <g id="line2d_6">
      <path d="M 253.769652 224.64 
L 253.769652 7.2 
" clip-path="url(#pd30bbec86a)" style="fill: none; stroke: #cccccc; stroke-linecap: round"/>
     </g>
     <g id="text_6">
      <text style="fill: #262626; font: 11px 'sans-serif'; text-anchor: middle" x="253.769652" y="236.013594" transform="rotate(-0, 253.769652, 236.013594)">125</text>
     </g>
    </g>
    <g id="xtick_7">
     <g id="line2d_7">
      <path d="M 292.006289 224.64 
L 292.006289 7.2 
" clip-path="url(#pd30bbec86a)" style="fill: none; stroke: #cccccc; stroke-linecap: round"/>
     </g>
     <g id="text_7">
      <text style="fill: #262626; font: 11px 'sans-serif'; text-anchor: middle" x="292.006289" y="236.013594" transform="rotate(-0, 292.006289, 236.013594)">150</text>
     </g>
    </g>
    <g id="xtick_8">
     <g id="line2d_8">
      <path d="M 330.242927 224.64 
L 330.242927 7.2 
" clip-path="url(#pd30bbec86a)" style="fill: none; stroke: #cccccc; stroke-linecap: round"/>
     </g>
     <g id="text_8">
      <text style="fill: #262626; font: 11px 'sans-serif'; text-anchor: middle" x="330.242927" y="236.013594" transform="rotate(-0, 330.242927, 236.013594)">175</text>
     </g>
    </g>
    <g id="xtick_9">
     <g id="line2d_9">
      <path d="M 368.479565 224.64 
L 368.479565 7.2 
" clip-path="url(#pd30bbec86a)" style="fill: none; stroke: #cccccc; stroke-linecap: round"/>
     </g>
     <g id="text_9">
      <text style="fill: #262626; font: 11px 'sans-serif'; text-anchor: middle" x="368.479565" y="236.013594" transform="rotate(-0, 368.479565, 236.013594)">200</text>
     </g>
    </g>
    <g id="text_10">
     <text style="fill: #262626; font: 12px 'sans-serif'; text-anchor: middle" x="214.768281" y="250.789219" transform="rotate(-0, 214.768281, 250.789219)">Epoka</text>
    </g>
   </g>
   <g id="matplotlib.axis_2">
    <g id="ytick_1">
     <g id="line2d_10">
      <path d="M 47.368281 214.894292 
L 382.168281 214.894292 
" clip-path="url(#pd30bbec86a)" style="fill: none; stroke: #cccccc; stroke-linecap: round"/>
     </g>
     <g id="text_11">
      <text style="fill: #262626; font: 11px 'sans-serif'; text-anchor: end" x="43.868281" y="218.831089" transform="rotate(-0, 43.868281, 218.831089)">0.00</text>
     </g>
    </g>
    <g id="ytick_2">
     <g id="line2d_11">
      <path d="M 47.368281 187.304049 
L 382.168281 187.304049 
" clip-path="url(#pd30bbec86a)" style="fill: none; stroke: #cccccc; stroke-linecap: round"/>
     </g>
     <g id="text_12">
      <text style="fill: #262626; font: 11px 'sans-serif'; text-anchor: end" x="43.868281" y="191.240846" transform="rotate(-0, 43.868281, 191.240846)">0.25</text>
     </g>
    </g>
    <g id="ytick_3">
     <g id="line2d_12">
      <path d="M 47.368281 159.713806 
L 382.168281 159.713806 
" clip-path="url(#pd30bbec86a)" style="fill: none; stroke: #cccccc; stroke-linecap: round"/>
     </g>
     <g id="text_13">
      <text style="fill: #262626; font: 11px 'sans-serif'; text-anchor: end" x="43.868281" y="163.650603" transform="rotate(-0, 43.868281, 163.650603)">0.50</text>
     </g>
    </g>
    <g id="ytick_4">
     <g id="line2d_13">
      <path d="M 47.368281 132.123563 
L 382.168281 132.123563 
" clip-path="url(#pd30bbec86a)" style="fill: none; stroke: #cccccc; stroke-linecap: round"/>
     </g>
     <g id="text_14">
      <text style="fill: #262626; font: 11px 'sans-serif'; text-anchor: end" x="43.868281" y="136.06036" transform="rotate(-0, 43.868281, 136.06036)">0.75</text>
     </g>
    </g>
    <g id="ytick_5">
     <g id="line2d_14">
      <path d="M 47.368281 104.53332 
L 382.168281 104.53332 
" clip-path="url(#pd30bbec86a)" style="fill: none; stroke: #cccccc; stroke-linecap: round"/>
     </g>
     <g id="text_15">
      <text style="fill: #262626; font: 11px 'sans-serif'; text-anchor: end" x="43.868281" y="108.470117" transform="rotate(-0, 43.868281, 108.470117)">1.00</text>
     </g>
    </g>
    <g id="ytick_6">
     <g id="line2d_15">
      <path d="M 47.368281 76.943077 
L 382.168281 76.943077 
" clip-path="url(#pd30bbec86a)" style="fill: none; stroke: #cccccc; stroke-linecap: round"/>
     </g>
     <g id="text_16">
      <text style="fill: #262626; font: 11px 'sans-serif'; text-anchor: end" x="43.868281" y="80.879874" transform="rotate(-0, 43.868281, 80.879874)">1.25</text>
     </g>
    </g>
    <g id="ytick_7">
     <g id="line2d_16">
      <path d="M 47.368281 49.352834 
L 382.168281 49.352834 
" clip-path="url(#pd30bbec86a)" style="fill: none; stroke: #cccccc; stroke-linecap: round"/>
     </g>
     <g id="text_17">
      <text style="fill: #262626; font: 11px 'sans-serif'; text-anchor: end" x="43.868281" y="53.289631" transform="rotate(-0, 43.868281, 53.289631)">1.50</text>
     </g>
    </g>
    <g id="ytick_8">
     <g id="line2d_17">
      <path d="M 47.368281 21.762591 
L 382.168281 21.762591 
" clip-path="url(#pd30bbec86a)" style="fill: none; stroke: #cccccc; stroke-linecap: round"/>
     </g>
     <g id="text_18">
      <text style="fill: #262626; font: 11px 'sans-serif'; text-anchor: end" x="43.868281" y="25.699388" transform="rotate(-0, 43.868281, 25.699388)">1.75</text>
     </g>
    </g>
    <g id="text_19">
     <text style="fill: #262626; font: 12px 'sans-serif'; text-anchor: middle" x="15.935625" y="115.92" transform="rotate(-90, 15.935625, 115.92)">Wartość funkcji celu</text>
    </g>
   </g>
   <g id="line2d_18">
    <path d="M 62.586463 36.896577 
L 64.115929 86.452422 
L 65.645394 103.51888 
L 67.17486 114.472947 
L 68.704325 123.341689 
L 70.233791 129.924296 
L 74.822187 147.526594 
L 76.351653 152.432094 
L 77.881118 156.787297 
L 79.410584 160.43281 
L 82.469515 166.082073 
L 83.99898 169.225191 
L 85.528446 171.00339 
L 87.057911 173.343948 
L 88.587377 176.580804 
L 90.116842 177.851096 
L 91.646308 178.965353 
L 93.175773 181.555113 
L 97.76417 185.0709 
L 99.293635 185.868741 
L 100.823101 187.116548 
L 102.352566 188.195135 
L 103.882032 188.133079 
L 105.411497 191.758277 
L 106.940963 192.832629 
L 108.470428 193.18169 
L 109.999894 197.303732 
L 111.529359 198.968221 
L 113.058825 202.486912 
L 114.58829 203.250793 
L 116.117756 203.827257 
L 117.647221 208.452617 
L 119.176687 209.155706 
L 120.706152 209.170024 
L 122.235618 209.378705 
L 123.765083 210.826305 
L 125.294549 211.078205 
L 126.824014 212.345835 
L 128.35348 212.611874 
L 129.882945 212.224297 
L 131.412411 213.348788 
L 134.471342 213.545688 
L 137.530273 213.760508 
L 139.059739 213.603689 
L 140.589204 213.599458 
L 142.11867 213.985262 
L 143.648135 213.982996 
L 145.177601 214.212443 
L 151.295463 214.469717 
L 154.354394 214.413745 
L 157.413325 214.617377 
L 165.060652 214.591255 
L 166.590118 214.66827 
L 168.119583 214.595589 
L 172.70798 214.659842 
L 307.300945 214.741608 
L 337.890255 214.726945 
L 354.714375 214.717593 
L 360.832237 214.7325 
L 366.950099 214.723839 
L 366.950099 214.723839 
" clip-path="url(#pd30bbec86a)" style="fill: none; stroke: #4c72b0; stroke-width: 1.5; stroke-linecap: round"/>
   </g>
   <g id="line2d_19">
    <path d="M 62.586463 19.330952 
L 64.115929 40.05264 
L 65.645394 49.198232 
L 67.17486 64.816255 
L 68.704325 74.334155 
L 70.233791 79.505621 
L 71.763256 82.787999 
L 74.822187 88.579568 
L 77.881118 94.498049 
L 79.410584 97.141878 
L 80.940049 100.956639 
L 82.469515 103.478057 
L 83.99898 105.628305 
L 85.528446 108.182798 
L 90.116842 114.23116 
L 91.646308 115.912353 
L 93.175773 118.018385 
L 94.705239 119.469121 
L 96.234704 121.69489 
L 97.76417 123.503335 
L 99.293635 125.822343 
L 102.352566 129.208794 
L 103.882032 131.368922 
L 106.940963 135.036656 
L 108.470428 137.232753 
L 109.999894 138.658823 
L 111.529359 141.012026 
L 113.058825 143.096366 
L 114.58829 144.757487 
L 117.647221 148.839964 
L 119.176687 150.66027 
L 120.706152 152.6569 
L 122.235618 154.25965 
L 123.765083 156.474267 
L 126.824014 160.163219 
L 128.35348 161.79828 
L 129.882945 163.647995 
L 131.412411 165.249421 
L 132.941876 167.118494 
L 134.471342 168.656117 
L 136.000808 170.770888 
L 137.530273 171.898989 
L 140.589204 175.863817 
L 142.11867 177.057114 
L 143.648135 178.711487 
L 145.177601 179.769338 
L 146.707066 181.224725 
L 148.236532 181.885395 
L 149.765997 184.253483 
L 151.295463 185.122789 
L 152.824928 186.462027 
L 154.354394 186.537986 
L 155.883859 188.544704 
L 157.413325 188.746646 
L 158.94279 190.226996 
L 160.472256 191.185399 
L 162.001721 191.503378 
L 163.531187 192.827276 
L 165.060652 193.108149 
L 166.590118 193.582861 
L 168.119583 196.246358 
L 169.649049 198.414959 
L 172.70798 200.513576 
L 174.237445 200.012674 
L 175.766911 202.237463 
L 178.825842 203.241748 
L 180.355307 203.760532 
L 181.884773 206.414284 
L 183.414238 206.108196 
L 184.943704 208.011391 
L 186.473169 209.508919 
L 188.002635 208.813029 
L 189.5321 210.014107 
L 192.591031 211.386895 
L 194.120497 211.764344 
L 197.179428 211.589691 
L 198.708893 212.45922 
L 200.238359 212.673359 
L 201.767824 212.683222 
L 203.29729 213.162789 
L 204.826755 213.121398 
L 206.356221 213.525912 
L 207.885686 213.624284 
L 209.415152 213.85155 
L 214.003548 213.761987 
L 215.533014 214.062097 
L 217.06248 214.082309 
L 218.591945 214.254816 
L 220.121411 214.21506 
L 223.180342 214.379974 
L 224.709807 214.290259 
L 227.768738 214.445394 
L 230.827669 214.268618 
L 232.357135 214.541512 
L 233.8866 214.582878 
L 235.416066 214.429332 
L 236.945531 214.561635 
L 243.063393 214.56405 
L 244.592859 214.622026 
L 246.122324 214.524295 
L 249.181255 214.607067 
L 316.477738 214.640087 
L 321.066134 214.684196 
L 327.183996 214.680005 
L 336.360789 214.695825 
L 347.067048 214.67742 
L 357.773306 214.687792 
L 360.832237 214.63445 
L 363.891168 214.685432 
L 366.950099 214.674304 
L 366.950099 214.674304 
" clip-path="url(#pd30bbec86a)" style="fill: none; stroke: #dd8452; stroke-width: 1.5; stroke-linecap: round"/>
   </g>
   <g id="line2d_20">
    <path d="M 62.586463 17.083636 
L 65.645394 17.205323 
L 76.351653 17.224441 
L 77.881118 17.388218 
L 79.410584 30.829368 
L 80.940049 40.00305 
L 82.469515 44.645296 
L 83.99898 47.445011 
L 85.528446 50.485435 
L 87.057911 65.96949 
L 88.587377 76.858984 
L 91.646308 110.361456 
L 93.175773 118.594261 
L 94.705239 125.679679 
L 97.76417 136.684724 
L 99.293635 140.854068 
L 102.352566 150.720891 
L 103.882032 154.765249 
L 105.411497 158.01222 
L 106.940963 161.557971 
L 108.470428 163.678523 
L 109.999894 166.33202 
L 111.529359 168.369816 
L 113.058825 169.941714 
L 114.58829 170.73664 
L 116.117756 174.552464 
L 117.647221 174.349842 
L 119.176687 179.807858 
L 120.706152 182.195688 
L 122.235618 182.261785 
L 123.765083 183.319512 
L 125.294549 184.923778 
L 126.824014 193.039325 
L 129.882945 196.023156 
L 131.412411 197.037999 
L 132.941876 200.420158 
L 134.471342 201.158836 
L 136.000808 203.097908 
L 137.530273 206.497133 
L 142.11867 207.841768 
L 143.648135 206.805548 
L 145.177601 209.754974 
L 146.707066 208.707458 
L 148.236532 210.899574 
L 149.765997 210.475728 
L 151.295463 212.022063 
L 152.824928 212.306041 
L 155.883859 213.294657 
L 157.413325 213.424583 
L 158.94279 213.427353 
L 162.001721 213.885792 
L 163.531187 213.6918 
L 165.060652 214.072622 
L 166.590118 214.184584 
L 168.119583 214.123056 
L 171.178514 214.384926 
L 172.70798 214.499348 
L 174.237445 214.426217 
L 181.884773 214.613562 
L 184.943704 214.597691 
L 188.002635 214.63704 
L 192.591031 214.665944 
L 223.180342 214.699752 
L 227.768738 214.655827 
L 230.827669 214.708221 
L 240.004462 214.671793 
L 305.771479 214.707119 
L 308.83041 214.699287 
L 314.948272 214.687686 
L 321.066134 214.690642 
L 366.950099 214.713546 
L 366.950099 214.713546 
" clip-path="url(#pd30bbec86a)" style="fill: none; stroke: #55a868; stroke-width: 1.5; stroke-linecap: round"/>
   </g>
   <g id="line2d_21">
    <path d="M 62.586463 59.036701 
L 64.115929 103.048221 
L 65.645394 115.944134 
L 67.17486 125.263627 
L 71.763256 144.716085 
L 73.292722 150.312124 
L 74.822187 154.873544 
L 79.410584 166.01356 
L 80.940049 168.066228 
L 82.469515 171.82694 
L 83.99898 173.751694 
L 87.057911 178.152048 
L 88.587377 179.33723 
L 90.116842 181.846398 
L 91.646308 183.167826 
L 93.175773 183.914103 
L 94.705239 184.914389 
L 96.234704 186.514507 
L 97.76417 187.173899 
L 99.293635 188.512105 
L 100.823101 189.668748 
L 102.352566 189.434304 
L 103.882032 193.974452 
L 105.411497 194.411868 
L 106.940963 197.238876 
L 108.470428 200.962208 
L 109.999894 202.258462 
L 111.529359 201.723337 
L 113.058825 203.646759 
L 114.58829 203.610323 
L 116.117756 206.015657 
L 117.647221 205.328666 
L 119.176687 209.316678 
L 120.706152 210.260306 
L 122.235618 209.815407 
L 123.765083 210.677321 
L 125.294549 212.391763 
L 126.824014 212.766844 
L 128.35348 212.284645 
L 129.882945 213.044527 
L 131.412411 213.001338 
L 132.941876 213.622286 
L 136.000808 214.043178 
L 137.530273 213.9733 
L 139.059739 214.236884 
L 142.11867 214.35676 
L 143.648135 214.366586 
L 145.177601 214.492864 
L 149.765997 214.572941 
L 157.413325 214.640431 
L 160.472256 214.659409 
L 174.237445 214.679272 
L 183.414238 214.719177 
L 189.5321 214.718815 
L 203.29729 214.735313 
L 209.415152 214.706449 
L 214.003548 214.721842 
L 233.8866 214.711088 
L 238.474997 214.716013 
L 269.064307 214.732284 
L 272.123238 214.708176 
L 282.829496 214.731311 
L 298.124152 214.734231 
L 311.889341 214.744081 
L 354.714375 214.732555 
L 366.950099 214.727875 
L 366.950099 214.727875 
" clip-path="url(#pd30bbec86a)" style="fill: none; stroke: #c44e52; stroke-width: 1.5; stroke-linecap: round"/>
   </g>
   <g id="line2d_22">
    <path d="M 62.586463 70.423457 
L 64.115929 111.263812 
L 65.645394 122.136475 
L 68.704325 137.973965 
L 71.763256 150.63807 
L 74.822187 160.017315 
L 76.351653 163.460218 
L 77.881118 166.180198 
L 79.410584 169.866204 
L 80.940049 171.903359 
L 82.469515 174.854553 
L 83.99898 176.705129 
L 85.528446 178.981157 
L 87.057911 180.960881 
L 88.587377 182.091592 
L 90.116842 183.657926 
L 91.646308 184.079041 
L 93.175773 185.758099 
L 94.705239 186.639499 
L 96.234704 187.807555 
L 97.76417 188.183978 
L 99.293635 189.589265 
L 100.823101 189.161435 
L 102.352566 192.663708 
L 103.882032 193.363345 
L 105.411497 197.547223 
L 106.940963 198.115287 
L 109.999894 203.923367 
L 111.529359 203.779577 
L 113.058825 206.055542 
L 114.58829 207.020392 
L 116.117756 206.752386 
L 117.647221 208.429529 
L 119.176687 210.490554 
L 120.706152 211.108643 
L 122.235618 211.846838 
L 123.765083 212.401171 
L 125.294549 212.288966 
L 126.824014 213.17627 
L 129.882945 213.283919 
L 131.412411 213.641863 
L 132.941876 213.594342 
L 134.471342 213.888819 
L 136.000808 214.306435 
L 137.530273 213.959606 
L 139.059739 214.31113 
L 140.589204 214.453957 
L 142.11867 214.342069 
L 143.648135 214.518224 
L 160.472256 214.698429 
L 163.531187 214.666962 
L 171.178514 214.679376 
L 209.415152 214.715738 
L 223.180342 214.707071 
L 229.298204 214.712658 
L 241.533928 214.730985 
L 244.592859 214.699838 
L 266.005376 214.734538 
L 272.123238 214.702132 
L 290.476824 214.714438 
L 295.06522 214.681645 
L 299.653617 214.724454 
L 308.83041 214.733682 
L 340.949186 214.725238 
L 351.655444 214.707771 
L 354.714375 214.722904 
L 362.361703 214.7055 
L 366.950099 214.727958 
L 366.950099 214.727958 
" clip-path="url(#pd30bbec86a)" style="fill: none; stroke: #8172b3; stroke-width: 1.5; stroke-linecap: round"/>
   </g>
   <g id="line2d_23">
    <path d="M 62.586463 75.21848 
L 64.115929 112.084562 
L 65.645394 125.361844 
L 67.17486 136.055182 
L 68.704325 144.463358 
L 70.233791 151.707802 
L 71.763256 155.955781 
L 73.292722 160.722917 
L 76.351653 168.521104 
L 77.881118 170.998752 
L 79.410584 174.351129 
L 80.940049 176.106696 
L 82.469515 177.551872 
L 83.99898 180.069476 
L 87.057911 183.32092 
L 88.587377 184.661024 
L 90.116842 186.322085 
L 91.646308 187.330683 
L 93.175773 187.698716 
L 94.705239 191.002483 
L 96.234704 190.772604 
L 99.293635 197.164961 
L 100.823101 201.325083 
L 102.352566 204.291412 
L 103.882032 205.150476 
L 105.411497 203.957813 
L 106.940963 208.312112 
L 108.470428 209.421762 
L 109.999894 209.14626 
L 111.529359 210.070902 
L 113.058825 210.199468 
L 114.58829 212.256691 
L 116.117756 212.052064 
L 117.647221 212.616006 
L 119.176687 212.929587 
L 120.706152 213.527178 
L 123.765083 213.847674 
L 125.294549 213.880442 
L 126.824014 214.269223 
L 128.35348 214.173007 
L 131.412411 214.442511 
L 132.941876 214.502176 
L 134.471342 214.397113 
L 136.000808 214.619388 
L 137.530273 214.515073 
L 142.11867 214.600732 
L 151.295463 214.714325 
L 154.354394 214.699951 
L 172.70798 214.679395 
L 189.5321 214.739709 
L 194.120497 214.679794 
L 201.767824 214.724065 
L 259.887514 214.699918 
L 267.534841 214.658869 
L 269.064307 214.735559 
L 273.652703 214.687526 
L 278.2411 214.726594 
L 366.950099 214.711439 
L 366.950099 214.711439 
" clip-path="url(#pd30bbec86a)" style="fill: none; stroke: #937860; stroke-width: 1.5; stroke-linecap: round"/>
   </g>
   <g id="line2d_24">
    <path d="M 62.586463 18.975881 
L 68.704325 38.139092 
L 71.763256 48.667381 
L 73.292722 54.369531 
L 74.822187 60.627385 
L 79.410584 78.12488 
L 80.940049 83.177402 
L 82.469515 86.98247 
L 83.99898 90.08459 
L 85.528446 91.743419 
L 87.057911 93.835292 
L 88.587377 95.611456 
L 91.646308 98.257859 
L 93.175773 100.320035 
L 94.705239 101.504472 
L 96.234704 103.498179 
L 97.76417 104.418872 
L 99.293635 105.712984 
L 100.823101 106.437117 
L 102.352566 108.126091 
L 103.882032 110.018206 
L 105.411497 111.675248 
L 108.470428 115.344315 
L 109.999894 116.167092 
L 113.058825 119.218968 
L 114.58829 121.087883 
L 116.117756 122.638434 
L 117.647221 123.914196 
L 119.176687 124.982203 
L 120.706152 126.370395 
L 122.235618 128.580239 
L 123.765083 129.275349 
L 125.294549 130.863842 
L 126.824014 131.770149 
L 128.35348 132.199349 
L 129.882945 133.653519 
L 131.412411 135.461888 
L 132.941876 136.555727 
L 134.471342 137.454362 
L 136.000808 138.797207 
L 137.530273 139.400356 
L 139.059739 140.867855 
L 143.648135 144.528681 
L 145.177601 144.934506 
L 146.707066 147.139919 
L 148.236532 148.311806 
L 149.765997 149.847251 
L 151.295463 150.701742 
L 152.824928 151.852816 
L 154.354394 154.126227 
L 155.883859 154.665986 
L 157.413325 155.598552 
L 158.94279 155.930681 
L 160.472256 158.488308 
L 162.001721 158.73852 
L 163.531187 160.968049 
L 165.060652 162.344411 
L 166.590118 162.916391 
L 168.119583 163.755241 
L 169.649049 165.59806 
L 171.178514 167.677803 
L 172.70798 168.318915 
L 174.237445 169.709138 
L 175.766911 170.620737 
L 177.296376 172.241087 
L 178.825842 172.731419 
L 180.355307 175.239789 
L 181.884773 175.891988 
L 183.414238 178.053989 
L 184.943704 179.071123 
L 188.002635 182.319824 
L 189.5321 184.7509 
L 191.061566 186.214771 
L 192.591031 187.366715 
L 194.120497 187.676566 
L 195.649962 190.546354 
L 197.179428 190.412843 
L 200.238359 195.051861 
L 201.767824 195.465048 
L 203.29729 195.63101 
L 204.826755 197.784498 
L 206.356221 198.673158 
L 207.885686 199.107668 
L 209.415152 201.404022 
L 212.474083 202.534261 
L 214.003548 202.593086 
L 215.533014 205.421073 
L 217.06248 204.688063 
L 218.591945 204.613356 
L 220.121411 205.630014 
L 221.650876 206.132353 
L 223.180342 207.179634 
L 224.709807 207.100191 
L 226.239273 207.735282 
L 227.768738 207.435773 
L 229.298204 208.028409 
L 230.827669 208.343778 
L 233.8866 208.234914 
L 235.416066 208.855389 
L 236.945531 208.722162 
L 238.474997 209.43485 
L 240.004462 209.738881 
L 241.533928 209.632466 
L 243.063393 209.832942 
L 244.592859 209.205498 
L 246.122324 210.067155 
L 247.65179 209.843749 
L 249.181255 209.243981 
L 250.710721 210.557171 
L 253.769652 210.608267 
L 255.299117 210.524317 
L 256.828583 210.839369 
L 258.358048 210.6073 
L 259.887514 211.027764 
L 261.416979 209.810016 
L 262.946445 210.588905 
L 264.47591 211.911628 
L 266.005376 211.716087 
L 267.534841 211.106513 
L 269.064307 211.823157 
L 270.593772 211.012504 
L 272.123238 211.921117 
L 273.652703 210.060253 
L 275.182169 211.70903 
L 276.711634 210.486346 
L 278.2411 210.380176 
L 281.300031 211.295064 
L 282.829496 209.840233 
L 284.358962 210.763261 
L 285.888427 209.369363 
L 287.417893 210.553044 
L 288.947358 210.075357 
L 290.476824 211.024794 
L 292.006289 211.22794 
L 293.535755 211.30818 
L 295.06522 210.748312 
L 296.594686 210.83815 
L 298.124152 211.481978 
L 299.653617 211.474606 
L 301.183083 210.083316 
L 302.712548 211.28206 
L 304.242014 211.306904 
L 305.771479 210.903187 
L 307.300945 211.426399 
L 308.83041 210.825202 
L 310.359876 210.790889 
L 311.889341 210.234575 
L 313.418807 211.255896 
L 314.948272 211.378124 
L 316.477738 210.68941 
L 318.007203 210.511382 
L 319.536669 211.063551 
L 321.066134 211.4944 
L 322.5956 211.447364 
L 324.125065 211.566226 
L 325.654531 210.974995 
L 327.183996 211.382111 
L 328.713462 211.16664 
L 330.242927 210.641232 
L 331.772393 210.634754 
L 333.301858 211.844363 
L 334.831324 211.825413 
L 336.360789 210.857598 
L 337.890255 211.483033 
L 339.41972 211.344073 
L 340.949186 212.048673 
L 342.478651 210.851133 
L 344.008117 211.077256 
L 345.537582 211.836894 
L 347.067048 211.02643 
L 348.596513 210.964161 
L 350.125979 211.183925 
L 351.655444 211.263526 
L 353.18491 210.276678 
L 354.714375 211.339006 
L 356.243841 211.54217 
L 359.302772 211.437737 
L 360.832237 210.985668 
L 362.361703 211.930012 
L 363.891168 211.153288 
L 365.420634 212.26653 
L 366.950099 211.4902 
L 366.950099 211.4902 
" clip-path="url(#pd30bbec86a)" style="fill: none; stroke: #da8bc3; stroke-width: 1.5; stroke-linecap: round"/>
   </g>
   <g id="patch_3">
    <path d="M 47.368281 224.64 
L 47.368281 7.2 
" style="fill: none; stroke: #cccccc; stroke-linejoin: miter; stroke-linecap: square"/>
   </g>
   <g id="patch_4">
    <path d="M 382.168281 224.64 
L 382.168281 7.2 
" style="fill: none; stroke: #cccccc; stroke-linejoin: miter; stroke-linecap: square"/>
   </g>
   <g id="patch_5">
    <path d="M 47.368281 224.64 
L 382.168281 224.64 
" style="fill: none; stroke: #cccccc; stroke-linejoin: miter; stroke-linecap: square"/>
   </g>
   <g id="patch_6">
    <path d="M 47.368281 7.2 
L 382.168281 7.2 
" style="fill: none; stroke: #cccccc; stroke-linejoin: miter; stroke-linecap: square"/>
   </g>
   <g id="legend_1">
    <g id="line2d_25">
     <path d="M 244.886562 21.123594 
L 255.886562 21.123594 
L 266.886562 21.123594 
" style="fill: none; stroke: #4c72b0; stroke-width: 1.5; stroke-linecap: round"/>
    </g>
    <g id="text_20">
     <text style="fill: #262626; font: 11px 'sans-serif'; text-anchor: start" x="275.686562" y="24.973594" transform="rotate(-0, 275.686562, 24.973594)">xavier uniform</text>
    </g>
    <g id="line2d_26">
     <path d="M 244.886562 36.683437 
L 255.886562 36.683437 
L 266.886562 36.683437 
" style="fill: none; stroke: #dd8452; stroke-width: 1.5; stroke-linecap: round"/>
    </g>
    <g id="text_21">
     <text style="fill: #262626; font: 11px 'sans-serif'; text-anchor: start" x="275.686562" y="40.533437" transform="rotate(-0, 275.686562, 40.533437)">xavier uniform M 1</text>
    </g>
    <g id="line2d_27">
     <path d="M 244.886562 52.243281 
L 255.886562 52.243281 
L 266.886562 52.243281 
" style="fill: none; stroke: #55a868; stroke-width: 1.5; stroke-linecap: round"/>
    </g>
    <g id="text_22">
     <text style="fill: #262626; font: 11px 'sans-serif'; text-anchor: start" x="275.686562" y="56.093281" transform="rotate(-0, 275.686562, 56.093281)">xavier uniform M 2</text>
    </g>
    <g id="line2d_28">
     <path d="M 244.886562 67.803125 
L 255.886562 67.803125 
L 266.886562 67.803125 
" style="fill: none; stroke: #c44e52; stroke-width: 1.5; stroke-linecap: round"/>
    </g>
    <g id="text_23">
     <text style="fill: #262626; font: 11px 'sans-serif'; text-anchor: start" x="275.686562" y="71.653125" transform="rotate(-0, 275.686562, 71.653125)">xavier uniform M 10</text>
    </g>
    <g id="line2d_29">
     <path d="M 244.886562 83.362969 
L 255.886562 83.362969 
L 266.886562 83.362969 
" style="fill: none; stroke: #8172b3; stroke-width: 1.5; stroke-linecap: round"/>
    </g>
    <g id="text_24">
     <text style="fill: #262626; font: 11px 'sans-serif'; text-anchor: start" x="275.686562" y="87.212969" transform="rotate(-0, 275.686562, 87.212969)">xavier uniform M 14</text>
    </g>
    <g id="line2d_30">
     <path d="M 244.886562 98.922812 
L 255.886562 98.922812 
L 266.886562 98.922812 
" style="fill: none; stroke: #937860; stroke-width: 1.5; stroke-linecap: round"/>
    </g>
    <g id="text_25">
     <text style="fill: #262626; font: 11px 'sans-serif'; text-anchor: start" x="275.686562" y="102.772812" transform="rotate(-0, 275.686562, 102.772812)">xavier uniform M 20</text>
    </g>
    <g id="line2d_31">
     <path d="M 244.886562 114.616719 
L 255.886562 114.616719 
L 266.886562 114.616719 
" style="fill: none; stroke: #da8bc3; stroke-width: 1.5; stroke-linecap: round"/>
    </g>
    <g id="text_26">
     <text style="fill: #262626; font: 11px 'sans-serif'; text-anchor: start" x="275.686562" y="118.466719" transform="rotate(-0, 275.686562, 118.466719)">kaiming uniform</text>
    </g>
   </g>
  </g>
 </g>
 <defs>
  <clipPath id="pd30bbec86a">
   <rect x="47.368281" y="7.2" width="334.8" height="217.44"/>
  </clipPath>
 </defs>
</svg>
