<?xml version="1.0" encoding="utf-8" standalone="no"?>
<!DOCTYPE svg PUBLIC "-//W3C//DTD SVG 1.1//EN"
  "http://www.w3.org/Graphics/SVG/1.1/DTD/svg11.dtd">
<svg xmlns:xlink="http://www.w3.org/1999/xlink" width="385.545313pt" height="257.630625pt" viewBox="0 0 385.545313 257.630625" xmlns="http://www.w3.org/2000/svg" version="1.1">
 <metadata>
  <rdf:RDF xmlns:dc="http://purl.org/dc/elements/1.1/" xmlns:cc="http://creativecommons.org/ns#" xmlns:rdf="http://www.w3.org/1999/02/22-rdf-syntax-ns#">
   <cc:Work>
    <dc:type rdf:resource="http://purl.org/dc/dcmitype/StillImage"/>
    <dc:date>2022-06-27T17:31:03.954351</dc:date>
    <dc:format>image/svg+xml</dc:format>
    <dc:creator>
     <cc:Agent>
      <dc:title>Matplotlib v3.5.0, https://matplotlib.org/</dc:title>
     </cc:Agent>
    </dc:creator>
   </cc:Work>
  </rdf:RDF>
 </metadata>
 <defs>
  <style type="text/css">*{stroke-linejoin: round; stroke-linecap: butt}</style>
 </defs>
 <g id="figure_1">
  <g id="patch_1">
   <path d="M 0 257.630625 
L 385.545313 257.630625 
L 385.545313 0 
L 0 0 
z
" style="fill: #ffffff"/>
  </g>
  <g id="axes_1">
   <g id="patch_2">
    <path d="M 43.545313 224.64 
L 378.345313 224.64 
L 378.345313 7.2 
L 43.545313 7.2 
z
" style="fill: #ffffff"/>
   </g>
   <g id="matplotlib.axis_1">
    <g id="xtick_1">
     <g id="line2d_1">
      <path d="M 58.763494 224.64 
L 58.763494 7.2 
" clip-path="url(#p087c84719b)" style="fill: none; stroke: #cccccc; stroke-width: 0.8; stroke-linecap: round"/>
     </g>
     <g id="line2d_2"/>
     <g id="text_1">
      <text style="fill: #262626; font: 10px 'sans-serif'; text-anchor: middle" x="58.763494" y="235.297812" transform="rotate(-0, 58.763494, 235.297812)">0</text>
     </g>
    </g>
    <g id="xtick_2">
     <g id="line2d_3">
      <path d="M 97.000132 224.64 
L 97.000132 7.2 
" clip-path="url(#p087c84719b)" style="fill: none; stroke: #cccccc; stroke-width: 0.8; stroke-linecap: round"/>
     </g>
     <g id="line2d_4"/>
     <g id="text_2">
      <text style="fill: #262626; font: 10px 'sans-serif'; text-anchor: middle" x="97.000132" y="235.297812" transform="rotate(-0, 97.000132, 235.297812)">25</text>
     </g>
    </g>
    <g id="xtick_3">
     <g id="line2d_5">
      <path d="M 135.23677 224.64 
L 135.23677 7.2 
" clip-path="url(#p087c84719b)" style="fill: none; stroke: #cccccc; stroke-width: 0.8; stroke-linecap: round"/>
     </g>
     <g id="line2d_6"/>
     <g id="text_3">
      <text style="fill: #262626; font: 10px 'sans-serif'; text-anchor: middle" x="135.23677" y="235.297812" transform="rotate(-0, 135.23677, 235.297812)">50</text>
     </g>
    </g>
    <g id="xtick_4">
     <g id="line2d_7">
      <path d="M 173.473408 224.64 
L 173.473408 7.2 
" clip-path="url(#p087c84719b)" style="fill: none; stroke: #cccccc; stroke-width: 0.8; stroke-linecap: round"/>
     </g>
     <g id="line2d_8"/>
     <g id="text_4">
      <text style="fill: #262626; font: 10px 'sans-serif'; text-anchor: middle" x="173.473408" y="235.297812" transform="rotate(-0, 173.473408, 235.297812)">75</text>
     </g>
    </g>
    <g id="xtick_5">
     <g id="line2d_9">
      <path d="M 211.710045 224.64 
L 211.710045 7.2 
" clip-path="url(#p087c84719b)" style="fill: none; stroke: #cccccc; stroke-width: 0.8; stroke-linecap: round"/>
     </g>
     <g id="line2d_10"/>
     <g id="text_5">
      <text style="fill: #262626; font: 10px 'sans-serif'; text-anchor: middle" x="211.710045" y="235.297812" transform="rotate(-0, 211.710045, 235.297812)">100</text>
     </g>
    </g>
    <g id="xtick_6">
     <g id="line2d_11">
      <path d="M 249.946683 224.64 
L 249.946683 7.2 
" clip-path="url(#p087c84719b)" style="fill: none; stroke: #cccccc; stroke-width: 0.8; stroke-linecap: round"/>
     </g>
     <g id="line2d_12"/>
     <g id="text_6">
      <text style="fill: #262626; font: 10px 'sans-serif'; text-anchor: middle" x="249.946683" y="235.297812" transform="rotate(-0, 249.946683, 235.297812)">125</text>
     </g>
    </g>
    <g id="xtick_7">
     <g id="line2d_13">
      <path d="M 288.183321 224.64 
L 288.183321 7.2 
" clip-path="url(#p087c84719b)" style="fill: none; stroke: #cccccc; stroke-width: 0.8; stroke-linecap: round"/>
     </g>
     <g id="line2d_14"/>
     <g id="text_7">
      <text style="fill: #262626; font: 10px 'sans-serif'; text-anchor: middle" x="288.183321" y="235.297812" transform="rotate(-0, 288.183321, 235.297812)">150</text>
     </g>
    </g>
    <g id="xtick_8">
     <g id="line2d_15">
      <path d="M 326.419958 224.64 
L 326.419958 7.2 
" clip-path="url(#p087c84719b)" style="fill: none; stroke: #cccccc; stroke-width: 0.8; stroke-linecap: round"/>
     </g>
     <g id="line2d_16"/>
     <g id="text_8">
      <text style="fill: #262626; font: 10px 'sans-serif'; text-anchor: middle" x="326.419958" y="235.297812" transform="rotate(-0, 326.419958, 235.297812)">175</text>
     </g>
    </g>
    <g id="xtick_9">
     <g id="line2d_17">
      <path d="M 364.656596 224.64 
L 364.656596 7.2 
" clip-path="url(#p087c84719b)" style="fill: none; stroke: #cccccc; stroke-width: 0.8; stroke-linecap: round"/>
     </g>
     <g id="line2d_18"/>
     <g id="text_9">
      <text style="fill: #262626; font: 10px 'sans-serif'; text-anchor: middle" x="364.656596" y="235.297812" transform="rotate(-0, 364.656596, 235.297812)">200</text>
     </g>
    </g>
    <g id="text_10">
     <text style="fill: #262626; font: 10px 'sans-serif'; text-anchor: middle" x="210.945312" y="248.443125" transform="rotate(-0, 210.945312, 248.443125)">Epoka</text>
    </g>
   </g>
   <g id="matplotlib.axis_2">
    <g id="ytick_1">
     <g id="line2d_19">
      <path d="M 43.545313 214.894292 
L 378.345313 214.894292 
" clip-path="url(#p087c84719b)" style="fill: none; stroke: #cccccc; stroke-width: 0.8; stroke-linecap: round"/>
     </g>
     <g id="line2d_20"/>
     <g id="text_11">
      <text style="fill: #262626; font: 10px 'sans-serif'; text-anchor: end" x="40.045313" y="218.473198" transform="rotate(-0, 40.045313, 218.473198)">0.00</text>
     </g>
    </g>
    <g id="ytick_2">
     <g id="line2d_21">
      <path d="M 43.545313 187.304049 
L 378.345313 187.304049 
" clip-path="url(#p087c84719b)" style="fill: none; stroke: #cccccc; stroke-width: 0.8; stroke-linecap: round"/>
     </g>
     <g id="line2d_22"/>
     <g id="text_12">
      <text style="fill: #262626; font: 10px 'sans-serif'; text-anchor: end" x="40.045313" y="190.882955" transform="rotate(-0, 40.045313, 190.882955)">0.25</text>
     </g>
    </g>
    <g id="ytick_3">
     <g id="line2d_23">
      <path d="M 43.545313 159.713806 
L 378.345313 159.713806 
" clip-path="url(#p087c84719b)" style="fill: none; stroke: #cccccc; stroke-width: 0.8; stroke-linecap: round"/>
     </g>
     <g id="line2d_24"/>
     <g id="text_13">
      <text style="fill: #262626; font: 10px 'sans-serif'; text-anchor: end" x="40.045313" y="163.292712" transform="rotate(-0, 40.045313, 163.292712)">0.50</text>
     </g>
    </g>
    <g id="ytick_4">
     <g id="line2d_25">
      <path d="M 43.545313 132.123563 
L 378.345313 132.123563 
" clip-path="url(#p087c84719b)" style="fill: none; stroke: #cccccc; stroke-width: 0.8; stroke-linecap: round"/>
     </g>
     <g id="line2d_26"/>
     <g id="text_14">
      <text style="fill: #262626; font: 10px 'sans-serif'; text-anchor: end" x="40.045313" y="135.702469" transform="rotate(-0, 40.045313, 135.702469)">0.75</text>
     </g>
    </g>
    <g id="ytick_5">
     <g id="line2d_27">
      <path d="M 43.545313 104.53332 
L 378.345313 104.53332 
" clip-path="url(#p087c84719b)" style="fill: none; stroke: #cccccc; stroke-width: 0.8; stroke-linecap: round"/>
     </g>
     <g id="line2d_28"/>
     <g id="text_15">
      <text style="fill: #262626; font: 10px 'sans-serif'; text-anchor: end" x="40.045313" y="108.112226" transform="rotate(-0, 40.045313, 108.112226)">1.00</text>
     </g>
    </g>
    <g id="ytick_6">
     <g id="line2d_29">
      <path d="M 43.545313 76.943077 
L 378.345313 76.943077 
" clip-path="url(#p087c84719b)" style="fill: none; stroke: #cccccc; stroke-width: 0.8; stroke-linecap: round"/>
     </g>
     <g id="line2d_30"/>
     <g id="text_16">
      <text style="fill: #262626; font: 10px 'sans-serif'; text-anchor: end" x="40.045313" y="80.521983" transform="rotate(-0, 40.045313, 80.521983)">1.25</text>
     </g>
    </g>
    <g id="ytick_7">
     <g id="line2d_31">
      <path d="M 43.545313 49.352834 
L 378.345313 49.352834 
" clip-path="url(#p087c84719b)" style="fill: none; stroke: #cccccc; stroke-width: 0.8; stroke-linecap: round"/>
     </g>
     <g id="line2d_32"/>
     <g id="text_17">
      <text style="fill: #262626; font: 10px 'sans-serif'; text-anchor: end" x="40.045313" y="52.93174" transform="rotate(-0, 40.045313, 52.93174)">1.50</text>
     </g>
    </g>
    <g id="ytick_8">
     <g id="line2d_33">
      <path d="M 43.545313 21.762591 
L 378.345313 21.762591 
" clip-path="url(#p087c84719b)" style="fill: none; stroke: #cccccc; stroke-width: 0.8; stroke-linecap: round"/>
     </g>
     <g id="line2d_34"/>
     <g id="text_18">
      <text style="fill: #262626; font: 10px 'sans-serif'; text-anchor: end" x="40.045313" y="25.341497" transform="rotate(-0, 40.045313, 25.341497)">1.75</text>
     </g>
    </g>
    <g id="text_19">
     <text style="fill: #262626; font: 10px 'sans-serif'; text-anchor: middle" x="14.479688" y="115.92" transform="rotate(-90, 14.479688, 115.92)">Wartość funkcji celu</text>
    </g>
   </g>
   <g id="line2d_35">
    <path d="M 58.763494 36.896577 
L 60.29296 86.452422 
L 61.822425 103.51888 
L 63.351891 114.472947 
L 64.881356 123.341689 
L 66.410822 129.924296 
L 70.999218 147.526594 
L 72.528684 152.432094 
L 74.058149 156.787297 
L 75.587615 160.43281 
L 78.646546 166.082073 
L 80.176011 169.225191 
L 81.705477 171.00339 
L 83.234942 173.343948 
L 84.764408 176.580804 
L 86.293873 177.851096 
L 87.823339 178.965353 
L 89.352805 181.555113 
L 93.941201 185.0709 
L 95.470667 185.868741 
L 97.000132 187.116548 
L 98.529598 188.195135 
L 100.059063 188.133079 
L 101.588529 191.758277 
L 103.117994 192.832629 
L 104.64746 193.18169 
L 106.176925 197.303732 
L 107.706391 198.968221 
L 109.235856 202.486912 
L 110.765322 203.250793 
L 112.294787 203.827257 
L 113.824253 208.452617 
L 115.353718 209.155706 
L 116.883184 209.170024 
L 118.412649 209.378705 
L 119.942115 210.826305 
L 121.47158 211.078205 
L 123.001046 212.345835 
L 124.530511 212.611874 
L 126.059977 212.224297 
L 127.589442 213.348788 
L 130.648373 213.545688 
L 133.707304 213.760508 
L 135.23677 213.603689 
L 136.766235 213.599458 
L 138.295701 213.985262 
L 139.825166 213.982996 
L 141.354632 214.212443 
L 147.472494 214.469717 
L 150.531425 214.413745 
L 153.590356 214.617377 
L 161.237683 214.591255 
L 162.767149 214.66827 
L 164.296614 214.595589 
L 168.885011 214.659842 
L 303.477976 214.741608 
L 334.067286 214.726945 
L 350.891407 214.717593 
L 357.009269 214.7325 
L 363.127131 214.723839 
L 363.127131 214.723839 
" clip-path="url(#p087c84719b)" style="fill: none; stroke: #1f77b4; stroke-width: 1.5; stroke-linecap: round"/>
   </g>
   <g id="line2d_36">
    <path d="M 58.763494 19.330952 
L 60.29296 40.05264 
L 61.822425 49.198232 
L 63.351891 64.816255 
L 64.881356 74.334155 
L 66.410822 79.505621 
L 67.940287 82.787999 
L 70.999218 88.579568 
L 74.058149 94.498049 
L 75.587615 97.141878 
L 77.11708 100.956639 
L 78.646546 103.478057 
L 80.176011 105.628305 
L 81.705477 108.182798 
L 86.293873 114.23116 
L 87.823339 115.912353 
L 89.352805 118.018385 
L 90.88227 119.469121 
L 92.411736 121.69489 
L 93.941201 123.503335 
L 95.470667 125.822343 
L 98.529598 129.208794 
L 100.059063 131.368922 
L 103.117994 135.036656 
L 104.64746 137.232753 
L 106.176925 138.658823 
L 107.706391 141.012026 
L 109.235856 143.096366 
L 110.765322 144.757487 
L 113.824253 148.839964 
L 115.353718 150.66027 
L 116.883184 152.6569 
L 118.412649 154.25965 
L 119.942115 156.474267 
L 123.001046 160.163219 
L 124.530511 161.79828 
L 126.059977 163.647995 
L 127.589442 165.249421 
L 129.118908 167.118494 
L 130.648373 168.656117 
L 132.177839 170.770888 
L 133.707304 171.898989 
L 136.766235 175.863817 
L 138.295701 177.057114 
L 139.825166 178.711487 
L 141.354632 179.769338 
L 142.884097 181.224725 
L 144.413563 181.885395 
L 145.943028 184.253483 
L 147.472494 185.122789 
L 149.001959 186.462027 
L 150.531425 186.537986 
L 152.06089 188.544704 
L 153.590356 188.746646 
L 155.119821 190.226996 
L 156.649287 191.185399 
L 158.178752 191.503378 
L 159.708218 192.827276 
L 161.237683 193.108149 
L 162.767149 193.582861 
L 164.296614 196.246358 
L 165.82608 198.414959 
L 168.885011 200.513576 
L 170.414477 200.012674 
L 171.943942 202.237463 
L 175.002873 203.241748 
L 176.532339 203.760532 
L 178.061804 206.414284 
L 179.59127 206.108196 
L 181.120735 208.011391 
L 182.650201 209.508919 
L 184.179666 208.813029 
L 185.709132 210.014107 
L 188.768063 211.386895 
L 190.297528 211.764344 
L 193.356459 211.589691 
L 194.885925 212.45922 
L 196.41539 212.673359 
L 197.944856 212.683222 
L 199.474321 213.162789 
L 201.003787 213.121398 
L 202.533252 213.525912 
L 204.062718 213.624284 
L 205.592183 213.85155 
L 210.18058 213.761987 
L 211.710045 214.062097 
L 213.239511 214.082309 
L 214.768976 214.254816 
L 216.298442 214.21506 
L 219.357373 214.379974 
L 220.886838 214.290259 
L 223.945769 214.445394 
L 227.0047 214.268618 
L 228.534166 214.541512 
L 230.063631 214.582878 
L 231.593097 214.429332 
L 233.122562 214.561635 
L 239.240424 214.56405 
L 240.76989 214.622026 
L 242.299355 214.524295 
L 245.358286 214.607067 
L 312.654769 214.640087 
L 317.243165 214.684196 
L 323.361027 214.680005 
L 332.53782 214.695825 
L 343.244079 214.67742 
L 353.950338 214.687792 
L 357.009269 214.63445 
L 360.0682 214.685432 
L 363.127131 214.674304 
L 363.127131 214.674304 
" clip-path="url(#p087c84719b)" style="fill: none; stroke: #ff7f0e; stroke-width: 1.5; stroke-linecap: round"/>
   </g>
   <g id="line2d_37">
    <path d="M 58.763494 17.083636 
L 61.822425 17.205323 
L 72.528684 17.224441 
L 74.058149 17.388218 
L 75.587615 30.829368 
L 77.11708 40.00305 
L 78.646546 44.645296 
L 80.176011 47.445011 
L 81.705477 50.485435 
L 83.234942 65.96949 
L 84.764408 76.858984 
L 87.823339 110.361456 
L 89.352805 118.594261 
L 90.88227 125.679679 
L 93.941201 136.684724 
L 95.470667 140.854068 
L 98.529598 150.720891 
L 100.059063 154.765249 
L 101.588529 158.01222 
L 103.117994 161.557971 
L 104.64746 163.678523 
L 106.176925 166.33202 
L 107.706391 168.369816 
L 109.235856 169.941714 
L 110.765322 170.73664 
L 112.294787 174.552464 
L 113.824253 174.349842 
L 115.353718 179.807858 
L 116.883184 182.195688 
L 118.412649 182.261785 
L 119.942115 183.319512 
L 121.47158 184.923778 
L 123.001046 193.039325 
L 126.059977 196.023156 
L 127.589442 197.037999 
L 129.118908 200.420158 
L 130.648373 201.158836 
L 132.177839 203.097908 
L 133.707304 206.497133 
L 138.295701 207.841768 
L 139.825166 206.805548 
L 141.354632 209.754974 
L 142.884097 208.707458 
L 144.413563 210.899574 
L 145.943028 210.475728 
L 147.472494 212.022063 
L 149.001959 212.306041 
L 152.06089 213.294657 
L 153.590356 213.424583 
L 155.119821 213.427353 
L 158.178752 213.885792 
L 159.708218 213.6918 
L 161.237683 214.072622 
L 162.767149 214.184584 
L 164.296614 214.123056 
L 167.355545 214.384926 
L 168.885011 214.499348 
L 170.414477 214.426217 
L 178.061804 214.613562 
L 181.120735 214.597691 
L 184.179666 214.63704 
L 188.768063 214.665944 
L 219.357373 214.699752 
L 223.945769 214.655827 
L 227.0047 214.708221 
L 236.181493 214.671793 
L 301.94851 214.707119 
L 305.007441 214.699287 
L 311.125303 214.687686 
L 317.243165 214.690642 
L 363.127131 214.713546 
L 363.127131 214.713546 
" clip-path="url(#p087c84719b)" style="fill: none; stroke: #2ca02c; stroke-width: 1.5; stroke-linecap: round"/>
   </g>
   <g id="line2d_38">
    <path d="M 58.763494 59.036701 
L 60.29296 103.048221 
L 61.822425 115.944134 
L 63.351891 125.263627 
L 67.940287 144.716085 
L 69.469753 150.312124 
L 70.999218 154.873544 
L 75.587615 166.01356 
L 77.11708 168.066228 
L 78.646546 171.82694 
L 80.176011 173.751694 
L 83.234942 178.152048 
L 84.764408 179.33723 
L 86.293873 181.846398 
L 87.823339 183.167826 
L 89.352805 183.914103 
L 90.88227 184.914389 
L 92.411736 186.514507 
L 93.941201 187.173899 
L 95.470667 188.512105 
L 97.000132 189.668748 
L 98.529598 189.434304 
L 100.059063 193.974452 
L 101.588529 194.411868 
L 103.117994 197.238876 
L 104.64746 200.962208 
L 106.176925 202.258462 
L 107.706391 201.723337 
L 109.235856 203.646759 
L 110.765322 203.610323 
L 112.294787 206.015657 
L 113.824253 205.328666 
L 115.353718 209.316678 
L 116.883184 210.260306 
L 118.412649 209.815407 
L 119.942115 210.677321 
L 121.47158 212.391763 
L 123.001046 212.766844 
L 124.530511 212.284645 
L 126.059977 213.044527 
L 127.589442 213.001338 
L 129.118908 213.622286 
L 132.177839 214.043178 
L 133.707304 213.9733 
L 135.23677 214.236884 
L 138.295701 214.35676 
L 139.825166 214.366586 
L 141.354632 214.492864 
L 145.943028 214.572941 
L 153.590356 214.640431 
L 156.649287 214.659409 
L 170.414477 214.679272 
L 179.59127 214.719177 
L 185.709132 214.718815 
L 199.474321 214.735313 
L 205.592183 214.706449 
L 210.18058 214.721842 
L 230.063631 214.711088 
L 234.652028 214.716013 
L 265.241338 214.732284 
L 268.300269 214.708176 
L 279.006528 214.731311 
L 294.301183 214.734231 
L 308.066372 214.744081 
L 350.891407 214.732555 
L 363.127131 214.727875 
L 363.127131 214.727875 
" clip-path="url(#p087c84719b)" style="fill: none; stroke: #d62728; stroke-width: 1.5; stroke-linecap: round"/>
   </g>
   <g id="line2d_39">
    <path d="M 58.763494 70.423457 
L 60.29296 111.263812 
L 61.822425 122.136475 
L 64.881356 137.973965 
L 67.940287 150.63807 
L 70.999218 160.017315 
L 72.528684 163.460218 
L 74.058149 166.180198 
L 75.587615 169.866204 
L 77.11708 171.903359 
L 78.646546 174.854553 
L 80.176011 176.705129 
L 81.705477 178.981157 
L 83.234942 180.960881 
L 84.764408 182.091592 
L 86.293873 183.657926 
L 87.823339 184.079041 
L 89.352805 185.758099 
L 90.88227 186.639499 
L 92.411736 187.807555 
L 93.941201 188.183978 
L 95.470667 189.589265 
L 97.000132 189.161435 
L 98.529598 192.663708 
L 100.059063 193.363345 
L 101.588529 197.547223 
L 103.117994 198.115287 
L 106.176925 203.923367 
L 107.706391 203.779577 
L 109.235856 206.055542 
L 110.765322 207.020392 
L 112.294787 206.752386 
L 113.824253 208.429529 
L 115.353718 210.490554 
L 116.883184 211.108643 
L 118.412649 211.846838 
L 119.942115 212.401171 
L 121.47158 212.288966 
L 123.001046 213.17627 
L 126.059977 213.283919 
L 127.589442 213.641863 
L 129.118908 213.594342 
L 130.648373 213.888819 
L 132.177839 214.306435 
L 133.707304 213.959606 
L 135.23677 214.31113 
L 136.766235 214.453957 
L 138.295701 214.342069 
L 139.825166 214.518224 
L 156.649287 214.698429 
L 159.708218 214.666962 
L 167.355545 214.679376 
L 205.592183 214.715738 
L 219.357373 214.707071 
L 225.475235 214.712658 
L 237.710959 214.730985 
L 240.76989 214.699838 
L 262.182407 214.734538 
L 268.300269 214.702132 
L 286.653855 214.714438 
L 291.242252 214.681645 
L 295.830648 214.724454 
L 305.007441 214.733682 
L 337.126217 214.725238 
L 347.832476 214.707771 
L 350.891407 214.722904 
L 358.538734 214.7055 
L 363.127131 214.727958 
L 363.127131 214.727958 
" clip-path="url(#p087c84719b)" style="fill: none; stroke: #9467bd; stroke-width: 1.5; stroke-linecap: round"/>
   </g>
   <g id="line2d_40">
    <path d="M 58.763494 75.21848 
L 60.29296 112.084562 
L 61.822425 125.361844 
L 63.351891 136.055182 
L 64.881356 144.463358 
L 66.410822 151.707802 
L 67.940287 155.955781 
L 69.469753 160.722917 
L 72.528684 168.521104 
L 74.058149 170.998752 
L 75.587615 174.351129 
L 77.11708 176.106696 
L 78.646546 177.551872 
L 80.176011 180.069476 
L 83.234942 183.32092 
L 84.764408 184.661024 
L 86.293873 186.322085 
L 87.823339 187.330683 
L 89.352805 187.698716 
L 90.88227 191.002483 
L 92.411736 190.772604 
L 95.470667 197.164961 
L 97.000132 201.325083 
L 98.529598 204.291412 
L 100.059063 205.150476 
L 101.588529 203.957813 
L 103.117994 208.312112 
L 104.64746 209.421762 
L 106.176925 209.14626 
L 107.706391 210.070902 
L 109.235856 210.199468 
L 110.765322 212.256691 
L 112.294787 212.052064 
L 113.824253 212.616006 
L 115.353718 212.929587 
L 116.883184 213.527178 
L 119.942115 213.847674 
L 121.47158 213.880442 
L 123.001046 214.269223 
L 124.530511 214.173007 
L 127.589442 214.442511 
L 129.118908 214.502176 
L 130.648373 214.397113 
L 132.177839 214.619388 
L 133.707304 214.515073 
L 138.295701 214.600732 
L 147.472494 214.714325 
L 150.531425 214.699951 
L 168.885011 214.679395 
L 185.709132 214.739709 
L 190.297528 214.679794 
L 197.944856 214.724065 
L 256.064545 214.699918 
L 263.711873 214.658869 
L 265.241338 214.735559 
L 269.829735 214.687526 
L 274.418131 214.726594 
L 363.127131 214.711439 
L 363.127131 214.711439 
" clip-path="url(#p087c84719b)" style="fill: none; stroke: #8c564b; stroke-width: 1.5; stroke-linecap: round"/>
   </g>
   <g id="line2d_41">
    <path d="M 58.763494 18.975881 
L 64.881356 38.139092 
L 67.940287 48.667381 
L 69.469753 54.369531 
L 70.999218 60.627385 
L 75.587615 78.12488 
L 77.11708 83.177402 
L 78.646546 86.98247 
L 80.176011 90.08459 
L 81.705477 91.743419 
L 83.234942 93.835292 
L 84.764408 95.611456 
L 87.823339 98.257859 
L 89.352805 100.320035 
L 90.88227 101.504472 
L 92.411736 103.498179 
L 93.941201 104.418872 
L 95.470667 105.712984 
L 97.000132 106.437117 
L 98.529598 108.126091 
L 100.059063 110.018206 
L 101.588529 111.675248 
L 104.64746 115.344315 
L 106.176925 116.167092 
L 109.235856 119.218968 
L 110.765322 121.087883 
L 112.294787 122.638434 
L 113.824253 123.914196 
L 115.353718 124.982203 
L 116.883184 126.370395 
L 118.412649 128.580239 
L 119.942115 129.275349 
L 121.47158 130.863842 
L 123.001046 131.770149 
L 124.530511 132.199349 
L 126.059977 133.653519 
L 127.589442 135.461888 
L 129.118908 136.555727 
L 130.648373 137.454362 
L 132.177839 138.797207 
L 133.707304 139.400356 
L 135.23677 140.867855 
L 139.825166 144.528681 
L 141.354632 144.934506 
L 142.884097 147.139919 
L 144.413563 148.311806 
L 145.943028 149.847251 
L 147.472494 150.701742 
L 149.001959 151.852816 
L 150.531425 154.126227 
L 152.06089 154.665986 
L 153.590356 155.598552 
L 155.119821 155.930681 
L 156.649287 158.488308 
L 158.178752 158.73852 
L 159.708218 160.968049 
L 161.237683 162.344411 
L 162.767149 162.916391 
L 164.296614 163.755241 
L 165.82608 165.59806 
L 167.355545 167.677803 
L 168.885011 168.318915 
L 170.414477 169.709138 
L 171.943942 170.620737 
L 173.473408 172.241087 
L 175.002873 172.731419 
L 176.532339 175.239789 
L 178.061804 175.891988 
L 179.59127 178.053989 
L 181.120735 179.071123 
L 184.179666 182.319824 
L 185.709132 184.7509 
L 187.238597 186.214771 
L 188.768063 187.366715 
L 190.297528 187.676566 
L 191.826994 190.546354 
L 193.356459 190.412843 
L 196.41539 195.051861 
L 197.944856 195.465048 
L 199.474321 195.63101 
L 201.003787 197.784498 
L 202.533252 198.673158 
L 204.062718 199.107668 
L 205.592183 201.404022 
L 208.651114 202.534261 
L 210.18058 202.593086 
L 211.710045 205.421073 
L 213.239511 204.688063 
L 214.768976 204.613356 
L 216.298442 205.630014 
L 217.827907 206.132353 
L 219.357373 207.179634 
L 220.886838 207.100191 
L 222.416304 207.735282 
L 223.945769 207.435773 
L 225.475235 208.028409 
L 227.0047 208.343778 
L 230.063631 208.234914 
L 231.593097 208.855389 
L 233.122562 208.722162 
L 234.652028 209.43485 
L 236.181493 209.738881 
L 237.710959 209.632466 
L 239.240424 209.832942 
L 240.76989 209.205498 
L 242.299355 210.067155 
L 243.828821 209.843749 
L 245.358286 209.243981 
L 246.887752 210.557171 
L 249.946683 210.608267 
L 251.476148 210.524317 
L 253.005614 210.839369 
L 254.53508 210.6073 
L 256.064545 211.027764 
L 257.594011 209.810016 
L 259.123476 210.588905 
L 260.652942 211.911628 
L 262.182407 211.716087 
L 263.711873 211.106513 
L 265.241338 211.823157 
L 266.770804 211.012504 
L 268.300269 211.921117 
L 269.829735 210.060253 
L 271.3592 211.70903 
L 272.888666 210.486346 
L 274.418131 210.380176 
L 277.477062 211.295064 
L 279.006528 209.840233 
L 280.535993 210.763261 
L 282.065459 209.369363 
L 283.594924 210.553044 
L 285.12439 210.075357 
L 286.653855 211.024794 
L 288.183321 211.22794 
L 289.712786 211.30818 
L 291.242252 210.748312 
L 292.771717 210.83815 
L 294.301183 211.481978 
L 295.830648 211.474606 
L 297.360114 210.083316 
L 298.889579 211.28206 
L 300.419045 211.306904 
L 301.94851 210.903187 
L 303.477976 211.426399 
L 305.007441 210.825202 
L 306.536907 210.790889 
L 308.066372 210.234575 
L 309.595838 211.255896 
L 311.125303 211.378124 
L 312.654769 210.68941 
L 314.184234 210.511382 
L 315.7137 211.063551 
L 317.243165 211.4944 
L 318.772631 211.447364 
L 320.302096 211.566226 
L 321.831562 210.974995 
L 323.361027 211.382111 
L 324.890493 211.16664 
L 326.419958 210.641232 
L 327.949424 210.634754 
L 329.478889 211.844363 
L 331.008355 211.825413 
L 332.53782 210.857598 
L 334.067286 211.483033 
L 335.596752 211.344073 
L 337.126217 212.048673 
L 338.655683 210.851133 
L 340.185148 211.077256 
L 341.714614 211.836894 
L 343.244079 211.02643 
L 344.773545 210.964161 
L 346.30301 211.183925 
L 347.832476 211.263526 
L 349.361941 210.276678 
L 350.891407 211.339006 
L 352.420872 211.54217 
L 355.479803 211.437737 
L 357.009269 210.985668 
L 358.538734 211.930012 
L 360.0682 211.153288 
L 361.597665 212.26653 
L 363.127131 211.4902 
L 363.127131 211.4902 
" clip-path="url(#p087c84719b)" style="fill: none; stroke: #e377c2; stroke-width: 1.5; stroke-linecap: round"/>
   </g>
   <g id="patch_3">
    <path d="M 43.545313 224.64 
L 43.545313 7.2 
" style="fill: none; stroke: #cccccc; stroke-linejoin: miter; stroke-linecap: square"/>
   </g>
   <g id="patch_4">
    <path d="M 378.345313 224.64 
L 378.345313 7.2 
" style="fill: none; stroke: #cccccc; stroke-linejoin: miter; stroke-linecap: square"/>
   </g>
   <g id="patch_5">
    <path d="M 43.545313 224.64 
L 378.345313 224.64 
" style="fill: none; stroke: #cccccc; stroke-linejoin: miter; stroke-linecap: square"/>
   </g>
   <g id="patch_6">
    <path d="M 43.545313 7.2 
L 378.345313 7.2 
" style="fill: none; stroke: #cccccc; stroke-linejoin: miter; stroke-linecap: square"/>
   </g>
   <g id="legend_1">
    <g id="patch_7">
     <path d="M 259.873438 114.45625 
L 371.345313 114.45625 
Q 373.345313 114.45625 373.345313 112.45625 
L 373.345313 14.2 
Q 373.345313 12.2 371.345313 12.2 
L 259.873438 12.2 
Q 257.873438 12.2 257.873438 14.2 
L 257.873438 112.45625 
Q 257.873438 114.45625 259.873438 114.45625 
z
" style="fill: #ffffff; stroke: #cccccc; stroke-linejoin: miter"/>
    </g>
    <g id="line2d_42">
     <path d="M 261.873438 19.857813 
L 271.873438 19.857813 
L 281.873438 19.857813 
" style="fill: none; stroke: #1f77b4; stroke-width: 1.5; stroke-linecap: round"/>
    </g>
    <g id="text_20">
     <text style="fill: #262626; font: 10px 'sans-serif'; text-anchor: start" x="289.873438" y="23.357813" transform="rotate(-0, 289.873438, 23.357813)">xavier uniform</text>
    </g>
    <g id="line2d_43">
     <path d="M 261.873438 34.003125 
L 271.873438 34.003125 
L 281.873438 34.003125 
" style="fill: none; stroke: #ff7f0e; stroke-width: 1.5; stroke-linecap: round"/>
    </g>
    <g id="text_21">
     <text style="fill: #262626; font: 10px 'sans-serif'; text-anchor: start" x="289.873438" y="37.503125" transform="rotate(-0, 289.873438, 37.503125)">xavier uniform  1</text>
    </g>
    <g id="line2d_44">
     <path d="M 261.873438 48.148438 
L 271.873438 48.148438 
L 281.873438 48.148438 
" style="fill: none; stroke: #2ca02c; stroke-width: 1.5; stroke-linecap: round"/>
    </g>
    <g id="text_22">
     <text style="fill: #262626; font: 10px 'sans-serif'; text-anchor: start" x="289.873438" y="51.648438" transform="rotate(-0, 289.873438, 51.648438)">xavier uniform  2</text>
    </g>
    <g id="line2d_45">
     <path d="M 261.873438 62.29375 
L 271.873438 62.29375 
L 281.873438 62.29375 
" style="fill: none; stroke: #d62728; stroke-width: 1.5; stroke-linecap: round"/>
    </g>
    <g id="text_23">
     <text style="fill: #262626; font: 10px 'sans-serif'; text-anchor: start" x="289.873438" y="65.79375" transform="rotate(-0, 289.873438, 65.79375)">xavier uniform  10</text>
    </g>
    <g id="line2d_46">
     <path d="M 261.873438 76.439063 
L 271.873438 76.439063 
L 281.873438 76.439063 
" style="fill: none; stroke: #9467bd; stroke-width: 1.5; stroke-linecap: round"/>
    </g>
    <g id="text_24">
     <text style="fill: #262626; font: 10px 'sans-serif'; text-anchor: start" x="289.873438" y="79.939063" transform="rotate(-0, 289.873438, 79.939063)">xavier uniform  14</text>
    </g>
    <g id="line2d_47">
     <path d="M 261.873438 90.584375 
L 271.873438 90.584375 
L 281.873438 90.584375 
" style="fill: none; stroke: #8c564b; stroke-width: 1.5; stroke-linecap: round"/>
    </g>
    <g id="text_25">
     <text style="fill: #262626; font: 10px 'sans-serif'; text-anchor: start" x="289.873438" y="94.084375" transform="rotate(-0, 289.873438, 94.084375)">xavier uniform  20</text>
    </g>
    <g id="line2d_48">
     <path d="M 261.873438 104.851562 
L 271.873438 104.851562 
L 281.873438 104.851562 
" style="fill: none; stroke: #e377c2; stroke-width: 1.5; stroke-linecap: round"/>
    </g>
    <g id="text_26">
     <text style="fill: #262626; font: 10px 'sans-serif'; text-anchor: start" x="289.873438" y="108.351562" transform="rotate(-0, 289.873438, 108.351562)">kaiming uniform</text>
    </g>
   </g>
  </g>
 </g>
 <defs>
  <clipPath id="p087c84719b">
   <rect x="43.545313" y="7.2" width="334.8" height="217.44"/>
  </clipPath>
 </defs>
</svg>
