<?xml version="1.0" encoding="utf-8" standalone="no"?>
<!DOCTYPE svg PUBLIC "-//W3C//DTD SVG 1.1//EN"
  "http://www.w3.org/Graphics/SVG/1.1/DTD/svg11.dtd">
<svg xmlns:xlink="http://www.w3.org/1999/xlink" width="395.328125pt" height="262.19625pt" viewBox="0 0 395.328125 262.19625" xmlns="http://www.w3.org/2000/svg" version="1.1">
 <metadata>
  <rdf:RDF xmlns:dc="http://purl.org/dc/elements/1.1/" xmlns:cc="http://creativecommons.org/ns#" xmlns:rdf="http://www.w3.org/1999/02/22-rdf-syntax-ns#">
   <cc:Work>
    <dc:type rdf:resource="http://purl.org/dc/dcmitype/StillImage"/>
    <dc:date>2022-01-28T19:17:18.178646</dc:date>
    <dc:format>image/svg+xml</dc:format>
    <dc:creator>
     <cc:Agent>
      <dc:title>Matplotlib v3.5.0, https://matplotlib.org/</dc:title>
     </cc:Agent>
    </dc:creator>
   </cc:Work>
  </rdf:RDF>
 </metadata>
 <defs>
  <style type="text/css">*{stroke-linejoin: round; stroke-linecap: butt}</style>
 </defs>
 <g id="figure_1">
  <g id="patch_1">
   <path d="M 0 262.19625 
L 395.328125 262.19625 
L 395.328125 0 
L 0 0 
L 0 262.19625 
z
" style="fill: none"/>
  </g>
  <g id="axes_1">
   <g id="patch_2">
    <path d="M 53.328125 224.64 
L 388.128125 224.64 
L 388.128125 7.2 
L 53.328125 7.2 
z
" style="fill: #ffffff"/>
   </g>
   <g id="matplotlib.axis_1">
    <g id="xtick_1">
     <g id="line2d_1">
      <defs>
       <path id="mbc50fbe3d1" d="M 0 0 
L 0 3.5 
" style="stroke: #000000; stroke-width: 0.8"/>
      </defs>
      <g>
       <use xlink:href="#mbc50fbe3d1" x="68.546307" y="224.64" style="stroke: #000000; stroke-width: 0.8"/>
      </g>
     </g>
     <g id="text_1">
      <!-- 0 -->
      <g transform="translate(65.365057 239.238438)scale(0.1 -0.1)">
       <defs>
        <path id="DejaVuSans-30" d="M 2034 4250 
Q 1547 4250 1301 3770 
Q 1056 3291 1056 2328 
Q 1056 1369 1301 889 
Q 1547 409 2034 409 
Q 2525 409 2770 889 
Q 3016 1369 3016 2328 
Q 3016 3291 2770 3770 
Q 2525 4250 2034 4250 
z
M 2034 4750 
Q 2819 4750 3233 4129 
Q 3647 3509 3647 2328 
Q 3647 1150 3233 529 
Q 2819 -91 2034 -91 
Q 1250 -91 836 529 
Q 422 1150 422 2328 
Q 422 3509 836 4129 
Q 1250 4750 2034 4750 
z
" transform="scale(0.015625)"/>
       </defs>
       <use xlink:href="#DejaVuSans-30"/>
      </g>
     </g>
    </g>
    <g id="xtick_2">
     <g id="line2d_2">
      <g>
       <use xlink:href="#mbc50fbe3d1" x="106.782945" y="224.64" style="stroke: #000000; stroke-width: 0.8"/>
      </g>
     </g>
     <g id="text_2">
      <!-- 25 -->
      <g transform="translate(100.420445 239.238438)scale(0.1 -0.1)">
       <defs>
        <path id="DejaVuSans-32" d="M 1228 531 
L 3431 531 
L 3431 0 
L 469 0 
L 469 531 
Q 828 903 1448 1529 
Q 2069 2156 2228 2338 
Q 2531 2678 2651 2914 
Q 2772 3150 2772 3378 
Q 2772 3750 2511 3984 
Q 2250 4219 1831 4219 
Q 1534 4219 1204 4116 
Q 875 4013 500 3803 
L 500 4441 
Q 881 4594 1212 4672 
Q 1544 4750 1819 4750 
Q 2544 4750 2975 4387 
Q 3406 4025 3406 3419 
Q 3406 3131 3298 2873 
Q 3191 2616 2906 2266 
Q 2828 2175 2409 1742 
Q 1991 1309 1228 531 
z
" transform="scale(0.015625)"/>
        <path id="DejaVuSans-35" d="M 691 4666 
L 3169 4666 
L 3169 4134 
L 1269 4134 
L 1269 2991 
Q 1406 3038 1543 3061 
Q 1681 3084 1819 3084 
Q 2600 3084 3056 2656 
Q 3513 2228 3513 1497 
Q 3513 744 3044 326 
Q 2575 -91 1722 -91 
Q 1428 -91 1123 -41 
Q 819 9 494 109 
L 494 744 
Q 775 591 1075 516 
Q 1375 441 1709 441 
Q 2250 441 2565 725 
Q 2881 1009 2881 1497 
Q 2881 1984 2565 2268 
Q 2250 2553 1709 2553 
Q 1456 2553 1204 2497 
Q 953 2441 691 2322 
L 691 4666 
z
" transform="scale(0.015625)"/>
       </defs>
       <use xlink:href="#DejaVuSans-32"/>
       <use xlink:href="#DejaVuSans-35" x="63.623047"/>
      </g>
     </g>
    </g>
    <g id="xtick_3">
     <g id="line2d_3">
      <g>
       <use xlink:href="#mbc50fbe3d1" x="145.019582" y="224.64" style="stroke: #000000; stroke-width: 0.8"/>
      </g>
     </g>
     <g id="text_3">
      <!-- 50 -->
      <g transform="translate(138.657082 239.238438)scale(0.1 -0.1)">
       <use xlink:href="#DejaVuSans-35"/>
       <use xlink:href="#DejaVuSans-30" x="63.623047"/>
      </g>
     </g>
    </g>
    <g id="xtick_4">
     <g id="line2d_4">
      <g>
       <use xlink:href="#mbc50fbe3d1" x="183.25622" y="224.64" style="stroke: #000000; stroke-width: 0.8"/>
      </g>
     </g>
     <g id="text_4">
      <!-- 75 -->
      <g transform="translate(176.89372 239.238438)scale(0.1 -0.1)">
       <defs>
        <path id="DejaVuSans-37" d="M 525 4666 
L 3525 4666 
L 3525 4397 
L 1831 0 
L 1172 0 
L 2766 4134 
L 525 4134 
L 525 4666 
z
" transform="scale(0.015625)"/>
       </defs>
       <use xlink:href="#DejaVuSans-37"/>
       <use xlink:href="#DejaVuSans-35" x="63.623047"/>
      </g>
     </g>
    </g>
    <g id="xtick_5">
     <g id="line2d_5">
      <g>
       <use xlink:href="#mbc50fbe3d1" x="221.492858" y="224.64" style="stroke: #000000; stroke-width: 0.8"/>
      </g>
     </g>
     <g id="text_5">
      <!-- 100 -->
      <g transform="translate(211.949108 239.238438)scale(0.1 -0.1)">
       <defs>
        <path id="DejaVuSans-31" d="M 794 531 
L 1825 531 
L 1825 4091 
L 703 3866 
L 703 4441 
L 1819 4666 
L 2450 4666 
L 2450 531 
L 3481 531 
L 3481 0 
L 794 0 
L 794 531 
z
" transform="scale(0.015625)"/>
       </defs>
       <use xlink:href="#DejaVuSans-31"/>
       <use xlink:href="#DejaVuSans-30" x="63.623047"/>
       <use xlink:href="#DejaVuSans-30" x="127.246094"/>
      </g>
     </g>
    </g>
    <g id="xtick_6">
     <g id="line2d_6">
      <g>
       <use xlink:href="#mbc50fbe3d1" x="259.729495" y="224.64" style="stroke: #000000; stroke-width: 0.8"/>
      </g>
     </g>
     <g id="text_6">
      <!-- 125 -->
      <g transform="translate(250.185745 239.238438)scale(0.1 -0.1)">
       <use xlink:href="#DejaVuSans-31"/>
       <use xlink:href="#DejaVuSans-32" x="63.623047"/>
       <use xlink:href="#DejaVuSans-35" x="127.246094"/>
      </g>
     </g>
    </g>
    <g id="xtick_7">
     <g id="line2d_7">
      <g>
       <use xlink:href="#mbc50fbe3d1" x="297.966133" y="224.64" style="stroke: #000000; stroke-width: 0.8"/>
      </g>
     </g>
     <g id="text_7">
      <!-- 150 -->
      <g transform="translate(288.422383 239.238438)scale(0.1 -0.1)">
       <use xlink:href="#DejaVuSans-31"/>
       <use xlink:href="#DejaVuSans-35" x="63.623047"/>
       <use xlink:href="#DejaVuSans-30" x="127.246094"/>
      </g>
     </g>
    </g>
    <g id="xtick_8">
     <g id="line2d_8">
      <g>
       <use xlink:href="#mbc50fbe3d1" x="336.202771" y="224.64" style="stroke: #000000; stroke-width: 0.8"/>
      </g>
     </g>
     <g id="text_8">
      <!-- 175 -->
      <g transform="translate(326.659021 239.238438)scale(0.1 -0.1)">
       <use xlink:href="#DejaVuSans-31"/>
       <use xlink:href="#DejaVuSans-37" x="63.623047"/>
       <use xlink:href="#DejaVuSans-35" x="127.246094"/>
      </g>
     </g>
    </g>
    <g id="xtick_9">
     <g id="line2d_9">
      <g>
       <use xlink:href="#mbc50fbe3d1" x="374.439409" y="224.64" style="stroke: #000000; stroke-width: 0.8"/>
      </g>
     </g>
     <g id="text_9">
      <!-- 200 -->
      <g transform="translate(364.895659 239.238438)scale(0.1 -0.1)">
       <use xlink:href="#DejaVuSans-32"/>
       <use xlink:href="#DejaVuSans-30" x="63.623047"/>
       <use xlink:href="#DejaVuSans-30" x="127.246094"/>
      </g>
     </g>
    </g>
    <g id="text_10">
     <!-- Epoch -->
     <g transform="translate(205.417188 252.916563)scale(0.1 -0.1)">
      <defs>
       <path id="DejaVuSans-45" d="M 628 4666 
L 3578 4666 
L 3578 4134 
L 1259 4134 
L 1259 2753 
L 3481 2753 
L 3481 2222 
L 1259 2222 
L 1259 531 
L 3634 531 
L 3634 0 
L 628 0 
L 628 4666 
z
" transform="scale(0.015625)"/>
       <path id="DejaVuSans-70" d="M 1159 525 
L 1159 -1331 
L 581 -1331 
L 581 3500 
L 1159 3500 
L 1159 2969 
Q 1341 3281 1617 3432 
Q 1894 3584 2278 3584 
Q 2916 3584 3314 3078 
Q 3713 2572 3713 1747 
Q 3713 922 3314 415 
Q 2916 -91 2278 -91 
Q 1894 -91 1617 61 
Q 1341 213 1159 525 
z
M 3116 1747 
Q 3116 2381 2855 2742 
Q 2594 3103 2138 3103 
Q 1681 3103 1420 2742 
Q 1159 2381 1159 1747 
Q 1159 1113 1420 752 
Q 1681 391 2138 391 
Q 2594 391 2855 752 
Q 3116 1113 3116 1747 
z
" transform="scale(0.015625)"/>
       <path id="DejaVuSans-6f" d="M 1959 3097 
Q 1497 3097 1228 2736 
Q 959 2375 959 1747 
Q 959 1119 1226 758 
Q 1494 397 1959 397 
Q 2419 397 2687 759 
Q 2956 1122 2956 1747 
Q 2956 2369 2687 2733 
Q 2419 3097 1959 3097 
z
M 1959 3584 
Q 2709 3584 3137 3096 
Q 3566 2609 3566 1747 
Q 3566 888 3137 398 
Q 2709 -91 1959 -91 
Q 1206 -91 779 398 
Q 353 888 353 1747 
Q 353 2609 779 3096 
Q 1206 3584 1959 3584 
z
" transform="scale(0.015625)"/>
       <path id="DejaVuSans-63" d="M 3122 3366 
L 3122 2828 
Q 2878 2963 2633 3030 
Q 2388 3097 2138 3097 
Q 1578 3097 1268 2742 
Q 959 2388 959 1747 
Q 959 1106 1268 751 
Q 1578 397 2138 397 
Q 2388 397 2633 464 
Q 2878 531 3122 666 
L 3122 134 
Q 2881 22 2623 -34 
Q 2366 -91 2075 -91 
Q 1284 -91 818 406 
Q 353 903 353 1747 
Q 353 2603 823 3093 
Q 1294 3584 2113 3584 
Q 2378 3584 2631 3529 
Q 2884 3475 3122 3366 
z
" transform="scale(0.015625)"/>
       <path id="DejaVuSans-68" d="M 3513 2113 
L 3513 0 
L 2938 0 
L 2938 2094 
Q 2938 2591 2744 2837 
Q 2550 3084 2163 3084 
Q 1697 3084 1428 2787 
Q 1159 2491 1159 1978 
L 1159 0 
L 581 0 
L 581 4863 
L 1159 4863 
L 1159 2956 
Q 1366 3272 1645 3428 
Q 1925 3584 2291 3584 
Q 2894 3584 3203 3211 
Q 3513 2838 3513 2113 
z
" transform="scale(0.015625)"/>
      </defs>
      <use xlink:href="#DejaVuSans-45"/>
      <use xlink:href="#DejaVuSans-70" x="63.183594"/>
      <use xlink:href="#DejaVuSans-6f" x="126.660156"/>
      <use xlink:href="#DejaVuSans-63" x="187.841797"/>
      <use xlink:href="#DejaVuSans-68" x="242.822266"/>
     </g>
    </g>
   </g>
   <g id="matplotlib.axis_2">
    <g id="ytick_1">
     <g id="line2d_10">
      <defs>
       <path id="m66fc98d83d" d="M 0 0 
L -3.5 0 
" style="stroke: #000000; stroke-width: 0.8"/>
      </defs>
      <g>
       <use xlink:href="#m66fc98d83d" x="53.328125" y="214.894292" style="stroke: #000000; stroke-width: 0.8"/>
      </g>
     </g>
     <g id="text_11">
      <!-- 0 -->
      <g transform="translate(39.965625 218.693511)scale(0.1 -0.1)">
       <use xlink:href="#DejaVuSans-30"/>
      </g>
     </g>
    </g>
    <g id="ytick_2">
     <g id="line2d_11">
      <g>
       <use xlink:href="#m66fc98d83d" x="53.328125" y="175.591951" style="stroke: #000000; stroke-width: 0.8"/>
      </g>
     </g>
     <g id="text_12">
      <!-- 500 -->
      <g transform="translate(27.240625 179.39117)scale(0.1 -0.1)">
       <use xlink:href="#DejaVuSans-35"/>
       <use xlink:href="#DejaVuSans-30" x="63.623047"/>
       <use xlink:href="#DejaVuSans-30" x="127.246094"/>
      </g>
     </g>
    </g>
    <g id="ytick_3">
     <g id="line2d_12">
      <g>
       <use xlink:href="#m66fc98d83d" x="53.328125" y="136.289611" style="stroke: #000000; stroke-width: 0.8"/>
      </g>
     </g>
     <g id="text_13">
      <!-- 1000 -->
      <g transform="translate(20.878125 140.08883)scale(0.1 -0.1)">
       <use xlink:href="#DejaVuSans-31"/>
       <use xlink:href="#DejaVuSans-30" x="63.623047"/>
       <use xlink:href="#DejaVuSans-30" x="127.246094"/>
       <use xlink:href="#DejaVuSans-30" x="190.869141"/>
      </g>
     </g>
    </g>
    <g id="ytick_4">
     <g id="line2d_13">
      <g>
       <use xlink:href="#m66fc98d83d" x="53.328125" y="96.987271" style="stroke: #000000; stroke-width: 0.8"/>
      </g>
     </g>
     <g id="text_14">
      <!-- 1500 -->
      <g transform="translate(20.878125 100.786489)scale(0.1 -0.1)">
       <use xlink:href="#DejaVuSans-31"/>
       <use xlink:href="#DejaVuSans-35" x="63.623047"/>
       <use xlink:href="#DejaVuSans-30" x="127.246094"/>
       <use xlink:href="#DejaVuSans-30" x="190.869141"/>
      </g>
     </g>
    </g>
    <g id="ytick_5">
     <g id="line2d_14">
      <g>
       <use xlink:href="#m66fc98d83d" x="53.328125" y="57.68493" style="stroke: #000000; stroke-width: 0.8"/>
      </g>
     </g>
     <g id="text_15">
      <!-- 2000 -->
      <g transform="translate(20.878125 61.484149)scale(0.1 -0.1)">
       <use xlink:href="#DejaVuSans-32"/>
       <use xlink:href="#DejaVuSans-30" x="63.623047"/>
       <use xlink:href="#DejaVuSans-30" x="127.246094"/>
       <use xlink:href="#DejaVuSans-30" x="190.869141"/>
      </g>
     </g>
    </g>
    <g id="ytick_6">
     <g id="line2d_15">
      <g>
       <use xlink:href="#m66fc98d83d" x="53.328125" y="18.38259" style="stroke: #000000; stroke-width: 0.8"/>
      </g>
     </g>
     <g id="text_16">
      <!-- 2500 -->
      <g transform="translate(20.878125 22.181809)scale(0.1 -0.1)">
       <use xlink:href="#DejaVuSans-32"/>
       <use xlink:href="#DejaVuSans-35" x="63.623047"/>
       <use xlink:href="#DejaVuSans-30" x="127.246094"/>
       <use xlink:href="#DejaVuSans-30" x="190.869141"/>
      </g>
     </g>
    </g>
    <g id="text_17">
     <!-- Loss -->
     <g transform="translate(14.798438 126.887188)rotate(-90)scale(0.1 -0.1)">
      <defs>
       <path id="DejaVuSans-4c" d="M 628 4666 
L 1259 4666 
L 1259 531 
L 3531 531 
L 3531 0 
L 628 0 
L 628 4666 
z
" transform="scale(0.015625)"/>
       <path id="DejaVuSans-73" d="M 2834 3397 
L 2834 2853 
Q 2591 2978 2328 3040 
Q 2066 3103 1784 3103 
Q 1356 3103 1142 2972 
Q 928 2841 928 2578 
Q 928 2378 1081 2264 
Q 1234 2150 1697 2047 
L 1894 2003 
Q 2506 1872 2764 1633 
Q 3022 1394 3022 966 
Q 3022 478 2636 193 
Q 2250 -91 1575 -91 
Q 1294 -91 989 -36 
Q 684 19 347 128 
L 347 722 
Q 666 556 975 473 
Q 1284 391 1588 391 
Q 1994 391 2212 530 
Q 2431 669 2431 922 
Q 2431 1156 2273 1281 
Q 2116 1406 1581 1522 
L 1381 1569 
Q 847 1681 609 1914 
Q 372 2147 372 2553 
Q 372 3047 722 3315 
Q 1072 3584 1716 3584 
Q 2034 3584 2315 3537 
Q 2597 3491 2834 3397 
z
" transform="scale(0.015625)"/>
      </defs>
      <use xlink:href="#DejaVuSans-4c"/>
      <use xlink:href="#DejaVuSans-6f" x="53.962891"/>
      <use xlink:href="#DejaVuSans-73" x="115.144531"/>
      <use xlink:href="#DejaVuSans-73" x="167.244141"/>
     </g>
    </g>
   </g>
   <g id="line2d_16">
    <path d="M 68.546307 36.896577 
L 70.075772 86.452422 
L 71.605238 103.51888 
L 73.134703 114.472947 
L 74.664169 123.341689 
L 76.193634 129.924296 
L 80.782031 147.526594 
L 82.311496 152.432094 
L 83.840962 156.787297 
L 85.370427 160.43281 
L 88.429358 166.082073 
L 89.958824 169.225191 
L 91.488289 171.00339 
L 93.017755 173.343948 
L 94.54722 176.580804 
L 96.076686 177.851096 
L 97.606151 178.965353 
L 99.135617 181.555113 
L 103.724014 185.0709 
L 105.253479 185.868741 
L 106.782945 187.116548 
L 108.31241 188.195135 
L 109.841876 188.133079 
L 111.371341 191.758277 
L 112.900807 192.832629 
L 114.430272 193.18169 
L 115.959738 197.303732 
L 117.489203 198.968221 
L 119.018669 202.486912 
L 120.548134 203.250793 
L 122.0776 203.827257 
L 123.607065 208.452617 
L 125.136531 209.155706 
L 126.665996 209.170024 
L 128.195462 209.378705 
L 129.724927 210.826305 
L 131.254393 211.078205 
L 132.783858 212.345835 
L 134.313324 212.611874 
L 135.842789 212.224297 
L 137.372255 213.348788 
L 140.431186 213.545688 
L 143.490117 213.760508 
L 145.019582 213.603689 
L 146.549048 213.599458 
L 148.078513 213.985262 
L 149.607979 213.982996 
L 151.137444 214.212443 
L 157.255306 214.469717 
L 160.314237 214.413745 
L 163.373168 214.617377 
L 171.020496 214.591255 
L 172.549961 214.66827 
L 174.079427 214.595589 
L 178.667823 214.659842 
L 313.260788 214.741608 
L 343.850099 214.726945 
L 360.674219 214.717593 
L 366.792081 214.7325 
L 372.909943 214.723839 
L 372.909943 214.723839 
" clip-path="url(#pe75bed2dae)" style="fill: none; stroke: #1f77b4; stroke-width: 1.5; stroke-linecap: square"/>
   </g>
   <g id="line2d_17">
    <path d="M 68.546307 19.330952 
L 70.075772 40.05264 
L 71.605238 49.198232 
L 73.134703 64.816255 
L 74.664169 74.334155 
L 76.193634 79.505621 
L 77.7231 82.787999 
L 80.782031 88.579568 
L 83.840962 94.498049 
L 85.370427 97.141878 
L 86.899893 100.956639 
L 88.429358 103.478057 
L 89.958824 105.628305 
L 91.488289 108.182798 
L 96.076686 114.23116 
L 97.606151 115.912353 
L 99.135617 118.018385 
L 100.665083 119.469121 
L 102.194548 121.69489 
L 103.724014 123.503335 
L 105.253479 125.822343 
L 108.31241 129.208794 
L 109.841876 131.368922 
L 112.900807 135.036656 
L 114.430272 137.232753 
L 115.959738 138.658823 
L 117.489203 141.012026 
L 119.018669 143.096366 
L 120.548134 144.757487 
L 123.607065 148.839964 
L 125.136531 150.66027 
L 126.665996 152.6569 
L 128.195462 154.25965 
L 129.724927 156.474267 
L 132.783858 160.163219 
L 134.313324 161.79828 
L 135.842789 163.647995 
L 137.372255 165.249421 
L 138.90172 167.118494 
L 140.431186 168.656117 
L 141.960651 170.770888 
L 143.490117 171.898989 
L 146.549048 175.863817 
L 148.078513 177.057114 
L 149.607979 178.711487 
L 151.137444 179.769338 
L 152.66691 181.224725 
L 154.196375 181.885395 
L 155.725841 184.253483 
L 157.255306 185.122789 
L 158.784772 186.462027 
L 160.314237 186.537986 
L 161.843703 188.544704 
L 163.373168 188.746646 
L 164.902634 190.226996 
L 166.432099 191.185399 
L 167.961565 191.503378 
L 169.49103 192.827276 
L 171.020496 193.108149 
L 172.549961 193.582861 
L 174.079427 196.246358 
L 175.608892 198.414959 
L 178.667823 200.513576 
L 180.197289 200.012674 
L 181.726755 202.237463 
L 184.785686 203.241748 
L 186.315151 203.760532 
L 187.844617 206.414284 
L 189.374082 206.108196 
L 190.903548 208.011391 
L 192.433013 209.508919 
L 193.962479 208.813029 
L 195.491944 210.014107 
L 198.550875 211.386895 
L 200.080341 211.764344 
L 203.139272 211.589691 
L 204.668737 212.45922 
L 206.198203 212.673359 
L 207.727668 212.683222 
L 209.257134 213.162789 
L 210.786599 213.121398 
L 212.316065 213.525912 
L 213.84553 213.624284 
L 215.374996 213.85155 
L 219.963392 213.761987 
L 221.492858 214.062097 
L 223.022323 214.082309 
L 224.551789 214.254816 
L 226.081254 214.21506 
L 229.140185 214.379974 
L 230.669651 214.290259 
L 233.728582 214.445394 
L 236.787513 214.268618 
L 238.316978 214.541512 
L 239.846444 214.582878 
L 241.375909 214.429332 
L 242.905375 214.561635 
L 249.023237 214.56405 
L 250.552702 214.622026 
L 252.082168 214.524295 
L 255.141099 214.607067 
L 322.437581 214.640087 
L 327.025978 214.684196 
L 333.14384 214.680005 
L 342.320633 214.695825 
L 353.026892 214.67742 
L 363.73315 214.687792 
L 366.792081 214.63445 
L 369.851012 214.685432 
L 372.909943 214.674304 
L 372.909943 214.674304 
" clip-path="url(#pe75bed2dae)" style="fill: none; stroke: #ff7f0e; stroke-width: 1.5; stroke-linecap: square"/>
   </g>
   <g id="line2d_18">
    <path d="M 68.546307 17.083636 
L 71.605238 17.205323 
L 82.311496 17.224441 
L 83.840962 17.388218 
L 85.370427 30.829368 
L 86.899893 40.00305 
L 88.429358 44.645296 
L 89.958824 47.445011 
L 91.488289 50.485435 
L 93.017755 65.96949 
L 94.54722 76.858984 
L 97.606151 110.361456 
L 99.135617 118.594261 
L 100.665083 125.679679 
L 103.724014 136.684724 
L 105.253479 140.854068 
L 108.31241 150.720891 
L 109.841876 154.765249 
L 111.371341 158.01222 
L 112.900807 161.557971 
L 114.430272 163.678523 
L 115.959738 166.33202 
L 117.489203 168.369816 
L 119.018669 169.941714 
L 120.548134 170.73664 
L 122.0776 174.552464 
L 123.607065 174.349842 
L 125.136531 179.807858 
L 126.665996 182.195688 
L 128.195462 182.261785 
L 129.724927 183.319512 
L 131.254393 184.923778 
L 132.783858 193.039325 
L 135.842789 196.023156 
L 137.372255 197.037999 
L 138.90172 200.420158 
L 140.431186 201.158836 
L 141.960651 203.097908 
L 143.490117 206.497133 
L 148.078513 207.841768 
L 149.607979 206.805548 
L 151.137444 209.754974 
L 152.66691 208.707458 
L 154.196375 210.899574 
L 155.725841 210.475728 
L 157.255306 212.022063 
L 158.784772 212.306041 
L 161.843703 213.294657 
L 163.373168 213.424583 
L 164.902634 213.427353 
L 167.961565 213.885792 
L 169.49103 213.6918 
L 171.020496 214.072622 
L 172.549961 214.184584 
L 174.079427 214.123056 
L 177.138358 214.384926 
L 178.667823 214.499348 
L 180.197289 214.426217 
L 187.844617 214.613562 
L 190.903548 214.597691 
L 193.962479 214.63704 
L 198.550875 214.665944 
L 229.140185 214.699752 
L 233.728582 214.655827 
L 236.787513 214.708221 
L 245.964306 214.671793 
L 311.731323 214.707119 
L 314.790254 214.699287 
L 320.908116 214.687686 
L 327.025978 214.690642 
L 372.909943 214.713546 
L 372.909943 214.713546 
" clip-path="url(#pe75bed2dae)" style="fill: none; stroke: #2ca02c; stroke-width: 1.5; stroke-linecap: square"/>
   </g>
   <g id="line2d_19">
    <path d="M 68.546307 59.036701 
L 70.075772 103.048221 
L 71.605238 115.944134 
L 73.134703 125.263627 
L 77.7231 144.716085 
L 79.252565 150.312124 
L 80.782031 154.873544 
L 85.370427 166.01356 
L 86.899893 168.066228 
L 88.429358 171.82694 
L 89.958824 173.751694 
L 93.017755 178.152048 
L 94.54722 179.33723 
L 96.076686 181.846398 
L 97.606151 183.167826 
L 99.135617 183.914103 
L 100.665083 184.914389 
L 102.194548 186.514507 
L 103.724014 187.173899 
L 105.253479 188.512105 
L 106.782945 189.668748 
L 108.31241 189.434304 
L 109.841876 193.974452 
L 111.371341 194.411868 
L 112.900807 197.238876 
L 114.430272 200.962208 
L 115.959738 202.258462 
L 117.489203 201.723337 
L 119.018669 203.646759 
L 120.548134 203.610323 
L 122.0776 206.015657 
L 123.607065 205.328666 
L 125.136531 209.316678 
L 126.665996 210.260306 
L 128.195462 209.815407 
L 129.724927 210.677321 
L 131.254393 212.391763 
L 132.783858 212.766844 
L 134.313324 212.284645 
L 135.842789 213.044527 
L 137.372255 213.001338 
L 138.90172 213.622286 
L 141.960651 214.043178 
L 143.490117 213.9733 
L 145.019582 214.236884 
L 148.078513 214.35676 
L 149.607979 214.366586 
L 151.137444 214.492864 
L 155.725841 214.572941 
L 163.373168 214.640431 
L 166.432099 214.659409 
L 180.197289 214.679272 
L 189.374082 214.719177 
L 195.491944 214.718815 
L 209.257134 214.735313 
L 215.374996 214.706449 
L 219.963392 214.721842 
L 239.846444 214.711088 
L 244.43484 214.716013 
L 275.024151 214.732284 
L 278.083082 214.708176 
L 288.78934 214.731311 
L 304.083995 214.734231 
L 317.849185 214.744081 
L 360.674219 214.732555 
L 372.909943 214.727875 
L 372.909943 214.727875 
" clip-path="url(#pe75bed2dae)" style="fill: none; stroke: #d62728; stroke-width: 1.5; stroke-linecap: square"/>
   </g>
   <g id="line2d_20">
    <path d="M 68.546307 70.423457 
L 70.075772 111.263812 
L 71.605238 122.136475 
L 74.664169 137.973965 
L 77.7231 150.63807 
L 80.782031 160.017315 
L 82.311496 163.460218 
L 83.840962 166.180198 
L 85.370427 169.866204 
L 86.899893 171.903359 
L 88.429358 174.854553 
L 89.958824 176.705129 
L 91.488289 178.981157 
L 93.017755 180.960881 
L 94.54722 182.091592 
L 96.076686 183.657926 
L 97.606151 184.079041 
L 99.135617 185.758099 
L 100.665083 186.639499 
L 102.194548 187.807555 
L 103.724014 188.183978 
L 105.253479 189.589265 
L 106.782945 189.161435 
L 108.31241 192.663708 
L 109.841876 193.363345 
L 111.371341 197.547223 
L 112.900807 198.115287 
L 115.959738 203.923367 
L 117.489203 203.779577 
L 119.018669 206.055542 
L 120.548134 207.020392 
L 122.0776 206.752386 
L 123.607065 208.429529 
L 125.136531 210.490554 
L 126.665996 211.108643 
L 128.195462 211.846838 
L 129.724927 212.401171 
L 131.254393 212.288966 
L 132.783858 213.17627 
L 135.842789 213.283919 
L 137.372255 213.641863 
L 138.90172 213.594342 
L 140.431186 213.888819 
L 141.960651 214.306435 
L 143.490117 213.959606 
L 145.019582 214.31113 
L 146.549048 214.453957 
L 148.078513 214.342069 
L 149.607979 214.518224 
L 166.432099 214.698429 
L 169.49103 214.666962 
L 177.138358 214.679376 
L 215.374996 214.715738 
L 229.140185 214.707071 
L 235.258047 214.712658 
L 247.493771 214.730985 
L 250.552702 214.699838 
L 271.96522 214.734538 
L 278.083082 214.702132 
L 296.436668 214.714438 
L 301.025064 214.681645 
L 305.613461 214.724454 
L 314.790254 214.733682 
L 346.90903 214.725238 
L 357.615288 214.707771 
L 360.674219 214.722904 
L 368.321547 214.7055 
L 372.909943 214.727958 
L 372.909943 214.727958 
" clip-path="url(#pe75bed2dae)" style="fill: none; stroke: #9467bd; stroke-width: 1.5; stroke-linecap: square"/>
   </g>
   <g id="line2d_21">
    <path d="M 68.546307 75.21848 
L 70.075772 112.084562 
L 71.605238 125.361844 
L 73.134703 136.055182 
L 74.664169 144.463358 
L 76.193634 151.707802 
L 77.7231 155.955781 
L 79.252565 160.722917 
L 82.311496 168.521104 
L 83.840962 170.998752 
L 85.370427 174.351129 
L 86.899893 176.106696 
L 88.429358 177.551872 
L 89.958824 180.069476 
L 93.017755 183.32092 
L 94.54722 184.661024 
L 96.076686 186.322085 
L 97.606151 187.330683 
L 99.135617 187.698716 
L 100.665083 191.002483 
L 102.194548 190.772604 
L 105.253479 197.164961 
L 106.782945 201.325083 
L 108.31241 204.291412 
L 109.841876 205.150476 
L 111.371341 203.957813 
L 112.900807 208.312112 
L 114.430272 209.421762 
L 115.959738 209.14626 
L 117.489203 210.070902 
L 119.018669 210.199468 
L 120.548134 212.256691 
L 122.0776 212.052064 
L 123.607065 212.616006 
L 125.136531 212.929587 
L 126.665996 213.527178 
L 129.724927 213.847674 
L 131.254393 213.880442 
L 132.783858 214.269223 
L 134.313324 214.173007 
L 137.372255 214.442511 
L 138.90172 214.502176 
L 140.431186 214.397113 
L 141.960651 214.619388 
L 143.490117 214.515073 
L 148.078513 214.600732 
L 157.255306 214.714325 
L 160.314237 214.699951 
L 178.667823 214.679395 
L 195.491944 214.739709 
L 200.080341 214.679794 
L 207.727668 214.724065 
L 265.847358 214.699918 
L 273.494685 214.658869 
L 275.024151 214.735559 
L 279.612547 214.687526 
L 284.200944 214.726594 
L 372.909943 214.711439 
L 372.909943 214.711439 
" clip-path="url(#pe75bed2dae)" style="fill: none; stroke: #8c564b; stroke-width: 1.5; stroke-linecap: square"/>
   </g>
   <g id="patch_3">
    <path d="M 53.328125 224.64 
L 53.328125 7.2 
" style="fill: none; stroke: #000000; stroke-width: 0.8; stroke-linejoin: miter; stroke-linecap: square"/>
   </g>
   <g id="patch_4">
    <path d="M 388.128125 224.64 
L 388.128125 7.2 
" style="fill: none; stroke: #000000; stroke-width: 0.8; stroke-linejoin: miter; stroke-linecap: square"/>
   </g>
   <g id="patch_5">
    <path d="M 53.328125 224.64 
L 388.128125 224.64 
" style="fill: none; stroke: #000000; stroke-width: 0.8; stroke-linejoin: miter; stroke-linecap: square"/>
   </g>
   <g id="patch_6">
    <path d="M 53.328125 7.2 
L 388.128125 7.2 
" style="fill: none; stroke: #000000; stroke-width: 0.8; stroke-linejoin: miter; stroke-linecap: square"/>
   </g>
   <g id="legend_1">
    <g id="patch_7">
     <path d="M 242.998438 104.9375 
L 381.128125 104.9375 
Q 383.128125 104.9375 383.128125 102.9375 
L 383.128125 14.2 
Q 383.128125 12.2 381.128125 12.2 
L 242.998438 12.2 
Q 240.998438 12.2 240.998438 14.2 
L 240.998438 102.9375 
Q 240.998438 104.9375 242.998438 104.9375 
z
" style="fill: #ffffff; opacity: 0.8; stroke: #cccccc; stroke-linejoin: miter"/>
    </g>
    <g id="line2d_22">
     <path d="M 244.998438 20.298438 
L 254.998438 20.298438 
L 264.998438 20.298438 
" style="fill: none; stroke: #1f77b4; stroke-width: 1.5; stroke-linecap: square"/>
    </g>
    <g id="text_18">
     <!-- xavier_uniform -->
     <g transform="translate(272.998438 23.798438)scale(0.1 -0.1)">
      <defs>
       <path id="DejaVuSans-78" d="M 3513 3500 
L 2247 1797 
L 3578 0 
L 2900 0 
L 1881 1375 
L 863 0 
L 184 0 
L 1544 1831 
L 300 3500 
L 978 3500 
L 1906 2253 
L 2834 3500 
L 3513 3500 
z
" transform="scale(0.015625)"/>
       <path id="DejaVuSans-61" d="M 2194 1759 
Q 1497 1759 1228 1600 
Q 959 1441 959 1056 
Q 959 750 1161 570 
Q 1363 391 1709 391 
Q 2188 391 2477 730 
Q 2766 1069 2766 1631 
L 2766 1759 
L 2194 1759 
z
M 3341 1997 
L 3341 0 
L 2766 0 
L 2766 531 
Q 2569 213 2275 61 
Q 1981 -91 1556 -91 
Q 1019 -91 701 211 
Q 384 513 384 1019 
Q 384 1609 779 1909 
Q 1175 2209 1959 2209 
L 2766 2209 
L 2766 2266 
Q 2766 2663 2505 2880 
Q 2244 3097 1772 3097 
Q 1472 3097 1187 3025 
Q 903 2953 641 2809 
L 641 3341 
Q 956 3463 1253 3523 
Q 1550 3584 1831 3584 
Q 2591 3584 2966 3190 
Q 3341 2797 3341 1997 
z
" transform="scale(0.015625)"/>
       <path id="DejaVuSans-76" d="M 191 3500 
L 800 3500 
L 1894 563 
L 2988 3500 
L 3597 3500 
L 2284 0 
L 1503 0 
L 191 3500 
z
" transform="scale(0.015625)"/>
       <path id="DejaVuSans-69" d="M 603 3500 
L 1178 3500 
L 1178 0 
L 603 0 
L 603 3500 
z
M 603 4863 
L 1178 4863 
L 1178 4134 
L 603 4134 
L 603 4863 
z
" transform="scale(0.015625)"/>
       <path id="DejaVuSans-65" d="M 3597 1894 
L 3597 1613 
L 953 1613 
Q 991 1019 1311 708 
Q 1631 397 2203 397 
Q 2534 397 2845 478 
Q 3156 559 3463 722 
L 3463 178 
Q 3153 47 2828 -22 
Q 2503 -91 2169 -91 
Q 1331 -91 842 396 
Q 353 884 353 1716 
Q 353 2575 817 3079 
Q 1281 3584 2069 3584 
Q 2775 3584 3186 3129 
Q 3597 2675 3597 1894 
z
M 3022 2063 
Q 3016 2534 2758 2815 
Q 2500 3097 2075 3097 
Q 1594 3097 1305 2825 
Q 1016 2553 972 2059 
L 3022 2063 
z
" transform="scale(0.015625)"/>
       <path id="DejaVuSans-72" d="M 2631 2963 
Q 2534 3019 2420 3045 
Q 2306 3072 2169 3072 
Q 1681 3072 1420 2755 
Q 1159 2438 1159 1844 
L 1159 0 
L 581 0 
L 581 3500 
L 1159 3500 
L 1159 2956 
Q 1341 3275 1631 3429 
Q 1922 3584 2338 3584 
Q 2397 3584 2469 3576 
Q 2541 3569 2628 3553 
L 2631 2963 
z
" transform="scale(0.015625)"/>
       <path id="DejaVuSans-5f" d="M 3263 -1063 
L 3263 -1509 
L -63 -1509 
L -63 -1063 
L 3263 -1063 
z
" transform="scale(0.015625)"/>
       <path id="DejaVuSans-75" d="M 544 1381 
L 544 3500 
L 1119 3500 
L 1119 1403 
Q 1119 906 1312 657 
Q 1506 409 1894 409 
Q 2359 409 2629 706 
Q 2900 1003 2900 1516 
L 2900 3500 
L 3475 3500 
L 3475 0 
L 2900 0 
L 2900 538 
Q 2691 219 2414 64 
Q 2138 -91 1772 -91 
Q 1169 -91 856 284 
Q 544 659 544 1381 
z
M 1991 3584 
L 1991 3584 
z
" transform="scale(0.015625)"/>
       <path id="DejaVuSans-6e" d="M 3513 2113 
L 3513 0 
L 2938 0 
L 2938 2094 
Q 2938 2591 2744 2837 
Q 2550 3084 2163 3084 
Q 1697 3084 1428 2787 
Q 1159 2491 1159 1978 
L 1159 0 
L 581 0 
L 581 3500 
L 1159 3500 
L 1159 2956 
Q 1366 3272 1645 3428 
Q 1925 3584 2291 3584 
Q 2894 3584 3203 3211 
Q 3513 2838 3513 2113 
z
" transform="scale(0.015625)"/>
       <path id="DejaVuSans-66" d="M 2375 4863 
L 2375 4384 
L 1825 4384 
Q 1516 4384 1395 4259 
Q 1275 4134 1275 3809 
L 1275 3500 
L 2222 3500 
L 2222 3053 
L 1275 3053 
L 1275 0 
L 697 0 
L 697 3053 
L 147 3053 
L 147 3500 
L 697 3500 
L 697 3744 
Q 697 4328 969 4595 
Q 1241 4863 1831 4863 
L 2375 4863 
z
" transform="scale(0.015625)"/>
       <path id="DejaVuSans-6d" d="M 3328 2828 
Q 3544 3216 3844 3400 
Q 4144 3584 4550 3584 
Q 5097 3584 5394 3201 
Q 5691 2819 5691 2113 
L 5691 0 
L 5113 0 
L 5113 2094 
Q 5113 2597 4934 2840 
Q 4756 3084 4391 3084 
Q 3944 3084 3684 2787 
Q 3425 2491 3425 1978 
L 3425 0 
L 2847 0 
L 2847 2094 
Q 2847 2600 2669 2842 
Q 2491 3084 2119 3084 
Q 1678 3084 1418 2786 
Q 1159 2488 1159 1978 
L 1159 0 
L 581 0 
L 581 3500 
L 1159 3500 
L 1159 2956 
Q 1356 3278 1631 3431 
Q 1906 3584 2284 3584 
Q 2666 3584 2933 3390 
Q 3200 3197 3328 2828 
z
" transform="scale(0.015625)"/>
      </defs>
      <use xlink:href="#DejaVuSans-78"/>
      <use xlink:href="#DejaVuSans-61" x="59.179688"/>
      <use xlink:href="#DejaVuSans-76" x="120.458984"/>
      <use xlink:href="#DejaVuSans-69" x="179.638672"/>
      <use xlink:href="#DejaVuSans-65" x="207.421875"/>
      <use xlink:href="#DejaVuSans-72" x="268.945312"/>
      <use xlink:href="#DejaVuSans-5f" x="310.058594"/>
      <use xlink:href="#DejaVuSans-75" x="360.058594"/>
      <use xlink:href="#DejaVuSans-6e" x="423.4375"/>
      <use xlink:href="#DejaVuSans-69" x="486.816406"/>
      <use xlink:href="#DejaVuSans-66" x="514.599609"/>
      <use xlink:href="#DejaVuSans-6f" x="549.804688"/>
      <use xlink:href="#DejaVuSans-72" x="610.986328"/>
      <use xlink:href="#DejaVuSans-6d" x="650.349609"/>
     </g>
    </g>
    <g id="line2d_23">
     <path d="M 244.998438 35.254687 
L 254.998438 35.254687 
L 264.998438 35.254687 
" style="fill: none; stroke: #ff7f0e; stroke-width: 1.5; stroke-linecap: square"/>
    </g>
    <g id="text_19">
     <!-- xavier_uniform_M_1 -->
     <g transform="translate(272.998438 38.754687)scale(0.1 -0.1)">
      <defs>
       <path id="DejaVuSans-4d" d="M 628 4666 
L 1569 4666 
L 2759 1491 
L 3956 4666 
L 4897 4666 
L 4897 0 
L 4281 0 
L 4281 4097 
L 3078 897 
L 2444 897 
L 1241 4097 
L 1241 0 
L 628 0 
L 628 4666 
z
" transform="scale(0.015625)"/>
      </defs>
      <use xlink:href="#DejaVuSans-78"/>
      <use xlink:href="#DejaVuSans-61" x="59.179688"/>
      <use xlink:href="#DejaVuSans-76" x="120.458984"/>
      <use xlink:href="#DejaVuSans-69" x="179.638672"/>
      <use xlink:href="#DejaVuSans-65" x="207.421875"/>
      <use xlink:href="#DejaVuSans-72" x="268.945312"/>
      <use xlink:href="#DejaVuSans-5f" x="310.058594"/>
      <use xlink:href="#DejaVuSans-75" x="360.058594"/>
      <use xlink:href="#DejaVuSans-6e" x="423.4375"/>
      <use xlink:href="#DejaVuSans-69" x="486.816406"/>
      <use xlink:href="#DejaVuSans-66" x="514.599609"/>
      <use xlink:href="#DejaVuSans-6f" x="549.804688"/>
      <use xlink:href="#DejaVuSans-72" x="610.986328"/>
      <use xlink:href="#DejaVuSans-6d" x="650.349609"/>
      <use xlink:href="#DejaVuSans-5f" x="747.761719"/>
      <use xlink:href="#DejaVuSans-4d" x="797.761719"/>
      <use xlink:href="#DejaVuSans-5f" x="884.041016"/>
      <use xlink:href="#DejaVuSans-31" x="934.041016"/>
     </g>
    </g>
    <g id="line2d_24">
     <path d="M 244.998438 50.210938 
L 254.998438 50.210938 
L 264.998438 50.210938 
" style="fill: none; stroke: #2ca02c; stroke-width: 1.5; stroke-linecap: square"/>
    </g>
    <g id="text_20">
     <!-- xavier_uniform_M_2 -->
     <g transform="translate(272.998438 53.710938)scale(0.1 -0.1)">
      <use xlink:href="#DejaVuSans-78"/>
      <use xlink:href="#DejaVuSans-61" x="59.179688"/>
      <use xlink:href="#DejaVuSans-76" x="120.458984"/>
      <use xlink:href="#DejaVuSans-69" x="179.638672"/>
      <use xlink:href="#DejaVuSans-65" x="207.421875"/>
      <use xlink:href="#DejaVuSans-72" x="268.945312"/>
      <use xlink:href="#DejaVuSans-5f" x="310.058594"/>
      <use xlink:href="#DejaVuSans-75" x="360.058594"/>
      <use xlink:href="#DejaVuSans-6e" x="423.4375"/>
      <use xlink:href="#DejaVuSans-69" x="486.816406"/>
      <use xlink:href="#DejaVuSans-66" x="514.599609"/>
      <use xlink:href="#DejaVuSans-6f" x="549.804688"/>
      <use xlink:href="#DejaVuSans-72" x="610.986328"/>
      <use xlink:href="#DejaVuSans-6d" x="650.349609"/>
      <use xlink:href="#DejaVuSans-5f" x="747.761719"/>
      <use xlink:href="#DejaVuSans-4d" x="797.761719"/>
      <use xlink:href="#DejaVuSans-5f" x="884.041016"/>
      <use xlink:href="#DejaVuSans-32" x="934.041016"/>
     </g>
    </g>
    <g id="line2d_25">
     <path d="M 244.998438 65.167188 
L 254.998438 65.167188 
L 264.998438 65.167188 
" style="fill: none; stroke: #d62728; stroke-width: 1.5; stroke-linecap: square"/>
    </g>
    <g id="text_21">
     <!-- xavier_uniform_M_10 -->
     <g transform="translate(272.998438 68.667188)scale(0.1 -0.1)">
      <use xlink:href="#DejaVuSans-78"/>
      <use xlink:href="#DejaVuSans-61" x="59.179688"/>
      <use xlink:href="#DejaVuSans-76" x="120.458984"/>
      <use xlink:href="#DejaVuSans-69" x="179.638672"/>
      <use xlink:href="#DejaVuSans-65" x="207.421875"/>
      <use xlink:href="#DejaVuSans-72" x="268.945312"/>
      <use xlink:href="#DejaVuSans-5f" x="310.058594"/>
      <use xlink:href="#DejaVuSans-75" x="360.058594"/>
      <use xlink:href="#DejaVuSans-6e" x="423.4375"/>
      <use xlink:href="#DejaVuSans-69" x="486.816406"/>
      <use xlink:href="#DejaVuSans-66" x="514.599609"/>
      <use xlink:href="#DejaVuSans-6f" x="549.804688"/>
      <use xlink:href="#DejaVuSans-72" x="610.986328"/>
      <use xlink:href="#DejaVuSans-6d" x="650.349609"/>
      <use xlink:href="#DejaVuSans-5f" x="747.761719"/>
      <use xlink:href="#DejaVuSans-4d" x="797.761719"/>
      <use xlink:href="#DejaVuSans-5f" x="884.041016"/>
      <use xlink:href="#DejaVuSans-31" x="934.041016"/>
      <use xlink:href="#DejaVuSans-30" x="997.664062"/>
     </g>
    </g>
    <g id="line2d_26">
     <path d="M 244.998438 80.123438 
L 254.998438 80.123438 
L 264.998438 80.123438 
" style="fill: none; stroke: #9467bd; stroke-width: 1.5; stroke-linecap: square"/>
    </g>
    <g id="text_22">
     <!-- xavier_uniform_M_14 -->
     <g transform="translate(272.998438 83.623438)scale(0.1 -0.1)">
      <defs>
       <path id="DejaVuSans-34" d="M 2419 4116 
L 825 1625 
L 2419 1625 
L 2419 4116 
z
M 2253 4666 
L 3047 4666 
L 3047 1625 
L 3713 1625 
L 3713 1100 
L 3047 1100 
L 3047 0 
L 2419 0 
L 2419 1100 
L 313 1100 
L 313 1709 
L 2253 4666 
z
" transform="scale(0.015625)"/>
      </defs>
      <use xlink:href="#DejaVuSans-78"/>
      <use xlink:href="#DejaVuSans-61" x="59.179688"/>
      <use xlink:href="#DejaVuSans-76" x="120.458984"/>
      <use xlink:href="#DejaVuSans-69" x="179.638672"/>
      <use xlink:href="#DejaVuSans-65" x="207.421875"/>
      <use xlink:href="#DejaVuSans-72" x="268.945312"/>
      <use xlink:href="#DejaVuSans-5f" x="310.058594"/>
      <use xlink:href="#DejaVuSans-75" x="360.058594"/>
      <use xlink:href="#DejaVuSans-6e" x="423.4375"/>
      <use xlink:href="#DejaVuSans-69" x="486.816406"/>
      <use xlink:href="#DejaVuSans-66" x="514.599609"/>
      <use xlink:href="#DejaVuSans-6f" x="549.804688"/>
      <use xlink:href="#DejaVuSans-72" x="610.986328"/>
      <use xlink:href="#DejaVuSans-6d" x="650.349609"/>
      <use xlink:href="#DejaVuSans-5f" x="747.761719"/>
      <use xlink:href="#DejaVuSans-4d" x="797.761719"/>
      <use xlink:href="#DejaVuSans-5f" x="884.041016"/>
      <use xlink:href="#DejaVuSans-31" x="934.041016"/>
      <use xlink:href="#DejaVuSans-34" x="997.664062"/>
     </g>
    </g>
    <g id="line2d_27">
     <path d="M 244.998438 95.079688 
L 254.998438 95.079688 
L 264.998438 95.079688 
" style="fill: none; stroke: #8c564b; stroke-width: 1.5; stroke-linecap: square"/>
    </g>
    <g id="text_23">
     <!-- xavier_uniform_M_20 -->
     <g transform="translate(272.998438 98.579688)scale(0.1 -0.1)">
      <use xlink:href="#DejaVuSans-78"/>
      <use xlink:href="#DejaVuSans-61" x="59.179688"/>
      <use xlink:href="#DejaVuSans-76" x="120.458984"/>
      <use xlink:href="#DejaVuSans-69" x="179.638672"/>
      <use xlink:href="#DejaVuSans-65" x="207.421875"/>
      <use xlink:href="#DejaVuSans-72" x="268.945312"/>
      <use xlink:href="#DejaVuSans-5f" x="310.058594"/>
      <use xlink:href="#DejaVuSans-75" x="360.058594"/>
      <use xlink:href="#DejaVuSans-6e" x="423.4375"/>
      <use xlink:href="#DejaVuSans-69" x="486.816406"/>
      <use xlink:href="#DejaVuSans-66" x="514.599609"/>
      <use xlink:href="#DejaVuSans-6f" x="549.804688"/>
      <use xlink:href="#DejaVuSans-72" x="610.986328"/>
      <use xlink:href="#DejaVuSans-6d" x="650.349609"/>
      <use xlink:href="#DejaVuSans-5f" x="747.761719"/>
      <use xlink:href="#DejaVuSans-4d" x="797.761719"/>
      <use xlink:href="#DejaVuSans-5f" x="884.041016"/>
      <use xlink:href="#DejaVuSans-32" x="934.041016"/>
      <use xlink:href="#DejaVuSans-30" x="997.664062"/>
     </g>
    </g>
   </g>
  </g>
 </g>
 <defs>
  <clipPath id="pe75bed2dae">
   <rect x="53.328125" y="7.2" width="334.8" height="217.44"/>
  </clipPath>
 </defs>
</svg>
