<?xml version="1.0" encoding="utf-8" standalone="no"?>
<!DOCTYPE svg PUBLIC "-//W3C//DTD SVG 1.1//EN"
  "http://www.w3.org/Graphics/SVG/1.1/DTD/svg11.dtd">
<svg xmlns:xlink="http://www.w3.org/1999/xlink" width="382.679687pt" height="257.630625pt" viewBox="0 0 382.679687 257.630625" xmlns="http://www.w3.org/2000/svg" version="1.1">
 <metadata>
  <rdf:RDF xmlns:dc="http://purl.org/dc/elements/1.1/" xmlns:cc="http://creativecommons.org/ns#" xmlns:rdf="http://www.w3.org/1999/02/22-rdf-syntax-ns#">
   <cc:Work>
    <dc:type rdf:resource="http://purl.org/dc/dcmitype/StillImage"/>
    <dc:date>2022-03-29T11:25:51.528635</dc:date>
    <dc:format>image/svg+xml</dc:format>
    <dc:creator>
     <cc:Agent>
      <dc:title>Matplotlib v3.5.0, https://matplotlib.org/</dc:title>
     </cc:Agent>
    </dc:creator>
   </cc:Work>
  </rdf:RDF>
 </metadata>
 <defs>
  <style type="text/css">*{stroke-linejoin: round; stroke-linecap: butt}</style>
 </defs>
 <g id="figure_1">
  <g id="patch_1">
   <path d="M 0 257.630625 
L 382.679687 257.630625 
L 382.679687 0 
L 0 0 
z
" style="fill: #ffffff"/>
  </g>
  <g id="axes_1">
   <g id="patch_2">
    <path d="M 40.679688 224.64 
L 375.479688 224.64 
L 375.479688 7.2 
L 40.679688 7.2 
z
" style="fill: #ffffff"/>
   </g>
   <g id="matplotlib.axis_1">
    <g id="xtick_1">
     <g id="line2d_1">
      <path d="M 55.897869 224.64 
L 55.897869 7.2 
" clip-path="url(#p8df0a0a92f)" style="fill: none; stroke: #cccccc; stroke-width: 0.8; stroke-linecap: round"/>
     </g>
     <g id="line2d_2"/>
     <g id="text_1">
      <!-- 0 -->
      <g style="fill: #262626" transform="translate(53.117401 235.297812)scale(0.1 -0.1)">
       <defs>
        <path id="ArialMT-30" d="M 266 2259 
Q 266 3072 433 3567 
Q 600 4063 929 4331 
Q 1259 4600 1759 4600 
Q 2128 4600 2406 4451 
Q 2684 4303 2865 4023 
Q 3047 3744 3150 3342 
Q 3253 2941 3253 2259 
Q 3253 1453 3087 958 
Q 2922 463 2592 192 
Q 2263 -78 1759 -78 
Q 1097 -78 719 397 
Q 266 969 266 2259 
z
M 844 2259 
Q 844 1131 1108 757 
Q 1372 384 1759 384 
Q 2147 384 2411 759 
Q 2675 1134 2675 2259 
Q 2675 3391 2411 3762 
Q 2147 4134 1753 4134 
Q 1366 4134 1134 3806 
Q 844 3388 844 2259 
z
" transform="scale(0.015625)"/>
       </defs>
       <use xlink:href="#ArialMT-30"/>
      </g>
     </g>
    </g>
    <g id="xtick_2">
     <g id="line2d_3">
      <path d="M 118.012897 224.64 
L 118.012897 7.2 
" clip-path="url(#p8df0a0a92f)" style="fill: none; stroke: #cccccc; stroke-width: 0.8; stroke-linecap: round"/>
     </g>
     <g id="line2d_4"/>
     <g id="text_2">
      <!-- 10 -->
      <g style="fill: #262626" transform="translate(112.45196 235.297812)scale(0.1 -0.1)">
       <defs>
        <path id="ArialMT-31" d="M 2384 0 
L 1822 0 
L 1822 3584 
Q 1619 3391 1289 3197 
Q 959 3003 697 2906 
L 697 3450 
Q 1169 3672 1522 3987 
Q 1875 4303 2022 4600 
L 2384 4600 
L 2384 0 
z
" transform="scale(0.015625)"/>
       </defs>
       <use xlink:href="#ArialMT-31"/>
       <use xlink:href="#ArialMT-30" x="55.615234"/>
      </g>
     </g>
    </g>
    <g id="xtick_3">
     <g id="line2d_5">
      <path d="M 180.127925 224.64 
L 180.127925 7.2 
" clip-path="url(#p8df0a0a92f)" style="fill: none; stroke: #cccccc; stroke-width: 0.8; stroke-linecap: round"/>
     </g>
     <g id="line2d_6"/>
     <g id="text_3">
      <!-- 20 -->
      <g style="fill: #262626" transform="translate(174.566987 235.297812)scale(0.1 -0.1)">
       <defs>
        <path id="ArialMT-32" d="M 3222 541 
L 3222 0 
L 194 0 
Q 188 203 259 391 
Q 375 700 629 1000 
Q 884 1300 1366 1694 
Q 2113 2306 2375 2664 
Q 2638 3022 2638 3341 
Q 2638 3675 2398 3904 
Q 2159 4134 1775 4134 
Q 1369 4134 1125 3890 
Q 881 3647 878 3216 
L 300 3275 
Q 359 3922 746 4261 
Q 1134 4600 1788 4600 
Q 2447 4600 2831 4234 
Q 3216 3869 3216 3328 
Q 3216 3053 3103 2787 
Q 2991 2522 2730 2228 
Q 2469 1934 1863 1422 
Q 1356 997 1212 845 
Q 1069 694 975 541 
L 3222 541 
z
" transform="scale(0.015625)"/>
       </defs>
       <use xlink:href="#ArialMT-32"/>
       <use xlink:href="#ArialMT-30" x="55.615234"/>
      </g>
     </g>
    </g>
    <g id="xtick_4">
     <g id="line2d_7">
      <path d="M 242.242953 224.64 
L 242.242953 7.2 
" clip-path="url(#p8df0a0a92f)" style="fill: none; stroke: #cccccc; stroke-width: 0.8; stroke-linecap: round"/>
     </g>
     <g id="line2d_8"/>
     <g id="text_4">
      <!-- 30 -->
      <g style="fill: #262626" transform="translate(236.682015 235.297812)scale(0.1 -0.1)">
       <defs>
        <path id="ArialMT-33" d="M 269 1209 
L 831 1284 
Q 928 806 1161 595 
Q 1394 384 1728 384 
Q 2125 384 2398 659 
Q 2672 934 2672 1341 
Q 2672 1728 2419 1979 
Q 2166 2231 1775 2231 
Q 1616 2231 1378 2169 
L 1441 2663 
Q 1497 2656 1531 2656 
Q 1891 2656 2178 2843 
Q 2466 3031 2466 3422 
Q 2466 3731 2256 3934 
Q 2047 4138 1716 4138 
Q 1388 4138 1169 3931 
Q 950 3725 888 3313 
L 325 3413 
Q 428 3978 793 4289 
Q 1159 4600 1703 4600 
Q 2078 4600 2393 4439 
Q 2709 4278 2876 4000 
Q 3044 3722 3044 3409 
Q 3044 3113 2884 2869 
Q 2725 2625 2413 2481 
Q 2819 2388 3044 2092 
Q 3269 1797 3269 1353 
Q 3269 753 2831 336 
Q 2394 -81 1725 -81 
Q 1122 -81 723 278 
Q 325 638 269 1209 
z
" transform="scale(0.015625)"/>
       </defs>
       <use xlink:href="#ArialMT-33"/>
       <use xlink:href="#ArialMT-30" x="55.615234"/>
      </g>
     </g>
    </g>
    <g id="xtick_5">
     <g id="line2d_9">
      <path d="M 304.357981 224.64 
L 304.357981 7.2 
" clip-path="url(#p8df0a0a92f)" style="fill: none; stroke: #cccccc; stroke-width: 0.8; stroke-linecap: round"/>
     </g>
     <g id="line2d_10"/>
     <g id="text_5">
      <!-- 40 -->
      <g style="fill: #262626" transform="translate(298.797043 235.297812)scale(0.1 -0.1)">
       <defs>
        <path id="ArialMT-34" d="M 2069 0 
L 2069 1097 
L 81 1097 
L 81 1613 
L 2172 4581 
L 2631 4581 
L 2631 1613 
L 3250 1613 
L 3250 1097 
L 2631 1097 
L 2631 0 
L 2069 0 
z
M 2069 1613 
L 2069 3678 
L 634 1613 
L 2069 1613 
z
" transform="scale(0.015625)"/>
       </defs>
       <use xlink:href="#ArialMT-34"/>
       <use xlink:href="#ArialMT-30" x="55.615234"/>
      </g>
     </g>
    </g>
    <g id="xtick_6">
     <g id="line2d_11">
      <path d="M 366.473008 224.64 
L 366.473008 7.2 
" clip-path="url(#p8df0a0a92f)" style="fill: none; stroke: #cccccc; stroke-width: 0.8; stroke-linecap: round"/>
     </g>
     <g id="line2d_12"/>
     <g id="text_6">
      <!-- 50 -->
      <g style="fill: #262626" transform="translate(360.912071 235.297812)scale(0.1 -0.1)">
       <defs>
        <path id="ArialMT-35" d="M 266 1200 
L 856 1250 
Q 922 819 1161 601 
Q 1400 384 1738 384 
Q 2144 384 2425 690 
Q 2706 997 2706 1503 
Q 2706 1984 2436 2262 
Q 2166 2541 1728 2541 
Q 1456 2541 1237 2417 
Q 1019 2294 894 2097 
L 366 2166 
L 809 4519 
L 3088 4519 
L 3088 3981 
L 1259 3981 
L 1013 2750 
Q 1425 3038 1878 3038 
Q 2478 3038 2890 2622 
Q 3303 2206 3303 1553 
Q 3303 931 2941 478 
Q 2500 -78 1738 -78 
Q 1113 -78 717 272 
Q 322 622 266 1200 
z
" transform="scale(0.015625)"/>
       </defs>
       <use xlink:href="#ArialMT-35"/>
       <use xlink:href="#ArialMT-30" x="55.615234"/>
      </g>
     </g>
    </g>
    <g id="text_7">
     <!-- Epoka -->
     <g style="fill: #262626" transform="translate(193.903125 248.443125)scale(0.1 -0.1)">
      <defs>
       <path id="ArialMT-45" d="M 506 0 
L 506 4581 
L 3819 4581 
L 3819 4041 
L 1113 4041 
L 1113 2638 
L 3647 2638 
L 3647 2100 
L 1113 2100 
L 1113 541 
L 3925 541 
L 3925 0 
L 506 0 
z
" transform="scale(0.015625)"/>
       <path id="ArialMT-70" d="M 422 -1272 
L 422 3319 
L 934 3319 
L 934 2888 
Q 1116 3141 1344 3267 
Q 1572 3394 1897 3394 
Q 2322 3394 2647 3175 
Q 2972 2956 3137 2557 
Q 3303 2159 3303 1684 
Q 3303 1175 3120 767 
Q 2938 359 2589 142 
Q 2241 -75 1856 -75 
Q 1575 -75 1351 44 
Q 1128 163 984 344 
L 984 -1272 
L 422 -1272 
z
M 931 1641 
Q 931 1000 1190 694 
Q 1450 388 1819 388 
Q 2194 388 2461 705 
Q 2728 1022 2728 1688 
Q 2728 2322 2467 2637 
Q 2206 2953 1844 2953 
Q 1484 2953 1207 2617 
Q 931 2281 931 1641 
z
" transform="scale(0.015625)"/>
       <path id="ArialMT-6f" d="M 213 1659 
Q 213 2581 725 3025 
Q 1153 3394 1769 3394 
Q 2453 3394 2887 2945 
Q 3322 2497 3322 1706 
Q 3322 1066 3130 698 
Q 2938 331 2570 128 
Q 2203 -75 1769 -75 
Q 1072 -75 642 372 
Q 213 819 213 1659 
z
M 791 1659 
Q 791 1022 1069 705 
Q 1347 388 1769 388 
Q 2188 388 2466 706 
Q 2744 1025 2744 1678 
Q 2744 2294 2464 2611 
Q 2184 2928 1769 2928 
Q 1347 2928 1069 2612 
Q 791 2297 791 1659 
z
" transform="scale(0.015625)"/>
       <path id="ArialMT-6b" d="M 425 0 
L 425 4581 
L 988 4581 
L 988 1969 
L 2319 3319 
L 3047 3319 
L 1778 2088 
L 3175 0 
L 2481 0 
L 1384 1697 
L 988 1316 
L 988 0 
L 425 0 
z
" transform="scale(0.015625)"/>
       <path id="ArialMT-61" d="M 2588 409 
Q 2275 144 1986 34 
Q 1697 -75 1366 -75 
Q 819 -75 525 192 
Q 231 459 231 875 
Q 231 1119 342 1320 
Q 453 1522 633 1644 
Q 813 1766 1038 1828 
Q 1203 1872 1538 1913 
Q 2219 1994 2541 2106 
Q 2544 2222 2544 2253 
Q 2544 2597 2384 2738 
Q 2169 2928 1744 2928 
Q 1347 2928 1158 2789 
Q 969 2650 878 2297 
L 328 2372 
Q 403 2725 575 2942 
Q 747 3159 1072 3276 
Q 1397 3394 1825 3394 
Q 2250 3394 2515 3294 
Q 2781 3194 2906 3042 
Q 3031 2891 3081 2659 
Q 3109 2516 3109 2141 
L 3109 1391 
Q 3109 606 3145 398 
Q 3181 191 3288 0 
L 2700 0 
Q 2613 175 2588 409 
z
M 2541 1666 
Q 2234 1541 1622 1453 
Q 1275 1403 1131 1340 
Q 988 1278 909 1158 
Q 831 1038 831 891 
Q 831 666 1001 516 
Q 1172 366 1500 366 
Q 1825 366 2078 508 
Q 2331 650 2450 897 
Q 2541 1088 2541 1459 
L 2541 1666 
z
" transform="scale(0.015625)"/>
      </defs>
      <use xlink:href="#ArialMT-45"/>
      <use xlink:href="#ArialMT-70" x="66.699219"/>
      <use xlink:href="#ArialMT-6f" x="122.314453"/>
      <use xlink:href="#ArialMT-6b" x="177.929688"/>
      <use xlink:href="#ArialMT-61" x="227.929688"/>
     </g>
    </g>
   </g>
   <g id="matplotlib.axis_2">
    <g id="ytick_1">
     <g id="line2d_13">
      <path d="M 40.679688 202.54438 
L 375.479688 202.54438 
" clip-path="url(#p8df0a0a92f)" style="fill: none; stroke: #cccccc; stroke-width: 0.8; stroke-linecap: round"/>
     </g>
     <g id="line2d_14"/>
     <g id="text_8">
      <!-- 100 -->
      <g style="fill: #262626" transform="translate(20.496875 206.123286)scale(0.1 -0.1)">
       <use xlink:href="#ArialMT-31"/>
       <use xlink:href="#ArialMT-30" x="55.615234"/>
       <use xlink:href="#ArialMT-30" x="111.230469"/>
      </g>
     </g>
    </g>
    <g id="ytick_2">
     <g id="line2d_15">
      <path d="M 40.679688 156.871554 
L 375.479688 156.871554 
" clip-path="url(#p8df0a0a92f)" style="fill: none; stroke: #cccccc; stroke-width: 0.8; stroke-linecap: round"/>
     </g>
     <g id="line2d_16"/>
     <g id="text_9">
      <!-- 200 -->
      <g style="fill: #262626" transform="translate(20.496875 160.45046)scale(0.1 -0.1)">
       <use xlink:href="#ArialMT-32"/>
       <use xlink:href="#ArialMT-30" x="55.615234"/>
       <use xlink:href="#ArialMT-30" x="111.230469"/>
      </g>
     </g>
    </g>
    <g id="ytick_3">
     <g id="line2d_17">
      <path d="M 40.679688 111.198727 
L 375.479688 111.198727 
" clip-path="url(#p8df0a0a92f)" style="fill: none; stroke: #cccccc; stroke-width: 0.8; stroke-linecap: round"/>
     </g>
     <g id="line2d_18"/>
     <g id="text_10">
      <!-- 300 -->
      <g style="fill: #262626" transform="translate(20.496875 114.777633)scale(0.1 -0.1)">
       <use xlink:href="#ArialMT-33"/>
       <use xlink:href="#ArialMT-30" x="55.615234"/>
       <use xlink:href="#ArialMT-30" x="111.230469"/>
      </g>
     </g>
    </g>
    <g id="ytick_4">
     <g id="line2d_19">
      <path d="M 40.679688 65.5259 
L 375.479688 65.5259 
" clip-path="url(#p8df0a0a92f)" style="fill: none; stroke: #cccccc; stroke-width: 0.8; stroke-linecap: round"/>
     </g>
     <g id="line2d_20"/>
     <g id="text_11">
      <!-- 400 -->
      <g style="fill: #262626" transform="translate(20.496875 69.104806)scale(0.1 -0.1)">
       <use xlink:href="#ArialMT-34"/>
       <use xlink:href="#ArialMT-30" x="55.615234"/>
       <use xlink:href="#ArialMT-30" x="111.230469"/>
      </g>
     </g>
    </g>
    <g id="ytick_5">
     <g id="line2d_21">
      <path d="M 40.679688 19.853073 
L 375.479688 19.853073 
" clip-path="url(#p8df0a0a92f)" style="fill: none; stroke: #cccccc; stroke-width: 0.8; stroke-linecap: round"/>
     </g>
     <g id="line2d_22"/>
     <g id="text_12">
      <!-- 500 -->
      <g style="fill: #262626" transform="translate(20.496875 23.43198)scale(0.1 -0.1)">
       <use xlink:href="#ArialMT-35"/>
       <use xlink:href="#ArialMT-30" x="55.615234"/>
       <use xlink:href="#ArialMT-30" x="111.230469"/>
      </g>
     </g>
    </g>
    <g id="text_13">
     <!-- Wartość błędu -->
     <g style="fill: #262626" transform="translate(14.396875 147.68875)rotate(-90)scale(0.1 -0.1)">
      <defs>
       <path id="ArialMT-57" d="M 1294 0 
L 78 4581 
L 700 4581 
L 1397 1578 
Q 1509 1106 1591 641 
Q 1766 1375 1797 1488 
L 2669 4581 
L 3400 4581 
L 4056 2263 
Q 4303 1400 4413 641 
Q 4500 1075 4641 1638 
L 5359 4581 
L 5969 4581 
L 4713 0 
L 4128 0 
L 3163 3491 
Q 3041 3928 3019 4028 
Q 2947 3713 2884 3491 
L 1913 0 
L 1294 0 
z
" transform="scale(0.015625)"/>
       <path id="ArialMT-72" d="M 416 0 
L 416 3319 
L 922 3319 
L 922 2816 
Q 1116 3169 1280 3281 
Q 1444 3394 1641 3394 
Q 1925 3394 2219 3213 
L 2025 2691 
Q 1819 2813 1613 2813 
Q 1428 2813 1281 2702 
Q 1134 2591 1072 2394 
Q 978 2094 978 1738 
L 978 0 
L 416 0 
z
" transform="scale(0.015625)"/>
       <path id="ArialMT-74" d="M 1650 503 
L 1731 6 
Q 1494 -44 1306 -44 
Q 1000 -44 831 53 
Q 663 150 594 308 
Q 525 466 525 972 
L 525 2881 
L 113 2881 
L 113 3319 
L 525 3319 
L 525 4141 
L 1084 4478 
L 1084 3319 
L 1650 3319 
L 1650 2881 
L 1084 2881 
L 1084 941 
Q 1084 700 1114 631 
Q 1144 563 1211 522 
Q 1278 481 1403 481 
Q 1497 481 1650 503 
z
" transform="scale(0.015625)"/>
       <path id="ArialMT-15b" d="M 197 991 
L 753 1078 
Q 800 744 1014 566 
Q 1228 388 1613 388 
Q 2000 388 2187 545 
Q 2375 703 2375 916 
Q 2375 1106 2209 1216 
Q 2094 1291 1634 1406 
Q 1016 1563 777 1677 
Q 538 1791 414 1992 
Q 291 2194 291 2438 
Q 291 2659 392 2848 
Q 494 3038 669 3163 
Q 800 3259 1026 3326 
Q 1253 3394 1513 3394 
Q 1903 3394 2198 3281 
Q 2494 3169 2634 2976 
Q 2775 2784 2828 2463 
L 2278 2388 
Q 2241 2644 2061 2787 
Q 1881 2931 1553 2931 
Q 1166 2931 1000 2803 
Q 834 2675 834 2503 
Q 834 2394 903 2306 
Q 972 2216 1119 2156 
Q 1203 2125 1616 2013 
Q 2213 1853 2448 1751 
Q 2684 1650 2818 1456 
Q 2953 1263 2953 975 
Q 2953 694 2789 445 
Q 2625 197 2315 61 
Q 2006 -75 1616 -75 
Q 969 -75 630 194 
Q 291 463 197 991 
z
M 1231 3731 
L 1647 4606 
L 2384 4606 
L 1697 3731 
L 1231 3731 
z
" transform="scale(0.015625)"/>
       <path id="ArialMT-107" d="M 2588 1216 
L 3141 1144 
Q 3050 572 2676 248 
Q 2303 -75 1759 -75 
Q 1078 -75 664 370 
Q 250 816 250 1647 
Q 250 2184 428 2587 
Q 606 2991 970 3192 
Q 1334 3394 1763 3394 
Q 2303 3394 2647 3120 
Q 2991 2847 3088 2344 
L 2541 2259 
Q 2463 2594 2264 2762 
Q 2066 2931 1784 2931 
Q 1359 2931 1093 2626 
Q 828 2322 828 1663 
Q 828 994 1084 691 
Q 1341 388 1753 388 
Q 2084 388 2306 591 
Q 2528 794 2588 1216 
z
M 1325 3731 
L 1741 4606 
L 2478 4606 
L 1791 3731 
L 1325 3731 
z
" transform="scale(0.015625)"/>
       <path id="ArialMT-20" transform="scale(0.015625)"/>
       <path id="ArialMT-62" d="M 941 0 
L 419 0 
L 419 4581 
L 981 4581 
L 981 2947 
Q 1338 3394 1891 3394 
Q 2197 3394 2470 3270 
Q 2744 3147 2920 2923 
Q 3097 2700 3197 2384 
Q 3297 2069 3297 1709 
Q 3297 856 2875 390 
Q 2453 -75 1863 -75 
Q 1275 -75 941 416 
L 941 0 
z
M 934 1684 
Q 934 1088 1097 822 
Q 1363 388 1816 388 
Q 2184 388 2453 708 
Q 2722 1028 2722 1663 
Q 2722 2313 2464 2622 
Q 2206 2931 1841 2931 
Q 1472 2931 1203 2611 
Q 934 2291 934 1684 
z
" transform="scale(0.015625)"/>
       <path id="ArialMT-142" d="M 416 1794 
L 9 1450 
L 9 1944 
L 416 2288 
L 416 4581 
L 975 4581 
L 975 2763 
L 1397 3122 
L 1397 2631 
L 975 2272 
L 975 0 
L 416 0 
L 416 1794 
z
" transform="scale(0.015625)"/>
       <path id="ArialMT-119" d="M 2694 1069 
L 3275 997 
Q 3138 488 2766 206 
Q 2394 -75 1816 -75 
Q 1088 -75 661 373 
Q 234 822 234 1631 
Q 234 2469 665 2931 
Q 1097 3394 1784 3394 
Q 2450 3394 2872 2941 
Q 3294 2488 3294 1666 
Q 3294 1616 3291 1516 
L 816 1516 
Q 847 969 1125 678 
Q 1403 388 1819 388 
Q 2128 388 2347 550 
Q 2566 713 2694 1069 
z
M 847 1978 
L 2700 1978 
Q 2663 2397 2488 2606 
Q 2219 2931 1791 2931 
Q 1403 2931 1139 2672 
Q 875 2413 847 1978 
z
M 2297 0 
Q 2119 -109 2020 -270 
Q 1922 -431 1922 -597 
Q 1922 -728 1994 -818 
Q 2066 -909 2228 -909 
Q 2300 -909 2375 -889 
Q 2450 -869 2513 -834 
L 2513 -1234 
Q 2284 -1344 2088 -1344 
Q 1928 -1344 1809 -1298 
Q 1691 -1253 1611 -1173 
Q 1531 -1094 1492 -991 
Q 1453 -888 1453 -769 
Q 1453 -569 1565 -367 
Q 1678 -166 1884 0 
L 2297 0 
z
" transform="scale(0.015625)"/>
       <path id="ArialMT-64" d="M 2575 0 
L 2575 419 
Q 2259 -75 1647 -75 
Q 1250 -75 917 144 
Q 584 363 401 755 
Q 219 1147 219 1656 
Q 219 2153 384 2558 
Q 550 2963 881 3178 
Q 1213 3394 1622 3394 
Q 1922 3394 2156 3267 
Q 2391 3141 2538 2938 
L 2538 4581 
L 3097 4581 
L 3097 0 
L 2575 0 
z
M 797 1656 
Q 797 1019 1065 703 
Q 1334 388 1700 388 
Q 2069 388 2326 689 
Q 2584 991 2584 1609 
Q 2584 2291 2321 2609 
Q 2059 2928 1675 2928 
Q 1300 2928 1048 2622 
Q 797 2316 797 1656 
z
" transform="scale(0.015625)"/>
       <path id="ArialMT-75" d="M 2597 0 
L 2597 488 
Q 2209 -75 1544 -75 
Q 1250 -75 995 37 
Q 741 150 617 320 
Q 494 491 444 738 
Q 409 903 409 1263 
L 409 3319 
L 972 3319 
L 972 1478 
Q 972 1038 1006 884 
Q 1059 663 1231 536 
Q 1403 409 1656 409 
Q 1909 409 2131 539 
Q 2353 669 2445 892 
Q 2538 1116 2538 1541 
L 2538 3319 
L 3100 3319 
L 3100 0 
L 2597 0 
z
" transform="scale(0.015625)"/>
      </defs>
      <use xlink:href="#ArialMT-57"/>
      <use xlink:href="#ArialMT-61" x="90.634766"/>
      <use xlink:href="#ArialMT-72" x="146.25"/>
      <use xlink:href="#ArialMT-74" x="179.550781"/>
      <use xlink:href="#ArialMT-6f" x="207.333984"/>
      <use xlink:href="#ArialMT-15b" x="262.949219"/>
      <use xlink:href="#ArialMT-107" x="312.949219"/>
      <use xlink:href="#ArialMT-20" x="362.949219"/>
      <use xlink:href="#ArialMT-62" x="390.732422"/>
      <use xlink:href="#ArialMT-142" x="446.347656"/>
      <use xlink:href="#ArialMT-119" x="468.564453"/>
      <use xlink:href="#ArialMT-64" x="524.179688"/>
      <use xlink:href="#ArialMT-75" x="579.794922"/>
     </g>
    </g>
   </g>
   <g id="line2d_23">
    <path d="M 55.897869 17.083636 
L 62.109372 17.434385 
L 68.320875 17.802114 
L 74.532378 18.239276 
L 80.74388 18.831155 
L 86.955383 19.773454 
L 93.166886 21.578077 
L 99.378389 25.140604 
L 105.589892 30.642963 
L 111.801394 38.082784 
L 118.012897 46.263911 
L 124.2244 55.418051 
L 130.435903 64.037025 
L 136.647405 72.023464 
L 142.858908 81.898668 
L 149.070411 91.056015 
L 155.281914 99.280219 
L 161.493417 106.686711 
L 167.704919 113.075914 
L 173.916422 119.337302 
L 180.127925 125.119344 
L 186.339428 130.357334 
L 192.550931 135.4379 
L 198.762433 140.241022 
L 204.973936 145.43143 
L 211.185439 150.461202 
L 217.396942 153.127192 
L 223.608444 156.758344 
L 229.819947 160.334902 
L 236.03145 163.688131 
L 242.242953 166.919587 
L 248.454456 169.082888 
L 254.665958 171.857534 
L 260.877461 173.683622 
L 267.088964 176.155788 
L 273.300467 178.124928 
L 279.51197 180.341892 
L 285.723472 181.954612 
L 291.934975 182.533707 
L 298.146478 185.162504 
L 304.357981 186.974044 
L 310.569483 187.292327 
L 316.780986 188.95211 
L 322.992489 190.396874 
L 329.203992 191.558135 
L 335.415495 192.509544 
L 341.626997 193.724308 
L 347.8385 194.537156 
L 354.050003 195.412078 
L 360.261506 196.230137 
" clip-path="url(#p8df0a0a92f)" style="fill: none; stroke: #1f77b4; stroke-width: 1.5; stroke-linecap: round"/>
   </g>
   <g id="line2d_24">
    <path d="M 55.897869 65.333808 
L 62.109372 93.49386 
L 68.320875 105.708132 
L 74.532378 113.709891 
L 80.74388 118.822307 
L 86.955383 123.542609 
L 93.166886 131.222938 
L 99.378389 136.361948 
L 105.589892 139.52952 
L 111.801394 143.338709 
L 118.012897 146.60148 
L 124.2244 147.839668 
L 130.435903 145.425181 
L 136.647405 151.695738 
L 142.858908 154.038601 
L 149.070411 154.85911 
L 155.281914 152.605337 
L 161.493417 157.894734 
L 167.704919 156.814074 
L 173.916422 154.758343 
L 180.127925 154.751551 
L 186.339428 158.451522 
L 192.550931 154.640634 
L 198.762433 152.810084 
L 204.973936 154.823726 
L 211.185439 152.41153 
L 217.396942 152.438946 
L 223.608444 154.399145 
L 229.819947 151.854985 
L 236.03145 148.208324 
L 242.242953 145.1059 
L 248.454456 148.325138 
L 254.665958 151.301744 
L 260.877461 148.859373 
L 267.088964 144.903107 
L 273.300467 144.935264 
L 279.51197 143.835744 
L 285.723472 142.84672 
L 291.934975 139.074063 
L 298.146478 140.293066 
L 304.357981 137.01909 
L 310.569483 135.749151 
L 316.780986 141.644446 
L 322.992489 137.265934 
L 329.203992 133.514142 
L 335.415495 128.307283 
L 341.626997 133.094979 
L 347.8385 125.874623 
L 354.050003 130.77468 
L 360.261506 128.927876 
" clip-path="url(#p8df0a0a92f)" style="fill: none; stroke: #ff7f0e; stroke-width: 1.5; stroke-linecap: round"/>
   </g>
   <g id="line2d_25">
    <path d="M 55.897869 63.352004 
L 62.109372 92.616049 
L 68.320875 103.797875 
L 74.532378 111.826555 
L 80.74388 118.539554 
L 86.955383 124.347832 
L 93.166886 128.889144 
L 99.378389 133.482536 
L 105.589892 137.393645 
L 111.801394 142.310193 
L 118.012897 141.148225 
L 124.2244 145.477809 
L 130.435903 147.349225 
L 136.647405 149.168119 
L 142.858908 151.324854 
L 149.070411 152.5444 
L 155.281914 153.305426 
L 161.493417 153.189873 
L 167.704919 153.833074 
L 173.916422 154.851941 
L 180.127925 153.742595 
L 186.339428 154.917425 
L 192.550931 152.689556 
L 198.762433 148.560501 
L 204.973936 150.115043 
L 211.185439 154.921227 
L 217.396942 155.543429 
L 223.608444 154.526959 
L 229.819947 155.120475 
L 236.03145 148.249552 
L 242.242953 147.096575 
L 248.454456 151.965228 
L 254.665958 149.394313 
L 260.877461 145.123946 
L 267.088964 146.782333 
L 273.300467 142.602957 
L 279.51197 142.104244 
L 285.723472 137.033314 
L 291.934975 139.760143 
L 298.146478 135.822471 
L 304.357981 138.914117 
L 310.569483 137.643481 
L 316.780986 137.931994 
L 322.992489 129.293858 
L 329.203992 130.201796 
L 335.415495 130.957519 
L 341.626997 125.827837 
L 347.8385 124.012214 
L 354.050003 126.079811 
L 360.261506 125.895477 
" clip-path="url(#p8df0a0a92f)" style="fill: none; stroke: #2ca02c; stroke-width: 1.5; stroke-linecap: round"/>
   </g>
   <g id="line2d_26">
    <path d="M 55.897869 18.324076 
L 62.109372 20.225358 
L 68.320875 22.624162 
L 74.532378 26.429605 
L 80.74388 32.702995 
L 86.955383 41.665901 
L 93.166886 52.074379 
L 99.378389 63.714583 
L 105.589892 76.214351 
L 111.801394 89.716639 
L 118.012897 102.022488 
L 124.2244 113.57876 
L 130.435903 124.071566 
L 136.647405 131.817972 
L 142.858908 138.004075 
L 149.070411 142.235202 
L 155.281914 146.643487 
L 161.493417 150.926494 
L 167.704919 155.007564 
L 173.916422 158.669057 
L 180.127925 162.231362 
L 186.339428 166.173026 
L 192.550931 169.497217 
L 198.762433 173.630359 
L 204.973936 175.541726 
L 211.185439 178.618353 
L 217.396942 181.250626 
L 223.608444 182.845468 
L 229.819947 185.147762 
L 236.03145 186.746096 
L 242.242953 188.64493 
L 248.454456 189.699625 
L 254.665958 191.023139 
L 260.877461 192.250332 
L 267.088964 193.380566 
L 273.300467 194.127974 
L 279.51197 195.57371 
L 285.723472 195.788853 
L 291.934975 198.403084 
L 298.146478 198.194564 
L 304.357981 198.992771 
L 310.569483 201.330398 
L 316.780986 202.35395 
L 322.992489 202.466167 
L 329.203992 203.582935 
L 335.415495 204.331668 
L 341.626997 205.044366 
L 347.8385 206.703992 
L 354.050003 207.399881 
L 360.261506 208.258993 
" clip-path="url(#p8df0a0a92f)" style="fill: none; stroke: #d62728; stroke-width: 1.5; stroke-linecap: round"/>
   </g>
   <g id="line2d_27">
    <path d="M 55.897869 18.784256 
L 62.109372 21.942705 
L 68.320875 26.8 
L 74.532378 34.323889 
L 80.74388 44.839813 
L 86.955383 57.506919 
L 93.166886 70.829028 
L 99.378389 83.263885 
L 105.589892 94.666571 
L 111.801394 106.020986 
L 118.012897 116.620883 
L 124.2244 126.281526 
L 130.435903 133.919768 
L 136.647405 138.913668 
L 142.858908 144.283624 
L 149.070411 148.922171 
L 155.281914 152.824651 
L 161.493417 157.116026 
L 167.704919 160.339951 
L 173.916422 163.021593 
L 180.127925 166.577773 
L 186.339428 170.884782 
L 192.550931 173.860323 
L 198.762433 176.457338 
L 204.973936 179.186839 
L 211.185439 182.428714 
L 217.396942 183.890476 
L 223.608444 185.794285 
L 229.819947 188.070845 
L 236.03145 189.809015 
L 242.242953 191.737198 
L 248.454456 193.23054 
L 254.665958 194.841772 
L 260.877461 196.712931 
L 267.088964 197.019576 
L 273.300467 198.343395 
L 279.51197 199.489251 
L 285.723472 200.263763 
L 291.934975 201.312751 
L 298.146478 202.48729 
L 304.357981 203.543604 
L 310.569483 205.572684 
L 316.780986 205.605857 
L 322.992489 207.589594 
L 329.203992 208.051171 
L 335.415495 208.816116 
L 341.626997 209.403181 
L 347.8385 211.867302 
L 354.050003 210.693091 
L 360.261506 212.900491 
" clip-path="url(#p8df0a0a92f)" style="fill: none; stroke: #9467bd; stroke-width: 1.5; stroke-linecap: round"/>
   </g>
   <g id="line2d_28">
    <path d="M 55.897869 18.643418 
L 62.109372 22.018199 
L 68.320875 27.585766 
L 74.532378 36.921249 
L 80.74388 48.739341 
L 86.955383 60.051363 
L 93.166886 71.445959 
L 99.378389 83.454776 
L 105.589892 95.746906 
L 111.801394 106.718019 
L 118.012897 116.603051 
L 124.2244 124.83213 
L 130.435903 129.849272 
L 136.647405 134.697969 
L 142.858908 138.852823 
L 149.070411 142.482163 
L 155.281914 145.344764 
L 161.493417 149.155804 
L 167.704919 151.967021 
L 173.916422 155.095077 
L 180.127925 158.470946 
L 186.339428 162.42823 
L 192.550931 167.195649 
L 198.762433 170.830333 
L 204.973936 175.079355 
L 211.185439 178.159072 
L 217.396942 180.821387 
L 223.608444 182.97279 
L 229.819947 185.989468 
L 236.03145 187.002466 
L 242.242953 188.672792 
L 248.454456 190.610555 
L 254.665958 191.812023 
L 260.877461 193.219233 
L 267.088964 194.617336 
L 273.300467 195.907567 
L 279.51197 197.105848 
L 285.723472 198.759707 
L 291.934975 199.398943 
L 298.146478 200.05952 
L 304.357981 201.698966 
L 310.569483 202.511518 
L 316.780986 203.174736 
L 322.992489 204.722917 
L 329.203992 205.764651 
L 335.415495 207.222305 
L 341.626997 207.957887 
L 347.8385 209.215869 
L 354.050003 209.757981 
L 360.261506 210.644828 
" clip-path="url(#p8df0a0a92f)" style="fill: none; stroke: #8c564b; stroke-width: 1.5; stroke-linecap: round"/>
   </g>
   <g id="line2d_29">
    <path d="M 55.897869 55.6145 
L 62.109372 89.138366 
L 68.320875 100.509788 
L 74.532378 108.469325 
L 80.74388 114.278618 
L 86.955383 121.541654 
L 93.166886 127.105902 
L 99.378389 132.331375 
L 105.589892 137.833622 
L 111.801394 142.332279 
L 118.012897 146.370593 
L 124.2244 150.673319 
L 130.435903 155.10586 
L 136.647405 158.001963 
L 142.858908 160.56846 
L 149.070411 164.984782 
L 155.281914 167.177136 
L 161.493417 168.157507 
L 167.704919 170.879342 
L 173.916422 173.170075 
L 180.127925 175.392962 
L 186.339428 177.927979 
L 192.550931 179.564806 
L 198.762433 180.101239 
L 204.973936 182.527029 
L 211.185439 183.684842 
L 217.396942 184.969156 
L 223.608444 186.109698 
L 229.819947 187.980461 
L 236.03145 189.341983 
L 242.242953 191.644213 
L 248.454456 192.415378 
L 254.665958 193.936162 
L 260.877461 196.60647 
L 267.088964 196.838526 
L 273.300467 198.275953 
L 279.51197 199.706619 
L 285.723472 200.542586 
L 291.934975 203.004496 
L 298.146478 203.818651 
L 304.357981 203.601855 
L 310.569483 206.645807 
L 316.780986 207.138504 
L 322.992489 209.648562 
L 329.203992 210.159326 
L 335.415495 211.228396 
L 341.626997 212.887006 
L 347.8385 213.981186 
L 354.050003 214.697913 
L 360.261506 214.756364 
" clip-path="url(#p8df0a0a92f)" style="fill: none; stroke: #e377c2; stroke-width: 1.5; stroke-linecap: round"/>
   </g>
   <g id="patch_3">
    <path d="M 40.679688 224.64 
L 40.679688 7.2 
" style="fill: none; stroke: #cccccc; stroke-linejoin: miter; stroke-linecap: square"/>
   </g>
   <g id="patch_4">
    <path d="M 375.479688 224.64 
L 375.479688 7.2 
" style="fill: none; stroke: #cccccc; stroke-linejoin: miter; stroke-linecap: square"/>
   </g>
   <g id="patch_5">
    <path d="M 40.679688 224.64 
L 375.479687 224.64 
" style="fill: none; stroke: #cccccc; stroke-linejoin: miter; stroke-linecap: square"/>
   </g>
   <g id="patch_6">
    <path d="M 40.679688 7.2 
L 375.479687 7.2 
" style="fill: none; stroke: #cccccc; stroke-linejoin: miter; stroke-linecap: square"/>
   </g>
   <g id="legend_1">
    <g id="line2d_30">
     <path d="M 242.329688 19.979687 
L 252.329688 19.979687 
L 262.329687 19.979687 
" style="fill: none; stroke: #1f77b4; stroke-width: 1.5; stroke-linecap: round"/>
    </g>
    <g id="text_14">
     <!-- xavier_uniform -->
     <g style="fill: #262626" transform="translate(270.329687 23.479687)scale(0.1 -0.1)">
      <defs>
       <path id="ArialMT-78" d="M 47 0 
L 1259 1725 
L 138 3319 
L 841 3319 
L 1350 2541 
Q 1494 2319 1581 2169 
Q 1719 2375 1834 2534 
L 2394 3319 
L 3066 3319 
L 1919 1756 
L 3153 0 
L 2463 0 
L 1781 1031 
L 1600 1309 
L 728 0 
L 47 0 
z
" transform="scale(0.015625)"/>
       <path id="ArialMT-76" d="M 1344 0 
L 81 3319 
L 675 3319 
L 1388 1331 
Q 1503 1009 1600 663 
Q 1675 925 1809 1294 
L 2547 3319 
L 3125 3319 
L 1869 0 
L 1344 0 
z
" transform="scale(0.015625)"/>
       <path id="ArialMT-69" d="M 425 3934 
L 425 4581 
L 988 4581 
L 988 3934 
L 425 3934 
z
M 425 0 
L 425 3319 
L 988 3319 
L 988 0 
L 425 0 
z
" transform="scale(0.015625)"/>
       <path id="ArialMT-65" d="M 2694 1069 
L 3275 997 
Q 3138 488 2766 206 
Q 2394 -75 1816 -75 
Q 1088 -75 661 373 
Q 234 822 234 1631 
Q 234 2469 665 2931 
Q 1097 3394 1784 3394 
Q 2450 3394 2872 2941 
Q 3294 2488 3294 1666 
Q 3294 1616 3291 1516 
L 816 1516 
Q 847 969 1125 678 
Q 1403 388 1819 388 
Q 2128 388 2347 550 
Q 2566 713 2694 1069 
z
M 847 1978 
L 2700 1978 
Q 2663 2397 2488 2606 
Q 2219 2931 1791 2931 
Q 1403 2931 1139 2672 
Q 875 2413 847 1978 
z
" transform="scale(0.015625)"/>
       <path id="ArialMT-5f" d="M -97 -1272 
L -97 -866 
L 3631 -866 
L 3631 -1272 
L -97 -1272 
z
" transform="scale(0.015625)"/>
       <path id="ArialMT-6e" d="M 422 0 
L 422 3319 
L 928 3319 
L 928 2847 
Q 1294 3394 1984 3394 
Q 2284 3394 2536 3286 
Q 2788 3178 2913 3003 
Q 3038 2828 3088 2588 
Q 3119 2431 3119 2041 
L 3119 0 
L 2556 0 
L 2556 2019 
Q 2556 2363 2490 2533 
Q 2425 2703 2258 2804 
Q 2091 2906 1866 2906 
Q 1506 2906 1245 2678 
Q 984 2450 984 1813 
L 984 0 
L 422 0 
z
" transform="scale(0.015625)"/>
       <path id="ArialMT-66" d="M 556 0 
L 556 2881 
L 59 2881 
L 59 3319 
L 556 3319 
L 556 3672 
Q 556 4006 616 4169 
Q 697 4388 901 4523 
Q 1106 4659 1475 4659 
Q 1713 4659 2000 4603 
L 1916 4113 
Q 1741 4144 1584 4144 
Q 1328 4144 1222 4034 
Q 1116 3925 1116 3625 
L 1116 3319 
L 1763 3319 
L 1763 2881 
L 1116 2881 
L 1116 0 
L 556 0 
z
" transform="scale(0.015625)"/>
       <path id="ArialMT-6d" d="M 422 0 
L 422 3319 
L 925 3319 
L 925 2853 
Q 1081 3097 1340 3245 
Q 1600 3394 1931 3394 
Q 2300 3394 2536 3241 
Q 2772 3088 2869 2813 
Q 3263 3394 3894 3394 
Q 4388 3394 4653 3120 
Q 4919 2847 4919 2278 
L 4919 0 
L 4359 0 
L 4359 2091 
Q 4359 2428 4304 2576 
Q 4250 2725 4106 2815 
Q 3963 2906 3769 2906 
Q 3419 2906 3187 2673 
Q 2956 2441 2956 1928 
L 2956 0 
L 2394 0 
L 2394 2156 
Q 2394 2531 2256 2718 
Q 2119 2906 1806 2906 
Q 1569 2906 1367 2781 
Q 1166 2656 1075 2415 
Q 984 2175 984 1722 
L 984 0 
L 422 0 
z
" transform="scale(0.015625)"/>
      </defs>
      <use xlink:href="#ArialMT-78"/>
      <use xlink:href="#ArialMT-61" x="50"/>
      <use xlink:href="#ArialMT-76" x="105.615234"/>
      <use xlink:href="#ArialMT-69" x="155.615234"/>
      <use xlink:href="#ArialMT-65" x="177.832031"/>
      <use xlink:href="#ArialMT-72" x="233.447266"/>
      <use xlink:href="#ArialMT-5f" x="266.748047"/>
      <use xlink:href="#ArialMT-75" x="322.363281"/>
      <use xlink:href="#ArialMT-6e" x="377.978516"/>
      <use xlink:href="#ArialMT-69" x="433.59375"/>
      <use xlink:href="#ArialMT-66" x="455.810547"/>
      <use xlink:href="#ArialMT-6f" x="483.59375"/>
      <use xlink:href="#ArialMT-72" x="539.208984"/>
      <use xlink:href="#ArialMT-6d" x="572.509766"/>
     </g>
    </g>
    <g id="line2d_31">
     <path d="M 242.329688 34.246875 
L 252.329688 34.246875 
L 262.329687 34.246875 
" style="fill: none; stroke: #ff7f0e; stroke-width: 1.5; stroke-linecap: round"/>
    </g>
    <g id="text_15">
     <!-- xavier_uniform_M_1 -->
     <g style="fill: #262626" transform="translate(270.329687 37.746875)scale(0.1 -0.1)">
      <defs>
       <path id="ArialMT-4d" d="M 475 0 
L 475 4581 
L 1388 4581 
L 2472 1338 
Q 2622 884 2691 659 
Q 2769 909 2934 1394 
L 4031 4581 
L 4847 4581 
L 4847 0 
L 4263 0 
L 4263 3834 
L 2931 0 
L 2384 0 
L 1059 3900 
L 1059 0 
L 475 0 
z
" transform="scale(0.015625)"/>
      </defs>
      <use xlink:href="#ArialMT-78"/>
      <use xlink:href="#ArialMT-61" x="50"/>
      <use xlink:href="#ArialMT-76" x="105.615234"/>
      <use xlink:href="#ArialMT-69" x="155.615234"/>
      <use xlink:href="#ArialMT-65" x="177.832031"/>
      <use xlink:href="#ArialMT-72" x="233.447266"/>
      <use xlink:href="#ArialMT-5f" x="266.748047"/>
      <use xlink:href="#ArialMT-75" x="322.363281"/>
      <use xlink:href="#ArialMT-6e" x="377.978516"/>
      <use xlink:href="#ArialMT-69" x="433.59375"/>
      <use xlink:href="#ArialMT-66" x="455.810547"/>
      <use xlink:href="#ArialMT-6f" x="483.59375"/>
      <use xlink:href="#ArialMT-72" x="539.208984"/>
      <use xlink:href="#ArialMT-6d" x="572.509766"/>
      <use xlink:href="#ArialMT-5f" x="655.810547"/>
      <use xlink:href="#ArialMT-4d" x="711.425781"/>
      <use xlink:href="#ArialMT-5f" x="794.726562"/>
      <use xlink:href="#ArialMT-31" x="850.341797"/>
     </g>
    </g>
    <g id="line2d_32">
     <path d="M 242.329688 48.514062 
L 252.329688 48.514062 
L 262.329687 48.514062 
" style="fill: none; stroke: #2ca02c; stroke-width: 1.5; stroke-linecap: round"/>
    </g>
    <g id="text_16">
     <!-- xavier_uniform_M_2 -->
     <g style="fill: #262626" transform="translate(270.329687 52.014062)scale(0.1 -0.1)">
      <use xlink:href="#ArialMT-78"/>
      <use xlink:href="#ArialMT-61" x="50"/>
      <use xlink:href="#ArialMT-76" x="105.615234"/>
      <use xlink:href="#ArialMT-69" x="155.615234"/>
      <use xlink:href="#ArialMT-65" x="177.832031"/>
      <use xlink:href="#ArialMT-72" x="233.447266"/>
      <use xlink:href="#ArialMT-5f" x="266.748047"/>
      <use xlink:href="#ArialMT-75" x="322.363281"/>
      <use xlink:href="#ArialMT-6e" x="377.978516"/>
      <use xlink:href="#ArialMT-69" x="433.59375"/>
      <use xlink:href="#ArialMT-66" x="455.810547"/>
      <use xlink:href="#ArialMT-6f" x="483.59375"/>
      <use xlink:href="#ArialMT-72" x="539.208984"/>
      <use xlink:href="#ArialMT-6d" x="572.509766"/>
      <use xlink:href="#ArialMT-5f" x="655.810547"/>
      <use xlink:href="#ArialMT-4d" x="711.425781"/>
      <use xlink:href="#ArialMT-5f" x="794.726562"/>
      <use xlink:href="#ArialMT-32" x="850.341797"/>
     </g>
    </g>
    <g id="line2d_33">
     <path d="M 242.329688 62.78125 
L 252.329688 62.78125 
L 262.329687 62.78125 
" style="fill: none; stroke: #d62728; stroke-width: 1.5; stroke-linecap: round"/>
    </g>
    <g id="text_17">
     <!-- xavier_uniform_M_10 -->
     <g style="fill: #262626" transform="translate(270.329687 66.28125)scale(0.1 -0.1)">
      <use xlink:href="#ArialMT-78"/>
      <use xlink:href="#ArialMT-61" x="50"/>
      <use xlink:href="#ArialMT-76" x="105.615234"/>
      <use xlink:href="#ArialMT-69" x="155.615234"/>
      <use xlink:href="#ArialMT-65" x="177.832031"/>
      <use xlink:href="#ArialMT-72" x="233.447266"/>
      <use xlink:href="#ArialMT-5f" x="266.748047"/>
      <use xlink:href="#ArialMT-75" x="322.363281"/>
      <use xlink:href="#ArialMT-6e" x="377.978516"/>
      <use xlink:href="#ArialMT-69" x="433.59375"/>
      <use xlink:href="#ArialMT-66" x="455.810547"/>
      <use xlink:href="#ArialMT-6f" x="483.59375"/>
      <use xlink:href="#ArialMT-72" x="539.208984"/>
      <use xlink:href="#ArialMT-6d" x="572.509766"/>
      <use xlink:href="#ArialMT-5f" x="655.810547"/>
      <use xlink:href="#ArialMT-4d" x="711.425781"/>
      <use xlink:href="#ArialMT-5f" x="794.726562"/>
      <use xlink:href="#ArialMT-31" x="850.341797"/>
      <use xlink:href="#ArialMT-30" x="905.957031"/>
     </g>
    </g>
    <g id="line2d_34">
     <path d="M 242.329688 77.048437 
L 252.329688 77.048437 
L 262.329687 77.048437 
" style="fill: none; stroke: #9467bd; stroke-width: 1.5; stroke-linecap: round"/>
    </g>
    <g id="text_18">
     <!-- xavier_uniform_M_14 -->
     <g style="fill: #262626" transform="translate(270.329687 80.548437)scale(0.1 -0.1)">
      <use xlink:href="#ArialMT-78"/>
      <use xlink:href="#ArialMT-61" x="50"/>
      <use xlink:href="#ArialMT-76" x="105.615234"/>
      <use xlink:href="#ArialMT-69" x="155.615234"/>
      <use xlink:href="#ArialMT-65" x="177.832031"/>
      <use xlink:href="#ArialMT-72" x="233.447266"/>
      <use xlink:href="#ArialMT-5f" x="266.748047"/>
      <use xlink:href="#ArialMT-75" x="322.363281"/>
      <use xlink:href="#ArialMT-6e" x="377.978516"/>
      <use xlink:href="#ArialMT-69" x="433.59375"/>
      <use xlink:href="#ArialMT-66" x="455.810547"/>
      <use xlink:href="#ArialMT-6f" x="483.59375"/>
      <use xlink:href="#ArialMT-72" x="539.208984"/>
      <use xlink:href="#ArialMT-6d" x="572.509766"/>
      <use xlink:href="#ArialMT-5f" x="655.810547"/>
      <use xlink:href="#ArialMT-4d" x="711.425781"/>
      <use xlink:href="#ArialMT-5f" x="794.726562"/>
      <use xlink:href="#ArialMT-31" x="850.341797"/>
      <use xlink:href="#ArialMT-34" x="905.957031"/>
     </g>
    </g>
    <g id="line2d_35">
     <path d="M 242.329688 91.315625 
L 252.329688 91.315625 
L 262.329687 91.315625 
" style="fill: none; stroke: #8c564b; stroke-width: 1.5; stroke-linecap: round"/>
    </g>
    <g id="text_19">
     <!-- xavier_uniform_M_20 -->
     <g style="fill: #262626" transform="translate(270.329687 94.815625)scale(0.1 -0.1)">
      <use xlink:href="#ArialMT-78"/>
      <use xlink:href="#ArialMT-61" x="50"/>
      <use xlink:href="#ArialMT-76" x="105.615234"/>
      <use xlink:href="#ArialMT-69" x="155.615234"/>
      <use xlink:href="#ArialMT-65" x="177.832031"/>
      <use xlink:href="#ArialMT-72" x="233.447266"/>
      <use xlink:href="#ArialMT-5f" x="266.748047"/>
      <use xlink:href="#ArialMT-75" x="322.363281"/>
      <use xlink:href="#ArialMT-6e" x="377.978516"/>
      <use xlink:href="#ArialMT-69" x="433.59375"/>
      <use xlink:href="#ArialMT-66" x="455.810547"/>
      <use xlink:href="#ArialMT-6f" x="483.59375"/>
      <use xlink:href="#ArialMT-72" x="539.208984"/>
      <use xlink:href="#ArialMT-6d" x="572.509766"/>
      <use xlink:href="#ArialMT-5f" x="655.810547"/>
      <use xlink:href="#ArialMT-4d" x="711.425781"/>
      <use xlink:href="#ArialMT-5f" x="794.726562"/>
      <use xlink:href="#ArialMT-32" x="850.341797"/>
      <use xlink:href="#ArialMT-30" x="905.957031"/>
     </g>
    </g>
    <g id="line2d_36">
     <path d="M 242.329688 105.582812 
L 252.329688 105.582812 
L 262.329687 105.582812 
" style="fill: none; stroke: #e377c2; stroke-width: 1.5; stroke-linecap: round"/>
    </g>
    <g id="text_20">
     <!-- kaiming_uniform -->
     <g style="fill: #262626" transform="translate(270.329687 109.082812)scale(0.1 -0.1)">
      <defs>
       <path id="ArialMT-67" d="M 319 -275 
L 866 -356 
Q 900 -609 1056 -725 
Q 1266 -881 1628 -881 
Q 2019 -881 2231 -725 
Q 2444 -569 2519 -288 
Q 2563 -116 2559 434 
Q 2191 0 1641 0 
Q 956 0 581 494 
Q 206 988 206 1678 
Q 206 2153 378 2554 
Q 550 2956 876 3175 
Q 1203 3394 1644 3394 
Q 2231 3394 2613 2919 
L 2613 3319 
L 3131 3319 
L 3131 450 
Q 3131 -325 2973 -648 
Q 2816 -972 2473 -1159 
Q 2131 -1347 1631 -1347 
Q 1038 -1347 672 -1080 
Q 306 -813 319 -275 
z
M 784 1719 
Q 784 1066 1043 766 
Q 1303 466 1694 466 
Q 2081 466 2343 764 
Q 2606 1063 2606 1700 
Q 2606 2309 2336 2618 
Q 2066 2928 1684 2928 
Q 1309 2928 1046 2623 
Q 784 2319 784 1719 
z
" transform="scale(0.015625)"/>
      </defs>
      <use xlink:href="#ArialMT-6b"/>
      <use xlink:href="#ArialMT-61" x="50"/>
      <use xlink:href="#ArialMT-69" x="105.615234"/>
      <use xlink:href="#ArialMT-6d" x="127.832031"/>
      <use xlink:href="#ArialMT-69" x="211.132812"/>
      <use xlink:href="#ArialMT-6e" x="233.349609"/>
      <use xlink:href="#ArialMT-67" x="288.964844"/>
      <use xlink:href="#ArialMT-5f" x="344.580078"/>
      <use xlink:href="#ArialMT-75" x="400.195312"/>
      <use xlink:href="#ArialMT-6e" x="455.810547"/>
      <use xlink:href="#ArialMT-69" x="511.425781"/>
      <use xlink:href="#ArialMT-66" x="533.642578"/>
      <use xlink:href="#ArialMT-6f" x="561.425781"/>
      <use xlink:href="#ArialMT-72" x="617.041016"/>
      <use xlink:href="#ArialMT-6d" x="650.341797"/>
     </g>
    </g>
   </g>
  </g>
 </g>
 <defs>
  <clipPath id="p8df0a0a92f">
   <rect x="40.679688" y="7.2" width="334.8" height="217.44"/>
  </clipPath>
 </defs>
</svg>
