<?xml version="1.0" encoding="utf-8" standalone="no"?>
<!DOCTYPE svg PUBLIC "-//W3C//DTD SVG 1.1//EN"
  "http://www.w3.org/Graphics/SVG/1.1/DTD/svg11.dtd">
<svg xmlns:xlink="http://www.w3.org/1999/xlink" width="379.984375pt" height="257.630625pt" viewBox="0 0 379.984375 257.630625" xmlns="http://www.w3.org/2000/svg" version="1.1">
 <metadata>
  <rdf:RDF xmlns:dc="http://purl.org/dc/elements/1.1/" xmlns:cc="http://creativecommons.org/ns#" xmlns:rdf="http://www.w3.org/1999/02/22-rdf-syntax-ns#">
   <cc:Work>
    <dc:type rdf:resource="http://purl.org/dc/dcmitype/StillImage"/>
    <dc:date>2022-06-27T17:33:26.650925</dc:date>
    <dc:format>image/svg+xml</dc:format>
    <dc:creator>
     <cc:Agent>
      <dc:title>Matplotlib v3.5.0, https://matplotlib.org/</dc:title>
     </cc:Agent>
    </dc:creator>
   </cc:Work>
  </rdf:RDF>
 </metadata>
 <defs>
  <style type="text/css">*{stroke-linejoin: round; stroke-linecap: butt}</style>
 </defs>
 <g id="figure_1">
  <g id="patch_1">
   <path d="M 0 257.630625 
L 379.984375 257.630625 
L 379.984375 0 
L 0 0 
z
" style="fill: #ffffff"/>
  </g>
  <g id="axes_1">
   <g id="patch_2">
    <path d="M 37.984375 224.64 
L 372.784375 224.64 
L 372.784375 7.2 
L 37.984375 7.2 
z
" style="fill: #ffffff"/>
   </g>
   <g id="matplotlib.axis_1">
    <g id="xtick_1">
     <g id="line2d_1">
      <path d="M 53.202557 224.64 
L 53.202557 7.2 
" clip-path="url(#p66dc51e130)" style="fill: none; stroke: #cccccc; stroke-width: 0.8; stroke-linecap: round"/>
     </g>
     <g id="line2d_2"/>
     <g id="text_1">
      <text style="fill: #262626; font: 10px 'sans-serif'; text-anchor: middle" x="53.202557" y="235.297812" transform="rotate(-0, 53.202557, 235.297812)">0</text>
     </g>
    </g>
    <g id="xtick_2">
     <g id="line2d_3">
      <path d="M 115.317585 224.64 
L 115.317585 7.2 
" clip-path="url(#p66dc51e130)" style="fill: none; stroke: #cccccc; stroke-width: 0.8; stroke-linecap: round"/>
     </g>
     <g id="line2d_4"/>
     <g id="text_2">
      <text style="fill: #262626; font: 10px 'sans-serif'; text-anchor: middle" x="115.317585" y="235.297812" transform="rotate(-0, 115.317585, 235.297812)">10</text>
     </g>
    </g>
    <g id="xtick_3">
     <g id="line2d_5">
      <path d="M 177.432612 224.64 
L 177.432612 7.2 
" clip-path="url(#p66dc51e130)" style="fill: none; stroke: #cccccc; stroke-width: 0.8; stroke-linecap: round"/>
     </g>
     <g id="line2d_6"/>
     <g id="text_3">
      <text style="fill: #262626; font: 10px 'sans-serif'; text-anchor: middle" x="177.432612" y="235.297812" transform="rotate(-0, 177.432612, 235.297812)">20</text>
     </g>
    </g>
    <g id="xtick_4">
     <g id="line2d_7">
      <path d="M 239.54764 224.64 
L 239.54764 7.2 
" clip-path="url(#p66dc51e130)" style="fill: none; stroke: #cccccc; stroke-width: 0.8; stroke-linecap: round"/>
     </g>
     <g id="line2d_8"/>
     <g id="text_4">
      <text style="fill: #262626; font: 10px 'sans-serif'; text-anchor: middle" x="239.54764" y="235.297812" transform="rotate(-0, 239.54764, 235.297812)">30</text>
     </g>
    </g>
    <g id="xtick_5">
     <g id="line2d_9">
      <path d="M 301.662668 224.64 
L 301.662668 7.2 
" clip-path="url(#p66dc51e130)" style="fill: none; stroke: #cccccc; stroke-width: 0.8; stroke-linecap: round"/>
     </g>
     <g id="line2d_10"/>
     <g id="text_5">
      <text style="fill: #262626; font: 10px 'sans-serif'; text-anchor: middle" x="301.662668" y="235.297812" transform="rotate(-0, 301.662668, 235.297812)">40</text>
     </g>
    </g>
    <g id="xtick_6">
     <g id="line2d_11">
      <path d="M 363.777696 224.64 
L 363.777696 7.2 
" clip-path="url(#p66dc51e130)" style="fill: none; stroke: #cccccc; stroke-width: 0.8; stroke-linecap: round"/>
     </g>
     <g id="line2d_12"/>
     <g id="text_6">
      <text style="fill: #262626; font: 10px 'sans-serif'; text-anchor: middle" x="363.777696" y="235.297812" transform="rotate(-0, 363.777696, 235.297812)">50</text>
     </g>
    </g>
    <g id="text_7">
     <text style="fill: #262626; font: 10px 'sans-serif'; text-anchor: middle" x="205.384375" y="248.443125" transform="rotate(-0, 205.384375, 248.443125)">Epoka</text>
    </g>
   </g>
   <g id="matplotlib.axis_2">
    <g id="ytick_1">
     <g id="line2d_13">
      <path d="M 37.984375 222.549078 
L 372.784375 222.549078 
" clip-path="url(#p66dc51e130)" style="fill: none; stroke: #cccccc; stroke-width: 0.8; stroke-linecap: round"/>
     </g>
     <g id="line2d_14"/>
     <g id="text_8">
      <text style="fill: #262626; font: 10px 'sans-serif'; text-anchor: end" x="34.484375" y="226.127985" transform="rotate(-0, 34.484375, 226.127985)">0.2</text>
     </g>
    </g>
    <g id="ytick_2">
     <g id="line2d_15">
      <path d="M 37.984375 196.88095 
L 372.784375 196.88095 
" clip-path="url(#p66dc51e130)" style="fill: none; stroke: #cccccc; stroke-width: 0.8; stroke-linecap: round"/>
     </g>
     <g id="line2d_16"/>
     <g id="text_9">
      <text style="fill: #262626; font: 10px 'sans-serif'; text-anchor: end" x="34.484375" y="200.459856" transform="rotate(-0, 34.484375, 200.459856)">0.4</text>
     </g>
    </g>
    <g id="ytick_3">
     <g id="line2d_17">
      <path d="M 37.984375 171.212821 
L 372.784375 171.212821 
" clip-path="url(#p66dc51e130)" style="fill: none; stroke: #cccccc; stroke-width: 0.8; stroke-linecap: round"/>
     </g>
     <g id="line2d_18"/>
     <g id="text_10">
      <text style="fill: #262626; font: 10px 'sans-serif'; text-anchor: end" x="34.484375" y="174.791727" transform="rotate(-0, 34.484375, 174.791727)">0.6</text>
     </g>
    </g>
    <g id="ytick_4">
     <g id="line2d_19">
      <path d="M 37.984375 145.544692 
L 372.784375 145.544692 
" clip-path="url(#p66dc51e130)" style="fill: none; stroke: #cccccc; stroke-width: 0.8; stroke-linecap: round"/>
     </g>
     <g id="line2d_20"/>
     <g id="text_11">
      <text style="fill: #262626; font: 10px 'sans-serif'; text-anchor: end" x="34.484375" y="149.123599" transform="rotate(-0, 34.484375, 149.123599)">0.8</text>
     </g>
    </g>
    <g id="ytick_5">
     <g id="line2d_21">
      <path d="M 37.984375 119.876564 
L 372.784375 119.876564 
" clip-path="url(#p66dc51e130)" style="fill: none; stroke: #cccccc; stroke-width: 0.8; stroke-linecap: round"/>
     </g>
     <g id="line2d_22"/>
     <g id="text_12">
      <text style="fill: #262626; font: 10px 'sans-serif'; text-anchor: end" x="34.484375" y="123.45547" transform="rotate(-0, 34.484375, 123.45547)">1.0</text>
     </g>
    </g>
    <g id="ytick_6">
     <g id="line2d_23">
      <path d="M 37.984375 94.208435 
L 372.784375 94.208435 
" clip-path="url(#p66dc51e130)" style="fill: none; stroke: #cccccc; stroke-width: 0.8; stroke-linecap: round"/>
     </g>
     <g id="line2d_24"/>
     <g id="text_13">
      <text style="fill: #262626; font: 10px 'sans-serif'; text-anchor: end" x="34.484375" y="97.787341" transform="rotate(-0, 34.484375, 97.787341)">1.2</text>
     </g>
    </g>
    <g id="ytick_7">
     <g id="line2d_25">
      <path d="M 37.984375 68.540307 
L 372.784375 68.540307 
" clip-path="url(#p66dc51e130)" style="fill: none; stroke: #cccccc; stroke-width: 0.8; stroke-linecap: round"/>
     </g>
     <g id="line2d_26"/>
     <g id="text_14">
      <text style="fill: #262626; font: 10px 'sans-serif'; text-anchor: end" x="34.484375" y="72.119213" transform="rotate(-0, 34.484375, 72.119213)">1.4</text>
     </g>
    </g>
    <g id="ytick_8">
     <g id="line2d_27">
      <path d="M 37.984375 42.872178 
L 372.784375 42.872178 
" clip-path="url(#p66dc51e130)" style="fill: none; stroke: #cccccc; stroke-width: 0.8; stroke-linecap: round"/>
     </g>
     <g id="line2d_28"/>
     <g id="text_15">
      <text style="fill: #262626; font: 10px 'sans-serif'; text-anchor: end" x="34.484375" y="46.451084" transform="rotate(-0, 34.484375, 46.451084)">1.6</text>
     </g>
    </g>
    <g id="ytick_9">
     <g id="line2d_29">
      <path d="M 37.984375 17.204049 
L 372.784375 17.204049 
" clip-path="url(#p66dc51e130)" style="fill: none; stroke: #cccccc; stroke-width: 0.8; stroke-linecap: round"/>
     </g>
     <g id="line2d_30"/>
     <g id="text_16">
      <text style="fill: #262626; font: 10px 'sans-serif'; text-anchor: end" x="34.484375" y="20.782956" transform="rotate(-0, 34.484375, 20.782956)">1.8</text>
     </g>
    </g>
    <g id="text_17">
     <text style="fill: #262626; font: 10px 'sans-serif'; text-anchor: middle" x="14.479688" y="115.92" transform="rotate(-90, 14.479688, 115.92)">Wartość funkcji celu</text>
    </g>
   </g>
   <g id="line2d_31">
    <path d="M 53.202557 17.083636 
L 59.41406 17.434385 
L 65.625562 17.802114 
L 71.837065 18.239276 
L 78.048568 18.831155 
L 84.260071 19.773454 
L 90.471574 21.578077 
L 96.683076 25.140604 
L 102.894579 30.642963 
L 109.106082 38.082784 
L 115.317585 46.263911 
L 121.529087 55.418051 
L 127.74059 64.037025 
L 133.952093 72.023464 
L 140.163596 81.898668 
L 146.375099 91.056015 
L 152.586601 99.280219 
L 158.798104 106.686711 
L 165.009607 113.075914 
L 171.22111 119.337302 
L 177.432612 125.119344 
L 183.644115 130.357334 
L 189.855618 135.4379 
L 196.067121 140.241022 
L 202.278624 145.43143 
L 208.490126 150.461202 
L 214.701629 153.127192 
L 220.913132 156.758344 
L 227.124635 160.334902 
L 233.336138 163.688131 
L 239.54764 166.919587 
L 245.759143 169.082888 
L 251.970646 171.857534 
L 258.182149 173.683622 
L 264.393651 176.155788 
L 270.605154 178.124928 
L 276.816657 180.341892 
L 283.02816 181.954612 
L 289.239663 182.533707 
L 295.451165 185.162504 
L 301.662668 186.974044 
L 307.874171 187.292327 
L 314.085674 188.95211 
L 320.297176 190.396874 
L 326.508679 191.558135 
L 332.720182 192.509544 
L 338.931685 193.724308 
L 345.143188 194.537156 
L 351.35469 195.412078 
L 357.566193 196.230137 
" clip-path="url(#p66dc51e130)" style="fill: none; stroke: #1f77b4; stroke-width: 1.5; stroke-linecap: round"/>
   </g>
   <g id="line2d_32">
    <path d="M 53.202557 65.333808 
L 59.41406 93.49386 
L 65.625562 105.708132 
L 71.837065 113.709891 
L 78.048568 118.822307 
L 84.260071 123.542609 
L 90.471574 131.222938 
L 96.683076 136.361948 
L 102.894579 139.52952 
L 109.106082 143.338709 
L 115.317585 146.60148 
L 121.529087 147.839668 
L 127.74059 145.425181 
L 133.952093 151.695738 
L 140.163596 154.038601 
L 146.375099 154.85911 
L 152.586601 152.605337 
L 158.798104 157.894734 
L 165.009607 156.814074 
L 171.22111 154.758343 
L 177.432612 154.751551 
L 183.644115 158.451522 
L 189.855618 154.640634 
L 196.067121 152.810084 
L 202.278624 154.823726 
L 208.490126 152.41153 
L 214.701629 152.438946 
L 220.913132 154.399145 
L 227.124635 151.854985 
L 233.336138 148.208324 
L 239.54764 145.1059 
L 245.759143 148.325138 
L 251.970646 151.301744 
L 258.182149 148.859373 
L 264.393651 144.903107 
L 270.605154 144.935264 
L 276.816657 143.835744 
L 283.02816 142.84672 
L 289.239663 139.074063 
L 295.451165 140.293066 
L 301.662668 137.01909 
L 307.874171 135.749151 
L 314.085674 141.644446 
L 320.297176 137.265934 
L 326.508679 133.514142 
L 332.720182 128.307283 
L 338.931685 133.094979 
L 345.143188 125.874623 
L 351.35469 130.77468 
L 357.566193 128.927876 
" clip-path="url(#p66dc51e130)" style="fill: none; stroke: #ff7f0e; stroke-width: 1.5; stroke-linecap: round"/>
   </g>
   <g id="line2d_33">
    <path d="M 53.202557 63.352004 
L 59.41406 92.616049 
L 65.625562 103.797875 
L 71.837065 111.826555 
L 78.048568 118.539554 
L 84.260071 124.347832 
L 90.471574 128.889144 
L 96.683076 133.482536 
L 102.894579 137.393645 
L 109.106082 142.310193 
L 115.317585 141.148225 
L 121.529087 145.477809 
L 127.74059 147.349225 
L 133.952093 149.168119 
L 140.163596 151.324854 
L 146.375099 152.5444 
L 152.586601 153.305426 
L 158.798104 153.189873 
L 165.009607 153.833074 
L 171.22111 154.851941 
L 177.432612 153.742595 
L 183.644115 154.917425 
L 189.855618 152.689556 
L 196.067121 148.560501 
L 202.278624 150.115043 
L 208.490126 154.921227 
L 214.701629 155.543429 
L 220.913132 154.526959 
L 227.124635 155.120475 
L 233.336138 148.249552 
L 239.54764 147.096575 
L 245.759143 151.965228 
L 251.970646 149.394313 
L 258.182149 145.123946 
L 264.393651 146.782333 
L 270.605154 142.602957 
L 276.816657 142.104244 
L 283.02816 137.033314 
L 289.239663 139.760143 
L 295.451165 135.822471 
L 301.662668 138.914117 
L 307.874171 137.643481 
L 314.085674 137.931994 
L 320.297176 129.293858 
L 326.508679 130.201796 
L 332.720182 130.957519 
L 338.931685 125.827837 
L 345.143188 124.012214 
L 351.35469 126.079811 
L 357.566193 125.895477 
" clip-path="url(#p66dc51e130)" style="fill: none; stroke: #2ca02c; stroke-width: 1.5; stroke-linecap: round"/>
   </g>
   <g id="line2d_34">
    <path d="M 53.202557 18.324076 
L 59.41406 20.225358 
L 65.625562 22.624162 
L 71.837065 26.429605 
L 78.048568 32.702995 
L 84.260071 41.665901 
L 90.471574 52.074379 
L 96.683076 63.714583 
L 102.894579 76.214351 
L 109.106082 89.716639 
L 115.317585 102.022488 
L 121.529087 113.57876 
L 127.74059 124.071566 
L 133.952093 131.817972 
L 140.163596 138.004075 
L 146.375099 142.235202 
L 152.586601 146.643487 
L 158.798104 150.926494 
L 165.009607 155.007564 
L 171.22111 158.669057 
L 177.432612 162.231362 
L 183.644115 166.173026 
L 189.855618 169.497217 
L 196.067121 173.630359 
L 202.278624 175.541726 
L 208.490126 178.618353 
L 214.701629 181.250626 
L 220.913132 182.845468 
L 227.124635 185.147762 
L 233.336138 186.746096 
L 239.54764 188.64493 
L 245.759143 189.699625 
L 251.970646 191.023139 
L 258.182149 192.250332 
L 264.393651 193.380566 
L 270.605154 194.127974 
L 276.816657 195.57371 
L 283.02816 195.788853 
L 289.239663 198.403084 
L 295.451165 198.194564 
L 301.662668 198.992771 
L 307.874171 201.330398 
L 314.085674 202.35395 
L 320.297176 202.466167 
L 326.508679 203.582935 
L 332.720182 204.331668 
L 338.931685 205.044366 
L 345.143188 206.703992 
L 351.35469 207.399881 
L 357.566193 208.258993 
" clip-path="url(#p66dc51e130)" style="fill: none; stroke: #d62728; stroke-width: 1.5; stroke-linecap: round"/>
   </g>
   <g id="line2d_35">
    <path d="M 53.202557 18.784256 
L 59.41406 21.942705 
L 65.625562 26.8 
L 71.837065 34.323889 
L 78.048568 44.839813 
L 84.260071 57.506919 
L 90.471574 70.829028 
L 96.683076 83.263885 
L 102.894579 94.666571 
L 109.106082 106.020986 
L 115.317585 116.620883 
L 121.529087 126.281526 
L 127.74059 133.919768 
L 133.952093 138.913668 
L 140.163596 144.283624 
L 146.375099 148.922171 
L 152.586601 152.824651 
L 158.798104 157.116026 
L 165.009607 160.339951 
L 171.22111 163.021593 
L 177.432612 166.577773 
L 183.644115 170.884782 
L 189.855618 173.860323 
L 196.067121 176.457338 
L 202.278624 179.186839 
L 208.490126 182.428714 
L 214.701629 183.890476 
L 220.913132 185.794285 
L 227.124635 188.070845 
L 233.336138 189.809015 
L 239.54764 191.737198 
L 245.759143 193.23054 
L 251.970646 194.841772 
L 258.182149 196.712931 
L 264.393651 197.019576 
L 270.605154 198.343395 
L 276.816657 199.489251 
L 283.02816 200.263763 
L 289.239663 201.312751 
L 295.451165 202.48729 
L 301.662668 203.543604 
L 307.874171 205.572684 
L 314.085674 205.605857 
L 320.297176 207.589594 
L 326.508679 208.051171 
L 332.720182 208.816116 
L 338.931685 209.403181 
L 345.143188 211.867302 
L 351.35469 210.693091 
L 357.566193 212.900491 
" clip-path="url(#p66dc51e130)" style="fill: none; stroke: #9467bd; stroke-width: 1.5; stroke-linecap: round"/>
   </g>
   <g id="line2d_36">
    <path d="M 53.202557 18.643418 
L 59.41406 22.018199 
L 65.625562 27.585766 
L 71.837065 36.921249 
L 78.048568 48.739341 
L 84.260071 60.051363 
L 90.471574 71.445959 
L 96.683076 83.454776 
L 102.894579 95.746906 
L 109.106082 106.718019 
L 115.317585 116.603051 
L 121.529087 124.83213 
L 127.74059 129.849272 
L 133.952093 134.697969 
L 140.163596 138.852823 
L 146.375099 142.482163 
L 152.586601 145.344764 
L 158.798104 149.155804 
L 165.009607 151.967021 
L 171.22111 155.095077 
L 177.432612 158.470946 
L 183.644115 162.42823 
L 189.855618 167.195649 
L 196.067121 170.830333 
L 202.278624 175.079355 
L 208.490126 178.159072 
L 214.701629 180.821387 
L 220.913132 182.97279 
L 227.124635 185.989468 
L 233.336138 187.002466 
L 239.54764 188.672792 
L 245.759143 190.610555 
L 251.970646 191.812023 
L 258.182149 193.219233 
L 264.393651 194.617336 
L 270.605154 195.907567 
L 276.816657 197.105848 
L 283.02816 198.759707 
L 289.239663 199.398943 
L 295.451165 200.05952 
L 301.662668 201.698966 
L 307.874171 202.511518 
L 314.085674 203.174736 
L 320.297176 204.722917 
L 326.508679 205.764651 
L 332.720182 207.222305 
L 338.931685 207.957887 
L 345.143188 209.215869 
L 351.35469 209.757981 
L 357.566193 210.644828 
" clip-path="url(#p66dc51e130)" style="fill: none; stroke: #8c564b; stroke-width: 1.5; stroke-linecap: round"/>
   </g>
   <g id="line2d_37">
    <path d="M 53.202557 55.6145 
L 59.41406 89.138366 
L 65.625562 100.509788 
L 71.837065 108.469325 
L 78.048568 114.278618 
L 84.260071 121.541654 
L 90.471574 127.105902 
L 96.683076 132.331375 
L 102.894579 137.833622 
L 109.106082 142.332279 
L 115.317585 146.370593 
L 121.529087 150.673319 
L 127.74059 155.10586 
L 133.952093 158.001963 
L 140.163596 160.56846 
L 146.375099 164.984782 
L 152.586601 167.177136 
L 158.798104 168.157507 
L 165.009607 170.879342 
L 171.22111 173.170075 
L 177.432612 175.392962 
L 183.644115 177.927979 
L 189.855618 179.564806 
L 196.067121 180.101239 
L 202.278624 182.527029 
L 208.490126 183.684842 
L 214.701629 184.969156 
L 220.913132 186.109698 
L 227.124635 187.980461 
L 233.336138 189.341983 
L 239.54764 191.644213 
L 245.759143 192.415378 
L 251.970646 193.936162 
L 258.182149 196.60647 
L 264.393651 196.838526 
L 270.605154 198.275953 
L 276.816657 199.706619 
L 283.02816 200.542586 
L 289.239663 203.004496 
L 295.451165 203.818651 
L 301.662668 203.601855 
L 307.874171 206.645807 
L 314.085674 207.138504 
L 320.297176 209.648562 
L 326.508679 210.159326 
L 332.720182 211.228396 
L 338.931685 212.887006 
L 345.143188 213.981186 
L 351.35469 214.697913 
L 357.566193 214.756364 
" clip-path="url(#p66dc51e130)" style="fill: none; stroke: #e377c2; stroke-width: 1.5; stroke-linecap: round"/>
   </g>
   <g id="patch_3">
    <path d="M 37.984375 224.64 
L 37.984375 7.2 
" style="fill: none; stroke: #cccccc; stroke-linejoin: miter; stroke-linecap: square"/>
   </g>
   <g id="patch_4">
    <path d="M 372.784375 224.64 
L 372.784375 7.2 
" style="fill: none; stroke: #cccccc; stroke-linejoin: miter; stroke-linecap: square"/>
   </g>
   <g id="patch_5">
    <path d="M 37.984375 224.64 
L 372.784375 224.64 
" style="fill: none; stroke: #cccccc; stroke-linejoin: miter; stroke-linecap: square"/>
   </g>
   <g id="patch_6">
    <path d="M 37.984375 7.2 
L 372.784375 7.2 
" style="fill: none; stroke: #cccccc; stroke-linejoin: miter; stroke-linecap: square"/>
   </g>
   <g id="legend_1">
    <g id="patch_7">
     <path d="M 254.3125 114.45625 
L 365.784375 114.45625 
Q 367.784375 114.45625 367.784375 112.45625 
L 367.784375 14.2 
Q 367.784375 12.2 365.784375 12.2 
L 254.3125 12.2 
Q 252.3125 12.2 252.3125 14.2 
L 252.3125 112.45625 
Q 252.3125 114.45625 254.3125 114.45625 
z
" style="fill: #ffffff; stroke: #cccccc; stroke-linejoin: miter"/>
    </g>
    <g id="line2d_38">
     <path d="M 256.3125 19.857813 
L 266.3125 19.857813 
L 276.3125 19.857813 
" style="fill: none; stroke: #1f77b4; stroke-width: 1.5; stroke-linecap: round"/>
    </g>
    <g id="text_18">
     <text style="fill: #262626; font: 10px 'sans-serif'; text-anchor: start" x="284.3125" y="23.357813" transform="rotate(-0, 284.3125, 23.357813)">xavier uniform</text>
    </g>
    <g id="line2d_39">
     <path d="M 256.3125 34.003125 
L 266.3125 34.003125 
L 276.3125 34.003125 
" style="fill: none; stroke: #ff7f0e; stroke-width: 1.5; stroke-linecap: round"/>
    </g>
    <g id="text_19">
     <text style="fill: #262626; font: 10px 'sans-serif'; text-anchor: start" x="284.3125" y="37.503125" transform="rotate(-0, 284.3125, 37.503125)">xavier uniform  1</text>
    </g>
    <g id="line2d_40">
     <path d="M 256.3125 48.148438 
L 266.3125 48.148438 
L 276.3125 48.148438 
" style="fill: none; stroke: #2ca02c; stroke-width: 1.5; stroke-linecap: round"/>
    </g>
    <g id="text_20">
     <text style="fill: #262626; font: 10px 'sans-serif'; text-anchor: start" x="284.3125" y="51.648438" transform="rotate(-0, 284.3125, 51.648438)">xavier uniform  2</text>
    </g>
    <g id="line2d_41">
     <path d="M 256.3125 62.29375 
L 266.3125 62.29375 
L 276.3125 62.29375 
" style="fill: none; stroke: #d62728; stroke-width: 1.5; stroke-linecap: round"/>
    </g>
    <g id="text_21">
     <text style="fill: #262626; font: 10px 'sans-serif'; text-anchor: start" x="284.3125" y="65.79375" transform="rotate(-0, 284.3125, 65.79375)">xavier uniform  10</text>
    </g>
    <g id="line2d_42">
     <path d="M 256.3125 76.439063 
L 266.3125 76.439063 
L 276.3125 76.439063 
" style="fill: none; stroke: #9467bd; stroke-width: 1.5; stroke-linecap: round"/>
    </g>
    <g id="text_22">
     <text style="fill: #262626; font: 10px 'sans-serif'; text-anchor: start" x="284.3125" y="79.939063" transform="rotate(-0, 284.3125, 79.939063)">xavier uniform  14</text>
    </g>
    <g id="line2d_43">
     <path d="M 256.3125 90.584375 
L 266.3125 90.584375 
L 276.3125 90.584375 
" style="fill: none; stroke: #8c564b; stroke-width: 1.5; stroke-linecap: round"/>
    </g>
    <g id="text_23">
     <text style="fill: #262626; font: 10px 'sans-serif'; text-anchor: start" x="284.3125" y="94.084375" transform="rotate(-0, 284.3125, 94.084375)">xavier uniform  20</text>
    </g>
    <g id="line2d_44">
     <path d="M 256.3125 104.851562 
L 266.3125 104.851562 
L 276.3125 104.851562 
" style="fill: none; stroke: #e377c2; stroke-width: 1.5; stroke-linecap: round"/>
    </g>
    <g id="text_24">
     <text style="fill: #262626; font: 10px 'sans-serif'; text-anchor: start" x="284.3125" y="108.351562" transform="rotate(-0, 284.3125, 108.351562)">kaiming uniform</text>
    </g>
   </g>
  </g>
 </g>
 <defs>
  <clipPath id="p66dc51e130">
   <rect x="37.984375" y="7.2" width="334.8" height="217.44"/>
  </clipPath>
 </defs>
</svg>
