<?xml version="1.0" encoding="utf-8" standalone="no"?>
<!DOCTYPE svg PUBLIC "-//W3C//DTD SVG 1.1//EN"
  "http://www.w3.org/Graphics/SVG/1.1/DTD/svg11.dtd">
<svg xmlns:xlink="http://www.w3.org/1999/xlink" width="388.240625pt" height="257.630625pt" viewBox="0 0 388.240625 257.630625" xmlns="http://www.w3.org/2000/svg" version="1.1">
 <metadata>
  <rdf:RDF xmlns:dc="http://purl.org/dc/elements/1.1/" xmlns:cc="http://creativecommons.org/ns#" xmlns:rdf="http://www.w3.org/1999/02/22-rdf-syntax-ns#">
   <cc:Work>
    <dc:type rdf:resource="http://purl.org/dc/dcmitype/StillImage"/>
    <dc:date>2022-03-30T18:07:53.396761</dc:date>
    <dc:format>image/svg+xml</dc:format>
    <dc:creator>
     <cc:Agent>
      <dc:title>Matplotlib v3.5.0, https://matplotlib.org/</dc:title>
     </cc:Agent>
    </dc:creator>
   </cc:Work>
  </rdf:RDF>
 </metadata>
 <defs>
  <style type="text/css">*{stroke-linejoin: round; stroke-linecap: butt}</style>
 </defs>
 <g id="figure_1">
  <g id="patch_1">
   <path d="M 0 257.630625 
L 388.240625 257.630625 
L 388.240625 0 
L 0 0 
z
" style="fill: #ffffff"/>
  </g>
  <g id="axes_1">
   <g id="patch_2">
    <path d="M 46.240625 224.64 
L 381.040625 224.64 
L 381.040625 7.2 
L 46.240625 7.2 
z
" style="fill: #ffffff"/>
   </g>
   <g id="matplotlib.axis_1">
    <g id="xtick_1">
     <g id="line2d_1">
      <path d="M 61.458807 224.64 
L 61.458807 7.2 
" clip-path="url(#p515b4f1e68)" style="fill: none; stroke: #cccccc; stroke-width: 0.8; stroke-linecap: round"/>
     </g>
     <g id="line2d_2"/>
     <g id="text_1">
      <!-- 0 -->
      <g style="fill: #262626" transform="translate(58.678338 235.297812)scale(0.1 -0.1)">
       <defs>
        <path id="ArialMT-30" d="M 266 2259 
Q 266 3072 433 3567 
Q 600 4063 929 4331 
Q 1259 4600 1759 4600 
Q 2128 4600 2406 4451 
Q 2684 4303 2865 4023 
Q 3047 3744 3150 3342 
Q 3253 2941 3253 2259 
Q 3253 1453 3087 958 
Q 2922 463 2592 192 
Q 2263 -78 1759 -78 
Q 1097 -78 719 397 
Q 266 969 266 2259 
z
M 844 2259 
Q 844 1131 1108 757 
Q 1372 384 1759 384 
Q 2147 384 2411 759 
Q 2675 1134 2675 2259 
Q 2675 3391 2411 3762 
Q 2147 4134 1753 4134 
Q 1366 4134 1134 3806 
Q 844 3388 844 2259 
z
" transform="scale(0.015625)"/>
       </defs>
       <use xlink:href="#ArialMT-30"/>
      </g>
     </g>
    </g>
    <g id="xtick_2">
     <g id="line2d_3">
      <path d="M 99.695445 224.64 
L 99.695445 7.2 
" clip-path="url(#p515b4f1e68)" style="fill: none; stroke: #cccccc; stroke-width: 0.8; stroke-linecap: round"/>
     </g>
     <g id="line2d_4"/>
     <g id="text_2">
      <!-- 25 -->
      <g style="fill: #262626" transform="translate(94.134507 235.297812)scale(0.1 -0.1)">
       <defs>
        <path id="ArialMT-32" d="M 3222 541 
L 3222 0 
L 194 0 
Q 188 203 259 391 
Q 375 700 629 1000 
Q 884 1300 1366 1694 
Q 2113 2306 2375 2664 
Q 2638 3022 2638 3341 
Q 2638 3675 2398 3904 
Q 2159 4134 1775 4134 
Q 1369 4134 1125 3890 
Q 881 3647 878 3216 
L 300 3275 
Q 359 3922 746 4261 
Q 1134 4600 1788 4600 
Q 2447 4600 2831 4234 
Q 3216 3869 3216 3328 
Q 3216 3053 3103 2787 
Q 2991 2522 2730 2228 
Q 2469 1934 1863 1422 
Q 1356 997 1212 845 
Q 1069 694 975 541 
L 3222 541 
z
" transform="scale(0.015625)"/>
        <path id="ArialMT-35" d="M 266 1200 
L 856 1250 
Q 922 819 1161 601 
Q 1400 384 1738 384 
Q 2144 384 2425 690 
Q 2706 997 2706 1503 
Q 2706 1984 2436 2262 
Q 2166 2541 1728 2541 
Q 1456 2541 1237 2417 
Q 1019 2294 894 2097 
L 366 2166 
L 809 4519 
L 3088 4519 
L 3088 3981 
L 1259 3981 
L 1013 2750 
Q 1425 3038 1878 3038 
Q 2478 3038 2890 2622 
Q 3303 2206 3303 1553 
Q 3303 931 2941 478 
Q 2500 -78 1738 -78 
Q 1113 -78 717 272 
Q 322 622 266 1200 
z
" transform="scale(0.015625)"/>
       </defs>
       <use xlink:href="#ArialMT-32"/>
       <use xlink:href="#ArialMT-35" x="55.615234"/>
      </g>
     </g>
    </g>
    <g id="xtick_3">
     <g id="line2d_5">
      <path d="M 137.932082 224.64 
L 137.932082 7.2 
" clip-path="url(#p515b4f1e68)" style="fill: none; stroke: #cccccc; stroke-width: 0.8; stroke-linecap: round"/>
     </g>
     <g id="line2d_6"/>
     <g id="text_3">
      <!-- 50 -->
      <g style="fill: #262626" transform="translate(132.371145 235.297812)scale(0.1 -0.1)">
       <use xlink:href="#ArialMT-35"/>
       <use xlink:href="#ArialMT-30" x="55.615234"/>
      </g>
     </g>
    </g>
    <g id="xtick_4">
     <g id="line2d_7">
      <path d="M 176.16872 224.64 
L 176.16872 7.2 
" clip-path="url(#p515b4f1e68)" style="fill: none; stroke: #cccccc; stroke-width: 0.8; stroke-linecap: round"/>
     </g>
     <g id="line2d_8"/>
     <g id="text_4">
      <!-- 75 -->
      <g style="fill: #262626" transform="translate(170.607783 235.297812)scale(0.1 -0.1)">
       <defs>
        <path id="ArialMT-37" d="M 303 3981 
L 303 4522 
L 3269 4522 
L 3269 4084 
Q 2831 3619 2401 2847 
Q 1972 2075 1738 1259 
Q 1569 684 1522 0 
L 944 0 
Q 953 541 1156 1306 
Q 1359 2072 1739 2783 
Q 2119 3494 2547 3981 
L 303 3981 
z
" transform="scale(0.015625)"/>
       </defs>
       <use xlink:href="#ArialMT-37"/>
       <use xlink:href="#ArialMT-35" x="55.615234"/>
      </g>
     </g>
    </g>
    <g id="xtick_5">
     <g id="line2d_9">
      <path d="M 214.405358 224.64 
L 214.405358 7.2 
" clip-path="url(#p515b4f1e68)" style="fill: none; stroke: #cccccc; stroke-width: 0.8; stroke-linecap: round"/>
     </g>
     <g id="line2d_10"/>
     <g id="text_5">
      <!-- 100 -->
      <g style="fill: #262626" transform="translate(206.063952 235.297812)scale(0.1 -0.1)">
       <defs>
        <path id="ArialMT-31" d="M 2384 0 
L 1822 0 
L 1822 3584 
Q 1619 3391 1289 3197 
Q 959 3003 697 2906 
L 697 3450 
Q 1169 3672 1522 3987 
Q 1875 4303 2022 4600 
L 2384 4600 
L 2384 0 
z
" transform="scale(0.015625)"/>
       </defs>
       <use xlink:href="#ArialMT-31"/>
       <use xlink:href="#ArialMT-30" x="55.615234"/>
       <use xlink:href="#ArialMT-30" x="111.230469"/>
      </g>
     </g>
    </g>
    <g id="xtick_6">
     <g id="line2d_11">
      <path d="M 252.641995 224.64 
L 252.641995 7.2 
" clip-path="url(#p515b4f1e68)" style="fill: none; stroke: #cccccc; stroke-width: 0.8; stroke-linecap: round"/>
     </g>
     <g id="line2d_12"/>
     <g id="text_6">
      <!-- 125 -->
      <g style="fill: #262626" transform="translate(244.300589 235.297812)scale(0.1 -0.1)">
       <use xlink:href="#ArialMT-31"/>
       <use xlink:href="#ArialMT-32" x="55.615234"/>
       <use xlink:href="#ArialMT-35" x="111.230469"/>
      </g>
     </g>
    </g>
    <g id="xtick_7">
     <g id="line2d_13">
      <path d="M 290.878633 224.64 
L 290.878633 7.2 
" clip-path="url(#p515b4f1e68)" style="fill: none; stroke: #cccccc; stroke-width: 0.8; stroke-linecap: round"/>
     </g>
     <g id="line2d_14"/>
     <g id="text_7">
      <!-- 150 -->
      <g style="fill: #262626" transform="translate(282.537227 235.297812)scale(0.1 -0.1)">
       <use xlink:href="#ArialMT-31"/>
       <use xlink:href="#ArialMT-35" x="55.615234"/>
       <use xlink:href="#ArialMT-30" x="111.230469"/>
      </g>
     </g>
    </g>
    <g id="xtick_8">
     <g id="line2d_15">
      <path d="M 329.115271 224.64 
L 329.115271 7.2 
" clip-path="url(#p515b4f1e68)" style="fill: none; stroke: #cccccc; stroke-width: 0.8; stroke-linecap: round"/>
     </g>
     <g id="line2d_16"/>
     <g id="text_8">
      <!-- 175 -->
      <g style="fill: #262626" transform="translate(320.773865 235.297812)scale(0.1 -0.1)">
       <use xlink:href="#ArialMT-31"/>
       <use xlink:href="#ArialMT-37" x="55.615234"/>
       <use xlink:href="#ArialMT-35" x="111.230469"/>
      </g>
     </g>
    </g>
    <g id="xtick_9">
     <g id="line2d_17">
      <path d="M 367.351909 224.64 
L 367.351909 7.2 
" clip-path="url(#p515b4f1e68)" style="fill: none; stroke: #cccccc; stroke-width: 0.8; stroke-linecap: round"/>
     </g>
     <g id="line2d_18"/>
     <g id="text_9">
      <!-- 200 -->
      <g style="fill: #262626" transform="translate(359.010502 235.297812)scale(0.1 -0.1)">
       <use xlink:href="#ArialMT-32"/>
       <use xlink:href="#ArialMT-30" x="55.615234"/>
       <use xlink:href="#ArialMT-30" x="111.230469"/>
      </g>
     </g>
    </g>
    <g id="text_10">
     <!-- Epoka -->
     <g style="fill: #262626" transform="translate(199.464063 248.443125)scale(0.1 -0.1)">
      <defs>
       <path id="ArialMT-45" d="M 506 0 
L 506 4581 
L 3819 4581 
L 3819 4041 
L 1113 4041 
L 1113 2638 
L 3647 2638 
L 3647 2100 
L 1113 2100 
L 1113 541 
L 3925 541 
L 3925 0 
L 506 0 
z
" transform="scale(0.015625)"/>
       <path id="ArialMT-70" d="M 422 -1272 
L 422 3319 
L 934 3319 
L 934 2888 
Q 1116 3141 1344 3267 
Q 1572 3394 1897 3394 
Q 2322 3394 2647 3175 
Q 2972 2956 3137 2557 
Q 3303 2159 3303 1684 
Q 3303 1175 3120 767 
Q 2938 359 2589 142 
Q 2241 -75 1856 -75 
Q 1575 -75 1351 44 
Q 1128 163 984 344 
L 984 -1272 
L 422 -1272 
z
M 931 1641 
Q 931 1000 1190 694 
Q 1450 388 1819 388 
Q 2194 388 2461 705 
Q 2728 1022 2728 1688 
Q 2728 2322 2467 2637 
Q 2206 2953 1844 2953 
Q 1484 2953 1207 2617 
Q 931 2281 931 1641 
z
" transform="scale(0.015625)"/>
       <path id="ArialMT-6f" d="M 213 1659 
Q 213 2581 725 3025 
Q 1153 3394 1769 3394 
Q 2453 3394 2887 2945 
Q 3322 2497 3322 1706 
Q 3322 1066 3130 698 
Q 2938 331 2570 128 
Q 2203 -75 1769 -75 
Q 1072 -75 642 372 
Q 213 819 213 1659 
z
M 791 1659 
Q 791 1022 1069 705 
Q 1347 388 1769 388 
Q 2188 388 2466 706 
Q 2744 1025 2744 1678 
Q 2744 2294 2464 2611 
Q 2184 2928 1769 2928 
Q 1347 2928 1069 2612 
Q 791 2297 791 1659 
z
" transform="scale(0.015625)"/>
       <path id="ArialMT-6b" d="M 425 0 
L 425 4581 
L 988 4581 
L 988 1969 
L 2319 3319 
L 3047 3319 
L 1778 2088 
L 3175 0 
L 2481 0 
L 1384 1697 
L 988 1316 
L 988 0 
L 425 0 
z
" transform="scale(0.015625)"/>
       <path id="ArialMT-61" d="M 2588 409 
Q 2275 144 1986 34 
Q 1697 -75 1366 -75 
Q 819 -75 525 192 
Q 231 459 231 875 
Q 231 1119 342 1320 
Q 453 1522 633 1644 
Q 813 1766 1038 1828 
Q 1203 1872 1538 1913 
Q 2219 1994 2541 2106 
Q 2544 2222 2544 2253 
Q 2544 2597 2384 2738 
Q 2169 2928 1744 2928 
Q 1347 2928 1158 2789 
Q 969 2650 878 2297 
L 328 2372 
Q 403 2725 575 2942 
Q 747 3159 1072 3276 
Q 1397 3394 1825 3394 
Q 2250 3394 2515 3294 
Q 2781 3194 2906 3042 
Q 3031 2891 3081 2659 
Q 3109 2516 3109 2141 
L 3109 1391 
Q 3109 606 3145 398 
Q 3181 191 3288 0 
L 2700 0 
Q 2613 175 2588 409 
z
M 2541 1666 
Q 2234 1541 1622 1453 
Q 1275 1403 1131 1340 
Q 988 1278 909 1158 
Q 831 1038 831 891 
Q 831 666 1001 516 
Q 1172 366 1500 366 
Q 1825 366 2078 508 
Q 2331 650 2450 897 
Q 2541 1088 2541 1459 
L 2541 1666 
z
" transform="scale(0.015625)"/>
      </defs>
      <use xlink:href="#ArialMT-45"/>
      <use xlink:href="#ArialMT-70" x="66.699219"/>
      <use xlink:href="#ArialMT-6f" x="122.314453"/>
      <use xlink:href="#ArialMT-6b" x="177.929688"/>
      <use xlink:href="#ArialMT-61" x="227.929688"/>
     </g>
    </g>
   </g>
   <g id="matplotlib.axis_2">
    <g id="ytick_1">
     <g id="line2d_19">
      <path d="M 46.240625 214.894292 
L 381.040625 214.894292 
" clip-path="url(#p515b4f1e68)" style="fill: none; stroke: #cccccc; stroke-width: 0.8; stroke-linecap: round"/>
     </g>
     <g id="line2d_20"/>
     <g id="text_11">
      <!-- 0 -->
      <g style="fill: #262626" transform="translate(37.179688 218.473198)scale(0.1 -0.1)">
       <use xlink:href="#ArialMT-30"/>
      </g>
     </g>
    </g>
    <g id="ytick_2">
     <g id="line2d_21">
      <path d="M 46.240625 175.591951 
L 381.040625 175.591951 
" clip-path="url(#p515b4f1e68)" style="fill: none; stroke: #cccccc; stroke-width: 0.8; stroke-linecap: round"/>
     </g>
     <g id="line2d_22"/>
     <g id="text_12">
      <!-- 500 -->
      <g style="fill: #262626" transform="translate(26.057813 179.170858)scale(0.1 -0.1)">
       <use xlink:href="#ArialMT-35"/>
       <use xlink:href="#ArialMT-30" x="55.615234"/>
       <use xlink:href="#ArialMT-30" x="111.230469"/>
      </g>
     </g>
    </g>
    <g id="ytick_3">
     <g id="line2d_23">
      <path d="M 46.240625 136.289611 
L 381.040625 136.289611 
" clip-path="url(#p515b4f1e68)" style="fill: none; stroke: #cccccc; stroke-width: 0.8; stroke-linecap: round"/>
     </g>
     <g id="line2d_24"/>
     <g id="text_13">
      <!-- 1000 -->
      <g style="fill: #262626" transform="translate(20.496875 139.868517)scale(0.1 -0.1)">
       <use xlink:href="#ArialMT-31"/>
       <use xlink:href="#ArialMT-30" x="55.615234"/>
       <use xlink:href="#ArialMT-30" x="111.230469"/>
       <use xlink:href="#ArialMT-30" x="166.845703"/>
      </g>
     </g>
    </g>
    <g id="ytick_4">
     <g id="line2d_25">
      <path d="M 46.240625 96.987271 
L 381.040625 96.987271 
" clip-path="url(#p515b4f1e68)" style="fill: none; stroke: #cccccc; stroke-width: 0.8; stroke-linecap: round"/>
     </g>
     <g id="line2d_26"/>
     <g id="text_14">
      <!-- 1500 -->
      <g style="fill: #262626" transform="translate(20.496875 100.566177)scale(0.1 -0.1)">
       <use xlink:href="#ArialMT-31"/>
       <use xlink:href="#ArialMT-35" x="55.615234"/>
       <use xlink:href="#ArialMT-30" x="111.230469"/>
       <use xlink:href="#ArialMT-30" x="166.845703"/>
      </g>
     </g>
    </g>
    <g id="ytick_5">
     <g id="line2d_27">
      <path d="M 46.240625 57.68493 
L 381.040625 57.68493 
" clip-path="url(#p515b4f1e68)" style="fill: none; stroke: #cccccc; stroke-width: 0.8; stroke-linecap: round"/>
     </g>
     <g id="line2d_28"/>
     <g id="text_15">
      <!-- 2000 -->
      <g style="fill: #262626" transform="translate(20.496875 61.263837)scale(0.1 -0.1)">
       <use xlink:href="#ArialMT-32"/>
       <use xlink:href="#ArialMT-30" x="55.615234"/>
       <use xlink:href="#ArialMT-30" x="111.230469"/>
       <use xlink:href="#ArialMT-30" x="166.845703"/>
      </g>
     </g>
    </g>
    <g id="ytick_6">
     <g id="line2d_29">
      <path d="M 46.240625 18.38259 
L 381.040625 18.38259 
" clip-path="url(#p515b4f1e68)" style="fill: none; stroke: #cccccc; stroke-width: 0.8; stroke-linecap: round"/>
     </g>
     <g id="line2d_30"/>
     <g id="text_16">
      <!-- 2500 -->
      <g style="fill: #262626" transform="translate(20.496875 21.961496)scale(0.1 -0.1)">
       <use xlink:href="#ArialMT-32"/>
       <use xlink:href="#ArialMT-35" x="55.615234"/>
       <use xlink:href="#ArialMT-30" x="111.230469"/>
       <use xlink:href="#ArialMT-30" x="166.845703"/>
      </g>
     </g>
    </g>
    <g id="text_17">
     <!-- Wartość błędu -->
     <g style="fill: #262626" transform="translate(14.396875 147.68875)rotate(-90)scale(0.1 -0.1)">
      <defs>
       <path id="ArialMT-57" d="M 1294 0 
L 78 4581 
L 700 4581 
L 1397 1578 
Q 1509 1106 1591 641 
Q 1766 1375 1797 1488 
L 2669 4581 
L 3400 4581 
L 4056 2263 
Q 4303 1400 4413 641 
Q 4500 1075 4641 1638 
L 5359 4581 
L 5969 4581 
L 4713 0 
L 4128 0 
L 3163 3491 
Q 3041 3928 3019 4028 
Q 2947 3713 2884 3491 
L 1913 0 
L 1294 0 
z
" transform="scale(0.015625)"/>
       <path id="ArialMT-72" d="M 416 0 
L 416 3319 
L 922 3319 
L 922 2816 
Q 1116 3169 1280 3281 
Q 1444 3394 1641 3394 
Q 1925 3394 2219 3213 
L 2025 2691 
Q 1819 2813 1613 2813 
Q 1428 2813 1281 2702 
Q 1134 2591 1072 2394 
Q 978 2094 978 1738 
L 978 0 
L 416 0 
z
" transform="scale(0.015625)"/>
       <path id="ArialMT-74" d="M 1650 503 
L 1731 6 
Q 1494 -44 1306 -44 
Q 1000 -44 831 53 
Q 663 150 594 308 
Q 525 466 525 972 
L 525 2881 
L 113 2881 
L 113 3319 
L 525 3319 
L 525 4141 
L 1084 4478 
L 1084 3319 
L 1650 3319 
L 1650 2881 
L 1084 2881 
L 1084 941 
Q 1084 700 1114 631 
Q 1144 563 1211 522 
Q 1278 481 1403 481 
Q 1497 481 1650 503 
z
" transform="scale(0.015625)"/>
       <path id="ArialMT-15b" d="M 197 991 
L 753 1078 
Q 800 744 1014 566 
Q 1228 388 1613 388 
Q 2000 388 2187 545 
Q 2375 703 2375 916 
Q 2375 1106 2209 1216 
Q 2094 1291 1634 1406 
Q 1016 1563 777 1677 
Q 538 1791 414 1992 
Q 291 2194 291 2438 
Q 291 2659 392 2848 
Q 494 3038 669 3163 
Q 800 3259 1026 3326 
Q 1253 3394 1513 3394 
Q 1903 3394 2198 3281 
Q 2494 3169 2634 2976 
Q 2775 2784 2828 2463 
L 2278 2388 
Q 2241 2644 2061 2787 
Q 1881 2931 1553 2931 
Q 1166 2931 1000 2803 
Q 834 2675 834 2503 
Q 834 2394 903 2306 
Q 972 2216 1119 2156 
Q 1203 2125 1616 2013 
Q 2213 1853 2448 1751 
Q 2684 1650 2818 1456 
Q 2953 1263 2953 975 
Q 2953 694 2789 445 
Q 2625 197 2315 61 
Q 2006 -75 1616 -75 
Q 969 -75 630 194 
Q 291 463 197 991 
z
M 1231 3731 
L 1647 4606 
L 2384 4606 
L 1697 3731 
L 1231 3731 
z
" transform="scale(0.015625)"/>
       <path id="ArialMT-107" d="M 2588 1216 
L 3141 1144 
Q 3050 572 2676 248 
Q 2303 -75 1759 -75 
Q 1078 -75 664 370 
Q 250 816 250 1647 
Q 250 2184 428 2587 
Q 606 2991 970 3192 
Q 1334 3394 1763 3394 
Q 2303 3394 2647 3120 
Q 2991 2847 3088 2344 
L 2541 2259 
Q 2463 2594 2264 2762 
Q 2066 2931 1784 2931 
Q 1359 2931 1093 2626 
Q 828 2322 828 1663 
Q 828 994 1084 691 
Q 1341 388 1753 388 
Q 2084 388 2306 591 
Q 2528 794 2588 1216 
z
M 1325 3731 
L 1741 4606 
L 2478 4606 
L 1791 3731 
L 1325 3731 
z
" transform="scale(0.015625)"/>
       <path id="ArialMT-20" transform="scale(0.015625)"/>
       <path id="ArialMT-62" d="M 941 0 
L 419 0 
L 419 4581 
L 981 4581 
L 981 2947 
Q 1338 3394 1891 3394 
Q 2197 3394 2470 3270 
Q 2744 3147 2920 2923 
Q 3097 2700 3197 2384 
Q 3297 2069 3297 1709 
Q 3297 856 2875 390 
Q 2453 -75 1863 -75 
Q 1275 -75 941 416 
L 941 0 
z
M 934 1684 
Q 934 1088 1097 822 
Q 1363 388 1816 388 
Q 2184 388 2453 708 
Q 2722 1028 2722 1663 
Q 2722 2313 2464 2622 
Q 2206 2931 1841 2931 
Q 1472 2931 1203 2611 
Q 934 2291 934 1684 
z
" transform="scale(0.015625)"/>
       <path id="ArialMT-142" d="M 416 1794 
L 9 1450 
L 9 1944 
L 416 2288 
L 416 4581 
L 975 4581 
L 975 2763 
L 1397 3122 
L 1397 2631 
L 975 2272 
L 975 0 
L 416 0 
L 416 1794 
z
" transform="scale(0.015625)"/>
       <path id="ArialMT-119" d="M 2694 1069 
L 3275 997 
Q 3138 488 2766 206 
Q 2394 -75 1816 -75 
Q 1088 -75 661 373 
Q 234 822 234 1631 
Q 234 2469 665 2931 
Q 1097 3394 1784 3394 
Q 2450 3394 2872 2941 
Q 3294 2488 3294 1666 
Q 3294 1616 3291 1516 
L 816 1516 
Q 847 969 1125 678 
Q 1403 388 1819 388 
Q 2128 388 2347 550 
Q 2566 713 2694 1069 
z
M 847 1978 
L 2700 1978 
Q 2663 2397 2488 2606 
Q 2219 2931 1791 2931 
Q 1403 2931 1139 2672 
Q 875 2413 847 1978 
z
M 2297 0 
Q 2119 -109 2020 -270 
Q 1922 -431 1922 -597 
Q 1922 -728 1994 -818 
Q 2066 -909 2228 -909 
Q 2300 -909 2375 -889 
Q 2450 -869 2513 -834 
L 2513 -1234 
Q 2284 -1344 2088 -1344 
Q 1928 -1344 1809 -1298 
Q 1691 -1253 1611 -1173 
Q 1531 -1094 1492 -991 
Q 1453 -888 1453 -769 
Q 1453 -569 1565 -367 
Q 1678 -166 1884 0 
L 2297 0 
z
" transform="scale(0.015625)"/>
       <path id="ArialMT-64" d="M 2575 0 
L 2575 419 
Q 2259 -75 1647 -75 
Q 1250 -75 917 144 
Q 584 363 401 755 
Q 219 1147 219 1656 
Q 219 2153 384 2558 
Q 550 2963 881 3178 
Q 1213 3394 1622 3394 
Q 1922 3394 2156 3267 
Q 2391 3141 2538 2938 
L 2538 4581 
L 3097 4581 
L 3097 0 
L 2575 0 
z
M 797 1656 
Q 797 1019 1065 703 
Q 1334 388 1700 388 
Q 2069 388 2326 689 
Q 2584 991 2584 1609 
Q 2584 2291 2321 2609 
Q 2059 2928 1675 2928 
Q 1300 2928 1048 2622 
Q 797 2316 797 1656 
z
" transform="scale(0.015625)"/>
       <path id="ArialMT-75" d="M 2597 0 
L 2597 488 
Q 2209 -75 1544 -75 
Q 1250 -75 995 37 
Q 741 150 617 320 
Q 494 491 444 738 
Q 409 903 409 1263 
L 409 3319 
L 972 3319 
L 972 1478 
Q 972 1038 1006 884 
Q 1059 663 1231 536 
Q 1403 409 1656 409 
Q 1909 409 2131 539 
Q 2353 669 2445 892 
Q 2538 1116 2538 1541 
L 2538 3319 
L 3100 3319 
L 3100 0 
L 2597 0 
z
" transform="scale(0.015625)"/>
      </defs>
      <use xlink:href="#ArialMT-57"/>
      <use xlink:href="#ArialMT-61" x="90.634766"/>
      <use xlink:href="#ArialMT-72" x="146.25"/>
      <use xlink:href="#ArialMT-74" x="179.550781"/>
      <use xlink:href="#ArialMT-6f" x="207.333984"/>
      <use xlink:href="#ArialMT-15b" x="262.949219"/>
      <use xlink:href="#ArialMT-107" x="312.949219"/>
      <use xlink:href="#ArialMT-20" x="362.949219"/>
      <use xlink:href="#ArialMT-62" x="390.732422"/>
      <use xlink:href="#ArialMT-142" x="446.347656"/>
      <use xlink:href="#ArialMT-119" x="468.564453"/>
      <use xlink:href="#ArialMT-64" x="524.179688"/>
      <use xlink:href="#ArialMT-75" x="579.794922"/>
     </g>
    </g>
   </g>
   <g id="line2d_31">
    <path d="M 61.458807 36.896577 
L 62.988272 86.452422 
L 64.517738 103.51888 
L 66.047203 114.472947 
L 67.576669 123.341689 
L 69.106134 129.924296 
L 73.694531 147.526594 
L 75.223996 152.432094 
L 76.753462 156.787297 
L 78.282927 160.43281 
L 81.341858 166.082073 
L 82.871324 169.225191 
L 84.400789 171.00339 
L 85.930255 173.343948 
L 87.45972 176.580804 
L 88.989186 177.851096 
L 90.518651 178.965353 
L 92.048117 181.555113 
L 96.636514 185.0709 
L 98.165979 185.868741 
L 99.695445 187.116548 
L 101.22491 188.195135 
L 102.754376 188.133079 
L 104.283841 191.758277 
L 105.813307 192.832629 
L 107.342772 193.18169 
L 108.872238 197.303732 
L 110.401703 198.968221 
L 111.931169 202.486912 
L 113.460634 203.250793 
L 114.9901 203.827257 
L 116.519565 208.452617 
L 118.049031 209.155706 
L 119.578496 209.170024 
L 121.107962 209.378705 
L 122.637427 210.826305 
L 124.166893 211.078205 
L 125.696358 212.345835 
L 127.225824 212.611874 
L 128.755289 212.224297 
L 130.284755 213.348788 
L 133.343686 213.545688 
L 136.402617 213.760508 
L 137.932082 213.603689 
L 139.461548 213.599458 
L 140.991013 213.985262 
L 142.520479 213.982996 
L 144.049944 214.212443 
L 150.167806 214.469717 
L 153.226737 214.413745 
L 156.285668 214.617377 
L 163.932996 214.591255 
L 165.462461 214.66827 
L 166.991927 214.595589 
L 171.580323 214.659842 
L 306.173288 214.741608 
L 336.762599 214.726945 
L 353.586719 214.717593 
L 359.704581 214.7325 
L 365.822443 214.723839 
L 365.822443 214.723839 
" clip-path="url(#p515b4f1e68)" style="fill: none; stroke: #1f77b4; stroke-width: 1.5; stroke-linecap: round"/>
   </g>
   <g id="line2d_32">
    <path d="M 61.458807 19.330952 
L 62.988272 40.05264 
L 64.517738 49.198232 
L 66.047203 64.816255 
L 67.576669 74.334155 
L 69.106134 79.505621 
L 70.6356 82.787999 
L 73.694531 88.579568 
L 76.753462 94.498049 
L 78.282927 97.141878 
L 79.812393 100.956639 
L 81.341858 103.478057 
L 82.871324 105.628305 
L 84.400789 108.182798 
L 88.989186 114.23116 
L 90.518651 115.912353 
L 92.048117 118.018385 
L 93.577583 119.469121 
L 95.107048 121.69489 
L 96.636514 123.503335 
L 98.165979 125.822343 
L 101.22491 129.208794 
L 102.754376 131.368922 
L 105.813307 135.036656 
L 107.342772 137.232753 
L 108.872238 138.658823 
L 110.401703 141.012026 
L 111.931169 143.096366 
L 113.460634 144.757487 
L 116.519565 148.839964 
L 118.049031 150.66027 
L 119.578496 152.6569 
L 121.107962 154.25965 
L 122.637427 156.474267 
L 125.696358 160.163219 
L 127.225824 161.79828 
L 128.755289 163.647995 
L 130.284755 165.249421 
L 131.81422 167.118494 
L 133.343686 168.656117 
L 134.873151 170.770888 
L 136.402617 171.898989 
L 139.461548 175.863817 
L 140.991013 177.057114 
L 142.520479 178.711487 
L 144.049944 179.769338 
L 145.57941 181.224725 
L 147.108875 181.885395 
L 148.638341 184.253483 
L 150.167806 185.122789 
L 151.697272 186.462027 
L 153.226737 186.537986 
L 154.756203 188.544704 
L 156.285668 188.746646 
L 157.815134 190.226996 
L 159.344599 191.185399 
L 160.874065 191.503378 
L 162.40353 192.827276 
L 163.932996 193.108149 
L 165.462461 193.582861 
L 166.991927 196.246358 
L 168.521392 198.414959 
L 171.580323 200.513576 
L 173.109789 200.012674 
L 174.639255 202.237463 
L 177.698186 203.241748 
L 179.227651 203.760532 
L 180.757117 206.414284 
L 182.286582 206.108196 
L 183.816048 208.011391 
L 185.345513 209.508919 
L 186.874979 208.813029 
L 188.404444 210.014107 
L 191.463375 211.386895 
L 192.992841 211.764344 
L 196.051772 211.589691 
L 197.581237 212.45922 
L 199.110703 212.673359 
L 200.640168 212.683222 
L 202.169634 213.162789 
L 203.699099 213.121398 
L 205.228565 213.525912 
L 206.75803 213.624284 
L 208.287496 213.85155 
L 212.875892 213.761987 
L 214.405358 214.062097 
L 215.934823 214.082309 
L 217.464289 214.254816 
L 218.993754 214.21506 
L 222.052685 214.379974 
L 223.582151 214.290259 
L 226.641082 214.445394 
L 229.700013 214.268618 
L 231.229478 214.541512 
L 232.758944 214.582878 
L 234.288409 214.429332 
L 235.817875 214.561635 
L 241.935737 214.56405 
L 243.465202 214.622026 
L 244.994668 214.524295 
L 248.053599 214.607067 
L 315.350081 214.640087 
L 319.938478 214.684196 
L 326.05634 214.680005 
L 335.233133 214.695825 
L 345.939392 214.67742 
L 356.64565 214.687792 
L 359.704581 214.63445 
L 362.763512 214.685432 
L 365.822443 214.674304 
L 365.822443 214.674304 
" clip-path="url(#p515b4f1e68)" style="fill: none; stroke: #ff7f0e; stroke-width: 1.5; stroke-linecap: round"/>
   </g>
   <g id="line2d_33">
    <path d="M 61.458807 17.083636 
L 64.517738 17.205323 
L 75.223996 17.224441 
L 76.753462 17.388218 
L 78.282927 30.829368 
L 79.812393 40.00305 
L 81.341858 44.645296 
L 82.871324 47.445011 
L 84.400789 50.485435 
L 85.930255 65.96949 
L 87.45972 76.858984 
L 90.518651 110.361456 
L 92.048117 118.594261 
L 93.577583 125.679679 
L 96.636514 136.684724 
L 98.165979 140.854068 
L 101.22491 150.720891 
L 102.754376 154.765249 
L 104.283841 158.01222 
L 105.813307 161.557971 
L 107.342772 163.678523 
L 108.872238 166.33202 
L 110.401703 168.369816 
L 111.931169 169.941714 
L 113.460634 170.73664 
L 114.9901 174.552464 
L 116.519565 174.349842 
L 118.049031 179.807858 
L 119.578496 182.195688 
L 121.107962 182.261785 
L 122.637427 183.319512 
L 124.166893 184.923778 
L 125.696358 193.039325 
L 128.755289 196.023156 
L 130.284755 197.037999 
L 131.81422 200.420158 
L 133.343686 201.158836 
L 134.873151 203.097908 
L 136.402617 206.497133 
L 140.991013 207.841768 
L 142.520479 206.805548 
L 144.049944 209.754974 
L 145.57941 208.707458 
L 147.108875 210.899574 
L 148.638341 210.475728 
L 150.167806 212.022063 
L 151.697272 212.306041 
L 154.756203 213.294657 
L 156.285668 213.424583 
L 157.815134 213.427353 
L 160.874065 213.885792 
L 162.40353 213.6918 
L 163.932996 214.072622 
L 165.462461 214.184584 
L 166.991927 214.123056 
L 170.050858 214.384926 
L 171.580323 214.499348 
L 173.109789 214.426217 
L 180.757117 214.613562 
L 183.816048 214.597691 
L 186.874979 214.63704 
L 191.463375 214.665944 
L 222.052685 214.699752 
L 226.641082 214.655827 
L 229.700013 214.708221 
L 238.876806 214.671793 
L 304.643823 214.707119 
L 307.702754 214.699287 
L 313.820616 214.687686 
L 319.938478 214.690642 
L 365.822443 214.713546 
L 365.822443 214.713546 
" clip-path="url(#p515b4f1e68)" style="fill: none; stroke: #2ca02c; stroke-width: 1.5; stroke-linecap: round"/>
   </g>
   <g id="line2d_34">
    <path d="M 61.458807 59.036701 
L 62.988272 103.048221 
L 64.517738 115.944134 
L 66.047203 125.263627 
L 70.6356 144.716085 
L 72.165065 150.312124 
L 73.694531 154.873544 
L 78.282927 166.01356 
L 79.812393 168.066228 
L 81.341858 171.82694 
L 82.871324 173.751694 
L 85.930255 178.152048 
L 87.45972 179.33723 
L 88.989186 181.846398 
L 90.518651 183.167826 
L 92.048117 183.914103 
L 93.577583 184.914389 
L 95.107048 186.514507 
L 96.636514 187.173899 
L 98.165979 188.512105 
L 99.695445 189.668748 
L 101.22491 189.434304 
L 102.754376 193.974452 
L 104.283841 194.411868 
L 105.813307 197.238876 
L 107.342772 200.962208 
L 108.872238 202.258462 
L 110.401703 201.723337 
L 111.931169 203.646759 
L 113.460634 203.610323 
L 114.9901 206.015657 
L 116.519565 205.328666 
L 118.049031 209.316678 
L 119.578496 210.260306 
L 121.107962 209.815407 
L 122.637427 210.677321 
L 124.166893 212.391763 
L 125.696358 212.766844 
L 127.225824 212.284645 
L 128.755289 213.044527 
L 130.284755 213.001338 
L 131.81422 213.622286 
L 134.873151 214.043178 
L 136.402617 213.9733 
L 137.932082 214.236884 
L 140.991013 214.35676 
L 142.520479 214.366586 
L 144.049944 214.492864 
L 148.638341 214.572941 
L 156.285668 214.640431 
L 159.344599 214.659409 
L 173.109789 214.679272 
L 182.286582 214.719177 
L 188.404444 214.718815 
L 202.169634 214.735313 
L 208.287496 214.706449 
L 212.875892 214.721842 
L 232.758944 214.711088 
L 237.34734 214.716013 
L 267.936651 214.732284 
L 270.995582 214.708176 
L 281.70184 214.731311 
L 296.996495 214.734231 
L 310.761685 214.744081 
L 353.586719 214.732555 
L 365.822443 214.727875 
L 365.822443 214.727875 
" clip-path="url(#p515b4f1e68)" style="fill: none; stroke: #d62728; stroke-width: 1.5; stroke-linecap: round"/>
   </g>
   <g id="line2d_35">
    <path d="M 61.458807 70.423457 
L 62.988272 111.263812 
L 64.517738 122.136475 
L 67.576669 137.973965 
L 70.6356 150.63807 
L 73.694531 160.017315 
L 75.223996 163.460218 
L 76.753462 166.180198 
L 78.282927 169.866204 
L 79.812393 171.903359 
L 81.341858 174.854553 
L 82.871324 176.705129 
L 84.400789 178.981157 
L 85.930255 180.960881 
L 87.45972 182.091592 
L 88.989186 183.657926 
L 90.518651 184.079041 
L 92.048117 185.758099 
L 93.577583 186.639499 
L 95.107048 187.807555 
L 96.636514 188.183978 
L 98.165979 189.589265 
L 99.695445 189.161435 
L 101.22491 192.663708 
L 102.754376 193.363345 
L 104.283841 197.547223 
L 105.813307 198.115287 
L 108.872238 203.923367 
L 110.401703 203.779577 
L 111.931169 206.055542 
L 113.460634 207.020392 
L 114.9901 206.752386 
L 116.519565 208.429529 
L 118.049031 210.490554 
L 119.578496 211.108643 
L 121.107962 211.846838 
L 122.637427 212.401171 
L 124.166893 212.288966 
L 125.696358 213.17627 
L 128.755289 213.283919 
L 130.284755 213.641863 
L 131.81422 213.594342 
L 133.343686 213.888819 
L 134.873151 214.306435 
L 136.402617 213.959606 
L 137.932082 214.31113 
L 139.461548 214.453957 
L 140.991013 214.342069 
L 142.520479 214.518224 
L 159.344599 214.698429 
L 162.40353 214.666962 
L 170.050858 214.679376 
L 208.287496 214.715738 
L 222.052685 214.707071 
L 228.170547 214.712658 
L 240.406271 214.730985 
L 243.465202 214.699838 
L 264.87772 214.734538 
L 270.995582 214.702132 
L 289.349168 214.714438 
L 293.937564 214.681645 
L 298.525961 214.724454 
L 307.702754 214.733682 
L 339.82153 214.725238 
L 350.527788 214.707771 
L 353.586719 214.722904 
L 361.234047 214.7055 
L 365.822443 214.727958 
L 365.822443 214.727958 
" clip-path="url(#p515b4f1e68)" style="fill: none; stroke: #9467bd; stroke-width: 1.5; stroke-linecap: round"/>
   </g>
   <g id="line2d_36">
    <path d="M 61.458807 75.21848 
L 62.988272 112.084562 
L 64.517738 125.361844 
L 66.047203 136.055182 
L 67.576669 144.463358 
L 69.106134 151.707802 
L 70.6356 155.955781 
L 72.165065 160.722917 
L 75.223996 168.521104 
L 76.753462 170.998752 
L 78.282927 174.351129 
L 79.812393 176.106696 
L 81.341858 177.551872 
L 82.871324 180.069476 
L 85.930255 183.32092 
L 87.45972 184.661024 
L 88.989186 186.322085 
L 90.518651 187.330683 
L 92.048117 187.698716 
L 93.577583 191.002483 
L 95.107048 190.772604 
L 98.165979 197.164961 
L 99.695445 201.325083 
L 101.22491 204.291412 
L 102.754376 205.150476 
L 104.283841 203.957813 
L 105.813307 208.312112 
L 107.342772 209.421762 
L 108.872238 209.14626 
L 110.401703 210.070902 
L 111.931169 210.199468 
L 113.460634 212.256691 
L 114.9901 212.052064 
L 116.519565 212.616006 
L 118.049031 212.929587 
L 119.578496 213.527178 
L 122.637427 213.847674 
L 124.166893 213.880442 
L 125.696358 214.269223 
L 127.225824 214.173007 
L 130.284755 214.442511 
L 131.81422 214.502176 
L 133.343686 214.397113 
L 134.873151 214.619388 
L 136.402617 214.515073 
L 140.991013 214.600732 
L 150.167806 214.714325 
L 153.226737 214.699951 
L 171.580323 214.679395 
L 188.404444 214.739709 
L 192.992841 214.679794 
L 200.640168 214.724065 
L 258.759858 214.699918 
L 266.407185 214.658869 
L 267.936651 214.735559 
L 272.525047 214.687526 
L 277.113444 214.726594 
L 365.822443 214.711439 
L 365.822443 214.711439 
" clip-path="url(#p515b4f1e68)" style="fill: none; stroke: #8c564b; stroke-width: 1.5; stroke-linecap: round"/>
   </g>
   <g id="line2d_37">
    <path d="M 61.458807 175.682701 
L 69.106134 180.57362 
L 72.165065 182.766473 
L 76.753462 186.388677 
L 79.812393 188.532151 
L 81.341858 189.293706 
L 82.871324 189.914572 
L 95.107048 192.599201 
L 99.695445 193.187407 
L 108.872238 195.134788 
L 113.460634 196.119647 
L 116.519565 196.685313 
L 119.578496 197.176902 
L 121.107962 197.619186 
L 122.637427 197.758307 
L 124.166893 198.076232 
L 128.755289 198.634564 
L 130.284755 198.996496 
L 144.049944 200.892369 
L 145.57941 201.333766 
L 151.697272 202.277016 
L 153.226737 202.732022 
L 157.815134 203.09317 
L 159.344599 203.60506 
L 160.874065 203.655138 
L 162.40353 204.101362 
L 163.932996 204.37683 
L 166.991927 204.659197 
L 170.050858 205.444268 
L 171.580323 205.572582 
L 176.16872 206.357575 
L 177.698186 206.455711 
L 179.227651 206.957742 
L 180.757117 207.088275 
L 182.286582 207.520983 
L 183.816048 207.724555 
L 186.874979 208.374758 
L 188.404444 208.861319 
L 191.463375 209.384855 
L 192.992841 209.446869 
L 194.522306 210.021236 
L 196.051772 209.994515 
L 199.110703 210.922979 
L 202.169634 211.038891 
L 203.699099 211.469896 
L 206.75803 211.734718 
L 208.287496 212.194316 
L 212.875892 212.432298 
L 214.405358 212.998299 
L 215.934823 212.851592 
L 217.464289 212.83664 
L 222.052685 213.350261 
L 223.582151 213.334361 
L 225.111616 213.46147 
L 226.641082 213.401526 
L 229.700013 213.583256 
L 235.817875 213.658987 
L 238.876806 213.862475 
L 243.465202 213.755723 
L 244.994668 213.928177 
L 248.053599 213.763425 
L 249.583064 214.02625 
L 258.759858 214.120435 
L 260.289323 213.876712 
L 264.87772 214.258198 
L 266.407185 214.136197 
L 267.936651 214.279627 
L 269.466116 214.117381 
L 270.995582 214.299233 
L 272.525047 213.926795 
L 274.054513 214.256786 
L 275.583978 214.012075 
L 277.113444 213.990826 
L 280.172375 214.173934 
L 281.70184 213.88276 
L 283.231306 214.067497 
L 284.760771 213.788519 
L 286.290237 214.025424 
L 287.819702 213.929818 
L 289.349168 214.119841 
L 292.408099 214.176559 
L 293.937564 214.064505 
L 298.525961 214.209867 
L 300.055426 213.931411 
L 301.584892 214.171331 
L 306.173288 214.200219 
L 307.702754 214.079894 
L 312.29115 214.166094 
L 313.820616 214.190557 
L 316.879547 214.017085 
L 319.938478 214.213829 
L 327.585805 214.148231 
L 330.644736 214.041778 
L 332.174202 214.283872 
L 333.703667 214.280079 
L 335.233133 214.086378 
L 336.762599 214.211554 
L 338.292064 214.183742 
L 339.82153 214.324763 
L 341.350995 214.085084 
L 345.939392 214.120168 
L 352.057254 213.970111 
L 353.586719 214.182728 
L 358.175116 214.202489 
L 359.704581 214.11201 
L 361.234047 214.301014 
L 362.763512 214.145558 
L 364.292978 214.368365 
L 365.822443 214.212989 
L 365.822443 214.212989 
" clip-path="url(#p515b4f1e68)" style="fill: none; stroke: #e377c2; stroke-width: 1.5; stroke-linecap: round"/>
   </g>
   <g id="patch_3">
    <path d="M 46.240625 224.64 
L 46.240625 7.2 
" style="fill: none; stroke: #cccccc; stroke-linejoin: miter; stroke-linecap: square"/>
   </g>
   <g id="patch_4">
    <path d="M 381.040625 224.64 
L 381.040625 7.2 
" style="fill: none; stroke: #cccccc; stroke-linejoin: miter; stroke-linecap: square"/>
   </g>
   <g id="patch_5">
    <path d="M 46.240625 224.64 
L 381.040625 224.64 
" style="fill: none; stroke: #cccccc; stroke-linejoin: miter; stroke-linecap: square"/>
   </g>
   <g id="patch_6">
    <path d="M 46.240625 7.2 
L 381.040625 7.2 
" style="fill: none; stroke: #cccccc; stroke-linejoin: miter; stroke-linecap: square"/>
   </g>
   <g id="legend_1">
    <g id="line2d_38">
     <path d="M 247.890625 19.979687 
L 257.890625 19.979687 
L 267.890625 19.979687 
" style="fill: none; stroke: #1f77b4; stroke-width: 1.5; stroke-linecap: round"/>
    </g>
    <g id="text_18">
     <!-- xavier_uniform -->
     <g style="fill: #262626" transform="translate(275.890625 23.479687)scale(0.1 -0.1)">
      <defs>
       <path id="ArialMT-78" d="M 47 0 
L 1259 1725 
L 138 3319 
L 841 3319 
L 1350 2541 
Q 1494 2319 1581 2169 
Q 1719 2375 1834 2534 
L 2394 3319 
L 3066 3319 
L 1919 1756 
L 3153 0 
L 2463 0 
L 1781 1031 
L 1600 1309 
L 728 0 
L 47 0 
z
" transform="scale(0.015625)"/>
       <path id="ArialMT-76" d="M 1344 0 
L 81 3319 
L 675 3319 
L 1388 1331 
Q 1503 1009 1600 663 
Q 1675 925 1809 1294 
L 2547 3319 
L 3125 3319 
L 1869 0 
L 1344 0 
z
" transform="scale(0.015625)"/>
       <path id="ArialMT-69" d="M 425 3934 
L 425 4581 
L 988 4581 
L 988 3934 
L 425 3934 
z
M 425 0 
L 425 3319 
L 988 3319 
L 988 0 
L 425 0 
z
" transform="scale(0.015625)"/>
       <path id="ArialMT-65" d="M 2694 1069 
L 3275 997 
Q 3138 488 2766 206 
Q 2394 -75 1816 -75 
Q 1088 -75 661 373 
Q 234 822 234 1631 
Q 234 2469 665 2931 
Q 1097 3394 1784 3394 
Q 2450 3394 2872 2941 
Q 3294 2488 3294 1666 
Q 3294 1616 3291 1516 
L 816 1516 
Q 847 969 1125 678 
Q 1403 388 1819 388 
Q 2128 388 2347 550 
Q 2566 713 2694 1069 
z
M 847 1978 
L 2700 1978 
Q 2663 2397 2488 2606 
Q 2219 2931 1791 2931 
Q 1403 2931 1139 2672 
Q 875 2413 847 1978 
z
" transform="scale(0.015625)"/>
       <path id="ArialMT-5f" d="M -97 -1272 
L -97 -866 
L 3631 -866 
L 3631 -1272 
L -97 -1272 
z
" transform="scale(0.015625)"/>
       <path id="ArialMT-6e" d="M 422 0 
L 422 3319 
L 928 3319 
L 928 2847 
Q 1294 3394 1984 3394 
Q 2284 3394 2536 3286 
Q 2788 3178 2913 3003 
Q 3038 2828 3088 2588 
Q 3119 2431 3119 2041 
L 3119 0 
L 2556 0 
L 2556 2019 
Q 2556 2363 2490 2533 
Q 2425 2703 2258 2804 
Q 2091 2906 1866 2906 
Q 1506 2906 1245 2678 
Q 984 2450 984 1813 
L 984 0 
L 422 0 
z
" transform="scale(0.015625)"/>
       <path id="ArialMT-66" d="M 556 0 
L 556 2881 
L 59 2881 
L 59 3319 
L 556 3319 
L 556 3672 
Q 556 4006 616 4169 
Q 697 4388 901 4523 
Q 1106 4659 1475 4659 
Q 1713 4659 2000 4603 
L 1916 4113 
Q 1741 4144 1584 4144 
Q 1328 4144 1222 4034 
Q 1116 3925 1116 3625 
L 1116 3319 
L 1763 3319 
L 1763 2881 
L 1116 2881 
L 1116 0 
L 556 0 
z
" transform="scale(0.015625)"/>
       <path id="ArialMT-6d" d="M 422 0 
L 422 3319 
L 925 3319 
L 925 2853 
Q 1081 3097 1340 3245 
Q 1600 3394 1931 3394 
Q 2300 3394 2536 3241 
Q 2772 3088 2869 2813 
Q 3263 3394 3894 3394 
Q 4388 3394 4653 3120 
Q 4919 2847 4919 2278 
L 4919 0 
L 4359 0 
L 4359 2091 
Q 4359 2428 4304 2576 
Q 4250 2725 4106 2815 
Q 3963 2906 3769 2906 
Q 3419 2906 3187 2673 
Q 2956 2441 2956 1928 
L 2956 0 
L 2394 0 
L 2394 2156 
Q 2394 2531 2256 2718 
Q 2119 2906 1806 2906 
Q 1569 2906 1367 2781 
Q 1166 2656 1075 2415 
Q 984 2175 984 1722 
L 984 0 
L 422 0 
z
" transform="scale(0.015625)"/>
      </defs>
      <use xlink:href="#ArialMT-78"/>
      <use xlink:href="#ArialMT-61" x="50"/>
      <use xlink:href="#ArialMT-76" x="105.615234"/>
      <use xlink:href="#ArialMT-69" x="155.615234"/>
      <use xlink:href="#ArialMT-65" x="177.832031"/>
      <use xlink:href="#ArialMT-72" x="233.447266"/>
      <use xlink:href="#ArialMT-5f" x="266.748047"/>
      <use xlink:href="#ArialMT-75" x="322.363281"/>
      <use xlink:href="#ArialMT-6e" x="377.978516"/>
      <use xlink:href="#ArialMT-69" x="433.59375"/>
      <use xlink:href="#ArialMT-66" x="455.810547"/>
      <use xlink:href="#ArialMT-6f" x="483.59375"/>
      <use xlink:href="#ArialMT-72" x="539.208984"/>
      <use xlink:href="#ArialMT-6d" x="572.509766"/>
     </g>
    </g>
    <g id="line2d_39">
     <path d="M 247.890625 34.246875 
L 257.890625 34.246875 
L 267.890625 34.246875 
" style="fill: none; stroke: #ff7f0e; stroke-width: 1.5; stroke-linecap: round"/>
    </g>
    <g id="text_19">
     <!-- xavier_uniform_M_1 -->
     <g style="fill: #262626" transform="translate(275.890625 37.746875)scale(0.1 -0.1)">
      <defs>
       <path id="ArialMT-4d" d="M 475 0 
L 475 4581 
L 1388 4581 
L 2472 1338 
Q 2622 884 2691 659 
Q 2769 909 2934 1394 
L 4031 4581 
L 4847 4581 
L 4847 0 
L 4263 0 
L 4263 3834 
L 2931 0 
L 2384 0 
L 1059 3900 
L 1059 0 
L 475 0 
z
" transform="scale(0.015625)"/>
      </defs>
      <use xlink:href="#ArialMT-78"/>
      <use xlink:href="#ArialMT-61" x="50"/>
      <use xlink:href="#ArialMT-76" x="105.615234"/>
      <use xlink:href="#ArialMT-69" x="155.615234"/>
      <use xlink:href="#ArialMT-65" x="177.832031"/>
      <use xlink:href="#ArialMT-72" x="233.447266"/>
      <use xlink:href="#ArialMT-5f" x="266.748047"/>
      <use xlink:href="#ArialMT-75" x="322.363281"/>
      <use xlink:href="#ArialMT-6e" x="377.978516"/>
      <use xlink:href="#ArialMT-69" x="433.59375"/>
      <use xlink:href="#ArialMT-66" x="455.810547"/>
      <use xlink:href="#ArialMT-6f" x="483.59375"/>
      <use xlink:href="#ArialMT-72" x="539.208984"/>
      <use xlink:href="#ArialMT-6d" x="572.509766"/>
      <use xlink:href="#ArialMT-5f" x="655.810547"/>
      <use xlink:href="#ArialMT-4d" x="711.425781"/>
      <use xlink:href="#ArialMT-5f" x="794.726562"/>
      <use xlink:href="#ArialMT-31" x="850.341797"/>
     </g>
    </g>
    <g id="line2d_40">
     <path d="M 247.890625 48.514062 
L 257.890625 48.514062 
L 267.890625 48.514062 
" style="fill: none; stroke: #2ca02c; stroke-width: 1.5; stroke-linecap: round"/>
    </g>
    <g id="text_20">
     <!-- xavier_uniform_M_2 -->
     <g style="fill: #262626" transform="translate(275.890625 52.014062)scale(0.1 -0.1)">
      <use xlink:href="#ArialMT-78"/>
      <use xlink:href="#ArialMT-61" x="50"/>
      <use xlink:href="#ArialMT-76" x="105.615234"/>
      <use xlink:href="#ArialMT-69" x="155.615234"/>
      <use xlink:href="#ArialMT-65" x="177.832031"/>
      <use xlink:href="#ArialMT-72" x="233.447266"/>
      <use xlink:href="#ArialMT-5f" x="266.748047"/>
      <use xlink:href="#ArialMT-75" x="322.363281"/>
      <use xlink:href="#ArialMT-6e" x="377.978516"/>
      <use xlink:href="#ArialMT-69" x="433.59375"/>
      <use xlink:href="#ArialMT-66" x="455.810547"/>
      <use xlink:href="#ArialMT-6f" x="483.59375"/>
      <use xlink:href="#ArialMT-72" x="539.208984"/>
      <use xlink:href="#ArialMT-6d" x="572.509766"/>
      <use xlink:href="#ArialMT-5f" x="655.810547"/>
      <use xlink:href="#ArialMT-4d" x="711.425781"/>
      <use xlink:href="#ArialMT-5f" x="794.726562"/>
      <use xlink:href="#ArialMT-32" x="850.341797"/>
     </g>
    </g>
    <g id="line2d_41">
     <path d="M 247.890625 62.78125 
L 257.890625 62.78125 
L 267.890625 62.78125 
" style="fill: none; stroke: #d62728; stroke-width: 1.5; stroke-linecap: round"/>
    </g>
    <g id="text_21">
     <!-- xavier_uniform_M_10 -->
     <g style="fill: #262626" transform="translate(275.890625 66.28125)scale(0.1 -0.1)">
      <use xlink:href="#ArialMT-78"/>
      <use xlink:href="#ArialMT-61" x="50"/>
      <use xlink:href="#ArialMT-76" x="105.615234"/>
      <use xlink:href="#ArialMT-69" x="155.615234"/>
      <use xlink:href="#ArialMT-65" x="177.832031"/>
      <use xlink:href="#ArialMT-72" x="233.447266"/>
      <use xlink:href="#ArialMT-5f" x="266.748047"/>
      <use xlink:href="#ArialMT-75" x="322.363281"/>
      <use xlink:href="#ArialMT-6e" x="377.978516"/>
      <use xlink:href="#ArialMT-69" x="433.59375"/>
      <use xlink:href="#ArialMT-66" x="455.810547"/>
      <use xlink:href="#ArialMT-6f" x="483.59375"/>
      <use xlink:href="#ArialMT-72" x="539.208984"/>
      <use xlink:href="#ArialMT-6d" x="572.509766"/>
      <use xlink:href="#ArialMT-5f" x="655.810547"/>
      <use xlink:href="#ArialMT-4d" x="711.425781"/>
      <use xlink:href="#ArialMT-5f" x="794.726562"/>
      <use xlink:href="#ArialMT-31" x="850.341797"/>
      <use xlink:href="#ArialMT-30" x="905.957031"/>
     </g>
    </g>
    <g id="line2d_42">
     <path d="M 247.890625 77.048437 
L 257.890625 77.048437 
L 267.890625 77.048437 
" style="fill: none; stroke: #9467bd; stroke-width: 1.5; stroke-linecap: round"/>
    </g>
    <g id="text_22">
     <!-- xavier_uniform_M_14 -->
     <g style="fill: #262626" transform="translate(275.890625 80.548437)scale(0.1 -0.1)">
      <defs>
       <path id="ArialMT-34" d="M 2069 0 
L 2069 1097 
L 81 1097 
L 81 1613 
L 2172 4581 
L 2631 4581 
L 2631 1613 
L 3250 1613 
L 3250 1097 
L 2631 1097 
L 2631 0 
L 2069 0 
z
M 2069 1613 
L 2069 3678 
L 634 1613 
L 2069 1613 
z
" transform="scale(0.015625)"/>
      </defs>
      <use xlink:href="#ArialMT-78"/>
      <use xlink:href="#ArialMT-61" x="50"/>
      <use xlink:href="#ArialMT-76" x="105.615234"/>
      <use xlink:href="#ArialMT-69" x="155.615234"/>
      <use xlink:href="#ArialMT-65" x="177.832031"/>
      <use xlink:href="#ArialMT-72" x="233.447266"/>
      <use xlink:href="#ArialMT-5f" x="266.748047"/>
      <use xlink:href="#ArialMT-75" x="322.363281"/>
      <use xlink:href="#ArialMT-6e" x="377.978516"/>
      <use xlink:href="#ArialMT-69" x="433.59375"/>
      <use xlink:href="#ArialMT-66" x="455.810547"/>
      <use xlink:href="#ArialMT-6f" x="483.59375"/>
      <use xlink:href="#ArialMT-72" x="539.208984"/>
      <use xlink:href="#ArialMT-6d" x="572.509766"/>
      <use xlink:href="#ArialMT-5f" x="655.810547"/>
      <use xlink:href="#ArialMT-4d" x="711.425781"/>
      <use xlink:href="#ArialMT-5f" x="794.726562"/>
      <use xlink:href="#ArialMT-31" x="850.341797"/>
      <use xlink:href="#ArialMT-34" x="905.957031"/>
     </g>
    </g>
    <g id="line2d_43">
     <path d="M 247.890625 91.315625 
L 257.890625 91.315625 
L 267.890625 91.315625 
" style="fill: none; stroke: #8c564b; stroke-width: 1.5; stroke-linecap: round"/>
    </g>
    <g id="text_23">
     <!-- xavier_uniform_M_20 -->
     <g style="fill: #262626" transform="translate(275.890625 94.815625)scale(0.1 -0.1)">
      <use xlink:href="#ArialMT-78"/>
      <use xlink:href="#ArialMT-61" x="50"/>
      <use xlink:href="#ArialMT-76" x="105.615234"/>
      <use xlink:href="#ArialMT-69" x="155.615234"/>
      <use xlink:href="#ArialMT-65" x="177.832031"/>
      <use xlink:href="#ArialMT-72" x="233.447266"/>
      <use xlink:href="#ArialMT-5f" x="266.748047"/>
      <use xlink:href="#ArialMT-75" x="322.363281"/>
      <use xlink:href="#ArialMT-6e" x="377.978516"/>
      <use xlink:href="#ArialMT-69" x="433.59375"/>
      <use xlink:href="#ArialMT-66" x="455.810547"/>
      <use xlink:href="#ArialMT-6f" x="483.59375"/>
      <use xlink:href="#ArialMT-72" x="539.208984"/>
      <use xlink:href="#ArialMT-6d" x="572.509766"/>
      <use xlink:href="#ArialMT-5f" x="655.810547"/>
      <use xlink:href="#ArialMT-4d" x="711.425781"/>
      <use xlink:href="#ArialMT-5f" x="794.726562"/>
      <use xlink:href="#ArialMT-32" x="850.341797"/>
      <use xlink:href="#ArialMT-30" x="905.957031"/>
     </g>
    </g>
    <g id="line2d_44">
     <path d="M 247.890625 105.582812 
L 257.890625 105.582812 
L 267.890625 105.582812 
" style="fill: none; stroke: #e377c2; stroke-width: 1.5; stroke-linecap: round"/>
    </g>
    <g id="text_24">
     <!-- kaiming_uniform -->
     <g style="fill: #262626" transform="translate(275.890625 109.082812)scale(0.1 -0.1)">
      <defs>
       <path id="ArialMT-67" d="M 319 -275 
L 866 -356 
Q 900 -609 1056 -725 
Q 1266 -881 1628 -881 
Q 2019 -881 2231 -725 
Q 2444 -569 2519 -288 
Q 2563 -116 2559 434 
Q 2191 0 1641 0 
Q 956 0 581 494 
Q 206 988 206 1678 
Q 206 2153 378 2554 
Q 550 2956 876 3175 
Q 1203 3394 1644 3394 
Q 2231 3394 2613 2919 
L 2613 3319 
L 3131 3319 
L 3131 450 
Q 3131 -325 2973 -648 
Q 2816 -972 2473 -1159 
Q 2131 -1347 1631 -1347 
Q 1038 -1347 672 -1080 
Q 306 -813 319 -275 
z
M 784 1719 
Q 784 1066 1043 766 
Q 1303 466 1694 466 
Q 2081 466 2343 764 
Q 2606 1063 2606 1700 
Q 2606 2309 2336 2618 
Q 2066 2928 1684 2928 
Q 1309 2928 1046 2623 
Q 784 2319 784 1719 
z
" transform="scale(0.015625)"/>
      </defs>
      <use xlink:href="#ArialMT-6b"/>
      <use xlink:href="#ArialMT-61" x="50"/>
      <use xlink:href="#ArialMT-69" x="105.615234"/>
      <use xlink:href="#ArialMT-6d" x="127.832031"/>
      <use xlink:href="#ArialMT-69" x="211.132812"/>
      <use xlink:href="#ArialMT-6e" x="233.349609"/>
      <use xlink:href="#ArialMT-67" x="288.964844"/>
      <use xlink:href="#ArialMT-5f" x="344.580078"/>
      <use xlink:href="#ArialMT-75" x="400.195312"/>
      <use xlink:href="#ArialMT-6e" x="455.810547"/>
      <use xlink:href="#ArialMT-69" x="511.425781"/>
      <use xlink:href="#ArialMT-66" x="533.642578"/>
      <use xlink:href="#ArialMT-6f" x="561.425781"/>
      <use xlink:href="#ArialMT-72" x="617.041016"/>
      <use xlink:href="#ArialMT-6d" x="650.341797"/>
     </g>
    </g>
   </g>
  </g>
 </g>
 <defs>
  <clipPath id="p515b4f1e68">
   <rect x="46.240625" y="7.2" width="334.8" height="217.44"/>
  </clipPath>
 </defs>
</svg>
